<svg version="1.1" xmlns="http://www.w3.org/2000/svg" viewBox="0 0 185.780054638788 105.83486001154961" width="185.780054638788" height="105.83486001154961">
  <!-- svg-source:excalidraw -->
  
  <defs>
    <style class="style-fonts">
      @font-face {
        font-family: "Virgil";
        src: url("https://excalidraw.com/Virgil.woff2");
      }
      @font-face {
        font-family: "Cascadia";
        src: url("https://excalidraw.com/Cascadia.woff2");
      }
      @font-face {
        font-family: "Assistant";
        src: url("https://excalidraw.com/Assistant-Regular.woff2");
      }
    </style>
    
  </defs>
  <g stroke-linecap="round" transform="translate(28.499894177706665 37.56332189434761) rotate(0 19.82400316355688 20.05783184030406)"><path d="M39.65 20.06 C39.65 21.22, 39.55 22.4, 39.35 23.54 C39.15 24.68, 38.84 25.83, 38.45 26.92 C38.06 28.01, 37.57 29.08, 36.99 30.09 C36.42 31.09, 35.75 32.06, 35.01 32.95 C34.27 33.84, 33.45 34.68, 32.57 35.42 C31.69 36.17, 30.73 36.85, 29.74 37.43 C28.74 38.01, 27.68 38.51, 26.6 38.91 C25.53 39.3, 24.4 39.61, 23.27 39.81 C22.14 40.01, 20.97 40.12, 19.82 40.12 C18.68 40.12, 17.51 40.01, 16.38 39.81 C15.25 39.61, 14.12 39.3, 13.04 38.91 C11.97 38.51, 10.91 38.01, 9.91 37.43 C8.92 36.85, 7.96 36.17, 7.08 35.42 C6.2 34.68, 5.38 33.84, 4.64 32.95 C3.9 32.06, 3.23 31.09, 2.66 30.09 C2.08 29.08, 1.59 28.01, 1.2 26.92 C0.8 25.83, 0.5 24.68, 0.3 23.54 C0.1 22.4, 0 21.22, 0 20.06 C0 18.9, 0.1 17.72, 0.3 16.57 C0.5 15.43, 0.8 14.29, 1.2 13.2 C1.59 12.11, 2.08 11.03, 2.66 10.03 C3.23 9.02, 3.9 8.05, 4.64 7.16 C5.38 6.28, 6.2 5.44, 7.08 4.69 C7.96 3.95, 8.92 3.27, 9.91 2.69 C10.91 2.11, 11.97 1.61, 13.04 1.21 C14.12 0.81, 15.25 0.51, 16.38 0.3 C17.51 0.1, 18.68 0, 19.82 0 C20.97 0, 22.14 0.1, 23.27 0.3 C24.4 0.51, 25.53 0.81, 26.6 1.21 C27.68 1.61, 28.74 2.11, 29.74 2.69 C30.73 3.27, 31.69 3.95, 32.57 4.69 C33.45 5.44, 34.27 6.28, 35.01 7.16 C35.75 8.05, 36.42 9.02, 36.99 10.03 C37.57 11.03, 38.06 12.11, 38.45 13.2 C38.84 14.29, 39.15 15.43, 39.35 16.57 C39.55 17.72, 39.6 19.48, 39.65 20.06 C39.7 20.64, 39.7 19.48, 39.65 20.06" stroke="#1e1e1e" stroke-width="4" fill="none"></path></g><g stroke-linecap="round" transform="translate(50.898155724693424 10) rotate(0 20.713810962402476 20.713015644021652)"><path d="M41.43 20.71 C41.43 21.91, 41.32 23.13, 41.11 24.31 C40.9 25.49, 40.59 26.67, 40.18 27.8 C39.77 28.92, 39.25 30.03, 38.65 31.07 C38.05 32.11, 37.35 33.11, 36.58 34.03 C35.81 34.95, 34.95 35.81, 34.03 36.58 C33.11 37.35, 32.11 38.05, 31.07 38.65 C30.03 39.25, 28.93 39.77, 27.8 40.18 C26.67 40.59, 25.49 40.9, 24.31 41.11 C23.13 41.32, 21.91 41.43, 20.71 41.43 C19.51 41.43, 18.3 41.32, 17.12 41.11 C15.94 40.9, 14.76 40.59, 13.63 40.18 C12.5 39.77, 11.4 39.25, 10.36 38.65 C9.32 38.05, 8.32 37.35, 7.4 36.58 C6.48 35.81, 5.62 34.95, 4.85 34.03 C4.08 33.11, 3.37 32.11, 2.78 31.07 C2.18 30.03, 1.66 28.92, 1.25 27.8 C0.84 26.67, 0.52 25.49, 0.31 24.31 C0.11 23.13, 0 21.91, 0 20.71 C0 19.51, 0.11 18.3, 0.31 17.12 C0.52 15.94, 0.84 14.76, 1.25 13.63 C1.66 12.5, 2.18 11.39, 2.78 10.36 C3.37 9.32, 4.08 8.32, 4.85 7.4 C5.62 6.48, 6.48 5.62, 7.4 4.85 C8.32 4.08, 9.32 3.37, 10.36 2.78 C11.4 2.18, 12.5 1.66, 13.63 1.25 C14.76 0.84, 15.94 0.52, 17.12 0.31 C18.3 0.11, 19.51 0, 20.71 0 C21.91 0, 23.13 0.11, 24.31 0.31 C25.49 0.52, 26.67 0.84, 27.8 1.25 C28.93 1.66, 30.03 2.18, 31.07 2.78 C32.11 3.37, 33.11 4.08, 34.03 4.85 C34.95 5.62, 35.81 6.48, 36.58 7.4 C37.35 8.32, 38.05 9.32, 38.65 10.36 C39.25 11.39, 39.77 12.5, 40.18 13.63 C40.59 14.76, 40.9 15.94, 41.11 17.12 C41.32 18.3, 41.38 20.11, 41.43 20.71 C41.48 21.31, 41.48 20.11, 41.43 20.71" stroke="#1e1e1e" stroke-width="4" fill="none"></path></g><g stroke-linecap="round" transform="translate(56.01141578961051 45.519144367388435) rotate(0 19.82400316355688 20.713015644021652)"><path d="M39.65 20.71 C39.65 21.91, 39.55 23.13, 39.35 24.31 C39.15 25.49, 38.84 26.67, 38.45 27.8 C38.06 28.92, 37.57 30.03, 36.99 31.07 C36.42 32.11, 35.75 33.11, 35.01 34.03 C34.27 34.95, 33.45 35.81, 32.57 36.58 C31.69 37.35, 30.73 38.05, 29.74 38.65 C28.74 39.25, 27.68 39.77, 26.6 40.18 C25.53 40.59, 24.4 40.9, 23.27 41.11 C22.14 41.32, 20.97 41.43, 19.82 41.43 C18.68 41.43, 17.51 41.32, 16.38 41.11 C15.25 40.9, 14.12 40.59, 13.04 40.18 C11.97 39.77, 10.91 39.25, 9.91 38.65 C8.92 38.05, 7.96 37.35, 7.08 36.58 C6.2 35.81, 5.38 34.95, 4.64 34.03 C3.9 33.11, 3.23 32.11, 2.66 31.07 C2.08 30.03, 1.59 28.92, 1.2 27.8 C0.8 26.67, 0.5 25.49, 0.3 24.31 C0.1 23.13, 0 21.91, 0 20.71 C0 19.51, 0.1 18.3, 0.3 17.12 C0.5 15.94, 0.8 14.76, 1.2 13.63 C1.59 12.5, 2.08 11.39, 2.66 10.36 C3.23 9.32, 3.9 8.32, 4.64 7.4 C5.38 6.48, 6.2 5.62, 7.08 4.85 C7.96 4.08, 8.92 3.37, 9.91 2.78 C10.91 2.18, 11.97 1.66, 13.04 1.25 C14.12 0.84, 15.25 0.52, 16.38 0.31 C17.51 0.11, 18.68 0, 19.82 0 C20.97 0, 22.14 0.11, 23.27 0.31 C24.4 0.52, 25.53 0.84, 26.6 1.25 C27.68 1.66, 28.74 2.18, 29.74 2.78 C30.73 3.37, 31.69 4.08, 32.57 4.85 C33.45 5.62, 34.27 6.48, 35.01 7.4 C35.75 8.32, 36.42 9.32, 36.99 10.36 C37.57 11.39, 38.06 12.5, 38.45 13.63 C38.84 14.76, 39.15 15.94, 39.35 17.12 C39.55 18.3, 39.6 20.11, 39.65 20.71 C39.7 21.31, 39.7 20.11, 39.65 20.71" stroke="#1e1e1e" stroke-width="4" fill="none"></path></g><g stroke-linecap="round" transform="translate(85.5008122082354 23.010639621505106) rotate(0 19.48245872380494 20.599032044556225)"><path d="M38.96 20.6 C38.96 21.79, 38.86 23, 38.67 24.18 C38.47 25.35, 38.18 26.52, 37.79 27.64 C37.4 28.76, 36.92 29.87, 36.35 30.9 C35.79 31.93, 35.13 32.93, 34.41 33.84 C33.68 34.75, 32.87 35.61, 32.01 36.38 C31.14 37.15, 30.2 37.84, 29.22 38.44 C28.25 39.03, 27.21 39.55, 26.15 39.96 C25.09 40.36, 23.98 40.68, 22.87 40.89 C21.75 41.09, 20.61 41.2, 19.48 41.2 C18.35 41.2, 17.21 41.09, 16.1 40.89 C14.99 40.68, 13.88 40.36, 12.82 39.96 C11.76 39.55, 10.72 39.03, 9.74 38.44 C8.76 37.84, 7.82 37.15, 6.96 36.38 C6.1 35.61, 5.28 34.75, 4.56 33.84 C3.83 32.93, 3.17 31.93, 2.61 30.9 C2.05 29.87, 1.56 28.76, 1.17 27.64 C0.79 26.52, 0.49 25.35, 0.3 24.18 C0.1 23, 0 21.79, 0 20.6 C0 19.41, 0.1 18.2, 0.3 17.02 C0.49 15.85, 0.79 14.67, 1.17 13.55 C1.56 12.43, 2.05 11.33, 2.61 10.3 C3.17 9.27, 3.83 8.27, 4.56 7.36 C5.28 6.44, 6.1 5.59, 6.96 4.82 C7.82 4.05, 8.76 3.36, 9.74 2.76 C10.72 2.16, 11.76 1.65, 12.82 1.24 C13.88 0.83, 14.99 0.52, 16.1 0.31 C17.21 0.11, 18.35 0, 19.48 0 C20.61 0, 21.75 0.11, 22.87 0.31 C23.98 0.52, 25.09 0.83, 26.15 1.24 C27.21 1.65, 28.25 2.16, 29.22 2.76 C30.2 3.36, 31.14 4.05, 32.01 4.82 C32.87 5.59, 33.68 6.44, 34.41 7.36 C35.13 8.27, 35.79 9.27, 36.35 10.3 C36.92 11.33, 37.4 12.43, 37.79 13.55 C38.18 14.67, 38.47 15.85, 38.67 17.02 C38.86 18.2, 38.92 20, 38.96 20.6 C39.01 21.2, 39.01 20, 38.96 20.6" stroke="#1e1e1e" stroke-width="4" fill="none"></path></g><g stroke-linecap="round" transform="translate(90.01451628537416 54.4088287235063) rotate(0 19.82400316355688 20.713015644021652)"><path d="M39.65 20.71 C39.65 21.91, 39.55 23.13, 39.35 24.31 C39.15 25.49, 38.84 26.67, 38.45 27.8 C38.06 28.92, 37.57 30.03, 36.99 31.07 C36.42 32.11, 35.75 33.11, 35.01 34.03 C34.27 34.95, 33.45 35.81, 32.57 36.58 C31.69 37.35, 30.73 38.05, 29.74 38.65 C28.74 39.25, 27.68 39.77, 26.6 40.18 C25.53 40.59, 24.4 40.9, 23.27 41.11 C22.14 41.32, 20.97 41.43, 19.82 41.43 C18.68 41.43, 17.51 41.32, 16.38 41.11 C15.25 40.9, 14.12 40.59, 13.04 40.18 C11.97 39.77, 10.91 39.25, 9.91 38.65 C8.92 38.05, 7.96 37.35, 7.08 36.58 C6.2 35.81, 5.38 34.95, 4.64 34.03 C3.9 33.11, 3.23 32.11, 2.66 31.07 C2.08 30.03, 1.59 28.92, 1.2 27.8 C0.8 26.67, 0.5 25.49, 0.3 24.31 C0.1 23.13, 0 21.91, 0 20.71 C0 19.51, 0.1 18.3, 0.3 17.12 C0.5 15.94, 0.8 14.76, 1.2 13.63 C1.59 12.5, 2.08 11.39, 2.66 10.36 C3.23 9.32, 3.9 8.32, 4.64 7.4 C5.38 6.48, 6.2 5.62, 7.08 4.85 C7.96 4.08, 8.92 3.37, 9.91 2.78 C10.91 2.18, 11.97 1.66, 13.04 1.25 C14.12 0.84, 15.25 0.52, 16.38 0.31 C17.51 0.11, 18.68 0, 19.82 0 C20.97 0, 22.14 0.11, 23.27 0.31 C24.4 0.52, 25.53 0.84, 26.6 1.25 C27.68 1.66, 28.74 2.18, 29.74 2.78 C30.73 3.37, 31.69 4.08, 32.57 4.85 C33.45 5.62, 34.27 6.48, 35.01 7.4 C35.75 8.32, 36.42 9.32, 36.99 10.36 C37.57 11.39, 38.06 12.5, 38.45 13.63 C38.84 14.76, 39.15 15.94, 39.35 17.12 C39.55 18.3, 39.6 20.11, 39.65 20.71 C39.7 21.31, 39.7 20.11, 39.65 20.71" stroke="#1e1e1e" stroke-width="4" fill="none"></path></g><g stroke-linecap="round" transform="translate(104.7136882278619 53.56278008231857) rotate(0 19.82400316355688 19.85353995265268)"><path d="M39.65 19.85 C39.65 21, 39.55 22.17, 39.35 23.3 C39.15 24.43, 38.84 25.56, 38.45 26.64 C38.06 27.72, 37.57 28.79, 36.99 29.78 C36.42 30.78, 35.75 31.73, 35.01 32.62 C34.27 33.5, 33.45 34.32, 32.57 35.06 C31.69 35.8, 30.73 36.47, 29.74 37.05 C28.74 37.62, 27.68 38.12, 26.6 38.51 C25.53 38.9, 24.4 39.21, 23.27 39.41 C22.14 39.61, 20.97 39.71, 19.82 39.71 C18.68 39.71, 17.51 39.61, 16.38 39.41 C15.25 39.21, 14.12 38.9, 13.04 38.51 C11.97 38.12, 10.91 37.62, 9.91 37.05 C8.92 36.47, 7.96 35.8, 7.08 35.06 C6.2 34.32, 5.38 33.5, 4.64 32.62 C3.9 31.73, 3.23 30.78, 2.66 29.78 C2.08 28.79, 1.59 27.72, 1.2 26.64 C0.8 25.56, 0.5 24.43, 0.3 23.3 C0.1 22.17, 0 21, 0 19.85 C0 18.7, 0.1 17.54, 0.3 16.41 C0.5 15.27, 0.8 14.14, 1.2 13.06 C1.59 11.98, 2.08 10.92, 2.66 9.93 C3.23 8.93, 3.9 7.97, 4.64 7.09 C5.38 6.21, 6.2 5.38, 7.08 4.64 C7.96 3.91, 8.92 3.23, 9.91 2.66 C10.91 2.09, 11.97 1.59, 13.04 1.2 C14.12 0.8, 15.25 0.5, 16.38 0.3 C17.51 0.1, 18.68 0, 19.82 0 C20.97 0, 22.14 0.1, 23.27 0.3 C24.4 0.5, 25.53 0.8, 26.6 1.2 C27.68 1.59, 28.74 2.09, 29.74 2.66 C30.73 3.23, 31.69 3.91, 32.57 4.64 C33.45 5.38, 34.27 6.21, 35.01 7.09 C35.75 7.97, 36.42 8.93, 36.99 9.93 C37.57 10.92, 38.06 11.98, 38.45 13.06 C38.84 14.14, 39.15 15.27, 39.35 16.41 C39.55 17.54, 39.6 19.28, 39.65 19.85 C39.7 20.43, 39.7 19.28, 39.65 19.85" stroke="#1e1e1e" stroke-width="4" fill="none"></path></g><g stroke-linecap="round" transform="translate(58.994585366420324 45.94905167931029) rotate(0 17.00799395925378 18.372806550119094)"><path d="M34.02 18.37 C34.02 19.44, 33.93 20.52, 33.76 21.56 C33.59 22.61, 33.33 23.66, 32.99 24.66 C32.65 25.66, 32.23 26.64, 31.74 27.56 C31.25 28.48, 30.67 29.37, 30.04 30.18 C29.4 31, 28.69 31.76, 27.94 32.45 C27.19 33.13, 26.36 33.75, 25.51 34.28 C24.66 34.82, 23.75 35.27, 22.83 35.64 C21.9 36, 20.93 36.28, 19.96 36.47 C18.99 36.65, 17.99 36.75, 17.01 36.75 C16.02 36.75, 15.02 36.65, 14.05 36.47 C13.09 36.28, 12.12 36, 11.19 35.64 C10.27 35.27, 9.36 34.82, 8.5 34.28 C7.65 33.75, 6.83 33.13, 6.08 32.45 C5.32 31.76, 4.61 31, 3.98 30.18 C3.35 29.37, 2.77 28.48, 2.28 27.56 C1.79 26.64, 1.36 25.66, 1.03 24.66 C0.69 23.66, 0.43 22.61, 0.26 21.56 C0.09 20.52, 0 19.44, 0 18.37 C0 17.31, 0.09 16.23, 0.26 15.18 C0.43 14.14, 0.69 13.09, 1.03 12.09 C1.36 11.09, 1.79 10.11, 2.28 9.19 C2.77 8.27, 3.35 7.38, 3.98 6.56 C4.61 5.75, 5.32 4.98, 6.08 4.3 C6.83 3.61, 7.65 2.99, 8.5 2.46 C9.36 1.93, 10.27 1.47, 11.19 1.11 C12.12 0.74, 13.09 0.46, 14.05 0.28 C15.02 0.09, 16.02 0, 17.01 0 C17.99 0, 18.99 0.09, 19.96 0.28 C20.93 0.46, 21.9 0.74, 22.83 1.11 C23.75 1.47, 24.66 1.93, 25.51 2.46 C26.36 2.99, 27.19 3.61, 27.94 4.3 C28.69 4.98, 29.4 5.75, 30.04 6.56 C30.67 7.38, 31.25 8.27, 31.74 9.19 C32.23 10.11, 32.65 11.09, 32.99 12.09 C33.33 13.09, 33.59 14.14, 33.76 15.18 C33.93 16.23, 33.97 17.84, 34.02 18.37 C34.06 18.9, 34.06 17.84, 34.02 18.37" stroke="none" stroke-width="0" fill="#ffffff"></path><path d="M34.02 18.37 C34.02 19.44, 33.93 20.52, 33.76 21.56 C33.59 22.61, 33.33 23.66, 32.99 24.66 C32.65 25.66, 32.23 26.64, 31.74 27.56 C31.25 28.48, 30.67 29.37, 30.04 30.18 C29.4 31, 28.69 31.76, 27.94 32.45 C27.19 33.13, 26.36 33.75, 25.51 34.28 C24.66 34.82, 23.75 35.27, 22.83 35.64 C21.9 36, 20.93 36.28, 19.96 36.47 C18.99 36.65, 17.99 36.75, 17.01 36.75 C16.02 36.75, 15.02 36.65, 14.05 36.47 C13.09 36.28, 12.12 36, 11.19 35.64 C10.27 35.27, 9.36 34.82, 8.5 34.28 C7.65 33.75, 6.83 33.13, 6.08 32.45 C5.32 31.76, 4.61 31, 3.98 30.18 C3.35 29.37, 2.77 28.48, 2.28 27.56 C1.79 26.64, 1.36 25.66, 1.03 24.66 C0.69 23.66, 0.43 22.61, 0.26 21.56 C0.09 20.52, 0 19.44, 0 18.37 C0 17.31, 0.09 16.23, 0.26 15.18 C0.43 14.14, 0.69 13.09, 1.03 12.09 C1.36 11.09, 1.79 10.11, 2.28 9.19 C2.77 8.27, 3.35 7.38, 3.98 6.56 C4.61 5.75, 5.32 4.98, 6.08 4.3 C6.83 3.61, 7.65 2.99, 8.5 2.46 C9.36 1.93, 10.27 1.47, 11.19 1.11 C12.12 0.74, 13.09 0.46, 14.05 0.28 C15.02 0.09, 16.02 0, 17.01 0 C17.99 0, 18.99 0.09, 19.96 0.28 C20.93 0.46, 21.9 0.74, 22.83 1.11 C23.75 1.47, 24.66 1.93, 25.51 2.46 C26.36 2.99, 27.19 3.61, 27.94 4.3 C28.69 4.98, 29.4 5.75, 30.04 6.56 C30.67 7.38, 31.25 8.27, 31.74 9.19 C32.23 10.11, 32.65 11.09, 32.99 12.09 C33.33 13.09, 33.59 14.14, 33.76 15.18 C33.93 16.23, 33.97 17.84, 34.02 18.37 C34.06 18.9, 34.06 17.84, 34.02 18.37" stroke="#ffffff" stroke-width="4" fill="none"></path></g><g stroke-linecap="round" transform="translate(51.80530191947855 27.869869246002054) rotate(0 17.00799395925378 18.372806550119094)"><path d="M34.02 18.37 C34.02 19.44, 33.93 20.52, 33.76 21.56 C33.59 22.61, 33.33 23.66, 32.99 24.66 C32.65 25.66, 32.23 26.64, 31.74 27.56 C31.25 28.48, 30.67 29.37, 30.04 30.18 C29.4 31, 28.69 31.76, 27.94 32.45 C27.19 33.13, 26.36 33.75, 25.51 34.28 C24.66 34.82, 23.75 35.27, 22.83 35.64 C21.9 36, 20.93 36.28, 19.96 36.47 C18.99 36.65, 17.99 36.75, 17.01 36.75 C16.02 36.75, 15.02 36.65, 14.05 36.47 C13.09 36.28, 12.12 36, 11.19 35.64 C10.27 35.27, 9.36 34.82, 8.5 34.28 C7.65 33.75, 6.83 33.13, 6.08 32.45 C5.32 31.76, 4.61 31, 3.98 30.18 C3.35 29.37, 2.77 28.48, 2.28 27.56 C1.79 26.64, 1.36 25.66, 1.03 24.66 C0.69 23.66, 0.43 22.61, 0.26 21.56 C0.09 20.52, 0 19.44, 0 18.37 C0 17.31, 0.09 16.23, 0.26 15.18 C0.43 14.14, 0.69 13.09, 1.03 12.09 C1.36 11.09, 1.79 10.11, 2.28 9.19 C2.77 8.27, 3.35 7.38, 3.98 6.56 C4.61 5.75, 5.32 4.98, 6.08 4.3 C6.83 3.61, 7.65 2.99, 8.5 2.46 C9.36 1.93, 10.27 1.47, 11.19 1.11 C12.12 0.74, 13.09 0.46, 14.05 0.28 C15.02 0.09, 16.02 0, 17.01 0 C17.99 0, 18.99 0.09, 19.96 0.28 C20.93 0.46, 21.9 0.74, 22.83 1.11 C23.75 1.47, 24.66 1.93, 25.51 2.46 C26.36 2.99, 27.19 3.61, 27.94 4.3 C28.69 4.98, 29.4 5.75, 30.04 6.56 C30.67 7.38, 31.25 8.27, 31.74 9.19 C32.23 10.11, 32.65 11.09, 32.99 12.09 C33.33 13.09, 33.59 14.14, 33.76 15.18 C33.93 16.23, 33.97 17.84, 34.02 18.37 C34.06 18.9, 34.06 17.84, 34.02 18.37" stroke="none" stroke-width="0" fill="#ffffff"></path><path d="M34.02 18.37 C34.02 19.44, 33.93 20.52, 33.76 21.56 C33.59 22.61, 33.33 23.66, 32.99 24.66 C32.65 25.66, 32.23 26.64, 31.74 27.56 C31.25 28.48, 30.67 29.37, 30.04 30.18 C29.4 31, 28.69 31.76, 27.94 32.45 C27.19 33.13, 26.36 33.75, 25.51 34.28 C24.66 34.82, 23.75 35.27, 22.83 35.64 C21.9 36, 20.93 36.28, 19.96 36.47 C18.99 36.65, 17.99 36.75, 17.01 36.75 C16.02 36.75, 15.02 36.65, 14.05 36.47 C13.09 36.28, 12.12 36, 11.19 35.64 C10.27 35.27, 9.36 34.82, 8.5 34.28 C7.65 33.75, 6.83 33.13, 6.08 32.45 C5.32 31.76, 4.61 31, 3.98 30.18 C3.35 29.37, 2.77 28.48, 2.28 27.56 C1.79 26.64, 1.36 25.66, 1.03 24.66 C0.69 23.66, 0.43 22.61, 0.26 21.56 C0.09 20.52, 0 19.44, 0 18.37 C0 17.31, 0.09 16.23, 0.26 15.18 C0.43 14.14, 0.69 13.09, 1.03 12.09 C1.36 11.09, 1.79 10.11, 2.28 9.19 C2.77 8.27, 3.35 7.38, 3.98 6.56 C4.61 5.75, 5.32 4.98, 6.08 4.3 C6.83 3.61, 7.65 2.99, 8.5 2.46 C9.36 1.93, 10.27 1.47, 11.19 1.11 C12.12 0.74, 13.09 0.46, 14.05 0.28 C15.02 0.09, 16.02 0, 17.01 0 C17.99 0, 18.99 0.09, 19.96 0.28 C20.93 0.46, 21.9 0.74, 22.83 1.11 C23.75 1.47, 24.66 1.93, 25.51 2.46 C26.36 2.99, 27.19 3.61, 27.94 4.3 C28.69 4.98, 29.4 5.75, 30.04 6.56 C30.67 7.38, 31.25 8.27, 31.74 9.19 C32.23 10.11, 32.65 11.09, 32.99 12.09 C33.33 13.09, 33.59 14.14, 33.76 15.18 C33.93 16.23, 33.97 17.84, 34.02 18.37 C34.06 18.9, 34.06 17.84, 34.02 18.37" stroke="#ffffff" stroke-width="4" fill="none"></path></g><g stroke-linecap="round" transform="translate(69.03264035272878 28.713601483865205) rotate(0 17.00799395925378 18.372806550119094)"><path d="M34.02 18.37 C34.02 19.44, 33.93 20.52, 33.76 21.56 C33.59 22.61, 33.33 23.66, 32.99 24.66 C32.65 25.66, 32.23 26.64, 31.74 27.56 C31.25 28.48, 30.67 29.37, 30.04 30.18 C29.4 31, 28.69 31.76, 27.94 32.45 C27.19 33.13, 26.36 33.75, 25.51 34.28 C24.66 34.82, 23.75 35.27, 22.83 35.64 C21.9 36, 20.93 36.28, 19.96 36.47 C18.99 36.65, 17.99 36.75, 17.01 36.75 C16.02 36.75, 15.02 36.65, 14.05 36.47 C13.09 36.28, 12.12 36, 11.19 35.64 C10.27 35.27, 9.36 34.82, 8.5 34.28 C7.65 33.75, 6.83 33.13, 6.08 32.45 C5.32 31.76, 4.61 31, 3.98 30.18 C3.35 29.37, 2.77 28.48, 2.28 27.56 C1.79 26.64, 1.36 25.66, 1.03 24.66 C0.69 23.66, 0.43 22.61, 0.26 21.56 C0.09 20.52, 0 19.44, 0 18.37 C0 17.31, 0.09 16.23, 0.26 15.18 C0.43 14.14, 0.69 13.09, 1.03 12.09 C1.36 11.09, 1.79 10.11, 2.28 9.19 C2.77 8.27, 3.35 7.38, 3.98 6.56 C4.61 5.75, 5.32 4.98, 6.08 4.3 C6.83 3.61, 7.65 2.99, 8.5 2.46 C9.36 1.93, 10.27 1.47, 11.19 1.11 C12.12 0.74, 13.09 0.46, 14.05 0.28 C15.02 0.09, 16.02 0, 17.01 0 C17.99 0, 18.99 0.09, 19.96 0.28 C20.93 0.46, 21.9 0.74, 22.83 1.11 C23.75 1.47, 24.66 1.93, 25.51 2.46 C26.36 2.99, 27.19 3.61, 27.94 4.3 C28.69 4.98, 29.4 5.75, 30.04 6.56 C30.67 7.38, 31.25 8.27, 31.74 9.19 C32.23 10.11, 32.65 11.09, 32.99 12.09 C33.33 13.09, 33.59 14.14, 33.76 15.18 C33.93 16.23, 33.97 17.84, 34.02 18.37 C34.06 18.9, 34.06 17.84, 34.02 18.37" stroke="none" stroke-width="0" fill="#ffffff"></path><path d="M34.02 18.37 C34.02 19.44, 33.93 20.52, 33.76 21.56 C33.59 22.61, 33.33 23.66, 32.99 24.66 C32.65 25.66, 32.23 26.64, 31.74 27.56 C31.25 28.48, 30.67 29.37, 30.04 30.18 C29.4 31, 28.69 31.76, 27.94 32.45 C27.19 33.13, 26.36 33.75, 25.51 34.28 C24.66 34.82, 23.75 35.27, 22.83 35.64 C21.9 36, 20.93 36.28, 19.96 36.47 C18.99 36.65, 17.99 36.75, 17.01 36.75 C16.02 36.75, 15.02 36.65, 14.05 36.47 C13.09 36.28, 12.12 36, 11.19 35.64 C10.27 35.27, 9.36 34.82, 8.5 34.28 C7.65 33.75, 6.83 33.13, 6.08 32.45 C5.32 31.76, 4.61 31, 3.98 30.18 C3.35 29.37, 2.77 28.48, 2.28 27.56 C1.79 26.64, 1.36 25.66, 1.03 24.66 C0.69 23.66, 0.43 22.61, 0.26 21.56 C0.09 20.52, 0 19.44, 0 18.37 C0 17.31, 0.09 16.23, 0.26 15.18 C0.43 14.14, 0.69 13.09, 1.03 12.09 C1.36 11.09, 1.79 10.11, 2.28 9.19 C2.77 8.27, 3.35 7.38, 3.98 6.56 C4.61 5.75, 5.32 4.98, 6.08 4.3 C6.83 3.61, 7.65 2.99, 8.5 2.46 C9.36 1.93, 10.27 1.47, 11.19 1.11 C12.12 0.74, 13.09 0.46, 14.05 0.28 C15.02 0.09, 16.02 0, 17.01 0 C17.99 0, 18.99 0.09, 19.96 0.28 C20.93 0.46, 21.9 0.74, 22.83 1.11 C23.75 1.47, 24.66 1.93, 25.51 2.46 C26.36 2.99, 27.19 3.61, 27.94 4.3 C28.69 4.98, 29.4 5.75, 30.04 6.56 C30.67 7.38, 31.25 8.27, 31.74 9.19 C32.23 10.11, 32.65 11.09, 32.99 12.09 C33.33 13.09, 33.59 14.14, 33.76 15.18 C33.93 16.23, 33.97 17.84, 34.02 18.37 C34.06 18.9, 34.06 17.84, 34.02 18.37" stroke="#ffffff" stroke-width="4" fill="none"></path></g><g stroke-linecap="round" transform="translate(100.22238606541487 57.71895346634665) rotate(0 17.00799395925378 16.719279872576408)"><path d="M34.02 16.72 C34.02 17.69, 33.93 18.67, 33.76 19.62 C33.59 20.58, 33.33 21.53, 32.99 22.44 C32.65 23.35, 32.23 24.24, 31.74 25.08 C31.25 25.92, 30.67 26.72, 30.04 27.47 C29.4 28.21, 28.69 28.9, 27.94 29.53 C27.19 30.15, 26.36 30.71, 25.51 31.2 C24.66 31.68, 23.75 32.1, 22.83 32.43 C21.9 32.76, 20.93 33.02, 19.96 33.18 C18.99 33.35, 17.99 33.44, 17.01 33.44 C16.02 33.44, 15.02 33.35, 14.05 33.18 C13.09 33.02, 12.12 32.76, 11.19 32.43 C10.27 32.1, 9.36 31.68, 8.5 31.2 C7.65 30.71, 6.83 30.15, 6.08 29.53 C5.32 28.9, 4.61 28.21, 3.98 27.47 C3.35 26.72, 2.77 25.92, 2.28 25.08 C1.79 24.24, 1.36 23.35, 1.03 22.44 C0.69 21.53, 0.43 20.58, 0.26 19.62 C0.09 18.67, 0 17.69, 0 16.72 C0 15.75, 0.09 14.77, 0.26 13.82 C0.43 12.86, 0.69 11.91, 1.03 11 C1.36 10.09, 1.79 9.2, 2.28 8.36 C2.77 7.52, 3.35 6.71, 3.98 5.97 C4.61 5.23, 5.32 4.53, 6.08 3.91 C6.83 3.29, 7.65 2.72, 8.5 2.24 C9.36 1.76, 10.27 1.34, 11.19 1.01 C12.12 0.68, 13.09 0.42, 14.05 0.25 C15.02 0.09, 16.02 0, 17.01 0 C17.99 0, 18.99 0.09, 19.96 0.25 C20.93 0.42, 21.9 0.68, 22.83 1.01 C23.75 1.34, 24.66 1.76, 25.51 2.24 C26.36 2.72, 27.19 3.29, 27.94 3.91 C28.69 4.53, 29.4 5.23, 30.04 5.97 C30.67 6.71, 31.25 7.52, 31.74 8.36 C32.23 9.2, 32.65 10.09, 32.99 11 C33.33 11.91, 33.59 12.86, 33.76 13.82 C33.93 14.77, 33.97 16.24, 34.02 16.72 C34.06 17.2, 34.06 16.24, 34.02 16.72" stroke="none" stroke-width="0" fill="#ffffff"></path><path d="M34.02 16.72 C34.02 17.69, 33.93 18.67, 33.76 19.62 C33.59 20.58, 33.33 21.53, 32.99 22.44 C32.65 23.35, 32.23 24.24, 31.74 25.08 C31.25 25.92, 30.67 26.72, 30.04 27.47 C29.4 28.21, 28.69 28.9, 27.94 29.53 C27.19 30.15, 26.36 30.71, 25.51 31.2 C24.66 31.68, 23.75 32.1, 22.83 32.43 C21.9 32.76, 20.93 33.02, 19.96 33.18 C18.99 33.35, 17.99 33.44, 17.01 33.44 C16.02 33.44, 15.02 33.35, 14.05 33.18 C13.09 33.02, 12.12 32.76, 11.19 32.43 C10.27 32.1, 9.36 31.68, 8.5 31.2 C7.65 30.71, 6.83 30.15, 6.08 29.53 C5.32 28.9, 4.61 28.21, 3.98 27.47 C3.35 26.72, 2.77 25.92, 2.28 25.08 C1.79 24.24, 1.36 23.35, 1.03 22.44 C0.69 21.53, 0.43 20.58, 0.26 19.62 C0.09 18.67, 0 17.69, 0 16.72 C0 15.75, 0.09 14.77, 0.26 13.82 C0.43 12.86, 0.69 11.91, 1.03 11 C1.36 10.09, 1.79 9.2, 2.28 8.36 C2.77 7.52, 3.35 6.71, 3.98 5.97 C4.61 5.23, 5.32 4.53, 6.08 3.91 C6.83 3.29, 7.65 2.72, 8.5 2.24 C9.36 1.76, 10.27 1.34, 11.19 1.01 C12.12 0.68, 13.09 0.42, 14.05 0.25 C15.02 0.09, 16.02 0, 17.01 0 C17.99 0, 18.99 0.09, 19.96 0.25 C20.93 0.42, 21.9 0.68, 22.83 1.01 C23.75 1.34, 24.66 1.76, 25.51 2.24 C26.36 2.72, 27.19 3.29, 27.94 3.91 C28.69 4.53, 29.4 5.23, 30.04 5.97 C30.67 6.71, 31.25 7.52, 31.74 8.36 C32.23 9.2, 32.65 10.09, 32.99 11 C33.33 11.91, 33.59 12.86, 33.76 13.82 C33.93 14.77, 33.97 16.24, 34.02 16.72 C34.06 17.2, 34.06 16.24, 34.02 16.72" stroke="#ffffff" stroke-width="4" fill="none"></path></g><g stroke-linecap="round" transform="translate(94.74836058196615 48.63873705682272) rotate(0 13.965553037939571 14.11707166119595)"><path d="M27.93 14.12 C27.93 14.93, 27.86 15.76, 27.72 16.57 C27.58 17.37, 27.37 18.18, 27.09 18.95 C26.81 19.71, 26.46 20.47, 26.06 21.18 C25.66 21.88, 25.18 22.57, 24.66 23.19 C24.14 23.82, 23.56 24.41, 22.94 24.93 C22.32 25.46, 21.65 25.93, 20.95 26.34 C20.25 26.75, 19.5 27.1, 18.74 27.38 C17.98 27.66, 17.19 27.88, 16.39 28.02 C15.59 28.16, 14.77 28.23, 13.97 28.23 C13.16 28.23, 12.34 28.16, 11.54 28.02 C10.74 27.88, 9.95 27.66, 9.19 27.38 C8.43 27.1, 7.68 26.75, 6.98 26.34 C6.28 25.93, 5.61 25.46, 4.99 24.93 C4.37 24.41, 3.79 23.82, 3.27 23.19 C2.75 22.57, 2.28 21.88, 1.87 21.18 C1.47 20.47, 1.12 19.71, 0.84 18.95 C0.57 18.18, 0.35 17.37, 0.21 16.57 C0.07 15.76, 0 14.93, 0 14.12 C0 13.3, 0.07 12.47, 0.21 11.67 C0.35 10.86, 0.57 10.06, 0.84 9.29 C1.12 8.52, 1.47 7.77, 1.87 7.06 C2.28 6.35, 2.75 5.67, 3.27 5.04 C3.79 4.42, 4.37 3.83, 4.99 3.3 C5.61 2.78, 6.28 2.3, 6.98 1.89 C7.68 1.48, 8.43 1.13, 9.19 0.85 C9.95 0.57, 10.74 0.36, 11.54 0.21 C12.34 0.07, 13.16 0, 13.97 0 C14.77 0, 15.59 0.07, 16.39 0.21 C17.19 0.36, 17.98 0.57, 18.74 0.85 C19.5 1.13, 20.25 1.48, 20.95 1.89 C21.65 2.3, 22.32 2.78, 22.94 3.3 C23.56 3.83, 24.14 4.42, 24.66 5.04 C25.18 5.67, 25.66 6.35, 26.06 7.06 C26.46 7.77, 26.81 8.52, 27.09 9.29 C27.37 10.06, 27.58 10.86, 27.72 11.67 C27.86 12.47, 27.9 13.71, 27.93 14.12 C27.97 14.53, 27.97 13.71, 27.93 14.12" stroke="none" stroke-width="0" fill="#ffffff"></path><path d="M27.93 14.12 C27.93 14.93, 27.86 15.76, 27.72 16.57 C27.58 17.37, 27.37 18.18, 27.09 18.95 C26.81 19.71, 26.46 20.47, 26.06 21.18 C25.66 21.88, 25.18 22.57, 24.66 23.19 C24.14 23.82, 23.56 24.41, 22.94 24.93 C22.32 25.46, 21.65 25.93, 20.95 26.34 C20.25 26.75, 19.5 27.1, 18.74 27.38 C17.98 27.66, 17.19 27.88, 16.39 28.02 C15.59 28.16, 14.77 28.23, 13.97 28.23 C13.16 28.23, 12.34 28.16, 11.54 28.02 C10.74 27.88, 9.95 27.66, 9.19 27.38 C8.43 27.1, 7.68 26.75, 6.98 26.34 C6.28 25.93, 5.61 25.46, 4.99 24.93 C4.37 24.41, 3.79 23.82, 3.27 23.19 C2.75 22.57, 2.28 21.88, 1.87 21.18 C1.47 20.47, 1.12 19.71, 0.84 18.95 C0.57 18.18, 0.35 17.37, 0.21 16.57 C0.07 15.76, 0 14.93, 0 14.12 C0 13.3, 0.07 12.47, 0.21 11.67 C0.35 10.86, 0.57 10.06, 0.84 9.29 C1.12 8.52, 1.47 7.77, 1.87 7.06 C2.28 6.35, 2.75 5.67, 3.27 5.04 C3.79 4.42, 4.37 3.83, 4.99 3.3 C5.61 2.78, 6.28 2.3, 6.98 1.89 C7.68 1.48, 8.43 1.13, 9.19 0.85 C9.95 0.57, 10.74 0.36, 11.54 0.21 C12.34 0.07, 13.16 0, 13.97 0 C14.77 0, 15.59 0.07, 16.39 0.21 C17.19 0.36, 17.98 0.57, 18.74 0.85 C19.5 1.13, 20.25 1.48, 20.95 1.89 C21.65 2.3, 22.32 2.78, 22.94 3.3 C23.56 3.83, 24.14 4.42, 24.66 5.04 C25.18 5.67, 25.66 6.35, 26.06 7.06 C26.46 7.77, 26.81 8.52, 27.09 9.29 C27.37 10.06, 27.58 10.86, 27.72 11.67 C27.86 12.47, 27.9 13.71, 27.93 14.12 C27.97 14.53, 27.97 13.71, 27.93 14.12" stroke="#ffffff" stroke-width="4" fill="none"></path></g><g stroke-linecap="round"><g transform="translate(91.86894937124089 26.748018418611537) rotate(0 1.6465151655115733 22.82702680942475)"><path d="M0 0 C0.55 7.61, 2.74 38.05, 3.29 45.65 M0 0 C0.55 7.61, 2.74 38.05, 3.29 45.65" stroke="#1e1e1e" stroke-width="4" fill="none"></path></g></g><mask></mask><g stroke-linecap="round" transform="translate(63.904616193741276 31.222969509237373) rotate(0 7.317661387660337 4.849623404087652)"><path d="M14.64 4.85 C14.64 5.13, 14.6 5.42, 14.52 5.69 C14.45 5.97, 14.34 6.24, 14.19 6.51 C14.05 6.77, 13.87 7.03, 13.65 7.27 C13.44 7.52, 13.2 7.75, 12.92 7.97 C12.65 8.18, 12.35 8.38, 12.02 8.56 C11.7 8.75, 11.34 8.91, 10.98 9.05 C10.61 9.19, 10.22 9.31, 9.82 9.41 C9.42 9.5, 9.01 9.58, 8.59 9.63 C8.17 9.67, 7.74 9.7, 7.32 9.7 C6.89 9.7, 6.46 9.67, 6.05 9.63 C5.63 9.58, 5.21 9.5, 4.81 9.41 C4.42 9.31, 4.03 9.19, 3.66 9.05 C3.29 8.91, 2.94 8.75, 2.61 8.56 C2.29 8.38, 1.98 8.18, 1.71 7.97 C1.44 7.75, 1.19 7.52, 0.98 7.27 C0.77 7.03, 0.59 6.77, 0.44 6.51 C0.3 6.24, 0.18 5.97, 0.11 5.69 C0.04 5.42, 0 5.13, 0 4.85 C0 4.57, 0.04 4.28, 0.11 4.01 C0.18 3.73, 0.3 3.45, 0.44 3.19 C0.59 2.93, 0.77 2.67, 0.98 2.42 C1.19 2.18, 1.44 1.95, 1.71 1.73 C1.98 1.52, 2.29 1.32, 2.61 1.13 C2.94 0.95, 3.29 0.79, 3.66 0.65 C4.03 0.51, 4.42 0.39, 4.81 0.29 C5.21 0.2, 5.63 0.12, 6.05 0.07 C6.46 0.02, 6.89 0, 7.32 0 C7.74 0, 8.17 0.02, 8.59 0.07 C9.01 0.12, 9.42 0.2, 9.82 0.29 C10.22 0.39, 10.61 0.51, 10.98 0.65 C11.34 0.79, 11.7 0.95, 12.02 1.13 C12.35 1.32, 12.65 1.52, 12.92 1.73 C13.2 1.95, 13.44 2.18, 13.65 2.42 C13.87 2.67, 14.05 2.93, 14.19 3.19 C14.34 3.45, 14.45 3.73, 14.52 4.01 C14.6 4.28, 14.62 4.71, 14.64 4.85 C14.65 4.99, 14.65 4.71, 14.64 4.85" stroke="none" stroke-width="0" fill="#ffffff"></path><path d="M14.64 4.85 C14.64 5.13, 14.6 5.42, 14.52 5.69 C14.45 5.97, 14.34 6.24, 14.19 6.51 C14.05 6.77, 13.87 7.03, 13.65 7.27 C13.44 7.52, 13.2 7.75, 12.92 7.97 C12.65 8.18, 12.35 8.38, 12.02 8.56 C11.7 8.75, 11.34 8.91, 10.98 9.05 C10.61 9.19, 10.22 9.31, 9.82 9.41 C9.42 9.5, 9.01 9.58, 8.59 9.63 C8.17 9.67, 7.74 9.7, 7.32 9.7 C6.89 9.7, 6.46 9.67, 6.05 9.63 C5.63 9.58, 5.21 9.5, 4.81 9.41 C4.42 9.31, 4.03 9.19, 3.66 9.05 C3.29 8.91, 2.94 8.75, 2.61 8.56 C2.29 8.38, 1.98 8.18, 1.71 7.97 C1.44 7.75, 1.19 7.52, 0.98 7.27 C0.77 7.03, 0.59 6.77, 0.44 6.51 C0.3 6.24, 0.18 5.97, 0.11 5.69 C0.04 5.42, 0 5.13, 0 4.85 C0 4.57, 0.04 4.28, 0.11 4.01 C0.18 3.73, 0.3 3.45, 0.44 3.19 C0.59 2.93, 0.77 2.67, 0.98 2.42 C1.19 2.18, 1.44 1.95, 1.71 1.73 C1.98 1.52, 2.29 1.32, 2.61 1.13 C2.94 0.95, 3.29 0.79, 3.66 0.65 C4.03 0.51, 4.42 0.39, 4.81 0.29 C5.21 0.2, 5.63 0.12, 6.05 0.07 C6.46 0.02, 6.89 0, 7.32 0 C7.74 0, 8.17 0.02, 8.59 0.07 C9.01 0.12, 9.42 0.2, 9.82 0.29 C10.22 0.39, 10.61 0.51, 10.98 0.65 C11.34 0.79, 11.7 0.95, 12.02 1.13 C12.35 1.32, 12.65 1.52, 12.92 1.73 C13.2 1.95, 13.44 2.18, 13.65 2.42 C13.87 2.67, 14.05 2.93, 14.19 3.19 C14.34 3.45, 14.45 3.73, 14.52 4.01 C14.6 4.28, 14.62 4.71, 14.64 4.85 C14.65 4.99, 14.65 4.71, 14.64 4.85" stroke="#1e1e1e" stroke-width="4" fill="none"></path></g><g stroke-linecap="round" transform="translate(110.56369139489743 38.4140790604597) rotate(0 2.524716178858853 4.849623404087652)"><path d="M5.05 4.85 C5.05 5.13, 5.04 5.42, 5.01 5.69 C4.99 5.97, 4.95 6.24, 4.9 6.51 C4.85 6.77, 4.78 7.03, 4.71 7.27 C4.64 7.52, 4.55 7.75, 4.46 7.97 C4.36 8.18, 4.26 8.38, 4.15 8.56 C4.04 8.75, 3.91 8.91, 3.79 9.05 C3.66 9.19, 3.53 9.31, 3.39 9.41 C3.25 9.5, 3.11 9.58, 2.96 9.63 C2.82 9.67, 2.67 9.7, 2.52 9.7 C2.38 9.7, 2.23 9.67, 2.09 9.63 C1.94 9.58, 1.8 9.5, 1.66 9.41 C1.52 9.31, 1.39 9.19, 1.26 9.05 C1.14 8.91, 1.01 8.75, 0.9 8.56 C0.79 8.38, 0.68 8.18, 0.59 7.97 C0.5 7.75, 0.41 7.52, 0.34 7.27 C0.27 7.03, 0.2 6.77, 0.15 6.51 C0.1 6.24, 0.06 5.97, 0.04 5.69 C0.01 5.42, 0 5.13, 0 4.85 C0 4.57, 0.01 4.28, 0.04 4.01 C0.06 3.73, 0.1 3.45, 0.15 3.19 C0.2 2.93, 0.27 2.67, 0.34 2.42 C0.41 2.18, 0.5 1.95, 0.59 1.73 C0.68 1.52, 0.79 1.32, 0.9 1.13 C1.01 0.95, 1.14 0.79, 1.26 0.65 C1.39 0.51, 1.52 0.39, 1.66 0.29 C1.8 0.2, 1.94 0.12, 2.09 0.07 C2.23 0.02, 2.38 0, 2.52 0 C2.67 0, 2.82 0.02, 2.96 0.07 C3.11 0.12, 3.25 0.2, 3.39 0.29 C3.53 0.39, 3.66 0.51, 3.79 0.65 C3.91 0.79, 4.04 0.95, 4.15 1.13 C4.26 1.32, 4.36 1.52, 4.46 1.73 C4.55 1.95, 4.64 2.18, 4.71 2.42 C4.78 2.67, 4.85 2.93, 4.9 3.19 C4.95 3.45, 4.99 3.73, 5.01 4.01 C5.04 4.28, 5.04 4.71, 5.05 4.85 C5.06 4.99, 5.06 4.71, 5.05 4.85" stroke="none" stroke-width="0" fill="#ffffff"></path><path d="M5.05 4.85 C5.05 5.13, 5.04 5.42, 5.01 5.69 C4.99 5.97, 4.95 6.24, 4.9 6.51 C4.85 6.77, 4.78 7.03, 4.71 7.27 C4.64 7.52, 4.55 7.75, 4.46 7.97 C4.36 8.18, 4.26 8.38, 4.15 8.56 C4.04 8.75, 3.91 8.91, 3.79 9.05 C3.66 9.19, 3.53 9.31, 3.39 9.41 C3.25 9.5, 3.11 9.58, 2.96 9.63 C2.82 9.67, 2.67 9.7, 2.52 9.7 C2.38 9.7, 2.23 9.67, 2.09 9.63 C1.94 9.58, 1.8 9.5, 1.66 9.41 C1.52 9.31, 1.39 9.19, 1.26 9.05 C1.14 8.91, 1.01 8.75, 0.9 8.56 C0.79 8.38, 0.68 8.18, 0.59 7.97 C0.5 7.75, 0.41 7.52, 0.34 7.27 C0.27 7.03, 0.2 6.77, 0.15 6.51 C0.1 6.24, 0.06 5.97, 0.04 5.69 C0.01 5.42, 0 5.13, 0 4.85 C0 4.57, 0.01 4.28, 0.04 4.01 C0.06 3.73, 0.1 3.45, 0.15 3.19 C0.2 2.93, 0.27 2.67, 0.34 2.42 C0.41 2.18, 0.5 1.95, 0.59 1.73 C0.68 1.52, 0.79 1.32, 0.9 1.13 C1.01 0.95, 1.14 0.79, 1.26 0.65 C1.39 0.51, 1.52 0.39, 1.66 0.29 C1.8 0.2, 1.94 0.12, 2.09 0.07 C2.23 0.02, 2.38 0, 2.52 0 C2.67 0, 2.82 0.02, 2.96 0.07 C3.11 0.12, 3.25 0.2, 3.39 0.29 C3.53 0.39, 3.66 0.51, 3.79 0.65 C3.91 0.79, 4.04 0.95, 4.15 1.13 C4.26 1.32, 4.36 1.52, 4.46 1.73 C4.55 1.95, 4.64 2.18, 4.71 2.42 C4.78 2.67, 4.85 2.93, 4.9 3.19 C4.95 3.45, 4.99 3.73, 5.01 4.01 C5.04 4.28, 5.04 4.71, 5.05 4.85 C5.06 4.99, 5.06 4.71, 5.05 4.85" stroke="#1e1e1e" stroke-width="4" fill="none"></path></g><g stroke-linecap="round" transform="translate(122.81080375391957 66.35887211483896) rotate(0 2.524716178858853 4.849623404087652)"><path d="M5.05 4.85 C5.05 5.13, 5.04 5.42, 5.01 5.69 C4.99 5.97, 4.95 6.24, 4.9 6.51 C4.85 6.77, 4.78 7.03, 4.71 7.27 C4.64 7.52, 4.55 7.75, 4.46 7.97 C4.36 8.18, 4.26 8.38, 4.15 8.56 C4.04 8.75, 3.91 8.91, 3.79 9.05 C3.66 9.19, 3.53 9.31, 3.39 9.41 C3.25 9.5, 3.11 9.58, 2.96 9.63 C2.82 9.67, 2.67 9.7, 2.52 9.7 C2.38 9.7, 2.23 9.67, 2.09 9.63 C1.94 9.58, 1.8 9.5, 1.66 9.41 C1.52 9.31, 1.39 9.19, 1.26 9.05 C1.14 8.91, 1.01 8.75, 0.9 8.56 C0.79 8.38, 0.68 8.18, 0.59 7.97 C0.5 7.75, 0.41 7.52, 0.34 7.27 C0.27 7.03, 0.2 6.77, 0.15 6.51 C0.1 6.24, 0.06 5.97, 0.04 5.69 C0.01 5.42, 0 5.13, 0 4.85 C0 4.57, 0.01 4.28, 0.04 4.01 C0.06 3.73, 0.1 3.45, 0.15 3.19 C0.2 2.93, 0.27 2.67, 0.34 2.42 C0.41 2.18, 0.5 1.95, 0.59 1.73 C0.68 1.52, 0.79 1.32, 0.9 1.13 C1.01 0.95, 1.14 0.79, 1.26 0.65 C1.39 0.51, 1.52 0.39, 1.66 0.29 C1.8 0.2, 1.94 0.12, 2.09 0.07 C2.23 0.02, 2.38 0, 2.52 0 C2.67 0, 2.82 0.02, 2.96 0.07 C3.11 0.12, 3.25 0.2, 3.39 0.29 C3.53 0.39, 3.66 0.51, 3.79 0.65 C3.91 0.79, 4.04 0.95, 4.15 1.13 C4.26 1.32, 4.36 1.52, 4.46 1.73 C4.55 1.95, 4.64 2.18, 4.71 2.42 C4.78 2.67, 4.85 2.93, 4.9 3.19 C4.95 3.45, 4.99 3.73, 5.01 4.01 C5.04 4.28, 5.04 4.71, 5.05 4.85 C5.06 4.99, 5.06 4.71, 5.05 4.85" stroke="none" stroke-width="0" fill="#ffffff"></path><path d="M5.05 4.85 C5.05 5.13, 5.04 5.42, 5.01 5.69 C4.99 5.97, 4.95 6.24, 4.9 6.51 C4.85 6.77, 4.78 7.03, 4.71 7.27 C4.64 7.52, 4.55 7.75, 4.46 7.97 C4.36 8.18, 4.26 8.38, 4.15 8.56 C4.04 8.75, 3.91 8.91, 3.79 9.05 C3.66 9.19, 3.53 9.31, 3.39 9.41 C3.25 9.5, 3.11 9.58, 2.96 9.63 C2.82 9.67, 2.67 9.7, 2.52 9.7 C2.38 9.7, 2.23 9.67, 2.09 9.63 C1.94 9.58, 1.8 9.5, 1.66 9.41 C1.52 9.31, 1.39 9.19, 1.26 9.05 C1.14 8.91, 1.01 8.75, 0.9 8.56 C0.79 8.38, 0.68 8.18, 0.59 7.97 C0.5 7.75, 0.41 7.52, 0.34 7.27 C0.27 7.03, 0.2 6.77, 0.15 6.51 C0.1 6.24, 0.06 5.97, 0.04 5.69 C0.01 5.42, 0 5.13, 0 4.85 C0 4.57, 0.01 4.28, 0.04 4.01 C0.06 3.73, 0.1 3.45, 0.15 3.19 C0.2 2.93, 0.27 2.67, 0.34 2.42 C0.41 2.18, 0.5 1.95, 0.59 1.73 C0.68 1.52, 0.79 1.32, 0.9 1.13 C1.01 0.95, 1.14 0.79, 1.26 0.65 C1.39 0.51, 1.52 0.39, 1.66 0.29 C1.8 0.2, 1.94 0.12, 2.09 0.07 C2.23 0.02, 2.38 0, 2.52 0 C2.67 0, 2.82 0.02, 2.96 0.07 C3.11 0.12, 3.25 0.2, 3.39 0.29 C3.53 0.39, 3.66 0.51, 3.79 0.65 C3.91 0.79, 4.04 0.95, 4.15 1.13 C4.26 1.32, 4.36 1.52, 4.46 1.73 C4.55 1.95, 4.64 2.18, 4.71 2.42 C4.78 2.67, 4.85 2.93, 4.9 3.19 C4.95 3.45, 4.99 3.73, 5.01 4.01 C5.04 4.28, 5.04 4.71, 5.05 4.85 C5.06 4.99, 5.06 4.71, 5.05 4.85" stroke="#1e1e1e" stroke-width="4" fill="none"></path></g><g stroke-linecap="round" transform="translate(144.14819370250098 65.62931791311894) rotate(0 8.901590759573537 8.532673671055818)"><path d="M17.8 8.53 C17.8 9.03, 17.76 9.53, 17.67 10.01 C17.58 10.5, 17.44 10.99, 17.27 11.45 C17.09 11.92, 16.87 12.37, 16.61 12.8 C16.35 13.23, 16.05 13.64, 15.72 14.02 C15.39 14.4, 15.02 14.75, 14.62 15.07 C14.23 15.39, 13.8 15.68, 13.35 15.92 C12.91 16.17, 12.43 16.38, 11.95 16.55 C11.46 16.72, 10.95 16.85, 10.45 16.94 C9.94 17.02, 9.42 17.07, 8.9 17.07 C8.39 17.07, 7.86 17.02, 7.36 16.94 C6.85 16.85, 6.34 16.72, 5.86 16.55 C5.37 16.38, 4.9 16.17, 4.45 15.92 C4 15.68, 3.57 15.39, 3.18 15.07 C2.79 14.75, 2.41 14.4, 2.08 14.02 C1.75 13.64, 1.45 13.23, 1.19 12.8 C0.93 12.37, 0.71 11.92, 0.54 11.45 C0.36 10.99, 0.22 10.5, 0.14 10.01 C0.05 9.53, 0 9.03, 0 8.53 C0 8.04, 0.05 7.54, 0.14 7.05 C0.22 6.56, 0.36 6.08, 0.54 5.61 C0.71 5.15, 0.93 4.69, 1.19 4.27 C1.45 3.84, 1.75 3.43, 2.08 3.05 C2.41 2.67, 2.79 2.31, 3.18 2 C3.57 1.68, 4 1.39, 4.45 1.14 C4.9 0.9, 5.37 0.68, 5.86 0.51 C6.34 0.35, 6.85 0.22, 7.36 0.13 C7.86 0.04, 8.39 0, 8.9 0 C9.42 0, 9.94 0.04, 10.45 0.13 C10.95 0.22, 11.46 0.35, 11.95 0.51 C12.43 0.68, 12.91 0.9, 13.35 1.14 C13.8 1.39, 14.23 1.68, 14.62 2 C15.02 2.31, 15.39 2.67, 15.72 3.05 C16.05 3.43, 16.35 3.84, 16.61 4.27 C16.87 4.69, 17.09 5.15, 17.27 5.61 C17.44 6.08, 17.58 6.56, 17.67 7.05 C17.76 7.54, 17.78 8.29, 17.8 8.53 C17.83 8.78, 17.83 8.29, 17.8 8.53" stroke="none" stroke-width="0" fill="#ffffff"></path><path d="M17.8 8.53 C17.8 9.03, 17.76 9.53, 17.67 10.01 C17.58 10.5, 17.44 10.99, 17.27 11.45 C17.09 11.92, 16.87 12.37, 16.61 12.8 C16.35 13.23, 16.05 13.64, 15.72 14.02 C15.39 14.4, 15.02 14.75, 14.62 15.07 C14.23 15.39, 13.8 15.68, 13.35 15.92 C12.91 16.17, 12.43 16.38, 11.95 16.55 C11.46 16.72, 10.95 16.85, 10.45 16.94 C9.94 17.02, 9.42 17.07, 8.9 17.07 C8.39 17.07, 7.86 17.02, 7.36 16.94 C6.85 16.85, 6.34 16.72, 5.86 16.55 C5.37 16.38, 4.9 16.17, 4.45 15.92 C4 15.68, 3.57 15.39, 3.18 15.07 C2.79 14.75, 2.41 14.4, 2.08 14.02 C1.75 13.64, 1.45 13.23, 1.19 12.8 C0.93 12.37, 0.71 11.92, 0.54 11.45 C0.36 10.99, 0.22 10.5, 0.14 10.01 C0.05 9.53, 0 9.03, 0 8.53 C0 8.04, 0.05 7.54, 0.14 7.05 C0.22 6.56, 0.36 6.08, 0.54 5.61 C0.71 5.15, 0.93 4.69, 1.19 4.27 C1.45 3.84, 1.75 3.43, 2.08 3.05 C2.41 2.67, 2.79 2.31, 3.18 2 C3.57 1.68, 4 1.39, 4.45 1.14 C4.9 0.9, 5.37 0.68, 5.86 0.51 C6.34 0.35, 6.85 0.22, 7.36 0.13 C7.86 0.04, 8.39 0, 8.9 0 C9.42 0, 9.94 0.04, 10.45 0.13 C10.95 0.22, 11.46 0.35, 11.95 0.51 C12.43 0.68, 12.91 0.9, 13.35 1.14 C13.8 1.39, 14.23 1.68, 14.62 2 C15.02 2.31, 15.39 2.67, 15.72 3.05 C16.05 3.43, 16.35 3.84, 16.61 4.27 C16.87 4.69, 17.09 5.15, 17.27 5.61 C17.44 6.08, 17.58 6.56, 17.67 7.05 C17.76 7.54, 17.78 8.29, 17.8 8.53 C17.83 8.78, 17.83 8.29, 17.8 8.53" stroke="#1e1e1e" stroke-width="4" fill="none"></path></g><g stroke-linecap="round" transform="translate(151.0496505369947 54.49863986168748) rotate(0 5.684281870816903 5.533286245940872)"><path d="M11.37 5.53 C11.37 5.85, 11.34 6.18, 11.28 6.49 C11.23 6.81, 11.14 7.12, 11.03 7.43 C10.91 7.73, 10.77 8.02, 10.61 8.3 C10.44 8.58, 10.25 8.84, 10.04 9.09 C9.83 9.34, 9.59 9.57, 9.34 9.77 C9.09 9.98, 8.81 10.17, 8.53 10.33 C8.24 10.49, 7.94 10.62, 7.63 10.73 C7.32 10.84, 7 10.93, 6.67 10.98 C6.35 11.04, 6.01 11.07, 5.68 11.07 C5.36 11.07, 5.02 11.04, 4.7 10.98 C4.37 10.93, 4.05 10.84, 3.74 10.73 C3.43 10.62, 3.13 10.49, 2.84 10.33 C2.56 10.17, 2.28 9.98, 2.03 9.77 C1.78 9.57, 1.54 9.34, 1.33 9.09 C1.12 8.84, 0.93 8.58, 0.76 8.3 C0.6 8.02, 0.46 7.73, 0.34 7.43 C0.23 7.12, 0.14 6.81, 0.09 6.49 C0.03 6.18, 0 5.85, 0 5.53 C0 5.21, 0.03 4.89, 0.09 4.57 C0.14 4.26, 0.23 3.94, 0.34 3.64 C0.46 3.34, 0.6 3.04, 0.76 2.77 C0.93 2.49, 1.12 2.22, 1.33 1.98 C1.54 1.73, 1.78 1.5, 2.03 1.29 C2.28 1.09, 2.56 0.9, 2.84 0.74 C3.13 0.58, 3.43 0.44, 3.74 0.33 C4.05 0.22, 4.37 0.14, 4.7 0.08 C5.02 0.03, 5.36 0, 5.68 0 C6.01 0, 6.35 0.03, 6.67 0.08 C7 0.14, 7.32 0.22, 7.63 0.33 C7.94 0.44, 8.24 0.58, 8.53 0.74 C8.81 0.9, 9.09 1.09, 9.34 1.29 C9.59 1.5, 9.83 1.73, 10.04 1.98 C10.25 2.22, 10.44 2.49, 10.61 2.77 C10.77 3.04, 10.91 3.34, 11.03 3.64 C11.14 3.94, 11.23 4.26, 11.28 4.57 C11.34 4.89, 11.35 5.37, 11.37 5.53 C11.38 5.69, 11.38 5.37, 11.37 5.53" stroke="none" stroke-width="0" fill="#ffffff"></path><path d="M11.37 5.53 C11.37 5.85, 11.34 6.18, 11.28 6.49 C11.23 6.81, 11.14 7.12, 11.03 7.43 C10.91 7.73, 10.77 8.02, 10.61 8.3 C10.44 8.58, 10.25 8.84, 10.04 9.09 C9.83 9.34, 9.59 9.57, 9.34 9.77 C9.09 9.98, 8.81 10.17, 8.53 10.33 C8.24 10.49, 7.94 10.62, 7.63 10.73 C7.32 10.84, 7 10.93, 6.67 10.98 C6.35 11.04, 6.01 11.07, 5.68 11.07 C5.36 11.07, 5.02 11.04, 4.7 10.98 C4.37 10.93, 4.05 10.84, 3.74 10.73 C3.43 10.62, 3.13 10.49, 2.84 10.33 C2.56 10.17, 2.28 9.98, 2.03 9.77 C1.78 9.57, 1.54 9.34, 1.33 9.09 C1.12 8.84, 0.93 8.58, 0.76 8.3 C0.6 8.02, 0.46 7.73, 0.34 7.43 C0.23 7.12, 0.14 6.81, 0.09 6.49 C0.03 6.18, 0 5.85, 0 5.53 C0 5.21, 0.03 4.89, 0.09 4.57 C0.14 4.26, 0.23 3.94, 0.34 3.64 C0.46 3.34, 0.6 3.04, 0.76 2.77 C0.93 2.49, 1.12 2.22, 1.33 1.98 C1.54 1.73, 1.78 1.5, 2.03 1.29 C2.28 1.09, 2.56 0.9, 2.84 0.74 C3.13 0.58, 3.43 0.44, 3.74 0.33 C4.05 0.22, 4.37 0.14, 4.7 0.08 C5.02 0.03, 5.36 0, 5.68 0 C6.01 0, 6.35 0.03, 6.67 0.08 C7 0.14, 7.32 0.22, 7.63 0.33 C7.94 0.44, 8.24 0.58, 8.53 0.74 C8.81 0.9, 9.09 1.09, 9.34 1.29 C9.59 1.5, 9.83 1.73, 10.04 1.98 C10.25 2.22, 10.44 2.49, 10.61 2.77 C10.77 3.04, 10.91 3.34, 11.03 3.64 C11.14 3.94, 11.23 4.26, 11.28 4.57 C11.34 4.89, 11.35 5.37, 11.37 5.53 C11.38 5.69, 11.38 5.37, 11.37 5.53" stroke="#1e1e1e" stroke-width="4" fill="none"></path></g><g stroke-linecap="round" transform="translate(170.13069447860926 57.79955455689742) rotate(0 2.824680080089365 3.2687386953921305)"><path d="M5.65 3.27 C5.65 3.46, 5.63 3.65, 5.61 3.84 C5.58 4.02, 5.53 4.21, 5.48 4.39 C5.42 4.56, 5.35 4.74, 5.27 4.9 C5.19 5.07, 5.09 5.22, 4.99 5.37 C4.88 5.51, 4.77 5.65, 4.64 5.77 C4.52 5.89, 4.38 6, 4.24 6.1 C4.1 6.19, 3.94 6.28, 3.79 6.34 C3.64 6.41, 3.48 6.45, 3.32 6.49 C3.15 6.52, 2.99 6.54, 2.82 6.54 C2.66 6.54, 2.5 6.52, 2.33 6.49 C2.17 6.45, 2.01 6.41, 1.86 6.34 C1.7 6.28, 1.55 6.19, 1.41 6.1 C1.27 6, 1.13 5.89, 1.01 5.77 C0.88 5.65, 0.77 5.51, 0.66 5.37 C0.56 5.22, 0.46 5.07, 0.38 4.9 C0.3 4.74, 0.23 4.56, 0.17 4.39 C0.11 4.21, 0.07 4.02, 0.04 3.84 C0.01 3.65, 0 3.46, 0 3.27 C0 3.08, 0.01 2.89, 0.04 2.7 C0.07 2.51, 0.11 2.33, 0.17 2.15 C0.23 1.97, 0.3 1.8, 0.38 1.63 C0.46 1.47, 0.56 1.31, 0.66 1.17 C0.77 1.02, 0.88 0.89, 1.01 0.76 C1.13 0.64, 1.27 0.53, 1.41 0.44 C1.55 0.34, 1.7 0.26, 1.86 0.2 C2.01 0.13, 2.17 0.08, 2.33 0.05 C2.5 0.02, 2.66 0, 2.82 0 C2.99 0, 3.15 0.02, 3.32 0.05 C3.48 0.08, 3.64 0.13, 3.79 0.2 C3.94 0.26, 4.1 0.34, 4.24 0.44 C4.38 0.53, 4.52 0.64, 4.64 0.76 C4.77 0.89, 4.88 1.02, 4.99 1.17 C5.09 1.31, 5.19 1.47, 5.27 1.63 C5.35 1.8, 5.42 1.97, 5.48 2.15 C5.53 2.33, 5.58 2.51, 5.61 2.7 C5.63 2.89, 5.64 3.17, 5.65 3.27 C5.66 3.36, 5.66 3.17, 5.65 3.27" stroke="none" stroke-width="0" fill="#ffffff"></path><path d="M5.65 3.27 C5.65 3.46, 5.63 3.65, 5.61 3.84 C5.58 4.02, 5.53 4.21, 5.48 4.39 C5.42 4.56, 5.35 4.74, 5.27 4.9 C5.19 5.07, 5.09 5.22, 4.99 5.37 C4.88 5.51, 4.77 5.65, 4.64 5.77 C4.52 5.89, 4.38 6, 4.24 6.1 C4.1 6.19, 3.94 6.28, 3.79 6.34 C3.64 6.41, 3.48 6.45, 3.32 6.49 C3.15 6.52, 2.99 6.54, 2.82 6.54 C2.66 6.54, 2.5 6.52, 2.33 6.49 C2.17 6.45, 2.01 6.41, 1.86 6.34 C1.7 6.28, 1.55 6.19, 1.41 6.1 C1.27 6, 1.13 5.89, 1.01 5.77 C0.88 5.65, 0.77 5.51, 0.66 5.37 C0.56 5.22, 0.46 5.07, 0.38 4.9 C0.3 4.74, 0.23 4.56, 0.17 4.39 C0.11 4.21, 0.07 4.02, 0.04 3.84 C0.01 3.65, 0 3.46, 0 3.27 C0 3.08, 0.01 2.89, 0.04 2.7 C0.07 2.51, 0.11 2.33, 0.17 2.15 C0.23 1.97, 0.3 1.8, 0.38 1.63 C0.46 1.47, 0.56 1.31, 0.66 1.17 C0.77 1.02, 0.88 0.89, 1.01 0.76 C1.13 0.64, 1.27 0.53, 1.41 0.44 C1.55 0.34, 1.7 0.26, 1.86 0.2 C2.01 0.13, 2.17 0.08, 2.33 0.05 C2.5 0.02, 2.66 0, 2.82 0 C2.99 0, 3.15 0.02, 3.32 0.05 C3.48 0.08, 3.64 0.13, 3.79 0.2 C3.94 0.26, 4.1 0.34, 4.24 0.44 C4.38 0.53, 4.52 0.64, 4.64 0.76 C4.77 0.89, 4.88 1.02, 4.99 1.17 C5.09 1.31, 5.19 1.47, 5.27 1.63 C5.35 1.8, 5.42 1.97, 5.48 2.15 C5.53 2.33, 5.58 2.51, 5.61 2.7 C5.63 2.89, 5.64 3.17, 5.65 3.27 C5.66 3.36, 5.66 3.17, 5.65 3.27" stroke="#1e1e1e" stroke-width="4" fill="none"></path></g><g stroke-linecap="round" transform="translate(28.166164125763316 64.78299918156335) rotate(0 7.929108855897084 7.332769414485483)"><path d="M15.86 7.33 C15.86 7.76, 15.82 8.19, 15.74 8.61 C15.66 9.02, 15.54 9.44, 15.38 9.84 C15.22 10.24, 15.03 10.63, 14.8 11 C14.57 11.37, 14.3 11.72, 14 12.05 C13.71 12.37, 13.38 12.68, 13.03 12.95 C12.67 13.22, 12.29 13.47, 11.89 13.68 C11.5 13.9, 11.07 14.08, 10.64 14.22 C10.21 14.37, 9.76 14.48, 9.31 14.55 C8.85 14.63, 8.39 14.67, 7.93 14.67 C7.47 14.67, 7 14.63, 6.55 14.55 C6.1 14.48, 5.65 14.37, 5.22 14.22 C4.79 14.08, 4.36 13.9, 3.96 13.68 C3.57 13.47, 3.18 13.22, 2.83 12.95 C2.48 12.68, 2.15 12.37, 1.86 12.05 C1.56 11.72, 1.29 11.37, 1.06 11 C0.83 10.63, 0.64 10.24, 0.48 9.84 C0.32 9.44, 0.2 9.02, 0.12 8.61 C0.04 8.19, 0 7.76, 0 7.33 C0 6.91, 0.04 6.48, 0.12 6.06 C0.2 5.64, 0.32 5.22, 0.48 4.82 C0.64 4.43, 0.83 4.03, 1.06 3.67 C1.29 3.3, 1.56 2.94, 1.86 2.62 C2.15 2.29, 2.48 1.99, 2.83 1.72 C3.18 1.44, 3.57 1.19, 3.96 0.98 C4.36 0.77, 4.79 0.59, 5.22 0.44 C5.65 0.3, 6.1 0.19, 6.55 0.11 C7 0.04, 7.47 0, 7.93 0 C8.39 0, 8.85 0.04, 9.31 0.11 C9.76 0.19, 10.21 0.3, 10.64 0.44 C11.07 0.59, 11.5 0.77, 11.89 0.98 C12.29 1.19, 12.67 1.44, 13.03 1.72 C13.38 1.99, 13.71 2.29, 14 2.62 C14.3 2.94, 14.57 3.3, 14.8 3.67 C15.03 4.03, 15.22 4.43, 15.38 4.82 C15.54 5.22, 15.66 5.64, 15.74 6.06 C15.82 6.48, 15.84 7.12, 15.86 7.33 C15.88 7.54, 15.88 7.12, 15.86 7.33" stroke="none" stroke-width="0" fill="#ffffff"></path><path d="M15.86 7.33 C15.86 7.76, 15.82 8.19, 15.74 8.61 C15.66 9.02, 15.54 9.44, 15.38 9.84 C15.22 10.24, 15.03 10.63, 14.8 11 C14.57 11.37, 14.3 11.72, 14 12.05 C13.71 12.37, 13.38 12.68, 13.03 12.95 C12.67 13.22, 12.29 13.47, 11.89 13.68 C11.5 13.9, 11.07 14.08, 10.64 14.22 C10.21 14.37, 9.76 14.48, 9.31 14.55 C8.85 14.63, 8.39 14.67, 7.93 14.67 C7.47 14.67, 7 14.63, 6.55 14.55 C6.1 14.48, 5.65 14.37, 5.22 14.22 C4.79 14.08, 4.36 13.9, 3.96 13.68 C3.57 13.47, 3.18 13.22, 2.83 12.95 C2.48 12.68, 2.15 12.37, 1.86 12.05 C1.56 11.72, 1.29 11.37, 1.06 11 C0.83 10.63, 0.64 10.24, 0.48 9.84 C0.32 9.44, 0.2 9.02, 0.12 8.61 C0.04 8.19, 0 7.76, 0 7.33 C0 6.91, 0.04 6.48, 0.12 6.06 C0.2 5.64, 0.32 5.22, 0.48 4.82 C0.64 4.43, 0.83 4.03, 1.06 3.67 C1.29 3.3, 1.56 2.94, 1.86 2.62 C2.15 2.29, 2.48 1.99, 2.83 1.72 C3.18 1.44, 3.57 1.19, 3.96 0.98 C4.36 0.77, 4.79 0.59, 5.22 0.44 C5.65 0.3, 6.1 0.19, 6.55 0.11 C7 0.04, 7.47 0, 7.93 0 C8.39 0, 8.85 0.04, 9.31 0.11 C9.76 0.19, 10.21 0.3, 10.64 0.44 C11.07 0.59, 11.5 0.77, 11.89 0.98 C12.29 1.19, 12.67 1.44, 13.03 1.72 C13.38 1.99, 13.71 2.29, 14 2.62 C14.3 2.94, 14.57 3.3, 14.8 3.67 C15.03 4.03, 15.22 4.43, 15.38 4.82 C15.54 5.22, 15.66 5.64, 15.74 6.06 C15.82 6.48, 15.84 7.12, 15.86 7.33 C15.88 7.54, 15.88 7.12, 15.86 7.33" stroke="#1e1e1e" stroke-width="4" fill="none"></path></g><g stroke-linecap="round" transform="translate(10.729194808233842 48.14983181882417) rotate(0 10.734416888868509 9.942721747688665)"><path d="M21.47 9.94 C21.47 10.52, 21.41 11.1, 21.31 11.67 C21.2 12.24, 21.03 12.8, 20.82 13.34 C20.61 13.88, 20.34 14.42, 20.03 14.91 C19.72 15.41, 19.36 15.89, 18.96 16.33 C18.56 16.77, 18.11 17.19, 17.63 17.56 C17.16 17.93, 16.64 18.27, 16.1 18.55 C15.56 18.84, 14.99 19.09, 14.41 19.29 C13.82 19.48, 13.21 19.63, 12.6 19.73 C11.99 19.83, 11.36 19.89, 10.73 19.89 C10.11 19.89, 9.48 19.83, 8.87 19.73 C8.26 19.63, 7.65 19.48, 7.06 19.29 C6.48 19.09, 5.91 18.84, 5.37 18.55 C4.83 18.27, 4.31 17.93, 3.83 17.56 C3.36 17.19, 2.91 16.77, 2.51 16.33 C2.11 15.89, 1.75 15.41, 1.44 14.91 C1.13 14.42, 0.86 13.88, 0.65 13.34 C0.43 12.8, 0.27 12.24, 0.16 11.67 C0.06 11.1, 0 10.52, 0 9.94 C0 9.37, 0.06 8.78, 0.16 8.22 C0.27 7.65, 0.43 7.08, 0.65 6.54 C0.86 6, 1.13 5.47, 1.44 4.97 C1.75 4.47, 2.11 3.99, 2.51 3.55 C2.91 3.11, 3.36 2.7, 3.83 2.33 C4.31 1.96, 4.83 1.62, 5.37 1.33 C5.91 1.04, 6.48 0.8, 7.06 0.6 C7.65 0.4, 8.26 0.25, 8.87 0.15 C9.48 0.05, 10.11 0, 10.73 0 C11.36 0, 11.99 0.05, 12.6 0.15 C13.21 0.25, 13.82 0.4, 14.41 0.6 C14.99 0.8, 15.56 1.04, 16.1 1.33 C16.64 1.62, 17.16 1.96, 17.63 2.33 C18.11 2.7, 18.56 3.11, 18.96 3.55 C19.36 3.99, 19.72 4.47, 20.03 4.97 C20.34 5.47, 20.61 6, 20.82 6.54 C21.03 7.08, 21.2 7.65, 21.31 8.22 C21.41 8.78, 21.44 9.65, 21.47 9.94 C21.5 10.23, 21.5 9.65, 21.47 9.94" stroke="none" stroke-width="0" fill="#ffffff"></path><path d="M21.47 9.94 C21.47 10.52, 21.41 11.1, 21.31 11.67 C21.2 12.24, 21.03 12.8, 20.82 13.34 C20.61 13.88, 20.34 14.42, 20.03 14.91 C19.72 15.41, 19.36 15.89, 18.96 16.33 C18.56 16.77, 18.11 17.19, 17.63 17.56 C17.16 17.93, 16.64 18.27, 16.1 18.55 C15.56 18.84, 14.99 19.09, 14.41 19.29 C13.82 19.48, 13.21 19.63, 12.6 19.73 C11.99 19.83, 11.36 19.89, 10.73 19.89 C10.11 19.89, 9.48 19.83, 8.87 19.73 C8.26 19.63, 7.65 19.48, 7.06 19.29 C6.48 19.09, 5.91 18.84, 5.37 18.55 C4.83 18.27, 4.31 17.93, 3.83 17.56 C3.36 17.19, 2.91 16.77, 2.51 16.33 C2.11 15.89, 1.75 15.41, 1.44 14.91 C1.13 14.42, 0.86 13.88, 0.65 13.34 C0.43 12.8, 0.27 12.24, 0.16 11.67 C0.06 11.1, 0 10.52, 0 9.94 C0 9.37, 0.06 8.78, 0.16 8.22 C0.27 7.65, 0.43 7.08, 0.65 6.54 C0.86 6, 1.13 5.47, 1.44 4.97 C1.75 4.47, 2.11 3.99, 2.51 3.55 C2.91 3.11, 3.36 2.7, 3.83 2.33 C4.31 1.96, 4.83 1.62, 5.37 1.33 C5.91 1.04, 6.48 0.8, 7.06 0.6 C7.65 0.4, 8.26 0.25, 8.87 0.15 C9.48 0.05, 10.11 0, 10.73 0 C11.36 0, 11.99 0.05, 12.6 0.15 C13.21 0.25, 13.82 0.4, 14.41 0.6 C14.99 0.8, 15.56 1.04, 16.1 1.33 C16.64 1.62, 17.16 1.96, 17.63 2.33 C18.11 2.7, 18.56 3.11, 18.96 3.55 C19.36 3.99, 19.72 4.47, 20.03 4.97 C20.34 5.47, 20.61 6, 20.82 6.54 C21.03 7.08, 21.2 7.65, 21.31 8.22 C21.41 8.78, 21.44 9.65, 21.47 9.94 C21.5 10.23, 21.5 9.65, 21.47 9.94" stroke="#1e1e1e" stroke-width="4" fill="none"></path></g><g stroke-linecap="round" transform="translate(10 78.24556722230591) rotate(0 4.087038169518564 4.417162139349784)"><path d="M8.17 4.42 C8.17 4.67, 8.15 4.93, 8.11 5.18 C8.07 5.44, 8.01 5.69, 7.93 5.93 C7.85 6.17, 7.74 6.4, 7.63 6.63 C7.51 6.85, 7.37 7.06, 7.22 7.26 C7.07 7.45, 6.9 7.64, 6.71 7.8 C6.53 7.97, 6.34 8.11, 6.13 8.24 C5.93 8.37, 5.71 8.48, 5.48 8.57 C5.26 8.66, 5.03 8.72, 4.8 8.77 C4.56 8.81, 4.32 8.83, 4.09 8.83 C3.85 8.83, 3.61 8.81, 3.38 8.77 C3.14 8.72, 2.91 8.66, 2.69 8.57 C2.47 8.48, 2.25 8.37, 2.04 8.24 C1.84 8.11, 1.64 7.97, 1.46 7.8 C1.28 7.64, 1.11 7.45, 0.96 7.26 C0.8 7.06, 0.67 6.85, 0.55 6.63 C0.43 6.4, 0.33 6.17, 0.25 5.93 C0.17 5.69, 0.1 5.44, 0.06 5.18 C0.02 4.93, 0 4.67, 0 4.42 C0 4.16, 0.02 3.9, 0.06 3.65 C0.1 3.4, 0.17 3.15, 0.25 2.91 C0.33 2.67, 0.43 2.43, 0.55 2.21 C0.67 1.99, 0.8 1.77, 0.96 1.58 C1.11 1.38, 1.28 1.2, 1.46 1.03 C1.64 0.87, 1.84 0.72, 2.04 0.59 C2.25 0.46, 2.47 0.35, 2.69 0.27 C2.91 0.18, 3.14 0.11, 3.38 0.07 C3.61 0.02, 3.85 0, 4.09 0 C4.32 0, 4.56 0.02, 4.8 0.07 C5.03 0.11, 5.26 0.18, 5.48 0.27 C5.71 0.35, 5.93 0.46, 6.13 0.59 C6.34 0.72, 6.53 0.87, 6.71 1.03 C6.9 1.2, 7.07 1.38, 7.22 1.58 C7.37 1.77, 7.51 1.99, 7.63 2.21 C7.74 2.43, 7.85 2.67, 7.93 2.91 C8.01 3.15, 8.07 3.4, 8.11 3.65 C8.15 3.9, 8.16 4.29, 8.17 4.42 C8.18 4.55, 8.18 4.29, 8.17 4.42" stroke="none" stroke-width="0" fill="#ffffff"></path><path d="M8.17 4.42 C8.17 4.67, 8.15 4.93, 8.11 5.18 C8.07 5.44, 8.01 5.69, 7.93 5.93 C7.85 6.17, 7.74 6.4, 7.63 6.63 C7.51 6.85, 7.37 7.06, 7.22 7.26 C7.07 7.45, 6.9 7.64, 6.71 7.8 C6.53 7.97, 6.34 8.11, 6.13 8.24 C5.93 8.37, 5.71 8.48, 5.48 8.57 C5.26 8.66, 5.03 8.72, 4.8 8.77 C4.56 8.81, 4.32 8.83, 4.09 8.83 C3.85 8.83, 3.61 8.81, 3.38 8.77 C3.14 8.72, 2.91 8.66, 2.69 8.57 C2.47 8.48, 2.25 8.37, 2.04 8.24 C1.84 8.11, 1.64 7.97, 1.46 7.8 C1.28 7.64, 1.11 7.45, 0.96 7.26 C0.8 7.06, 0.67 6.85, 0.55 6.63 C0.43 6.4, 0.33 6.17, 0.25 5.93 C0.17 5.69, 0.1 5.44, 0.06 5.18 C0.02 4.93, 0 4.67, 0 4.42 C0 4.16, 0.02 3.9, 0.06 3.65 C0.1 3.4, 0.17 3.15, 0.25 2.91 C0.33 2.67, 0.43 2.43, 0.55 2.21 C0.67 1.99, 0.8 1.77, 0.96 1.58 C1.11 1.38, 1.28 1.2, 1.46 1.03 C1.64 0.87, 1.84 0.72, 2.04 0.59 C2.25 0.46, 2.47 0.35, 2.69 0.27 C2.91 0.18, 3.14 0.11, 3.38 0.07 C3.61 0.02, 3.85 0, 4.09 0 C4.32 0, 4.56 0.02, 4.8 0.07 C5.03 0.11, 5.26 0.18, 5.48 0.27 C5.71 0.35, 5.93 0.46, 6.13 0.59 C6.34 0.72, 6.53 0.87, 6.71 1.03 C6.9 1.2, 7.07 1.38, 7.22 1.58 C7.37 1.77, 7.51 1.99, 7.63 2.21 C7.74 2.43, 7.85 2.67, 7.93 2.91 C8.01 3.15, 8.07 3.4, 8.11 3.65 C8.15 3.9, 8.16 4.29, 8.17 4.42 C8.18 4.55, 8.18 4.29, 8.17 4.42" stroke="#1e1e1e" stroke-width="4" fill="none"></path></g><g stroke-linecap="round"><g transform="translate(111.67695803845345 95.59802777603727) rotate(0 8.276868770515193 -1.1830219780940752)"><path d="M0 0 C2.76 -0.39, 13.79 -1.97, 16.55 -2.37 M0 0 C2.76 -0.39, 13.79 -1.97, 16.55 -2.37" stroke="#1e1e1e" stroke-width="4" fill="none"></path></g></g><mask></mask></svg>