<svg version="1.1" xmlns="http://www.w3.org/2000/svg" viewBox="0 0 161.01954766801646 126.38425231221117" width="161.01954766801646" height="126.38425231221117">
  <!-- svg-source:excalidraw -->
  
  <defs>
    <style class="style-fonts">
      @font-face {
        font-family: "Virgil";
        src: url("https://excalidraw.com/Virgil.woff2");
      }
      @font-face {
        font-family: "Cascadia";
        src: url("https://excalidraw.com/Cascadia.woff2");
      }
      @font-face {
        font-family: "Assistant";
        src: url("https://excalidraw.com/Assistant-Regular.woff2");
      }
    </style>
    
  </defs>
  <g stroke-linecap="round" transform="translate(23.452642212629144 10) rotate(0 52.21660845963561 53.19212615610468)"><path d="M104.43 53.19 C104.43 55.51, 104.28 57.84, 103.99 60.14 C103.69 62.43, 103.24 64.72, 102.65 66.96 C102.07 69.19, 101.33 71.41, 100.46 73.55 C99.59 75.69, 98.57 77.78, 97.44 79.79 C96.3 81.79, 95.03 83.74, 93.64 85.57 C92.26 87.41, 90.75 89.17, 89.14 90.8 C87.53 92.44, 85.81 93.98, 84 95.39 C82.2 96.8, 80.29 98.1, 78.32 99.26 C76.36 100.42, 74.3 101.45, 72.2 102.34 C70.1 103.22, 67.93 103.97, 65.73 104.57 C63.54 105.17, 61.28 105.63, 59.03 105.93 C56.78 106.23, 54.49 106.38, 52.22 106.38 C49.94 106.38, 47.65 106.23, 45.4 105.93 C43.15 105.63, 40.9 105.17, 38.7 104.57 C36.51 103.97, 34.33 103.22, 32.23 102.34 C30.14 101.45, 28.08 100.42, 26.11 99.26 C24.14 98.1, 22.23 96.8, 20.43 95.39 C18.63 93.98, 16.9 92.44, 15.29 90.8 C13.69 89.17, 12.17 87.41, 10.79 85.57 C9.41 83.74, 8.13 81.79, 7 79.79 C5.86 77.78, 4.84 75.69, 3.97 73.55 C3.11 71.41, 2.37 69.19, 1.78 66.96 C1.19 64.72, 0.74 62.43, 0.45 60.14 C0.15 57.84, 0 55.51, 0 53.19 C0 50.88, 0.15 48.54, 0.45 46.25 C0.74 43.95, 1.19 41.66, 1.78 39.42 C2.37 37.19, 3.11 34.97, 3.97 32.84 C4.84 30.7, 5.86 28.6, 7 26.6 C8.13 24.59, 9.41 22.65, 10.79 20.81 C12.17 18.97, 13.69 17.22, 15.29 15.58 C16.9 13.94, 18.63 12.4, 20.43 10.99 C22.23 9.58, 24.14 8.28, 26.11 7.13 C28.08 5.97, 30.14 4.93, 32.23 4.05 C34.33 3.16, 36.51 2.41, 38.7 1.81 C40.9 1.21, 43.15 0.76, 45.4 0.46 C47.65 0.15, 49.94 0, 52.22 0 C54.49 0, 56.78 0.15, 59.03 0.46 C61.28 0.76, 63.54 1.21, 65.73 1.81 C67.93 2.41, 70.1 3.16, 72.2 4.05 C74.3 4.93, 76.36 5.97, 78.32 7.13 C80.29 8.28, 82.2 9.58, 84 10.99 C85.81 12.4, 87.53 13.94, 89.14 15.58 C90.75 17.22, 92.26 18.97, 93.64 20.81 C95.03 22.65, 96.3 24.59, 97.44 26.6 C98.57 28.6, 99.59 30.7, 100.46 32.84 C101.33 34.97, 102.07 37.19, 102.65 39.42 C103.24 41.66, 103.69 43.95, 103.99 46.25 C104.28 48.54, 104.36 52.03, 104.43 53.19 C104.51 54.35, 104.51 52.03, 104.43 53.19" stroke="#1e1e1e" stroke-width="1" fill="none"></path></g><g stroke-linecap="round" transform="translate(45.534584043378345 23.395663662198785) rotate(0 16.28786849566086 19.20598344717928)"><path d="M32.58 19.21 C32.58 20.32, 32.49 21.45, 32.33 22.54 C32.16 23.64, 31.92 24.73, 31.59 25.77 C31.27 26.82, 30.86 27.85, 30.39 28.81 C29.92 29.77, 29.37 30.7, 28.77 31.55 C28.16 32.4, 27.48 33.2, 26.76 33.92 C26.04 34.63, 25.25 35.28, 24.43 35.84 C23.62 36.39, 22.74 36.87, 21.86 37.25 C20.97 37.63, 20.04 37.93, 19.12 38.12 C18.19 38.31, 17.23 38.41, 16.29 38.41 C15.35 38.41, 14.39 38.31, 13.46 38.12 C12.53 37.93, 11.6 37.63, 10.72 37.25 C9.83 36.87, 8.96 36.39, 8.14 35.84 C7.33 35.28, 6.54 34.63, 5.82 33.92 C5.1 33.2, 4.42 32.4, 3.81 31.55 C3.2 30.7, 2.65 29.77, 2.18 28.81 C1.71 27.85, 1.3 26.82, 0.98 25.77 C0.66 24.73, 0.41 23.64, 0.25 22.54 C0.08 21.45, 0 20.32, 0 19.21 C0 18.09, 0.08 16.97, 0.25 15.87 C0.41 14.78, 0.66 13.68, 0.98 12.64 C1.3 11.59, 1.71 10.57, 2.18 9.6 C2.65 8.64, 3.2 7.71, 3.81 6.86 C4.42 6.01, 5.1 5.21, 5.82 4.49 C6.54 3.78, 7.33 3.13, 8.14 2.57 C8.96 2.02, 9.83 1.54, 10.72 1.16 C11.6 0.78, 12.53 0.48, 13.46 0.29 C14.39 0.1, 15.35 0, 16.29 0 C17.23 0, 18.19 0.1, 19.12 0.29 C20.04 0.48, 20.97 0.78, 21.86 1.16 C22.74 1.54, 23.62 2.02, 24.43 2.57 C25.25 3.13, 26.04 3.78, 26.76 4.49 C27.48 5.21, 28.16 6.01, 28.77 6.86 C29.37 7.71, 29.92 8.64, 30.39 9.6 C30.86 10.57, 31.27 11.59, 31.59 12.64 C31.92 13.68, 32.16 14.78, 32.33 15.87 C32.49 16.97, 32.53 18.65, 32.58 19.21 C32.62 19.76, 32.62 18.65, 32.58 19.21" stroke="none" stroke-width="0" fill="#ffffff"></path><path d="M32.58 19.21 C32.58 20.32, 32.49 21.45, 32.33 22.54 C32.16 23.64, 31.92 24.73, 31.59 25.77 C31.27 26.82, 30.86 27.85, 30.39 28.81 C29.92 29.77, 29.37 30.7, 28.77 31.55 C28.16 32.4, 27.48 33.2, 26.76 33.92 C26.04 34.63, 25.25 35.28, 24.43 35.84 C23.62 36.39, 22.74 36.87, 21.86 37.25 C20.97 37.63, 20.04 37.93, 19.12 38.12 C18.19 38.31, 17.23 38.41, 16.29 38.41 C15.35 38.41, 14.39 38.31, 13.46 38.12 C12.53 37.93, 11.6 37.63, 10.72 37.25 C9.83 36.87, 8.96 36.39, 8.14 35.84 C7.33 35.28, 6.54 34.63, 5.82 33.92 C5.1 33.2, 4.42 32.4, 3.81 31.55 C3.2 30.7, 2.65 29.77, 2.18 28.81 C1.71 27.85, 1.3 26.82, 0.98 25.77 C0.66 24.73, 0.41 23.64, 0.25 22.54 C0.08 21.45, 0 20.32, 0 19.21 C0 18.09, 0.08 16.97, 0.25 15.87 C0.41 14.78, 0.66 13.68, 0.98 12.64 C1.3 11.59, 1.71 10.57, 2.18 9.6 C2.65 8.64, 3.2 7.71, 3.81 6.86 C4.42 6.01, 5.1 5.21, 5.82 4.49 C6.54 3.78, 7.33 3.13, 8.14 2.57 C8.96 2.02, 9.83 1.54, 10.72 1.16 C11.6 0.78, 12.53 0.48, 13.46 0.29 C14.39 0.1, 15.35 0, 16.29 0 C17.23 0, 18.19 0.1, 19.12 0.29 C20.04 0.48, 20.97 0.78, 21.86 1.16 C22.74 1.54, 23.62 2.02, 24.43 2.57 C25.25 3.13, 26.04 3.78, 26.76 4.49 C27.48 5.21, 28.16 6.01, 28.77 6.86 C29.37 7.71, 29.92 8.64, 30.39 9.6 C30.86 10.57, 31.27 11.59, 31.59 12.64 C31.92 13.68, 32.16 14.78, 32.33 15.87 C32.49 16.97, 32.53 18.65, 32.58 19.21 C32.62 19.76, 32.62 18.65, 32.58 19.21" stroke="#ffffff" stroke-width="4" fill="none"></path></g><g stroke-linecap="round" transform="translate(88.96637740948609 61.53834925522642) rotate(0 17.02074610706859 14.687622745746921)"><path d="M34.04 14.69 C34.04 15.54, 33.95 16.4, 33.78 17.24 C33.61 18.08, 33.35 18.91, 33.02 19.71 C32.68 20.51, 32.25 21.3, 31.76 22.03 C31.27 22.77, 30.69 23.48, 30.06 24.13 C29.43 24.78, 28.72 25.39, 27.96 25.94 C27.21 26.49, 26.38 26.98, 25.53 27.41 C24.68 27.83, 23.77 28.2, 22.84 28.49 C21.92 28.78, 20.95 29, 19.98 29.15 C19.01 29.3, 18.01 29.38, 17.02 29.38 C16.04 29.38, 15.04 29.3, 14.07 29.15 C13.09 29, 12.13 28.78, 11.2 28.49 C10.27 28.2, 9.36 27.83, 8.51 27.41 C7.66 26.98, 6.83 26.49, 6.08 25.94 C5.33 25.39, 4.62 24.78, 3.98 24.13 C3.35 23.48, 2.77 22.77, 2.28 22.03 C1.79 21.3, 1.36 20.51, 1.03 19.71 C0.69 18.91, 0.43 18.08, 0.26 17.24 C0.09 16.4, 0 15.54, 0 14.69 C0 13.84, 0.09 12.97, 0.26 12.14 C0.43 11.3, 0.69 10.46, 1.03 9.66 C1.36 8.87, 1.79 8.08, 2.28 7.34 C2.77 6.61, 3.35 5.9, 3.98 5.25 C4.62 4.6, 5.33 3.98, 6.08 3.44 C6.83 2.89, 7.66 2.39, 8.51 1.97 C9.36 1.54, 10.27 1.18, 11.2 0.89 C12.13 0.6, 13.09 0.37, 14.07 0.22 C15.04 0.08, 16.04 0, 17.02 0 C18.01 0, 19.01 0.08, 19.98 0.22 C20.95 0.37, 21.92 0.6, 22.84 0.89 C23.77 1.18, 24.68 1.54, 25.53 1.97 C26.38 2.39, 27.21 2.89, 27.96 3.44 C28.72 3.98, 29.43 4.6, 30.06 5.25 C30.69 5.9, 31.27 6.61, 31.76 7.34 C32.25 8.08, 32.68 8.87, 33.02 9.66 C33.35 10.46, 33.61 11.3, 33.78 12.14 C33.95 12.97, 34 14.26, 34.04 14.69 C34.08 15.11, 34.08 14.26, 34.04 14.69" stroke="none" stroke-width="0" fill="#ffffff"></path><path d="M34.04 14.69 C34.04 15.54, 33.95 16.4, 33.78 17.24 C33.61 18.08, 33.35 18.91, 33.02 19.71 C32.68 20.51, 32.25 21.3, 31.76 22.03 C31.27 22.77, 30.69 23.48, 30.06 24.13 C29.43 24.78, 28.72 25.39, 27.96 25.94 C27.21 26.49, 26.38 26.98, 25.53 27.41 C24.68 27.83, 23.77 28.2, 22.84 28.49 C21.92 28.78, 20.95 29, 19.98 29.15 C19.01 29.3, 18.01 29.38, 17.02 29.38 C16.04 29.38, 15.04 29.3, 14.07 29.15 C13.09 29, 12.13 28.78, 11.2 28.49 C10.27 28.2, 9.36 27.83, 8.51 27.41 C7.66 26.98, 6.83 26.49, 6.08 25.94 C5.33 25.39, 4.62 24.78, 3.98 24.13 C3.35 23.48, 2.77 22.77, 2.28 22.03 C1.79 21.3, 1.36 20.51, 1.03 19.71 C0.69 18.91, 0.43 18.08, 0.26 17.24 C0.09 16.4, 0 15.54, 0 14.69 C0 13.84, 0.09 12.97, 0.26 12.14 C0.43 11.3, 0.69 10.46, 1.03 9.66 C1.36 8.87, 1.79 8.08, 2.28 7.34 C2.77 6.61, 3.35 5.9, 3.98 5.25 C4.62 4.6, 5.33 3.98, 6.08 3.44 C6.83 2.89, 7.66 2.39, 8.51 1.97 C9.36 1.54, 10.27 1.18, 11.2 0.89 C12.13 0.6, 13.09 0.37, 14.07 0.22 C15.04 0.08, 16.04 0, 17.02 0 C18.01 0, 19.01 0.08, 19.98 0.22 C20.95 0.37, 21.92 0.6, 22.84 0.89 C23.77 1.18, 24.68 1.54, 25.53 1.97 C26.38 2.39, 27.21 2.89, 27.96 3.44 C28.72 3.98, 29.43 4.6, 30.06 5.25 C30.69 5.9, 31.27 6.61, 31.76 7.34 C32.25 8.08, 32.68 8.87, 33.02 9.66 C33.35 10.46, 33.61 11.3, 33.78 12.14 C33.95 12.97, 34 14.26, 34.04 14.69 C34.08 15.11, 34.08 14.26, 34.04 14.69" stroke="#ffffff" stroke-width="4" fill="none"></path></g><g stroke-linecap="round" transform="translate(26.34947842429756 46.42898385837361) rotate(0 15.215801215060765 15.937785049226477)"><path d="M30.43 15.94 C30.43 16.86, 30.35 17.8, 30.2 18.71 C30.05 19.61, 29.82 20.52, 29.51 21.39 C29.21 22.26, 28.83 23.11, 28.39 23.91 C27.95 24.71, 27.44 25.48, 26.87 26.18 C26.31 26.89, 25.67 27.55, 25 28.15 C24.32 28.74, 23.59 29.28, 22.82 29.74 C22.06 30.2, 21.25 30.6, 20.42 30.91 C19.59 31.23, 18.73 31.47, 17.86 31.63 C16.99 31.79, 16.1 31.88, 15.22 31.88 C14.34 31.88, 13.44 31.79, 12.57 31.63 C11.71 31.47, 10.84 31.23, 10.01 30.91 C9.18 30.6, 8.37 30.2, 7.61 29.74 C6.85 29.28, 6.11 28.74, 5.44 28.15 C4.76 27.55, 4.13 26.89, 3.56 26.18 C2.99 25.48, 2.48 24.71, 2.04 23.91 C1.6 23.11, 1.22 22.26, 0.92 21.39 C0.62 20.52, 0.38 19.61, 0.23 18.71 C0.08 17.8, 0 16.86, 0 15.94 C0 15.02, 0.08 14.08, 0.23 13.17 C0.38 12.26, 0.62 11.35, 0.92 10.49 C1.22 9.62, 1.6 8.77, 2.04 7.97 C2.48 7.17, 2.99 6.4, 3.56 5.69 C4.13 4.99, 4.76 4.32, 5.44 3.73 C6.11 3.14, 6.85 2.6, 7.61 2.14 C8.37 1.67, 9.18 1.28, 10.01 0.96 C10.84 0.65, 11.71 0.4, 12.57 0.24 C13.44 0.08, 14.34 0, 15.22 0 C16.1 0, 16.99 0.08, 17.86 0.24 C18.73 0.4, 19.59 0.65, 20.42 0.96 C21.25 1.28, 22.06 1.67, 22.82 2.14 C23.59 2.6, 24.32 3.14, 25 3.73 C25.67 4.32, 26.31 4.99, 26.87 5.69 C27.44 6.4, 27.95 7.17, 28.39 7.97 C28.83 8.77, 29.21 9.62, 29.51 10.49 C29.82 11.35, 30.05 12.26, 30.2 13.17 C30.35 14.08, 30.39 15.48, 30.43 15.94 C30.47 16.4, 30.47 15.48, 30.43 15.94" stroke="none" stroke-width="0" fill="#ffffff"></path><path d="M30.43 15.94 C30.43 16.86, 30.35 17.8, 30.2 18.71 C30.05 19.61, 29.82 20.52, 29.51 21.39 C29.21 22.26, 28.83 23.11, 28.39 23.91 C27.95 24.71, 27.44 25.48, 26.87 26.18 C26.31 26.89, 25.67 27.55, 25 28.15 C24.32 28.74, 23.59 29.28, 22.82 29.74 C22.06 30.2, 21.25 30.6, 20.42 30.91 C19.59 31.23, 18.73 31.47, 17.86 31.63 C16.99 31.79, 16.1 31.88, 15.22 31.88 C14.34 31.88, 13.44 31.79, 12.57 31.63 C11.71 31.47, 10.84 31.23, 10.01 30.91 C9.18 30.6, 8.37 30.2, 7.61 29.74 C6.85 29.28, 6.11 28.74, 5.44 28.15 C4.76 27.55, 4.13 26.89, 3.56 26.18 C2.99 25.48, 2.48 24.71, 2.04 23.91 C1.6 23.11, 1.22 22.26, 0.92 21.39 C0.62 20.52, 0.38 19.61, 0.23 18.71 C0.08 17.8, 0 16.86, 0 15.94 C0 15.02, 0.08 14.08, 0.23 13.17 C0.38 12.26, 0.62 11.35, 0.92 10.49 C1.22 9.62, 1.6 8.77, 2.04 7.97 C2.48 7.17, 2.99 6.4, 3.56 5.69 C4.13 4.99, 4.76 4.32, 5.44 3.73 C6.11 3.14, 6.85 2.6, 7.61 2.14 C8.37 1.67, 9.18 1.28, 10.01 0.96 C10.84 0.65, 11.71 0.4, 12.57 0.24 C13.44 0.08, 14.34 0, 15.22 0 C16.1 0, 16.99 0.08, 17.86 0.24 C18.73 0.4, 19.59 0.65, 20.42 0.96 C21.25 1.28, 22.06 1.67, 22.82 2.14 C23.59 2.6, 24.32 3.14, 25 3.73 C25.67 4.32, 26.31 4.99, 26.87 5.69 C27.44 6.4, 27.95 7.17, 28.39 7.97 C28.83 8.77, 29.21 9.62, 29.51 10.49 C29.82 11.35, 30.05 12.26, 30.2 13.17 C30.35 14.08, 30.39 15.48, 30.43 15.94 C30.47 16.4, 30.47 15.48, 30.43 15.94" stroke="#ffffff" stroke-width="4" fill="none"></path></g><g stroke-linecap="round" transform="translate(76.58158849629126 35.44965283214697) rotate(0 14.451047470208778 13.855065452094095)"><path d="M28.9 13.86 C28.9 14.66, 28.83 15.47, 28.68 16.26 C28.54 17.05, 28.32 17.84, 28.03 18.59 C27.74 19.35, 27.38 20.09, 26.97 20.78 C26.55 21.48, 26.06 22.15, 25.52 22.76 C24.98 23.38, 24.38 23.95, 23.74 24.47 C23.1 24.98, 22.4 25.45, 21.68 25.85 C20.95 26.25, 20.18 26.6, 19.39 26.87 C18.61 27.15, 17.78 27.36, 16.96 27.5 C16.14 27.64, 15.29 27.71, 14.45 27.71 C13.61 27.71, 12.77 27.64, 11.94 27.5 C11.12 27.36, 10.29 27.15, 9.51 26.87 C8.72 26.6, 7.95 26.25, 7.23 25.85 C6.5 25.45, 5.8 24.98, 5.16 24.47 C4.52 23.95, 3.92 23.38, 3.38 22.76 C2.84 22.15, 2.35 21.48, 1.94 20.78 C1.52 20.09, 1.16 19.35, 0.87 18.59 C0.59 17.84, 0.36 17.05, 0.22 16.26 C0.07 15.47, 0 14.66, 0 13.86 C0 13.05, 0.07 12.24, 0.22 11.45 C0.36 10.66, 0.59 9.87, 0.87 9.12 C1.16 8.36, 1.52 7.62, 1.94 6.93 C2.35 6.23, 2.84 5.56, 3.38 4.95 C3.92 4.33, 4.52 3.76, 5.16 3.24 C5.8 2.73, 6.5 2.26, 7.23 1.86 C7.95 1.46, 8.72 1.11, 9.51 0.84 C10.29 0.56, 11.12 0.35, 11.94 0.21 C12.77 0.07, 13.61 0, 14.45 0 C15.29 0, 16.14 0.07, 16.96 0.21 C17.78 0.35, 18.61 0.56, 19.39 0.84 C20.18 1.11, 20.95 1.46, 21.68 1.86 C22.4 2.26, 23.1 2.73, 23.74 3.24 C24.38 3.76, 24.98 4.33, 25.52 4.95 C26.06 5.56, 26.55 6.23, 26.97 6.93 C27.38 7.62, 27.74 8.36, 28.03 9.12 C28.32 9.87, 28.54 10.66, 28.68 11.45 C28.83 12.24, 28.87 13.45, 28.9 13.86 C28.94 14.26, 28.94 13.45, 28.9 13.86" stroke="none" stroke-width="0" fill="#ffffff"></path><path d="M28.9 13.86 C28.9 14.66, 28.83 15.47, 28.68 16.26 C28.54 17.05, 28.32 17.84, 28.03 18.59 C27.74 19.35, 27.38 20.09, 26.97 20.78 C26.55 21.48, 26.06 22.15, 25.52 22.76 C24.98 23.38, 24.38 23.95, 23.74 24.47 C23.1 24.98, 22.4 25.45, 21.68 25.85 C20.95 26.25, 20.18 26.6, 19.39 26.87 C18.61 27.15, 17.78 27.36, 16.96 27.5 C16.14 27.64, 15.29 27.71, 14.45 27.71 C13.61 27.71, 12.77 27.64, 11.94 27.5 C11.12 27.36, 10.29 27.15, 9.51 26.87 C8.72 26.6, 7.95 26.25, 7.23 25.85 C6.5 25.45, 5.8 24.98, 5.16 24.47 C4.52 23.95, 3.92 23.38, 3.38 22.76 C2.84 22.15, 2.35 21.48, 1.94 20.78 C1.52 20.09, 1.16 19.35, 0.87 18.59 C0.59 17.84, 0.36 17.05, 0.22 16.26 C0.07 15.47, 0 14.66, 0 13.86 C0 13.05, 0.07 12.24, 0.22 11.45 C0.36 10.66, 0.59 9.87, 0.87 9.12 C1.16 8.36, 1.52 7.62, 1.94 6.93 C2.35 6.23, 2.84 5.56, 3.38 4.95 C3.92 4.33, 4.52 3.76, 5.16 3.24 C5.8 2.73, 6.5 2.26, 7.23 1.86 C7.95 1.46, 8.72 1.11, 9.51 0.84 C10.29 0.56, 11.12 0.35, 11.94 0.21 C12.77 0.07, 13.61 0, 14.45 0 C15.29 0, 16.14 0.07, 16.96 0.21 C17.78 0.35, 18.61 0.56, 19.39 0.84 C20.18 1.11, 20.95 1.46, 21.68 1.86 C22.4 2.26, 23.1 2.73, 23.74 3.24 C24.38 3.76, 24.98 4.33, 25.52 4.95 C26.06 5.56, 26.55 6.23, 26.97 6.93 C27.38 7.62, 27.74 8.36, 28.03 9.12 C28.32 9.87, 28.54 10.66, 28.68 11.45 C28.83 12.24, 28.87 13.45, 28.9 13.86 C28.94 14.26, 28.94 13.45, 28.9 13.86" stroke="#ffffff" stroke-width="4" fill="none"></path></g><g stroke-linecap="round" transform="translate(25.736794842604468 44.96674487839846) rotate(0 16.863138121080283 17.062042713665505)"><path d="M33.73 17.06 C33.73 18.05, 33.64 19.05, 33.47 20.02 C33.3 21, 33.04 21.97, 32.71 22.9 C32.38 23.83, 31.96 24.74, 31.47 25.59 C30.98 26.45, 30.41 27.27, 29.78 28.03 C29.15 28.79, 28.45 29.5, 27.7 30.13 C26.95 30.77, 26.14 31.34, 25.29 31.84 C24.45 32.33, 23.55 32.76, 22.63 33.1 C21.71 33.43, 20.75 33.69, 19.79 33.86 C18.83 34.04, 17.84 34.12, 16.86 34.12 C15.89 34.12, 14.9 34.04, 13.93 33.86 C12.97 33.69, 12.01 33.43, 11.1 33.1 C10.18 32.76, 9.28 32.33, 8.43 31.84 C7.59 31.34, 6.77 30.77, 6.02 30.13 C5.28 29.5, 4.57 28.79, 3.95 28.03 C3.32 27.27, 2.75 26.45, 2.26 25.59 C1.77 24.74, 1.35 23.83, 1.02 22.9 C0.68 21.97, 0.43 21, 0.26 20.02 C0.09 19.05, 0 18.05, 0 17.06 C0 16.07, 0.09 15.07, 0.26 14.1 C0.43 13.13, 0.68 12.15, 1.02 11.23 C1.35 10.3, 1.77 9.39, 2.26 8.53 C2.75 7.68, 3.32 6.85, 3.95 6.09 C4.57 5.34, 5.28 4.63, 6.02 3.99 C6.77 3.36, 7.59 2.78, 8.43 2.29 C9.28 1.79, 10.18 1.37, 11.1 1.03 C12.01 0.69, 12.97 0.43, 13.93 0.26 C14.9 0.09, 15.89 0, 16.86 0 C17.84 0, 18.83 0.09, 19.79 0.26 C20.75 0.43, 21.71 0.69, 22.63 1.03 C23.55 1.37, 24.45 1.79, 25.29 2.29 C26.14 2.78, 26.95 3.36, 27.7 3.99 C28.45 4.63, 29.15 5.34, 29.78 6.09 C30.41 6.85, 30.98 7.68, 31.47 8.53 C31.96 9.39, 32.38 10.3, 32.71 11.23 C33.04 12.15, 33.3 13.13, 33.47 14.1 C33.64 15.07, 33.68 16.57, 33.73 17.06 C33.77 17.56, 33.77 16.57, 33.73 17.06" stroke="#1e1e1e" stroke-width="4" fill="none"></path></g><g stroke-linecap="round" transform="translate(44.789706357129944 21.520213905550918) rotate(0 17.620046384731722 17.619369853176067)"><path d="M35.24 17.62 C35.24 18.64, 35.15 19.67, 34.97 20.68 C34.8 21.68, 34.53 22.69, 34.18 23.65 C33.83 24.6, 33.39 25.55, 32.88 26.43 C32.37 27.31, 31.77 28.16, 31.12 28.94 C30.46 29.73, 29.73 30.46, 28.95 31.12 C28.16 31.77, 27.31 32.37, 26.43 32.88 C25.55 33.39, 24.6 33.83, 23.65 34.18 C22.69 34.52, 21.68 34.79, 20.68 34.97 C19.68 35.15, 18.64 35.24, 17.62 35.24 C16.6 35.24, 15.56 35.15, 14.56 34.97 C13.56 34.79, 12.55 34.52, 11.59 34.18 C10.64 33.83, 9.69 33.39, 8.81 32.88 C7.93 32.37, 7.08 31.77, 6.29 31.12 C5.51 30.46, 4.78 29.73, 4.12 28.94 C3.47 28.16, 2.87 27.31, 2.36 26.43 C1.85 25.55, 1.41 24.6, 1.06 23.65 C0.71 22.69, 0.44 21.68, 0.27 20.68 C0.09 19.67, 0 18.64, 0 17.62 C0 16.6, 0.09 15.56, 0.27 14.56 C0.44 13.56, 0.71 12.55, 1.06 11.59 C1.41 10.63, 1.85 9.69, 2.36 8.81 C2.87 7.93, 3.47 7.08, 4.12 6.29 C4.78 5.51, 5.51 4.78, 6.29 4.12 C7.08 3.47, 7.93 2.87, 8.81 2.36 C9.69 1.85, 10.64 1.41, 11.59 1.06 C12.55 0.71, 13.56 0.44, 14.56 0.27 C15.56 0.09, 16.6 0, 17.62 0 C18.64 0, 19.68 0.09, 20.68 0.27 C21.68 0.44, 22.69 0.71, 23.65 1.06 C24.6 1.41, 25.55 1.85, 26.43 2.36 C27.31 2.87, 28.16 3.47, 28.95 4.12 C29.73 4.78, 30.46 5.51, 31.12 6.29 C31.77 7.08, 32.37 7.93, 32.88 8.81 C33.39 9.69, 33.83 10.63, 34.18 11.59 C34.53 12.55, 34.8 13.56, 34.97 14.56 C35.15 15.56, 35.2 17.11, 35.24 17.62 C35.28 18.13, 35.28 17.11, 35.24 17.62" stroke="#1e1e1e" stroke-width="4" fill="none"></path></g><g stroke-linecap="round" transform="translate(49.139262297587265 51.734304998461084) rotate(0 16.863138121080283 17.619369853176067)"><path d="M33.73 17.62 C33.73 18.64, 33.64 19.67, 33.47 20.68 C33.3 21.68, 33.04 22.69, 32.71 23.65 C32.38 24.6, 31.96 25.55, 31.47 26.43 C30.98 27.31, 30.41 28.16, 29.78 28.94 C29.15 29.73, 28.45 30.46, 27.7 31.12 C26.95 31.77, 26.14 32.37, 25.29 32.88 C24.45 33.39, 23.55 33.83, 22.63 34.18 C21.71 34.52, 20.75 34.79, 19.79 34.97 C18.83 35.15, 17.84 35.24, 16.86 35.24 C15.89 35.24, 14.9 35.15, 13.93 34.97 C12.97 34.79, 12.01 34.52, 11.1 34.18 C10.18 33.83, 9.28 33.39, 8.43 32.88 C7.59 32.37, 6.77 31.77, 6.02 31.12 C5.28 30.46, 4.57 29.73, 3.95 28.94 C3.32 28.16, 2.75 27.31, 2.26 26.43 C1.77 25.55, 1.35 24.6, 1.02 23.65 C0.68 22.69, 0.43 21.68, 0.26 20.68 C0.09 19.67, 0 18.64, 0 17.62 C0 16.6, 0.09 15.56, 0.26 14.56 C0.43 13.56, 0.68 12.55, 1.02 11.59 C1.35 10.63, 1.77 9.69, 2.26 8.81 C2.75 7.93, 3.32 7.08, 3.95 6.29 C4.57 5.51, 5.28 4.78, 6.02 4.12 C6.77 3.47, 7.59 2.87, 8.43 2.36 C9.28 1.85, 10.18 1.41, 11.1 1.06 C12.01 0.71, 12.97 0.44, 13.93 0.27 C14.9 0.09, 15.89 0, 16.86 0 C17.84 0, 18.83 0.09, 19.79 0.27 C20.75 0.44, 21.71 0.71, 22.63 1.06 C23.55 1.41, 24.45 1.85, 25.29 2.36 C26.14 2.87, 26.95 3.47, 27.7 4.12 C28.45 4.78, 29.15 5.51, 29.78 6.29 C30.41 7.08, 30.98 7.93, 31.47 8.81 C31.96 9.69, 32.38 10.63, 32.71 11.59 C33.04 12.55, 33.3 13.56, 33.47 14.56 C33.64 15.56, 33.68 17.11, 33.73 17.62 C33.77 18.13, 33.77 17.11, 33.73 17.62" stroke="#1e1e1e" stroke-width="4" fill="none"></path></g><g stroke-linecap="round" transform="translate(74.2241939741898 32.587615941905824) rotate(0 16.572605930659392 17.52241056773437)"><path d="M33.15 17.52 C33.15 18.54, 33.06 19.57, 32.89 20.57 C32.73 21.56, 32.47 22.56, 32.15 23.52 C31.82 24.47, 31.4 25.41, 30.92 26.28 C30.45 27.16, 29.88 28.01, 29.27 28.79 C28.65 29.56, 27.96 30.29, 27.23 30.95 C26.49 31.6, 25.69 32.19, 24.86 32.7 C24.03 33.2, 23.14 33.64, 22.24 33.99 C21.34 34.33, 20.4 34.6, 19.45 34.78 C18.51 34.95, 17.53 35.04, 16.57 35.04 C15.61 35.04, 14.64 34.95, 13.69 34.78 C12.75 34.6, 11.81 34.33, 10.9 33.99 C10 33.64, 9.12 33.2, 8.29 32.7 C7.46 32.19, 6.65 31.6, 5.92 30.95 C5.19 30.29, 4.49 29.56, 3.88 28.79 C3.26 28.01, 2.7 27.16, 2.22 26.28 C1.74 25.41, 1.33 24.47, 1 23.52 C0.67 22.56, 0.42 21.56, 0.25 20.57 C0.09 19.57, 0 18.54, 0 17.52 C0 16.51, 0.09 15.48, 0.25 14.48 C0.42 13.48, 0.67 12.48, 1 11.53 C1.33 10.58, 1.74 9.64, 2.22 8.76 C2.7 7.88, 3.26 7.04, 3.88 6.26 C4.49 5.48, 5.19 4.75, 5.92 4.1 C6.65 3.45, 7.46 2.85, 8.29 2.35 C9.12 1.84, 10 1.4, 10.9 1.06 C11.81 0.71, 12.75 0.44, 13.69 0.27 C14.64 0.09, 15.61 0, 16.57 0 C17.53 0, 18.51 0.09, 19.45 0.27 C20.4 0.44, 21.34 0.71, 22.24 1.06 C23.14 1.4, 24.03 1.84, 24.86 2.35 C25.69 2.85, 26.49 3.45, 27.23 4.1 C27.96 4.75, 28.65 5.48, 29.27 6.26 C29.88 7.04, 30.45 7.88, 30.92 8.76 C31.4 9.64, 31.82 10.58, 32.15 11.53 C32.47 12.48, 32.73 13.48, 32.89 14.48 C33.06 15.48, 33.1 17.02, 33.15 17.52 C33.19 18.03, 33.19 17.02, 33.15 17.52" stroke="#1e1e1e" stroke-width="4" fill="none"></path></g><g stroke-linecap="round" transform="translate(78.06374215537653 59.29624765521112) rotate(0 16.863138121080283 17.619369853176067)"><path d="M33.73 17.62 C33.73 18.64, 33.64 19.67, 33.47 20.68 C33.3 21.68, 33.04 22.69, 32.71 23.65 C32.38 24.6, 31.96 25.55, 31.47 26.43 C30.98 27.31, 30.41 28.16, 29.78 28.94 C29.15 29.73, 28.45 30.46, 27.7 31.12 C26.95 31.77, 26.14 32.37, 25.29 32.88 C24.45 33.39, 23.55 33.83, 22.63 34.18 C21.71 34.52, 20.75 34.79, 19.79 34.97 C18.83 35.15, 17.84 35.24, 16.86 35.24 C15.89 35.24, 14.9 35.15, 13.93 34.97 C12.97 34.79, 12.01 34.52, 11.1 34.18 C10.18 33.83, 9.28 33.39, 8.43 32.88 C7.59 32.37, 6.77 31.77, 6.02 31.12 C5.28 30.46, 4.57 29.73, 3.95 28.94 C3.32 28.16, 2.75 27.31, 2.26 26.43 C1.77 25.55, 1.35 24.6, 1.02 23.65 C0.68 22.69, 0.43 21.68, 0.26 20.68 C0.09 19.67, 0 18.64, 0 17.62 C0 16.6, 0.09 15.56, 0.26 14.56 C0.43 13.56, 0.68 12.55, 1.02 11.59 C1.35 10.63, 1.77 9.69, 2.26 8.81 C2.75 7.93, 3.32 7.08, 3.95 6.29 C4.57 5.51, 5.28 4.78, 6.02 4.12 C6.77 3.47, 7.59 2.87, 8.43 2.36 C9.28 1.85, 10.18 1.41, 11.1 1.06 C12.01 0.71, 12.97 0.44, 13.93 0.27 C14.9 0.09, 15.89 0, 16.86 0 C17.84 0, 18.83 0.09, 19.79 0.27 C20.75 0.44, 21.71 0.71, 22.63 1.06 C23.55 1.41, 24.45 1.85, 25.29 2.36 C26.14 2.87, 26.95 3.47, 27.7 4.12 C28.45 4.78, 29.15 5.51, 29.78 6.29 C30.41 7.08, 30.98 7.93, 31.47 8.81 C31.96 9.69, 32.38 10.63, 32.71 11.59 C33.04 12.55, 33.3 13.56, 33.47 14.56 C33.64 15.56, 33.68 17.11, 33.73 17.62 C33.77 18.13, 33.77 17.11, 33.73 17.62" stroke="#1e1e1e" stroke-width="4" fill="none"></path></g><g stroke-linecap="round" transform="translate(90.56748141967182 58.57656278753893) rotate(0 16.863138121080283 16.888263366979118)"><path d="M33.73 16.89 C33.73 17.87, 33.64 18.86, 33.47 19.82 C33.3 20.78, 33.04 21.75, 32.71 22.66 C32.38 23.58, 31.96 24.49, 31.47 25.33 C30.98 26.18, 30.41 26.99, 29.78 27.74 C29.15 28.49, 28.45 29.2, 27.7 29.83 C26.95 30.45, 26.14 31.03, 25.29 31.51 C24.45 32, 23.55 32.42, 22.63 32.76 C21.71 33.09, 20.75 33.35, 19.79 33.52 C18.83 33.69, 17.84 33.78, 16.86 33.78 C15.89 33.78, 14.9 33.69, 13.93 33.52 C12.97 33.35, 12.01 33.09, 11.1 32.76 C10.18 32.42, 9.28 32, 8.43 31.51 C7.59 31.03, 6.77 30.45, 6.02 29.83 C5.28 29.2, 4.57 28.49, 3.95 27.74 C3.32 26.99, 2.75 26.18, 2.26 25.33 C1.77 24.49, 1.35 23.58, 1.02 22.66 C0.68 21.75, 0.43 20.78, 0.26 19.82 C0.09 18.86, 0 17.87, 0 16.89 C0 15.91, 0.09 14.92, 0.26 13.96 C0.43 12.99, 0.68 12.03, 1.02 11.11 C1.35 10.19, 1.77 9.29, 2.26 8.44 C2.75 7.6, 3.32 6.78, 3.95 6.03 C4.57 5.28, 5.28 4.58, 6.02 3.95 C6.77 3.32, 7.59 2.75, 8.43 2.26 C9.28 1.77, 10.18 1.35, 11.1 1.02 C12.01 0.68, 12.97 0.43, 13.93 0.26 C14.9 0.09, 15.89 0, 16.86 0 C17.84 0, 18.83 0.09, 19.79 0.26 C20.75 0.43, 21.71 0.68, 22.63 1.02 C23.55 1.35, 24.45 1.77, 25.29 2.26 C26.14 2.75, 26.95 3.32, 27.7 3.95 C28.45 4.58, 29.15 5.28, 29.78 6.03 C30.41 6.78, 30.98 7.6, 31.47 8.44 C31.96 9.29, 32.38 10.19, 32.71 11.11 C33.04 12.03, 33.3 12.99, 33.47 13.96 C33.64 14.92, 33.68 16.4, 33.73 16.89 C33.77 17.38, 33.77 16.4, 33.73 16.89" stroke="#1e1e1e" stroke-width="4" fill="none"></path></g><g stroke-linecap="round" transform="translate(51.67687290011327 52.100002396731725) rotate(0 14.46772122316088 15.628688714906275)"><path d="M28.94 15.63 C28.94 16.53, 28.86 17.45, 28.72 18.34 C28.57 19.23, 28.35 20.12, 28.06 20.97 C27.78 21.82, 27.42 22.66, 27 23.44 C26.58 24.23, 26.09 24.98, 25.55 25.67 C25.01 26.37, 24.41 27.02, 23.77 27.6 C23.13 28.18, 22.43 28.71, 21.7 29.16 C20.98 29.62, 20.2 30.01, 19.42 30.31 C18.63 30.62, 17.8 30.86, 16.98 31.02 C16.16 31.18, 15.31 31.26, 14.47 31.26 C13.63 31.26, 12.78 31.18, 11.96 31.02 C11.13 30.86, 10.31 30.62, 9.52 30.31 C8.73 30.01, 7.96 29.62, 7.23 29.16 C6.51 28.71, 5.81 28.18, 5.17 27.6 C4.53 27.02, 3.92 26.37, 3.38 25.67 C2.85 24.98, 2.36 24.23, 1.94 23.44 C1.52 22.66, 1.16 21.82, 0.87 20.97 C0.59 20.12, 0.37 19.23, 0.22 18.34 C0.07 17.45, 0 16.53, 0 15.63 C0 14.72, 0.07 13.81, 0.22 12.91 C0.37 12.02, 0.59 11.13, 0.87 10.28 C1.16 9.43, 1.52 8.6, 1.94 7.81 C2.36 7.03, 2.85 6.28, 3.38 5.58 C3.92 4.89, 4.53 4.24, 5.17 3.66 C5.81 3.07, 6.51 2.55, 7.23 2.09 C7.96 1.64, 8.73 1.25, 9.52 0.94 C10.31 0.63, 11.13 0.39, 11.96 0.24 C12.78 0.08, 13.63 0, 14.47 0 C15.31 0, 16.16 0.08, 16.98 0.24 C17.8 0.39, 18.63 0.63, 19.42 0.94 C20.2 1.25, 20.98 1.64, 21.7 2.09 C22.43 2.55, 23.13 3.07, 23.77 3.66 C24.41 4.24, 25.01 4.89, 25.55 5.58 C26.09 6.28, 26.58 7.03, 27 7.81 C27.42 8.6, 27.78 9.43, 28.06 10.28 C28.35 11.13, 28.57 12.02, 28.72 12.91 C28.86 13.81, 28.9 15.18, 28.94 15.63 C28.97 16.08, 28.97 15.18, 28.94 15.63" stroke="none" stroke-width="0" fill="#ffffff"></path><path d="M28.94 15.63 C28.94 16.53, 28.86 17.45, 28.72 18.34 C28.57 19.23, 28.35 20.12, 28.06 20.97 C27.78 21.82, 27.42 22.66, 27 23.44 C26.58 24.23, 26.09 24.98, 25.55 25.67 C25.01 26.37, 24.41 27.02, 23.77 27.6 C23.13 28.18, 22.43 28.71, 21.7 29.16 C20.98 29.62, 20.2 30.01, 19.42 30.31 C18.63 30.62, 17.8 30.86, 16.98 31.02 C16.16 31.18, 15.31 31.26, 14.47 31.26 C13.63 31.26, 12.78 31.18, 11.96 31.02 C11.13 30.86, 10.31 30.62, 9.52 30.31 C8.73 30.01, 7.96 29.62, 7.23 29.16 C6.51 28.71, 5.81 28.18, 5.17 27.6 C4.53 27.02, 3.92 26.37, 3.38 25.67 C2.85 24.98, 2.36 24.23, 1.94 23.44 C1.52 22.66, 1.16 21.82, 0.87 20.97 C0.59 20.12, 0.37 19.23, 0.22 18.34 C0.07 17.45, 0 16.53, 0 15.63 C0 14.72, 0.07 13.81, 0.22 12.91 C0.37 12.02, 0.59 11.13, 0.87 10.28 C1.16 9.43, 1.52 8.6, 1.94 7.81 C2.36 7.03, 2.85 6.28, 3.38 5.58 C3.92 4.89, 4.53 4.24, 5.17 3.66 C5.81 3.07, 6.51 2.55, 7.23 2.09 C7.96 1.64, 8.73 1.25, 9.52 0.94 C10.31 0.63, 11.13 0.39, 11.96 0.24 C12.78 0.08, 13.63 0, 14.47 0 C15.31 0, 16.16 0.08, 16.98 0.24 C17.8 0.39, 18.63 0.63, 19.42 0.94 C20.2 1.25, 20.98 1.64, 21.7 2.09 C22.43 2.55, 23.13 3.07, 23.77 3.66 C24.41 4.24, 25.01 4.89, 25.55 5.58 C26.09 6.28, 26.58 7.03, 27 7.81 C27.42 8.6, 27.78 9.43, 28.06 10.28 C28.35 11.13, 28.57 12.02, 28.72 12.91 C28.86 13.81, 28.9 15.18, 28.94 15.63 C28.97 16.08, 28.97 15.18, 28.94 15.63" stroke="#ffffff" stroke-width="4" fill="none"></path></g><g stroke-linecap="round" transform="translate(45.5613633959465 36.72108281254077) rotate(0 14.46772122316088 15.628688714906275)"><path d="M28.94 15.63 C28.94 16.53, 28.86 17.45, 28.72 18.34 C28.57 19.23, 28.35 20.12, 28.06 20.97 C27.78 21.82, 27.42 22.66, 27 23.44 C26.58 24.23, 26.09 24.98, 25.55 25.67 C25.01 26.37, 24.41 27.02, 23.77 27.6 C23.13 28.18, 22.43 28.71, 21.7 29.16 C20.98 29.62, 20.2 30.01, 19.42 30.31 C18.63 30.62, 17.8 30.86, 16.98 31.02 C16.16 31.18, 15.31 31.26, 14.47 31.26 C13.63 31.26, 12.78 31.18, 11.96 31.02 C11.13 30.86, 10.31 30.62, 9.52 30.31 C8.73 30.01, 7.96 29.62, 7.23 29.16 C6.51 28.71, 5.81 28.18, 5.17 27.6 C4.53 27.02, 3.92 26.37, 3.38 25.67 C2.85 24.98, 2.36 24.23, 1.94 23.44 C1.52 22.66, 1.16 21.82, 0.87 20.97 C0.59 20.12, 0.37 19.23, 0.22 18.34 C0.07 17.45, 0 16.53, 0 15.63 C0 14.72, 0.07 13.81, 0.22 12.91 C0.37 12.02, 0.59 11.13, 0.87 10.28 C1.16 9.43, 1.52 8.6, 1.94 7.81 C2.36 7.03, 2.85 6.28, 3.38 5.58 C3.92 4.89, 4.53 4.24, 5.17 3.66 C5.81 3.07, 6.51 2.55, 7.23 2.09 C7.96 1.64, 8.73 1.25, 9.52 0.94 C10.31 0.63, 11.13 0.39, 11.96 0.24 C12.78 0.08, 13.63 0, 14.47 0 C15.31 0, 16.16 0.08, 16.98 0.24 C17.8 0.39, 18.63 0.63, 19.42 0.94 C20.2 1.25, 20.98 1.64, 21.7 2.09 C22.43 2.55, 23.13 3.07, 23.77 3.66 C24.41 4.24, 25.01 4.89, 25.55 5.58 C26.09 6.28, 26.58 7.03, 27 7.81 C27.42 8.6, 27.78 9.43, 28.06 10.28 C28.35 11.13, 28.57 12.02, 28.72 12.91 C28.86 13.81, 28.9 15.18, 28.94 15.63 C28.97 16.08, 28.97 15.18, 28.94 15.63" stroke="none" stroke-width="0" fill="#ffffff"></path><path d="M28.94 15.63 C28.94 16.53, 28.86 17.45, 28.72 18.34 C28.57 19.23, 28.35 20.12, 28.06 20.97 C27.78 21.82, 27.42 22.66, 27 23.44 C26.58 24.23, 26.09 24.98, 25.55 25.67 C25.01 26.37, 24.41 27.02, 23.77 27.6 C23.13 28.18, 22.43 28.71, 21.7 29.16 C20.98 29.62, 20.2 30.01, 19.42 30.31 C18.63 30.62, 17.8 30.86, 16.98 31.02 C16.16 31.18, 15.31 31.26, 14.47 31.26 C13.63 31.26, 12.78 31.18, 11.96 31.02 C11.13 30.86, 10.31 30.62, 9.52 30.31 C8.73 30.01, 7.96 29.62, 7.23 29.16 C6.51 28.71, 5.81 28.18, 5.17 27.6 C4.53 27.02, 3.92 26.37, 3.38 25.67 C2.85 24.98, 2.36 24.23, 1.94 23.44 C1.52 22.66, 1.16 21.82, 0.87 20.97 C0.59 20.12, 0.37 19.23, 0.22 18.34 C0.07 17.45, 0 16.53, 0 15.63 C0 14.72, 0.07 13.81, 0.22 12.91 C0.37 12.02, 0.59 11.13, 0.87 10.28 C1.16 9.43, 1.52 8.6, 1.94 7.81 C2.36 7.03, 2.85 6.28, 3.38 5.58 C3.92 4.89, 4.53 4.24, 5.17 3.66 C5.81 3.07, 6.51 2.55, 7.23 2.09 C7.96 1.64, 8.73 1.25, 9.52 0.94 C10.31 0.63, 11.13 0.39, 11.96 0.24 C12.78 0.08, 13.63 0, 14.47 0 C15.31 0, 16.16 0.08, 16.98 0.24 C17.8 0.39, 18.63 0.63, 19.42 0.94 C20.2 1.25, 20.98 1.64, 21.7 2.09 C22.43 2.55, 23.13 3.07, 23.77 3.66 C24.41 4.24, 25.01 4.89, 25.55 5.58 C26.09 6.28, 26.58 7.03, 27 7.81 C27.42 8.6, 27.78 9.43, 28.06 10.28 C28.35 11.13, 28.57 12.02, 28.72 12.91 C28.86 13.81, 28.9 15.18, 28.94 15.63 C28.97 16.08, 28.97 15.18, 28.94 15.63" stroke="#ffffff" stroke-width="4" fill="none"></path></g><g stroke-linecap="round" transform="translate(60.21566833434281 37.438797249271374) rotate(0 14.46772122316088 15.628688714906275)"><path d="M28.94 15.63 C28.94 16.53, 28.86 17.45, 28.72 18.34 C28.57 19.23, 28.35 20.12, 28.06 20.97 C27.78 21.82, 27.42 22.66, 27 23.44 C26.58 24.23, 26.09 24.98, 25.55 25.67 C25.01 26.37, 24.41 27.02, 23.77 27.6 C23.13 28.18, 22.43 28.71, 21.7 29.16 C20.98 29.62, 20.2 30.01, 19.42 30.31 C18.63 30.62, 17.8 30.86, 16.98 31.02 C16.16 31.18, 15.31 31.26, 14.47 31.26 C13.63 31.26, 12.78 31.18, 11.96 31.02 C11.13 30.86, 10.31 30.62, 9.52 30.31 C8.73 30.01, 7.96 29.62, 7.23 29.16 C6.51 28.71, 5.81 28.18, 5.17 27.6 C4.53 27.02, 3.92 26.37, 3.38 25.67 C2.85 24.98, 2.36 24.23, 1.94 23.44 C1.52 22.66, 1.16 21.82, 0.87 20.97 C0.59 20.12, 0.37 19.23, 0.22 18.34 C0.07 17.45, 0 16.53, 0 15.63 C0 14.72, 0.07 13.81, 0.22 12.91 C0.37 12.02, 0.59 11.13, 0.87 10.28 C1.16 9.43, 1.52 8.6, 1.94 7.81 C2.36 7.03, 2.85 6.28, 3.38 5.58 C3.92 4.89, 4.53 4.24, 5.17 3.66 C5.81 3.07, 6.51 2.55, 7.23 2.09 C7.96 1.64, 8.73 1.25, 9.52 0.94 C10.31 0.63, 11.13 0.39, 11.96 0.24 C12.78 0.08, 13.63 0, 14.47 0 C15.31 0, 16.16 0.08, 16.98 0.24 C17.8 0.39, 18.63 0.63, 19.42 0.94 C20.2 1.25, 20.98 1.64, 21.7 2.09 C22.43 2.55, 23.13 3.07, 23.77 3.66 C24.41 4.24, 25.01 4.89, 25.55 5.58 C26.09 6.28, 26.58 7.03, 27 7.81 C27.42 8.6, 27.78 9.43, 28.06 10.28 C28.35 11.13, 28.57 12.02, 28.72 12.91 C28.86 13.81, 28.9 15.18, 28.94 15.63 C28.97 16.08, 28.97 15.18, 28.94 15.63" stroke="none" stroke-width="0" fill="#ffffff"></path><path d="M28.94 15.63 C28.94 16.53, 28.86 17.45, 28.72 18.34 C28.57 19.23, 28.35 20.12, 28.06 20.97 C27.78 21.82, 27.42 22.66, 27 23.44 C26.58 24.23, 26.09 24.98, 25.55 25.67 C25.01 26.37, 24.41 27.02, 23.77 27.6 C23.13 28.18, 22.43 28.71, 21.7 29.16 C20.98 29.62, 20.2 30.01, 19.42 30.31 C18.63 30.62, 17.8 30.86, 16.98 31.02 C16.16 31.18, 15.31 31.26, 14.47 31.26 C13.63 31.26, 12.78 31.18, 11.96 31.02 C11.13 30.86, 10.31 30.62, 9.52 30.31 C8.73 30.01, 7.96 29.62, 7.23 29.16 C6.51 28.71, 5.81 28.18, 5.17 27.6 C4.53 27.02, 3.92 26.37, 3.38 25.67 C2.85 24.98, 2.36 24.23, 1.94 23.44 C1.52 22.66, 1.16 21.82, 0.87 20.97 C0.59 20.12, 0.37 19.23, 0.22 18.34 C0.07 17.45, 0 16.53, 0 15.63 C0 14.72, 0.07 13.81, 0.22 12.91 C0.37 12.02, 0.59 11.13, 0.87 10.28 C1.16 9.43, 1.52 8.6, 1.94 7.81 C2.36 7.03, 2.85 6.28, 3.38 5.58 C3.92 4.89, 4.53 4.24, 5.17 3.66 C5.81 3.07, 6.51 2.55, 7.23 2.09 C7.96 1.64, 8.73 1.25, 9.52 0.94 C10.31 0.63, 11.13 0.39, 11.96 0.24 C12.78 0.08, 13.63 0, 14.47 0 C15.31 0, 16.16 0.08, 16.98 0.24 C17.8 0.39, 18.63 0.63, 19.42 0.94 C20.2 1.25, 20.98 1.64, 21.7 2.09 C22.43 2.55, 23.13 3.07, 23.77 3.66 C24.41 4.24, 25.01 4.89, 25.55 5.58 C26.09 6.28, 26.58 7.03, 27 7.81 C27.42 8.6, 27.78 9.43, 28.06 10.28 C28.35 11.13, 28.57 12.02, 28.72 12.91 C28.86 13.81, 28.9 15.18, 28.94 15.63 C28.97 16.08, 28.97 15.18, 28.94 15.63" stroke="#ffffff" stroke-width="4" fill="none"></path></g><g stroke-linecap="round" transform="translate(86.74698925751909 62.11198019298354) rotate(0 14.46772122316088 14.222128772384167)"><path d="M28.94 14.22 C28.94 15.05, 28.86 15.88, 28.72 16.69 C28.57 17.5, 28.35 18.31, 28.06 19.09 C27.78 19.86, 27.42 20.62, 27 21.33 C26.58 22.05, 26.09 22.73, 25.55 23.36 C25.01 23.99, 24.41 24.59, 23.77 25.12 C23.13 25.65, 22.43 26.13, 21.7 26.54 C20.98 26.95, 20.2 27.31, 19.42 27.59 C18.63 27.87, 17.8 28.09, 16.98 28.23 C16.16 28.37, 15.31 28.44, 14.47 28.44 C13.63 28.44, 12.78 28.37, 11.96 28.23 C11.13 28.09, 10.31 27.87, 9.52 27.59 C8.73 27.31, 7.96 26.95, 7.23 26.54 C6.51 26.13, 5.81 25.65, 5.17 25.12 C4.53 24.59, 3.92 23.99, 3.38 23.36 C2.85 22.73, 2.36 22.05, 1.94 21.33 C1.52 20.62, 1.16 19.86, 0.87 19.09 C0.59 18.31, 0.37 17.5, 0.22 16.69 C0.07 15.88, 0 15.05, 0 14.22 C0 13.4, 0.07 12.56, 0.22 11.75 C0.37 10.94, 0.59 10.13, 0.87 9.36 C1.16 8.58, 1.52 7.82, 1.94 7.11 C2.36 6.4, 2.85 5.71, 3.38 5.08 C3.92 4.45, 4.53 3.86, 5.17 3.33 C5.81 2.8, 6.51 2.32, 7.23 1.91 C7.96 1.49, 8.73 1.14, 9.52 0.86 C10.31 0.58, 11.13 0.36, 11.96 0.22 C12.78 0.07, 13.63 0, 14.47 0 C15.31 0, 16.16 0.07, 16.98 0.22 C17.8 0.36, 18.63 0.58, 19.42 0.86 C20.2 1.14, 20.98 1.49, 21.7 1.91 C22.43 2.32, 23.13 2.8, 23.77 3.33 C24.41 3.86, 25.01 4.45, 25.55 5.08 C26.09 5.71, 26.58 6.4, 27 7.11 C27.42 7.82, 27.78 8.58, 28.06 9.36 C28.35 10.13, 28.57 10.94, 28.72 11.75 C28.86 12.56, 28.9 13.81, 28.94 14.22 C28.97 14.63, 28.97 13.81, 28.94 14.22" stroke="none" stroke-width="0" fill="#ffffff"></path><path d="M28.94 14.22 C28.94 15.05, 28.86 15.88, 28.72 16.69 C28.57 17.5, 28.35 18.31, 28.06 19.09 C27.78 19.86, 27.42 20.62, 27 21.33 C26.58 22.05, 26.09 22.73, 25.55 23.36 C25.01 23.99, 24.41 24.59, 23.77 25.12 C23.13 25.65, 22.43 26.13, 21.7 26.54 C20.98 26.95, 20.2 27.31, 19.42 27.59 C18.63 27.87, 17.8 28.09, 16.98 28.23 C16.16 28.37, 15.31 28.44, 14.47 28.44 C13.63 28.44, 12.78 28.37, 11.96 28.23 C11.13 28.09, 10.31 27.87, 9.52 27.59 C8.73 27.31, 7.96 26.95, 7.23 26.54 C6.51 26.13, 5.81 25.65, 5.17 25.12 C4.53 24.59, 3.92 23.99, 3.38 23.36 C2.85 22.73, 2.36 22.05, 1.94 21.33 C1.52 20.62, 1.16 19.86, 0.87 19.09 C0.59 18.31, 0.37 17.5, 0.22 16.69 C0.07 15.88, 0 15.05, 0 14.22 C0 13.4, 0.07 12.56, 0.22 11.75 C0.37 10.94, 0.59 10.13, 0.87 9.36 C1.16 8.58, 1.52 7.82, 1.94 7.11 C2.36 6.4, 2.85 5.71, 3.38 5.08 C3.92 4.45, 4.53 3.86, 5.17 3.33 C5.81 2.8, 6.51 2.32, 7.23 1.91 C7.96 1.49, 8.73 1.14, 9.52 0.86 C10.31 0.58, 11.13 0.36, 11.96 0.22 C12.78 0.07, 13.63 0, 14.47 0 C15.31 0, 16.16 0.07, 16.98 0.22 C17.8 0.36, 18.63 0.58, 19.42 0.86 C20.2 1.14, 20.98 1.49, 21.7 1.91 C22.43 2.32, 23.13 2.8, 23.77 3.33 C24.41 3.86, 25.01 4.45, 25.55 5.08 C26.09 5.71, 26.58 6.4, 27 7.11 C27.42 7.82, 27.78 8.58, 28.06 9.36 C28.35 10.13, 28.57 10.94, 28.72 11.75 C28.86 12.56, 28.9 13.81, 28.94 14.22 C28.97 14.63, 28.97 13.81, 28.94 14.22" stroke="#ffffff" stroke-width="4" fill="none"></path></g><g stroke-linecap="round" transform="translate(82.09055094664382 54.38796288831509) rotate(0 11.87969190042213 12.008580069516938)"><path d="M23.76 12.01 C23.76 12.7, 23.7 13.41, 23.58 14.09 C23.46 14.78, 23.28 15.46, 23.04 16.12 C22.81 16.77, 22.51 17.41, 22.17 18.01 C21.82 18.61, 21.42 19.2, 20.98 19.73 C20.54 20.26, 20.04 20.76, 19.52 21.21 C18.99 21.65, 18.42 22.06, 17.82 22.41 C17.22 22.76, 16.59 23.06, 15.94 23.29 C15.3 23.53, 14.62 23.71, 13.94 23.83 C13.27 23.96, 12.57 24.02, 11.88 24.02 C11.19 24.02, 10.49 23.96, 9.82 23.83 C9.14 23.71, 8.46 23.53, 7.82 23.29 C7.17 23.06, 6.54 22.76, 5.94 22.41 C5.34 22.06, 4.77 21.65, 4.24 21.21 C3.72 20.76, 3.22 20.26, 2.78 19.73 C2.34 19.2, 1.94 18.61, 1.59 18.01 C1.25 17.41, 0.95 16.77, 0.72 16.12 C0.48 15.46, 0.3 14.78, 0.18 14.09 C0.06 13.41, 0 12.7, 0 12.01 C0 11.31, 0.06 10.61, 0.18 9.92 C0.3 9.24, 0.48 8.55, 0.72 7.9 C0.95 7.25, 1.25 6.61, 1.59 6 C1.94 5.4, 2.34 4.82, 2.78 4.29 C3.22 3.76, 3.72 3.26, 4.24 2.81 C4.77 2.36, 5.34 1.96, 5.94 1.61 C6.54 1.26, 7.17 0.96, 7.82 0.72 C8.46 0.49, 9.14 0.3, 9.82 0.18 C10.49 0.06, 11.19 0, 11.88 0 C12.57 0, 13.27 0.06, 13.94 0.18 C14.62 0.3, 15.3 0.49, 15.94 0.72 C16.59 0.96, 17.22 1.26, 17.82 1.61 C18.42 1.96, 18.99 2.36, 19.52 2.81 C20.04 3.26, 20.54 3.76, 20.98 4.29 C21.42 4.82, 21.82 5.4, 22.17 6 C22.51 6.61, 22.81 7.25, 23.04 7.9 C23.28 8.55, 23.46 9.24, 23.58 9.92 C23.7 10.61, 23.73 11.66, 23.76 12.01 C23.79 12.36, 23.79 11.66, 23.76 12.01" stroke="none" stroke-width="0" fill="#ffffff"></path><path d="M23.76 12.01 C23.76 12.7, 23.7 13.41, 23.58 14.09 C23.46 14.78, 23.28 15.46, 23.04 16.12 C22.81 16.77, 22.51 17.41, 22.17 18.01 C21.82 18.61, 21.42 19.2, 20.98 19.73 C20.54 20.26, 20.04 20.76, 19.52 21.21 C18.99 21.65, 18.42 22.06, 17.82 22.41 C17.22 22.76, 16.59 23.06, 15.94 23.29 C15.3 23.53, 14.62 23.71, 13.94 23.83 C13.27 23.96, 12.57 24.02, 11.88 24.02 C11.19 24.02, 10.49 23.96, 9.82 23.83 C9.14 23.71, 8.46 23.53, 7.82 23.29 C7.17 23.06, 6.54 22.76, 5.94 22.41 C5.34 22.06, 4.77 21.65, 4.24 21.21 C3.72 20.76, 3.22 20.26, 2.78 19.73 C2.34 19.2, 1.94 18.61, 1.59 18.01 C1.25 17.41, 0.95 16.77, 0.72 16.12 C0.48 15.46, 0.3 14.78, 0.18 14.09 C0.06 13.41, 0 12.7, 0 12.01 C0 11.31, 0.06 10.61, 0.18 9.92 C0.3 9.24, 0.48 8.55, 0.72 7.9 C0.95 7.25, 1.25 6.61, 1.59 6 C1.94 5.4, 2.34 4.82, 2.78 4.29 C3.22 3.76, 3.72 3.26, 4.24 2.81 C4.77 2.36, 5.34 1.96, 5.94 1.61 C6.54 1.26, 7.17 0.96, 7.82 0.72 C8.46 0.49, 9.14 0.3, 9.82 0.18 C10.49 0.06, 11.19 0, 11.88 0 C12.57 0, 13.27 0.06, 13.94 0.18 C14.62 0.3, 15.3 0.49, 15.94 0.72 C16.59 0.96, 17.22 1.26, 17.82 1.61 C18.42 1.96, 18.99 2.36, 19.52 2.81 C20.04 3.26, 20.54 3.76, 20.98 4.29 C21.42 4.82, 21.82 5.4, 22.17 6 C22.51 6.61, 22.81 7.25, 23.04 7.9 C23.28 8.55, 23.46 9.24, 23.58 9.92 C23.7 10.61, 23.73 11.66, 23.76 12.01 C23.79 12.36, 23.79 11.66, 23.76 12.01" stroke="#ffffff" stroke-width="4" fill="none"></path></g><g stroke-linecap="round"><g transform="translate(79.64120161224128 35.76678890442054) rotate(0 1.400595652926313 19.41763743705269)"><path d="M0 0 C0.47 6.47, 2.33 32.36, 2.8 38.84 M0 0 C0.47 6.47, 2.33 32.36, 2.8 38.84" stroke="#1e1e1e" stroke-width="4" fill="none"></path></g></g><mask></mask><g stroke-linecap="round" transform="translate(55.85355342910407 39.57337215118969) rotate(0 6.224713226956283 4.125295412012747)"><path d="M12.45 4.13 C12.45 4.36, 12.42 4.61, 12.35 4.84 C12.29 5.08, 12.2 5.31, 12.07 5.54 C11.95 5.76, 11.8 5.98, 11.62 6.19 C11.44 6.39, 11.22 6.59, 10.99 6.78 C10.76 6.96, 10.5 7.13, 10.23 7.29 C9.95 7.44, 9.65 7.58, 9.34 7.7 C9.03 7.82, 8.69 7.92, 8.35 8 C8.02 8.08, 7.66 8.15, 7.31 8.19 C6.95 8.23, 6.59 8.25, 6.22 8.25 C5.86 8.25, 5.5 8.23, 5.14 8.19 C4.79 8.15, 4.43 8.08, 4.1 8 C3.76 7.92, 3.42 7.82, 3.11 7.7 C2.8 7.58, 2.5 7.44, 2.22 7.29 C1.95 7.13, 1.69 6.96, 1.46 6.78 C1.22 6.59, 1.01 6.39, 0.83 6.19 C0.65 5.98, 0.5 5.76, 0.38 5.54 C0.25 5.31, 0.16 5.08, 0.09 4.84 C0.03 4.61, 0 4.36, 0 4.13 C0 3.89, 0.03 3.64, 0.09 3.41 C0.16 3.17, 0.25 2.94, 0.38 2.71 C0.5 2.49, 0.65 2.27, 0.83 2.06 C1.01 1.86, 1.22 1.66, 1.46 1.47 C1.69 1.29, 1.95 1.12, 2.22 0.97 C2.5 0.81, 2.8 0.67, 3.11 0.55 C3.42 0.43, 3.76 0.33, 4.1 0.25 C4.43 0.17, 4.79 0.1, 5.14 0.06 C5.5 0.02, 5.86 0, 6.22 0 C6.59 0, 6.95 0.02, 7.31 0.06 C7.66 0.1, 8.02 0.17, 8.35 0.25 C8.69 0.33, 9.03 0.43, 9.34 0.55 C9.65 0.67, 9.95 0.81, 10.23 0.97 C10.5 1.12, 10.76 1.29, 10.99 1.47 C11.22 1.66, 11.44 1.86, 11.62 2.06 C11.8 2.27, 11.95 2.49, 12.07 2.71 C12.2 2.94, 12.29 3.17, 12.35 3.41 C12.42 3.64, 12.43 4.01, 12.45 4.13 C12.47 4.24, 12.47 4.01, 12.45 4.13" stroke="none" stroke-width="0" fill="#ffffff"></path><path d="M12.45 4.13 C12.45 4.36, 12.42 4.61, 12.35 4.84 C12.29 5.08, 12.2 5.31, 12.07 5.54 C11.95 5.76, 11.8 5.98, 11.62 6.19 C11.44 6.39, 11.22 6.59, 10.99 6.78 C10.76 6.96, 10.5 7.13, 10.23 7.29 C9.95 7.44, 9.65 7.58, 9.34 7.7 C9.03 7.82, 8.69 7.92, 8.35 8 C8.02 8.08, 7.66 8.15, 7.31 8.19 C6.95 8.23, 6.59 8.25, 6.22 8.25 C5.86 8.25, 5.5 8.23, 5.14 8.19 C4.79 8.15, 4.43 8.08, 4.1 8 C3.76 7.92, 3.42 7.82, 3.11 7.7 C2.8 7.58, 2.5 7.44, 2.22 7.29 C1.95 7.13, 1.69 6.96, 1.46 6.78 C1.22 6.59, 1.01 6.39, 0.83 6.19 C0.65 5.98, 0.5 5.76, 0.38 5.54 C0.25 5.31, 0.16 5.08, 0.09 4.84 C0.03 4.61, 0 4.36, 0 4.13 C0 3.89, 0.03 3.64, 0.09 3.41 C0.16 3.17, 0.25 2.94, 0.38 2.71 C0.5 2.49, 0.65 2.27, 0.83 2.06 C1.01 1.86, 1.22 1.66, 1.46 1.47 C1.69 1.29, 1.95 1.12, 2.22 0.97 C2.5 0.81, 2.8 0.67, 3.11 0.55 C3.42 0.43, 3.76 0.33, 4.1 0.25 C4.43 0.17, 4.79 0.1, 5.14 0.06 C5.5 0.02, 5.86 0, 6.22 0 C6.59 0, 6.95 0.02, 7.31 0.06 C7.66 0.1, 8.02 0.17, 8.35 0.25 C8.69 0.33, 9.03 0.43, 9.34 0.55 C9.65 0.67, 9.95 0.81, 10.23 0.97 C10.5 1.12, 10.76 1.29, 10.99 1.47 C11.22 1.66, 11.44 1.86, 11.62 2.06 C11.8 2.27, 11.95 2.49, 12.07 2.71 C12.2 2.94, 12.29 3.17, 12.35 3.41 C12.42 3.64, 12.43 4.01, 12.45 4.13 C12.47 4.24, 12.47 4.01, 12.45 4.13" stroke="#1e1e1e" stroke-width="4" fill="none"></path></g><g stroke-linecap="round" transform="translate(95.54374229899895 45.69043501712986) rotate(0 2.1476306924168966 4.125295412012747)"><path d="M4.3 4.13 C4.3 4.36, 4.28 4.61, 4.26 4.84 C4.24 5.08, 4.21 5.31, 4.17 5.54 C4.12 5.76, 4.07 5.98, 4.01 6.19 C3.95 6.39, 3.87 6.59, 3.79 6.78 C3.71 6.96, 3.62 7.13, 3.53 7.29 C3.43 7.44, 3.33 7.58, 3.22 7.7 C3.11 7.82, 3 7.92, 2.88 8 C2.77 8.08, 2.64 8.15, 2.52 8.19 C2.4 8.23, 2.27 8.25, 2.15 8.25 C2.02 8.25, 1.9 8.23, 1.77 8.19 C1.65 8.15, 1.53 8.08, 1.41 8 C1.3 7.92, 1.18 7.82, 1.07 7.7 C0.97 7.58, 0.86 7.44, 0.77 7.29 C0.67 7.13, 0.58 6.96, 0.5 6.78 C0.42 6.59, 0.35 6.39, 0.29 6.19 C0.23 5.98, 0.17 5.76, 0.13 5.54 C0.09 5.31, 0.05 5.08, 0.03 4.84 C0.01 4.61, 0 4.36, 0 4.13 C0 3.89, 0.01 3.64, 0.03 3.41 C0.05 3.17, 0.09 2.94, 0.13 2.71 C0.17 2.49, 0.23 2.27, 0.29 2.06 C0.35 1.86, 0.42 1.66, 0.5 1.47 C0.58 1.29, 0.67 1.12, 0.77 0.97 C0.86 0.81, 0.97 0.67, 1.07 0.55 C1.18 0.43, 1.3 0.33, 1.41 0.25 C1.53 0.17, 1.65 0.1, 1.77 0.06 C1.9 0.02, 2.02 0, 2.15 0 C2.27 0, 2.4 0.02, 2.52 0.06 C2.64 0.1, 2.77 0.17, 2.88 0.25 C3 0.33, 3.11 0.43, 3.22 0.55 C3.33 0.67, 3.43 0.81, 3.53 0.97 C3.62 1.12, 3.71 1.29, 3.79 1.47 C3.87 1.66, 3.95 1.86, 4.01 2.06 C4.07 2.27, 4.12 2.49, 4.17 2.71 C4.21 2.94, 4.24 3.17, 4.26 3.41 C4.28 3.64, 4.29 4.01, 4.3 4.13 C4.3 4.24, 4.3 4.01, 4.3 4.13" stroke="none" stroke-width="0" fill="#ffffff"></path><path d="M4.3 4.13 C4.3 4.36, 4.28 4.61, 4.26 4.84 C4.24 5.08, 4.21 5.31, 4.17 5.54 C4.12 5.76, 4.07 5.98, 4.01 6.19 C3.95 6.39, 3.87 6.59, 3.79 6.78 C3.71 6.96, 3.62 7.13, 3.53 7.29 C3.43 7.44, 3.33 7.58, 3.22 7.7 C3.11 7.82, 3 7.92, 2.88 8 C2.77 8.08, 2.64 8.15, 2.52 8.19 C2.4 8.23, 2.27 8.25, 2.15 8.25 C2.02 8.25, 1.9 8.23, 1.77 8.19 C1.65 8.15, 1.53 8.08, 1.41 8 C1.3 7.92, 1.18 7.82, 1.07 7.7 C0.97 7.58, 0.86 7.44, 0.77 7.29 C0.67 7.13, 0.58 6.96, 0.5 6.78 C0.42 6.59, 0.35 6.39, 0.29 6.19 C0.23 5.98, 0.17 5.76, 0.13 5.54 C0.09 5.31, 0.05 5.08, 0.03 4.84 C0.01 4.61, 0 4.36, 0 4.13 C0 3.89, 0.01 3.64, 0.03 3.41 C0.05 3.17, 0.09 2.94, 0.13 2.71 C0.17 2.49, 0.23 2.27, 0.29 2.06 C0.35 1.86, 0.42 1.66, 0.5 1.47 C0.58 1.29, 0.67 1.12, 0.77 0.97 C0.86 0.81, 0.97 0.67, 1.07 0.55 C1.18 0.43, 1.3 0.33, 1.41 0.25 C1.53 0.17, 1.65 0.1, 1.77 0.06 C1.9 0.02, 2.02 0, 2.15 0 C2.27 0, 2.4 0.02, 2.52 0.06 C2.64 0.1, 2.77 0.17, 2.88 0.25 C3 0.33, 3.11 0.43, 3.22 0.55 C3.33 0.67, 3.43 0.81, 3.53 0.97 C3.62 1.12, 3.71 1.29, 3.79 1.47 C3.87 1.66, 3.95 1.86, 4.01 2.06 C4.07 2.27, 4.12 2.49, 4.17 2.71 C4.21 2.94, 4.24 3.17, 4.26 3.41 C4.28 3.64, 4.29 4.01, 4.3 4.13 C4.3 4.24, 4.3 4.01, 4.3 4.13" stroke="#1e1e1e" stroke-width="4" fill="none"></path></g><g stroke-linecap="round" transform="translate(105.96165565336378 69.46146154255439) rotate(0 2.1476306924168966 4.125295412012747)"><path d="M4.3 4.13 C4.3 4.36, 4.28 4.61, 4.26 4.84 C4.24 5.08, 4.21 5.31, 4.17 5.54 C4.12 5.76, 4.07 5.98, 4.01 6.19 C3.95 6.39, 3.87 6.59, 3.79 6.78 C3.71 6.96, 3.62 7.13, 3.53 7.29 C3.43 7.44, 3.33 7.58, 3.22 7.7 C3.11 7.82, 3 7.92, 2.88 8 C2.77 8.08, 2.64 8.15, 2.52 8.19 C2.4 8.23, 2.27 8.25, 2.15 8.25 C2.02 8.25, 1.9 8.23, 1.77 8.19 C1.65 8.15, 1.53 8.08, 1.41 8 C1.3 7.92, 1.18 7.82, 1.07 7.7 C0.97 7.58, 0.86 7.44, 0.77 7.29 C0.67 7.13, 0.58 6.96, 0.5 6.78 C0.42 6.59, 0.35 6.39, 0.29 6.19 C0.23 5.98, 0.17 5.76, 0.13 5.54 C0.09 5.31, 0.05 5.08, 0.03 4.84 C0.01 4.61, 0 4.36, 0 4.13 C0 3.89, 0.01 3.64, 0.03 3.41 C0.05 3.17, 0.09 2.94, 0.13 2.71 C0.17 2.49, 0.23 2.27, 0.29 2.06 C0.35 1.86, 0.42 1.66, 0.5 1.47 C0.58 1.29, 0.67 1.12, 0.77 0.97 C0.86 0.81, 0.97 0.67, 1.07 0.55 C1.18 0.43, 1.3 0.33, 1.41 0.25 C1.53 0.17, 1.65 0.1, 1.77 0.06 C1.9 0.02, 2.02 0, 2.15 0 C2.27 0, 2.4 0.02, 2.52 0.06 C2.64 0.1, 2.77 0.17, 2.88 0.25 C3 0.33, 3.11 0.43, 3.22 0.55 C3.33 0.67, 3.43 0.81, 3.53 0.97 C3.62 1.12, 3.71 1.29, 3.79 1.47 C3.87 1.66, 3.95 1.86, 4.01 2.06 C4.07 2.27, 4.12 2.49, 4.17 2.71 C4.21 2.94, 4.24 3.17, 4.26 3.41 C4.28 3.64, 4.29 4.01, 4.3 4.13 C4.3 4.24, 4.3 4.01, 4.3 4.13" stroke="none" stroke-width="0" fill="#ffffff"></path><path d="M4.3 4.13 C4.3 4.36, 4.28 4.61, 4.26 4.84 C4.24 5.08, 4.21 5.31, 4.17 5.54 C4.12 5.76, 4.07 5.98, 4.01 6.19 C3.95 6.39, 3.87 6.59, 3.79 6.78 C3.71 6.96, 3.62 7.13, 3.53 7.29 C3.43 7.44, 3.33 7.58, 3.22 7.7 C3.11 7.82, 3 7.92, 2.88 8 C2.77 8.08, 2.64 8.15, 2.52 8.19 C2.4 8.23, 2.27 8.25, 2.15 8.25 C2.02 8.25, 1.9 8.23, 1.77 8.19 C1.65 8.15, 1.53 8.08, 1.41 8 C1.3 7.92, 1.18 7.82, 1.07 7.7 C0.97 7.58, 0.86 7.44, 0.77 7.29 C0.67 7.13, 0.58 6.96, 0.5 6.78 C0.42 6.59, 0.35 6.39, 0.29 6.19 C0.23 5.98, 0.17 5.76, 0.13 5.54 C0.09 5.31, 0.05 5.08, 0.03 4.84 C0.01 4.61, 0 4.36, 0 4.13 C0 3.89, 0.01 3.64, 0.03 3.41 C0.05 3.17, 0.09 2.94, 0.13 2.71 C0.17 2.49, 0.23 2.27, 0.29 2.06 C0.35 1.86, 0.42 1.66, 0.5 1.47 C0.58 1.29, 0.67 1.12, 0.77 0.97 C0.86 0.81, 0.97 0.67, 1.07 0.55 C1.18 0.43, 1.3 0.33, 1.41 0.25 C1.53 0.17, 1.65 0.1, 1.77 0.06 C1.9 0.02, 2.02 0, 2.15 0 C2.27 0, 2.4 0.02, 2.52 0.06 C2.64 0.1, 2.77 0.17, 2.88 0.25 C3 0.33, 3.11 0.43, 3.22 0.55 C3.33 0.67, 3.43 0.81, 3.53 0.97 C3.62 1.12, 3.71 1.29, 3.79 1.47 C3.87 1.66, 3.95 1.86, 4.01 2.06 C4.07 2.27, 4.12 2.49, 4.17 2.71 C4.21 2.94, 4.24 3.17, 4.26 3.41 C4.28 3.64, 4.29 4.01, 4.3 4.13 C4.3 4.24, 4.3 4.01, 4.3 4.13" stroke="#1e1e1e" stroke-width="4" fill="none"></path></g><g stroke-linecap="round" transform="translate(124.11214477897829 68.84087178735172) rotate(0 7.572070748655278 7.258254221914285)"><path d="M15.14 7.26 C15.14 7.68, 15.11 8.1, 15.03 8.52 C14.95 8.93, 14.84 9.35, 14.69 9.74 C14.54 10.14, 14.35 10.52, 14.13 10.89 C13.91 11.25, 13.65 11.6, 13.37 11.92 C13.09 12.25, 12.78 12.55, 12.44 12.82 C12.1 13.09, 11.74 13.33, 11.36 13.54 C10.98 13.75, 10.57 13.94, 10.16 14.08 C9.75 14.22, 9.32 14.33, 8.89 14.41 C8.46 14.48, 8.01 14.52, 7.57 14.52 C7.13 14.52, 6.69 14.48, 6.26 14.41 C5.83 14.33, 5.39 14.22, 4.98 14.08 C4.57 13.94, 4.17 13.75, 3.79 13.54 C3.41 13.33, 3.04 13.09, 2.7 12.82 C2.37 12.55, 2.05 12.25, 1.77 11.92 C1.49 11.6, 1.23 11.25, 1.01 10.89 C0.8 10.52, 0.61 10.14, 0.46 9.74 C0.31 9.35, 0.19 8.93, 0.12 8.52 C0.04 8.1, 0 7.68, 0 7.26 C0 6.84, 0.04 6.41, 0.12 6 C0.19 5.58, 0.31 5.17, 0.46 4.78 C0.61 4.38, 0.8 3.99, 1.01 3.63 C1.23 3.27, 1.49 2.91, 1.77 2.59 C2.05 2.27, 2.37 1.97, 2.7 1.7 C3.04 1.43, 3.41 1.18, 3.79 0.97 C4.17 0.76, 4.57 0.58, 4.98 0.44 C5.39 0.29, 5.83 0.18, 6.26 0.11 C6.69 0.04, 7.13 0, 7.57 0 C8.01 0, 8.46 0.04, 8.89 0.11 C9.32 0.18, 9.75 0.29, 10.16 0.44 C10.57 0.58, 10.98 0.76, 11.36 0.97 C11.74 1.18, 12.1 1.43, 12.44 1.7 C12.78 1.97, 13.09 2.27, 13.37 2.59 C13.65 2.91, 13.91 3.27, 14.13 3.63 C14.35 3.99, 14.54 4.38, 14.69 4.78 C14.84 5.17, 14.95 5.58, 15.03 6 C15.11 6.41, 15.12 7.05, 15.14 7.26 C15.16 7.47, 15.16 7.05, 15.14 7.26" stroke="none" stroke-width="0" fill="#ffffff"></path><path d="M15.14 7.26 C15.14 7.68, 15.11 8.1, 15.03 8.52 C14.95 8.93, 14.84 9.35, 14.69 9.74 C14.54 10.14, 14.35 10.52, 14.13 10.89 C13.91 11.25, 13.65 11.6, 13.37 11.92 C13.09 12.25, 12.78 12.55, 12.44 12.82 C12.1 13.09, 11.74 13.33, 11.36 13.54 C10.98 13.75, 10.57 13.94, 10.16 14.08 C9.75 14.22, 9.32 14.33, 8.89 14.41 C8.46 14.48, 8.01 14.52, 7.57 14.52 C7.13 14.52, 6.69 14.48, 6.26 14.41 C5.83 14.33, 5.39 14.22, 4.98 14.08 C4.57 13.94, 4.17 13.75, 3.79 13.54 C3.41 13.33, 3.04 13.09, 2.7 12.82 C2.37 12.55, 2.05 12.25, 1.77 11.92 C1.49 11.6, 1.23 11.25, 1.01 10.89 C0.8 10.52, 0.61 10.14, 0.46 9.74 C0.31 9.35, 0.19 8.93, 0.12 8.52 C0.04 8.1, 0 7.68, 0 7.26 C0 6.84, 0.04 6.41, 0.12 6 C0.19 5.58, 0.31 5.17, 0.46 4.78 C0.61 4.38, 0.8 3.99, 1.01 3.63 C1.23 3.27, 1.49 2.91, 1.77 2.59 C2.05 2.27, 2.37 1.97, 2.7 1.7 C3.04 1.43, 3.41 1.18, 3.79 0.97 C4.17 0.76, 4.57 0.58, 4.98 0.44 C5.39 0.29, 5.83 0.18, 6.26 0.11 C6.69 0.04, 7.13 0, 7.57 0 C8.01 0, 8.46 0.04, 8.89 0.11 C9.32 0.18, 9.75 0.29, 10.16 0.44 C10.57 0.58, 10.98 0.76, 11.36 0.97 C11.74 1.18, 12.1 1.43, 12.44 1.7 C12.78 1.97, 13.09 2.27, 13.37 2.59 C13.65 2.91, 13.91 3.27, 14.13 3.63 C14.35 3.99, 14.54 4.38, 14.69 4.78 C14.84 5.17, 14.95 5.58, 15.03 6 C15.11 6.41, 15.12 7.05, 15.14 7.26 C15.16 7.47, 15.16 7.05, 15.14 7.26" stroke="#1e1e1e" stroke-width="4" fill="none"></path></g><g stroke-linecap="round" transform="translate(129.98281675559883 59.37264481957027) rotate(0 4.8352913140647615 4.706848029580215)"><path d="M9.67 4.71 C9.67 4.98, 9.65 5.26, 9.6 5.52 C9.55 5.79, 9.47 6.06, 9.38 6.32 C9.28 6.57, 9.16 6.82, 9.02 7.06 C8.88 7.3, 8.72 7.52, 8.54 7.73 C8.36 7.94, 8.16 8.14, 7.94 8.31 C7.73 8.49, 7.5 8.65, 7.25 8.78 C7.01 8.92, 6.75 9.04, 6.49 9.13 C6.23 9.22, 5.95 9.29, 5.67 9.34 C5.4 9.39, 5.12 9.41, 4.84 9.41 C4.56 9.41, 4.27 9.39, 4 9.34 C3.72 9.29, 3.44 9.22, 3.18 9.13 C2.92 9.04, 2.66 8.92, 2.42 8.78 C2.18 8.65, 1.94 8.49, 1.73 8.31 C1.51 8.14, 1.31 7.94, 1.13 7.73 C0.95 7.52, 0.79 7.3, 0.65 7.06 C0.51 6.82, 0.39 6.57, 0.29 6.32 C0.2 6.06, 0.12 5.79, 0.07 5.52 C0.02 5.26, 0 4.98, 0 4.71 C0 4.43, 0.02 4.16, 0.07 3.89 C0.12 3.62, 0.2 3.35, 0.29 3.1 C0.39 2.84, 0.51 2.59, 0.65 2.35 C0.79 2.12, 0.95 1.89, 1.13 1.68 C1.31 1.47, 1.51 1.28, 1.73 1.1 C1.94 0.93, 2.18 0.77, 2.42 0.63 C2.66 0.49, 2.92 0.38, 3.18 0.28 C3.44 0.19, 3.72 0.12, 4 0.07 C4.27 0.02, 4.56 0, 4.84 0 C5.12 0, 5.4 0.02, 5.67 0.07 C5.95 0.12, 6.23 0.19, 6.49 0.28 C6.75 0.38, 7.01 0.49, 7.25 0.63 C7.5 0.77, 7.73 0.93, 7.94 1.1 C8.16 1.28, 8.36 1.47, 8.54 1.68 C8.72 1.89, 8.88 2.12, 9.02 2.35 C9.16 2.59, 9.28 2.84, 9.38 3.1 C9.47 3.35, 9.55 3.62, 9.6 3.89 C9.65 4.16, 9.66 4.57, 9.67 4.71 C9.68 4.84, 9.68 4.57, 9.67 4.71" stroke="none" stroke-width="0" fill="#ffffff"></path><path d="M9.67 4.71 C9.67 4.98, 9.65 5.26, 9.6 5.52 C9.55 5.79, 9.47 6.06, 9.38 6.32 C9.28 6.57, 9.16 6.82, 9.02 7.06 C8.88 7.3, 8.72 7.52, 8.54 7.73 C8.36 7.94, 8.16 8.14, 7.94 8.31 C7.73 8.49, 7.5 8.65, 7.25 8.78 C7.01 8.92, 6.75 9.04, 6.49 9.13 C6.23 9.22, 5.95 9.29, 5.67 9.34 C5.4 9.39, 5.12 9.41, 4.84 9.41 C4.56 9.41, 4.27 9.39, 4 9.34 C3.72 9.29, 3.44 9.22, 3.18 9.13 C2.92 9.04, 2.66 8.92, 2.42 8.78 C2.18 8.65, 1.94 8.49, 1.73 8.31 C1.51 8.14, 1.31 7.94, 1.13 7.73 C0.95 7.52, 0.79 7.3, 0.65 7.06 C0.51 6.82, 0.39 6.57, 0.29 6.32 C0.2 6.06, 0.12 5.79, 0.07 5.52 C0.02 5.26, 0 4.98, 0 4.71 C0 4.43, 0.02 4.16, 0.07 3.89 C0.12 3.62, 0.2 3.35, 0.29 3.1 C0.39 2.84, 0.51 2.59, 0.65 2.35 C0.79 2.12, 0.95 1.89, 1.13 1.68 C1.31 1.47, 1.51 1.28, 1.73 1.1 C1.94 0.93, 2.18 0.77, 2.42 0.63 C2.66 0.49, 2.92 0.38, 3.18 0.28 C3.44 0.19, 3.72 0.12, 4 0.07 C4.27 0.02, 4.56 0, 4.84 0 C5.12 0, 5.4 0.02, 5.67 0.07 C5.95 0.12, 6.23 0.19, 6.49 0.28 C6.75 0.38, 7.01 0.49, 7.25 0.63 C7.5 0.77, 7.73 0.93, 7.94 1.1 C8.16 1.28, 8.36 1.47, 8.54 1.68 C8.72 1.89, 8.88 2.12, 9.02 2.35 C9.16 2.59, 9.28 2.84, 9.38 3.1 C9.47 3.35, 9.55 3.62, 9.6 3.89 C9.65 4.16, 9.66 4.57, 9.67 4.71 C9.68 4.84, 9.68 4.57, 9.67 4.71" stroke="#1e1e1e" stroke-width="4" fill="none"></path></g><g stroke-linecap="round" transform="translate(146.21396224256932 62.180542900094224) rotate(0 2.402792712724022 2.780527810015883)"><path d="M4.81 2.78 C4.81 2.94, 4.79 3.1, 4.77 3.26 C4.74 3.42, 4.71 3.58, 4.66 3.73 C4.61 3.88, 4.55 4.03, 4.48 4.17 C4.41 4.31, 4.33 4.44, 4.24 4.57 C4.15 4.69, 4.05 4.81, 3.95 4.91 C3.84 5.01, 3.72 5.11, 3.6 5.19 C3.48 5.27, 3.36 5.34, 3.22 5.39 C3.09 5.45, 2.96 5.49, 2.82 5.52 C2.68 5.55, 2.54 5.56, 2.4 5.56 C2.26 5.56, 2.12 5.55, 1.99 5.52 C1.85 5.49, 1.71 5.45, 1.58 5.39 C1.45 5.34, 1.32 5.27, 1.2 5.19 C1.08 5.11, 0.96 5.01, 0.86 4.91 C0.75 4.81, 0.65 4.69, 0.56 4.57 C0.47 4.44, 0.39 4.31, 0.32 4.17 C0.25 4.03, 0.19 3.88, 0.14 3.73 C0.1 3.58, 0.06 3.42, 0.04 3.26 C0.01 3.1, 0 2.94, 0 2.78 C0 2.62, 0.01 2.46, 0.04 2.3 C0.06 2.14, 0.1 1.98, 0.14 1.83 C0.19 1.68, 0.25 1.53, 0.32 1.39 C0.39 1.25, 0.47 1.12, 0.56 0.99 C0.65 0.87, 0.75 0.75, 0.86 0.65 C0.96 0.55, 1.08 0.45, 1.2 0.37 C1.32 0.29, 1.45 0.22, 1.58 0.17 C1.71 0.11, 1.85 0.07, 1.99 0.04 C2.12 0.01, 2.26 0, 2.4 0 C2.54 0, 2.68 0.01, 2.82 0.04 C2.96 0.07, 3.09 0.11, 3.22 0.17 C3.36 0.22, 3.48 0.29, 3.6 0.37 C3.72 0.45, 3.84 0.55, 3.95 0.65 C4.05 0.75, 4.15 0.87, 4.24 0.99 C4.33 1.12, 4.41 1.25, 4.48 1.39 C4.55 1.53, 4.61 1.68, 4.66 1.83 C4.71 1.98, 4.74 2.14, 4.77 2.3 C4.79 2.46, 4.8 2.7, 4.81 2.78 C4.81 2.86, 4.81 2.7, 4.81 2.78" stroke="none" stroke-width="0" fill="#ffffff"></path><path d="M4.81 2.78 C4.81 2.94, 4.79 3.1, 4.77 3.26 C4.74 3.42, 4.71 3.58, 4.66 3.73 C4.61 3.88, 4.55 4.03, 4.48 4.17 C4.41 4.31, 4.33 4.44, 4.24 4.57 C4.15 4.69, 4.05 4.81, 3.95 4.91 C3.84 5.01, 3.72 5.11, 3.6 5.19 C3.48 5.27, 3.36 5.34, 3.22 5.39 C3.09 5.45, 2.96 5.49, 2.82 5.52 C2.68 5.55, 2.54 5.56, 2.4 5.56 C2.26 5.56, 2.12 5.55, 1.99 5.52 C1.85 5.49, 1.71 5.45, 1.58 5.39 C1.45 5.34, 1.32 5.27, 1.2 5.19 C1.08 5.11, 0.96 5.01, 0.86 4.91 C0.75 4.81, 0.65 4.69, 0.56 4.57 C0.47 4.44, 0.39 4.31, 0.32 4.17 C0.25 4.03, 0.19 3.88, 0.14 3.73 C0.1 3.58, 0.06 3.42, 0.04 3.26 C0.01 3.1, 0 2.94, 0 2.78 C0 2.62, 0.01 2.46, 0.04 2.3 C0.06 2.14, 0.1 1.98, 0.14 1.83 C0.19 1.68, 0.25 1.53, 0.32 1.39 C0.39 1.25, 0.47 1.12, 0.56 0.99 C0.65 0.87, 0.75 0.75, 0.86 0.65 C0.96 0.55, 1.08 0.45, 1.2 0.37 C1.32 0.29, 1.45 0.22, 1.58 0.17 C1.71 0.11, 1.85 0.07, 1.99 0.04 C2.12 0.01, 2.26 0, 2.4 0 C2.54 0, 2.68 0.01, 2.82 0.04 C2.96 0.07, 3.09 0.11, 3.22 0.17 C3.36 0.22, 3.48 0.29, 3.6 0.37 C3.72 0.45, 3.84 0.55, 3.95 0.65 C4.05 0.75, 4.15 0.87, 4.24 0.99 C4.33 1.12, 4.41 1.25, 4.48 1.39 C4.55 1.53, 4.61 1.68, 4.66 1.83 C4.71 1.98, 4.74 2.14, 4.77 2.3 C4.79 2.46, 4.8 2.7, 4.81 2.78 C4.81 2.86, 4.81 2.7, 4.81 2.78" stroke="#1e1e1e" stroke-width="4" fill="none"></path></g><g stroke-linecap="round" transform="translate(25.452909901977364 68.12095716935437) rotate(0 6.744836383999427 6.2375647555290925)"><path d="M13.49 6.24 C13.49 6.6, 13.45 6.97, 13.39 7.32 C13.32 7.68, 13.22 8.03, 13.08 8.37 C12.95 8.71, 12.78 9.04, 12.59 9.36 C12.39 9.67, 12.16 9.97, 11.91 10.25 C11.66 10.52, 11.38 10.78, 11.08 11.02 C10.78 11.25, 10.46 11.46, 10.12 11.64 C9.78 11.82, 9.42 11.98, 9.05 12.1 C8.68 12.22, 8.3 12.32, 7.92 12.38 C7.53 12.44, 7.14 12.48, 6.74 12.48 C6.35 12.48, 5.96 12.44, 5.57 12.38 C5.19 12.32, 4.8 12.22, 4.44 12.1 C4.07 11.98, 3.71 11.82, 3.37 11.64 C3.03 11.46, 2.71 11.25, 2.41 11.02 C2.11 10.78, 1.83 10.52, 1.58 10.25 C1.33 9.97, 1.1 9.67, 0.9 9.36 C0.71 9.04, 0.54 8.71, 0.41 8.37 C0.27 8.03, 0.17 7.68, 0.1 7.32 C0.03 6.97, 0 6.6, 0 6.24 C0 5.88, 0.03 5.51, 0.1 5.15 C0.17 4.8, 0.27 4.44, 0.41 4.1 C0.54 3.76, 0.71 3.43, 0.9 3.12 C1.1 2.81, 1.33 2.5, 1.58 2.23 C1.83 1.95, 2.11 1.69, 2.41 1.46 C2.71 1.23, 3.03 1.02, 3.37 0.84 C3.71 0.66, 4.07 0.5, 4.44 0.38 C4.8 0.25, 5.19 0.16, 5.57 0.09 C5.96 0.03, 6.35 0, 6.74 0 C7.14 0, 7.53 0.03, 7.92 0.09 C8.3 0.16, 8.68 0.25, 9.05 0.38 C9.42 0.5, 9.78 0.66, 10.12 0.84 C10.46 1.02, 10.78 1.23, 11.08 1.46 C11.38 1.69, 11.66 1.95, 11.91 2.23 C12.16 2.5, 12.39 2.81, 12.59 3.12 C12.78 3.43, 12.95 3.76, 13.08 4.1 C13.22 4.44, 13.32 4.8, 13.39 5.15 C13.45 5.51, 13.47 6.06, 13.49 6.24 C13.51 6.42, 13.51 6.06, 13.49 6.24" stroke="none" stroke-width="0" fill="#ffffff"></path><path d="M13.49 6.24 C13.49 6.6, 13.45 6.97, 13.39 7.32 C13.32 7.68, 13.22 8.03, 13.08 8.37 C12.95 8.71, 12.78 9.04, 12.59 9.36 C12.39 9.67, 12.16 9.97, 11.91 10.25 C11.66 10.52, 11.38 10.78, 11.08 11.02 C10.78 11.25, 10.46 11.46, 10.12 11.64 C9.78 11.82, 9.42 11.98, 9.05 12.1 C8.68 12.22, 8.3 12.32, 7.92 12.38 C7.53 12.44, 7.14 12.48, 6.74 12.48 C6.35 12.48, 5.96 12.44, 5.57 12.38 C5.19 12.32, 4.8 12.22, 4.44 12.1 C4.07 11.98, 3.71 11.82, 3.37 11.64 C3.03 11.46, 2.71 11.25, 2.41 11.02 C2.11 10.78, 1.83 10.52, 1.58 10.25 C1.33 9.97, 1.1 9.67, 0.9 9.36 C0.71 9.04, 0.54 8.71, 0.41 8.37 C0.27 8.03, 0.17 7.68, 0.1 7.32 C0.03 6.97, 0 6.6, 0 6.24 C0 5.88, 0.03 5.51, 0.1 5.15 C0.17 4.8, 0.27 4.44, 0.41 4.1 C0.54 3.76, 0.71 3.43, 0.9 3.12 C1.1 2.81, 1.33 2.5, 1.58 2.23 C1.83 1.95, 2.11 1.69, 2.41 1.46 C2.71 1.23, 3.03 1.02, 3.37 0.84 C3.71 0.66, 4.07 0.5, 4.44 0.38 C4.8 0.25, 5.19 0.16, 5.57 0.09 C5.96 0.03, 6.35 0, 6.74 0 C7.14 0, 7.53 0.03, 7.92 0.09 C8.3 0.16, 8.68 0.25, 9.05 0.38 C9.42 0.5, 9.78 0.66, 10.12 0.84 C10.46 1.02, 10.78 1.23, 11.08 1.46 C11.38 1.69, 11.66 1.95, 11.91 2.23 C12.16 2.5, 12.39 2.81, 12.59 3.12 C12.78 3.43, 12.95 3.76, 13.08 4.1 C13.22 4.44, 13.32 4.8, 13.39 5.15 C13.45 5.51, 13.47 6.06, 13.49 6.24 C13.51 6.42, 13.51 6.06, 13.49 6.24" stroke="#1e1e1e" stroke-width="4" fill="none"></path></g><g stroke-linecap="round" transform="translate(10.620284039856415 53.97207935114602) rotate(0 9.131150411588806 8.457700936961373)"><path d="M18.26 8.46 C18.26 8.95, 18.22 9.44, 18.12 9.93 C18.03 10.41, 17.89 10.89, 17.71 11.35 C17.53 11.81, 17.3 12.26, 17.04 12.69 C16.77 13.11, 16.47 13.52, 16.13 13.89 C15.79 14.27, 15.41 14.62, 15 14.94 C14.6 15.25, 14.15 15.54, 13.7 15.78 C13.24 16.03, 12.75 16.24, 12.25 16.41 C11.76 16.57, 11.24 16.7, 10.72 16.79 C10.2 16.87, 9.66 16.92, 9.13 16.92 C8.6 16.92, 8.07 16.87, 7.55 16.79 C7.03 16.7, 6.5 16.57, 6.01 16.41 C5.51 16.24, 5.02 16.03, 4.57 15.78 C4.11 15.54, 3.67 15.25, 3.26 14.94 C2.86 14.62, 2.48 14.27, 2.14 13.89 C1.8 13.52, 1.49 13.11, 1.22 12.69 C0.96 12.26, 0.73 11.81, 0.55 11.35 C0.37 10.89, 0.23 10.41, 0.14 9.93 C0.05 9.44, 0 8.95, 0 8.46 C0 7.97, 0.05 7.47, 0.14 6.99 C0.23 6.51, 0.37 6.03, 0.55 5.56 C0.73 5.1, 0.96 4.65, 1.22 4.23 C1.49 3.8, 1.8 3.4, 2.14 3.02 C2.48 2.65, 2.86 2.29, 3.26 1.98 C3.67 1.66, 4.11 1.38, 4.57 1.13 C5.02 0.89, 5.51 0.68, 6.01 0.51 C6.5 0.34, 7.03 0.21, 7.55 0.13 C8.07 0.04, 8.6 0, 9.13 0 C9.66 0, 10.2 0.04, 10.72 0.13 C11.24 0.21, 11.76 0.34, 12.25 0.51 C12.75 0.68, 13.24 0.89, 13.7 1.13 C14.15 1.38, 14.6 1.66, 15 1.98 C15.41 2.29, 15.79 2.65, 16.13 3.02 C16.47 3.4, 16.77 3.8, 17.04 4.23 C17.3 4.65, 17.53 5.1, 17.71 5.56 C17.89 6.03, 18.03 6.51, 18.12 6.99 C18.22 7.47, 18.24 8.21, 18.26 8.46 C18.29 8.7, 18.29 8.21, 18.26 8.46" stroke="none" stroke-width="0" fill="#ffffff"></path><path d="M18.26 8.46 C18.26 8.95, 18.22 9.44, 18.12 9.93 C18.03 10.41, 17.89 10.89, 17.71 11.35 C17.53 11.81, 17.3 12.26, 17.04 12.69 C16.77 13.11, 16.47 13.52, 16.13 13.89 C15.79 14.27, 15.41 14.62, 15 14.94 C14.6 15.25, 14.15 15.54, 13.7 15.78 C13.24 16.03, 12.75 16.24, 12.25 16.41 C11.76 16.57, 11.24 16.7, 10.72 16.79 C10.2 16.87, 9.66 16.92, 9.13 16.92 C8.6 16.92, 8.07 16.87, 7.55 16.79 C7.03 16.7, 6.5 16.57, 6.01 16.41 C5.51 16.24, 5.02 16.03, 4.57 15.78 C4.11 15.54, 3.67 15.25, 3.26 14.94 C2.86 14.62, 2.48 14.27, 2.14 13.89 C1.8 13.52, 1.49 13.11, 1.22 12.69 C0.96 12.26, 0.73 11.81, 0.55 11.35 C0.37 10.89, 0.23 10.41, 0.14 9.93 C0.05 9.44, 0 8.95, 0 8.46 C0 7.97, 0.05 7.47, 0.14 6.99 C0.23 6.51, 0.37 6.03, 0.55 5.56 C0.73 5.1, 0.96 4.65, 1.22 4.23 C1.49 3.8, 1.8 3.4, 2.14 3.02 C2.48 2.65, 2.86 2.29, 3.26 1.98 C3.67 1.66, 4.11 1.38, 4.57 1.13 C5.02 0.89, 5.51 0.68, 6.01 0.51 C6.5 0.34, 7.03 0.21, 7.55 0.13 C8.07 0.04, 8.6 0, 9.13 0 C9.66 0, 10.2 0.04, 10.72 0.13 C11.24 0.21, 11.76 0.34, 12.25 0.51 C12.75 0.68, 13.24 0.89, 13.7 1.13 C14.15 1.38, 14.6 1.66, 15 1.98 C15.41 2.29, 15.79 2.65, 16.13 3.02 C16.47 3.4, 16.77 3.8, 17.04 4.23 C17.3 4.65, 17.53 5.1, 17.71 5.56 C17.89 6.03, 18.03 6.51, 18.12 6.99 C18.22 7.47, 18.24 8.21, 18.26 8.46 C18.29 8.7, 18.29 8.21, 18.26 8.46" stroke="#1e1e1e" stroke-width="4" fill="none"></path></g><g stroke-linecap="round" transform="translate(10 79.57278869210313) rotate(0 3.4766080589320154 3.7574255131276004)"><path d="M6.95 3.76 C6.95 3.97, 6.94 4.2, 6.9 4.41 C6.87 4.62, 6.81 4.84, 6.74 5.04 C6.67 5.25, 6.59 5.45, 6.49 5.64 C6.39 5.82, 6.27 6.01, 6.14 6.17 C6.01 6.34, 5.87 6.5, 5.71 6.64 C5.56 6.78, 5.39 6.9, 5.21 7.01 C5.04 7.12, 4.85 7.21, 4.67 7.29 C4.48 7.36, 4.28 7.42, 4.08 7.46 C3.88 7.5, 3.68 7.51, 3.48 7.51 C3.28 7.51, 3.07 7.5, 2.87 7.46 C2.67 7.42, 2.48 7.36, 2.29 7.29 C2.1 7.21, 1.91 7.12, 1.74 7.01 C1.56 6.9, 1.4 6.78, 1.24 6.64 C1.09 6.5, 0.94 6.34, 0.81 6.17 C0.68 6.01, 0.57 5.82, 0.47 5.64 C0.37 5.45, 0.28 5.25, 0.21 5.04 C0.14 4.84, 0.09 4.62, 0.05 4.41 C0.02 4.2, 0 3.97, 0 3.76 C0 3.54, 0.02 3.32, 0.05 3.1 C0.09 2.89, 0.14 2.68, 0.21 2.47 C0.28 2.27, 0.37 2.07, 0.47 1.88 C0.57 1.69, 0.68 1.51, 0.81 1.34 C0.94 1.18, 1.09 1.02, 1.24 0.88 C1.4 0.74, 1.56 0.61, 1.74 0.5 C1.91 0.39, 2.1 0.3, 2.29 0.23 C2.48 0.15, 2.67 0.09, 2.87 0.06 C3.07 0.02, 3.28 0, 3.48 0 C3.68 0, 3.88 0.02, 4.08 0.06 C4.28 0.09, 4.48 0.15, 4.67 0.23 C4.85 0.3, 5.04 0.39, 5.21 0.5 C5.39 0.61, 5.56 0.74, 5.71 0.88 C5.87 1.02, 6.01 1.18, 6.14 1.34 C6.27 1.51, 6.39 1.69, 6.49 1.88 C6.59 2.07, 6.67 2.27, 6.74 2.47 C6.81 2.68, 6.87 2.89, 6.9 3.1 C6.94 3.32, 6.94 3.65, 6.95 3.76 C6.96 3.87, 6.96 3.65, 6.95 3.76" stroke="none" stroke-width="0" fill="#ffffff"></path><path d="M6.95 3.76 C6.95 3.97, 6.94 4.2, 6.9 4.41 C6.87 4.62, 6.81 4.84, 6.74 5.04 C6.67 5.25, 6.59 5.45, 6.49 5.64 C6.39 5.82, 6.27 6.01, 6.14 6.17 C6.01 6.34, 5.87 6.5, 5.71 6.64 C5.56 6.78, 5.39 6.9, 5.21 7.01 C5.04 7.12, 4.85 7.21, 4.67 7.29 C4.48 7.36, 4.28 7.42, 4.08 7.46 C3.88 7.5, 3.68 7.51, 3.48 7.51 C3.28 7.51, 3.07 7.5, 2.87 7.46 C2.67 7.42, 2.48 7.36, 2.29 7.29 C2.1 7.21, 1.91 7.12, 1.74 7.01 C1.56 6.9, 1.4 6.78, 1.24 6.64 C1.09 6.5, 0.94 6.34, 0.81 6.17 C0.68 6.01, 0.57 5.82, 0.47 5.64 C0.37 5.45, 0.28 5.25, 0.21 5.04 C0.14 4.84, 0.09 4.62, 0.05 4.41 C0.02 4.2, 0 3.97, 0 3.76 C0 3.54, 0.02 3.32, 0.05 3.1 C0.09 2.89, 0.14 2.68, 0.21 2.47 C0.28 2.27, 0.37 2.07, 0.47 1.88 C0.57 1.69, 0.68 1.51, 0.81 1.34 C0.94 1.18, 1.09 1.02, 1.24 0.88 C1.4 0.74, 1.56 0.61, 1.74 0.5 C1.91 0.39, 2.1 0.3, 2.29 0.23 C2.48 0.15, 2.67 0.09, 2.87 0.06 C3.07 0.02, 3.28 0, 3.48 0 C3.68 0, 3.88 0.02, 4.08 0.06 C4.28 0.09, 4.48 0.15, 4.67 0.23 C4.85 0.3, 5.04 0.39, 5.21 0.5 C5.39 0.61, 5.56 0.74, 5.71 0.88 C5.87 1.02, 6.01 1.18, 6.14 1.34 C6.27 1.51, 6.39 1.69, 6.49 1.88 C6.59 2.07, 6.67 2.27, 6.74 2.47 C6.81 2.68, 6.87 2.89, 6.9 3.1 C6.94 3.32, 6.94 3.65, 6.95 3.76 C6.96 3.87, 6.96 3.65, 6.95 3.76" stroke="#1e1e1e" stroke-width="4" fill="none"></path></g><g stroke-linecap="round"><g transform="translate(96.4907341361668 94.33352781446592) rotate(0 7.040655721032181 -1.0063286840850196)"><path d="M0 0 C2.35 -0.34, 11.73 -1.68, 14.08 -2.01 M0 0 C2.35 -0.34, 11.73 -1.68, 14.08 -2.01" stroke="#1e1e1e" stroke-width="4" fill="none"></path></g></g><mask></mask></svg>