<svg version="1.1" xmlns="http://www.w3.org/2000/svg" viewBox="0 0 113.98539684345451 107.36216503698597" width="113.98539684345451" height="107.36216503698597">
  <!-- svg-source:excalidraw -->
  
  <defs>
    <style class="style-fonts">
      @font-face {
        font-family: "Virgil";
        src: url("https://excalidraw.com/Virgil.woff2");
      }
      @font-face {
        font-family: "Cascadia";
        src: url("https://excalidraw.com/Cascadia.woff2");
      }
      @font-face {
        font-family: "Assistant";
        src: url("https://excalidraw.com/Assistant-Regular.woff2");
      }
    </style>
    
  </defs>
  <g stroke-linecap="round" transform="translate(14.745768838555705 19.165212276191596) rotate(0 39.529739748798875 39.09847638039719)"><path d="M79.06 39.1 C79.06 40.95, 78.92 42.83, 78.66 44.66 C78.39 46.5, 77.99 48.33, 77.46 50.11 C76.93 51.89, 76.27 53.65, 75.49 55.34 C74.71 57.03, 73.8 58.68, 72.78 60.24 C71.77 61.8, 70.63 63.3, 69.4 64.7 C68.18 66.1, 66.83 67.43, 65.42 68.65 C64 69.86, 62.48 70.99, 60.9 71.99 C59.32 72.99, 57.66 73.89, 55.95 74.66 C54.25 75.43, 52.47 76.09, 50.67 76.61 C48.87 77.14, 47.01 77.54, 45.16 77.8 C43.3 78.06, 41.4 78.2, 39.53 78.2 C37.65 78.2, 35.76 78.06, 33.9 77.8 C32.05 77.54, 30.19 77.14, 28.39 76.61 C26.59 76.09, 24.81 75.43, 23.11 74.66 C21.4 73.89, 19.74 72.99, 18.16 71.99 C16.58 70.99, 15.06 69.86, 13.64 68.65 C12.23 67.43, 10.88 66.1, 9.66 64.7 C8.43 63.3, 7.29 61.8, 6.28 60.24 C5.26 58.68, 4.35 57.03, 3.57 55.34 C2.79 53.65, 2.13 51.89, 1.6 50.11 C1.07 48.33, 0.67 46.5, 0.4 44.66 C0.14 42.83, 0 40.95, 0 39.1 C0 37.24, 0.14 35.37, 0.4 33.53 C0.67 31.7, 1.07 29.86, 1.6 28.08 C2.13 26.3, 2.79 24.54, 3.57 22.86 C4.35 21.17, 5.26 19.52, 6.28 17.96 C7.29 16.4, 8.43 14.9, 9.66 13.49 C10.88 12.09, 12.23 10.76, 13.64 9.55 C15.06 8.34, 16.58 7.21, 18.16 6.21 C19.74 5.2, 21.4 4.3, 23.11 3.53 C24.81 2.76, 26.59 2.11, 28.39 1.58 C30.19 1.06, 32.05 0.66, 33.9 0.4 C35.76 0.13, 37.65 0, 39.53 0 C41.4 0, 43.3 0.13, 45.16 0.4 C47.01 0.66, 48.87 1.06, 50.67 1.58 C52.47 2.11, 54.25 2.76, 55.95 3.53 C57.66 4.3, 59.32 5.2, 60.9 6.21 C62.48 7.21, 64 8.34, 65.42 9.55 C66.83 10.76, 68.18 12.09, 69.4 13.49 C70.63 14.9, 71.77 16.4, 72.78 17.96 C73.8 19.52, 74.71 21.17, 75.49 22.86 C76.27 24.54, 76.93 26.3, 77.46 28.08 C77.99 29.86, 78.39 31.7, 78.66 33.53 C78.92 35.37, 78.99 38.17, 79.06 39.1 C79.13 40.03, 79.13 38.17, 79.06 39.1" stroke="#1e1e1e" stroke-width="4" fill="none"></path></g><g stroke-linecap="round" transform="translate(32.02942310369508 39.61469982466588) rotate(0 7.097246865130273 7.0075718061407315)"><path d="M14.19 7.01 C14.19 7.41, 14.16 7.82, 14.09 8.22 C14.02 8.62, 13.91 9.02, 13.77 9.4 C13.63 9.79, 13.45 10.16, 13.24 10.51 C13.04 10.86, 12.8 11.2, 12.53 11.51 C12.27 11.82, 11.97 12.11, 11.66 12.38 C11.34 12.64, 11 12.87, 10.65 13.08 C10.29 13.28, 9.91 13.45, 9.52 13.59 C9.14 13.73, 8.73 13.84, 8.33 13.91 C7.93 13.98, 7.51 14.02, 7.1 14.02 C6.69 14.02, 6.27 13.98, 5.86 13.91 C5.46 13.84, 5.06 13.73, 4.67 13.59 C4.28 13.45, 3.9 13.28, 3.55 13.08 C3.19 12.87, 2.85 12.64, 2.54 12.38 C2.22 12.11, 1.92 11.82, 1.66 11.51 C1.4 11.2, 1.16 10.86, 0.95 10.51 C0.75 10.16, 0.57 9.79, 0.43 9.4 C0.29 9.02, 0.18 8.62, 0.11 8.22 C0.04 7.82, 0 7.41, 0 7.01 C0 6.6, 0.04 6.19, 0.11 5.79 C0.18 5.39, 0.29 4.99, 0.43 4.61 C0.57 4.23, 0.75 3.86, 0.95 3.5 C1.16 3.15, 1.4 2.81, 1.66 2.5 C1.92 2.19, 2.22 1.9, 2.54 1.64 C2.85 1.38, 3.19 1.14, 3.55 0.94 C3.9 0.74, 4.28 0.56, 4.67 0.42 C5.06 0.28, 5.46 0.18, 5.86 0.11 C6.27 0.04, 6.69 0, 7.1 0 C7.51 0, 7.93 0.04, 8.33 0.11 C8.73 0.18, 9.14 0.28, 9.52 0.42 C9.91 0.56, 10.29 0.74, 10.65 0.94 C11 1.14, 11.34 1.38, 11.66 1.64 C11.97 1.9, 12.27 2.19, 12.53 2.5 C12.8 2.81, 13.04 3.15, 13.24 3.5 C13.45 3.86, 13.63 4.23, 13.77 4.61 C13.91 4.99, 14.02 5.39, 14.09 5.79 C14.16 6.19, 14.18 6.8, 14.19 7.01 C14.21 7.21, 14.21 6.8, 14.19 7.01" stroke="#1e1e1e" stroke-width="4" fill="none"></path></g><g stroke-linecap="round" transform="translate(38.19536829582103 72.98124961935537) rotate(0 19.175745415330766 6.551465219081365)"><path d="M38.35 6.55 C38.35 6.93, 38.25 7.32, 38.06 7.69 C37.87 8.06, 37.57 8.44, 37.2 8.79 C36.82 9.15, 36.34 9.5, 35.78 9.83 C35.23 10.16, 34.58 10.47, 33.87 10.76 C33.15 11.05, 32.35 11.33, 31.5 11.57 C30.65 11.81, 29.72 12.04, 28.76 12.23 C27.8 12.41, 26.78 12.58, 25.73 12.71 C24.69 12.84, 23.6 12.94, 22.51 13 C21.41 13.07, 20.29 13.1, 19.18 13.1 C18.07 13.1, 16.94 13.07, 15.85 13 C14.75 12.94, 13.66 12.84, 12.62 12.71 C11.57 12.58, 10.55 12.41, 9.59 12.23 C8.63 12.04, 7.7 11.81, 6.85 11.57 C6 11.33, 5.2 11.05, 4.49 10.76 C3.77 10.47, 3.12 10.16, 2.57 9.83 C2.01 9.5, 1.54 9.15, 1.16 8.79 C0.78 8.44, 0.48 8.06, 0.29 7.69 C0.1 7.32, 0 6.93, 0 6.55 C0 6.17, 0.1 5.79, 0.29 5.41 C0.48 5.04, 0.78 4.67, 1.16 4.31 C1.54 3.95, 2.01 3.6, 2.57 3.28 C3.12 2.95, 3.77 2.63, 4.49 2.34 C5.2 2.05, 6 1.78, 6.85 1.53 C7.7 1.29, 8.63 1.07, 9.59 0.88 C10.55 0.69, 11.57 0.52, 12.62 0.4 C13.66 0.27, 14.75 0.17, 15.85 0.1 C16.94 0.03, 18.07 0, 19.18 0 C20.29 0, 21.41 0.03, 22.51 0.1 C23.6 0.17, 24.69 0.27, 25.73 0.4 C26.78 0.52, 27.8 0.69, 28.76 0.88 C29.72 1.07, 30.65 1.29, 31.5 1.53 C32.35 1.78, 33.15 2.05, 33.87 2.34 C34.58 2.63, 35.23 2.95, 35.78 3.28 C36.34 3.6, 36.82 3.95, 37.2 4.31 C37.57 4.67, 37.87 5.04, 38.06 5.41 C38.25 5.79, 38.3 6.36, 38.35 6.55 C38.4 6.74, 38.4 6.36, 38.35 6.55" stroke="#1e1e1e" stroke-width="4" fill="none"></path></g><g stroke-linecap="round" transform="translate(61.7431871548406 39.93981638021796) rotate(0 7.097246865130273 7.0075718061407315)"><path d="M14.19 7.01 C14.19 7.41, 14.16 7.82, 14.09 8.22 C14.02 8.62, 13.91 9.02, 13.77 9.4 C13.63 9.79, 13.45 10.16, 13.24 10.51 C13.04 10.86, 12.8 11.2, 12.53 11.51 C12.27 11.82, 11.97 12.11, 11.66 12.38 C11.34 12.64, 11 12.87, 10.65 13.08 C10.29 13.28, 9.91 13.45, 9.52 13.59 C9.14 13.73, 8.73 13.84, 8.33 13.91 C7.93 13.98, 7.51 14.02, 7.1 14.02 C6.69 14.02, 6.27 13.98, 5.86 13.91 C5.46 13.84, 5.06 13.73, 4.67 13.59 C4.28 13.45, 3.9 13.28, 3.55 13.08 C3.19 12.87, 2.85 12.64, 2.54 12.38 C2.22 12.11, 1.92 11.82, 1.66 11.51 C1.4 11.2, 1.16 10.86, 0.95 10.51 C0.75 10.16, 0.57 9.79, 0.43 9.4 C0.29 9.02, 0.18 8.62, 0.11 8.22 C0.04 7.82, 0 7.41, 0 7.01 C0 6.6, 0.04 6.19, 0.11 5.79 C0.18 5.39, 0.29 4.99, 0.43 4.61 C0.57 4.23, 0.75 3.86, 0.95 3.5 C1.16 3.15, 1.4 2.81, 1.66 2.5 C1.92 2.19, 2.22 1.9, 2.54 1.64 C2.85 1.38, 3.19 1.14, 3.55 0.94 C3.9 0.74, 4.28 0.56, 4.67 0.42 C5.06 0.28, 5.46 0.18, 5.86 0.11 C6.27 0.04, 6.69 0, 7.1 0 C7.51 0, 7.93 0.04, 8.33 0.11 C8.73 0.18, 9.14 0.28, 9.52 0.42 C9.91 0.56, 10.29 0.74, 10.65 0.94 C11 1.14, 11.34 1.38, 11.66 1.64 C11.97 1.9, 12.27 2.19, 12.53 2.5 C12.8 2.81, 13.04 3.15, 13.24 3.5 C13.45 3.86, 13.63 4.23, 13.77 4.61 C13.91 4.99, 14.02 5.39, 14.09 5.79 C14.16 6.19, 14.18 6.8, 14.19 7.01 C14.21 7.21, 14.21 6.8, 14.19 7.01" stroke="#1e1e1e" stroke-width="4" fill="none"></path></g><g stroke-linecap="round" transform="translate(68.10166769279658 48.762062638612406) rotate(0 1.1241367769339377 1.0226415043125598)"><path d="M2.25 1.02 C2.25 1.08, 2.24 1.14, 2.23 1.2 C2.22 1.26, 2.2 1.32, 2.18 1.37 C2.16 1.43, 2.13 1.48, 2.1 1.53 C2.07 1.59, 2.03 1.63, 1.99 1.68 C1.94 1.73, 1.9 1.77, 1.85 1.81 C1.8 1.84, 1.74 1.88, 1.69 1.91 C1.63 1.94, 1.57 1.96, 1.51 1.98 C1.45 2, 1.38 2.02, 1.32 2.03 C1.26 2.04, 1.19 2.05, 1.12 2.05 C1.06 2.05, 0.99 2.04, 0.93 2.03 C0.86 2.02, 0.8 2, 0.74 1.98 C0.68 1.96, 0.62 1.94, 0.56 1.91 C0.51 1.88, 0.45 1.84, 0.4 1.81 C0.35 1.77, 0.3 1.73, 0.26 1.68 C0.22 1.63, 0.18 1.59, 0.15 1.53 C0.12 1.48, 0.09 1.43, 0.07 1.37 C0.05 1.32, 0.03 1.26, 0.02 1.2 C0.01 1.14, 0 1.08, 0 1.02 C0 0.96, 0.01 0.9, 0.02 0.85 C0.03 0.79, 0.05 0.73, 0.07 0.67 C0.09 0.62, 0.12 0.56, 0.15 0.51 C0.18 0.46, 0.22 0.41, 0.26 0.37 C0.3 0.32, 0.35 0.28, 0.4 0.24 C0.45 0.2, 0.51 0.17, 0.56 0.14 C0.62 0.11, 0.68 0.08, 0.74 0.06 C0.8 0.04, 0.86 0.03, 0.93 0.02 C0.99 0.01, 1.06 0, 1.12 0 C1.19 0, 1.26 0.01, 1.32 0.02 C1.38 0.03, 1.45 0.04, 1.51 0.06 C1.57 0.08, 1.63 0.11, 1.69 0.14 C1.74 0.17, 1.8 0.2, 1.85 0.24 C1.9 0.28, 1.94 0.32, 1.99 0.37 C2.03 0.41, 2.07 0.46, 2.1 0.51 C2.13 0.56, 2.16 0.62, 2.18 0.67 C2.2 0.73, 2.22 0.79, 2.23 0.85 C2.24 0.9, 2.25 0.99, 2.25 1.02 C2.25 1.05, 2.25 0.99, 2.25 1.02" stroke="#1e1e1e" stroke-width="1" fill="none"></path></g><g stroke-linecap="round" transform="translate(38.46828500955962 48.50255646447113) rotate(0 1.1241367769339377 1.0226415043125598)"><path d="M2.25 1.02 C2.25 1.08, 2.24 1.14, 2.23 1.2 C2.22 1.26, 2.2 1.32, 2.18 1.37 C2.16 1.43, 2.13 1.48, 2.1 1.53 C2.07 1.59, 2.03 1.63, 1.99 1.68 C1.94 1.73, 1.9 1.77, 1.85 1.81 C1.8 1.84, 1.74 1.88, 1.69 1.91 C1.63 1.94, 1.57 1.96, 1.51 1.98 C1.45 2, 1.38 2.02, 1.32 2.03 C1.26 2.04, 1.19 2.05, 1.12 2.05 C1.06 2.05, 0.99 2.04, 0.93 2.03 C0.86 2.02, 0.8 2, 0.74 1.98 C0.68 1.96, 0.62 1.94, 0.56 1.91 C0.51 1.88, 0.45 1.84, 0.4 1.81 C0.35 1.77, 0.3 1.73, 0.26 1.68 C0.22 1.63, 0.18 1.59, 0.15 1.53 C0.12 1.48, 0.09 1.43, 0.07 1.37 C0.05 1.32, 0.03 1.26, 0.02 1.2 C0.01 1.14, 0 1.08, 0 1.02 C0 0.96, 0.01 0.9, 0.02 0.85 C0.03 0.79, 0.05 0.73, 0.07 0.67 C0.09 0.62, 0.12 0.56, 0.15 0.51 C0.18 0.46, 0.22 0.41, 0.26 0.37 C0.3 0.32, 0.35 0.28, 0.4 0.24 C0.45 0.2, 0.51 0.17, 0.56 0.14 C0.62 0.11, 0.68 0.08, 0.74 0.06 C0.8 0.04, 0.86 0.03, 0.93 0.02 C0.99 0.01, 1.06 0, 1.12 0 C1.19 0, 1.26 0.01, 1.32 0.02 C1.38 0.03, 1.45 0.04, 1.51 0.06 C1.57 0.08, 1.63 0.11, 1.69 0.14 C1.74 0.17, 1.8 0.2, 1.85 0.24 C1.9 0.28, 1.94 0.32, 1.99 0.37 C2.03 0.41, 2.07 0.46, 2.1 0.51 C2.13 0.56, 2.16 0.62, 2.18 0.67 C2.2 0.73, 2.22 0.79, 2.23 0.85 C2.24 0.9, 2.25 0.99, 2.25 1.02 C2.25 1.05, 2.25 0.99, 2.25 1.02" stroke="#1e1e1e" stroke-width="1" fill="none"></path></g><g stroke-linecap="round" transform="translate(14.375191094730326 15.474298809518586) rotate(349.8196188995388 31.746421883196945 8.689705727857472)"><path d="M4.34 0 C24.07 0, 43.79 0, 59.15 0 C62.04 0, 63.49 1.45, 63.49 4.34 C63.49 7.58, 63.49 10.81, 63.49 13.03 C63.49 15.93, 62.04 17.38, 59.15 17.38 C38.32 17.38, 17.5 17.38, 4.34 17.38 C1.45 17.38, 0 15.93, 0 13.03 C0 10.82, 0 8.61, 0 4.34 C0 1.45, 1.45 0, 4.34 0" stroke="none" stroke-width="0" fill="#1e1e1e"></path><path d="M4.34 0 C19.64 0, 34.94 0, 59.15 0 M4.34 0 C15.68 0, 27.02 0, 59.15 0 M59.15 0 C62.04 0, 63.49 1.45, 63.49 4.34 M59.15 0 C62.04 0, 63.49 1.45, 63.49 4.34 M63.49 4.34 C63.49 6.86, 63.49 9.37, 63.49 13.03 M63.49 4.34 C63.49 6.48, 63.49 8.62, 63.49 13.03 M63.49 13.03 C63.49 15.93, 62.04 17.38, 59.15 17.38 M63.49 13.03 C63.49 15.93, 62.04 17.38, 59.15 17.38 M59.15 17.38 C46.11 17.38, 33.08 17.38, 4.34 17.38 M59.15 17.38 C38.99 17.38, 18.83 17.38, 4.34 17.38 M4.34 17.38 C1.45 17.38, 0 15.93, 0 13.03 M4.34 17.38 C1.45 17.38, 0 15.93, 0 13.03 M0 13.03 C0 10.48, 0 7.92, 0 4.34 M0 13.03 C0 10.8, 0 8.56, 0 4.34 M0 4.34 C0 1.45, 1.45 0, 4.34 0 M0 4.34 C0 1.45, 1.45 0, 4.34 0" stroke="#1e1e1e" stroke-width="4" fill="none"></path></g><g stroke-linecap="round" transform="translate(34.162887073825004 23.076594348423896) rotate(349.8196188995388 34.94101878060292 2.7755779079361673)"><path d="M0 0 L69.88 0 L69.88 5.55 L0 5.55" stroke="none" stroke-width="0" fill="#1e1e1e"></path><path d="M0 0 C20.15 0, 40.3 0, 69.88 0 M0 0 C17.75 0, 35.49 0, 69.88 0 M69.88 0 C69.88 1.3, 69.88 2.59, 69.88 5.55 M69.88 0 C69.88 1.17, 69.88 2.34, 69.88 5.55 M69.88 5.55 C51.03 5.55, 32.18 5.55, 0 5.55 M69.88 5.55 C52.11 5.55, 34.33 5.55, 0 5.55 M0 5.55 C0 4.34, 0 3.13, 0 0 M0 5.55 C0 3.72, 0 1.89, 0 0" stroke="#1e1e1e" stroke-width="4" fill="none"></path></g><g stroke-linecap="round"><g transform="translate(39.59536283986381 78.62129092637588) rotate(0 17.990455074222155 1.0532478013365107)"><path d="M0 0 C6 0.35, 29.98 1.76, 35.98 2.11 M0 0 C6 0.35, 29.98 1.76, 35.98 2.11" stroke="#1e1e1e" stroke-width="4" fill="none"></path></g></g><mask></mask><g stroke-linecap="round"><g transform="translate(53.89636493504349 64.94285473454511) rotate(0 6.942509977489863 -6.480451323323905)"><path d="M0 0 C0.14 0.04, -1.48 0.33, 0.84 0.23 C3.15 0.14, 13.8 1.68, 13.89 -0.56 C13.97 -2.8, 3.41 -11.09, 1.32 -13.2 M0 0 C0.14 0.04, -1.48 0.33, 0.84 0.23 C3.15 0.14, 13.8 1.68, 13.89 -0.56 C13.97 -2.8, 3.41 -11.09, 1.32 -13.2" stroke="#1e1e1e" stroke-width="1" fill="none"></path></g></g><mask></mask><g stroke-linecap="round"><g transform="translate(17.68483918511356 38.708622566902704) rotate(0 3.9522943080805817 4.570772784951259)"><path d="M0 0 C0.18 1.88, -0.21 11.64, 1.11 11.28 C2.42 10.92, 6.77 0.1, 7.9 -2.14 M0 0 C0.18 1.88, -0.21 11.64, 1.11 11.28 C2.42 10.92, 6.77 0.1, 7.9 -2.14" stroke="#1e1e1e" stroke-width="1" fill="none"></path></g></g><mask></mask><g stroke-linecap="round"><g transform="translate(25.018310875477255 37.683271493431675) rotate(0 3.576953865588621 7.485394649744194)"><path d="M0 0 C-0.13 2.85, -2.07 17.47, -0.75 17.11 C0.57 16.75, 6.46 1.07, 7.9 -2.14 M0 0 C-0.13 2.85, -2.07 17.47, -0.75 17.11 C0.57 16.75, 6.46 1.07, 7.9 -2.14" stroke="#1e1e1e" stroke-width="1" fill="none"></path></g></g><mask></mask><g stroke-linecap="round"><g transform="translate(18.364195804586416 34.377782116767776) rotate(0 -0.1581843056183061 6.542040395304866)"><path d="M0 0 C-1.37 2.54, -9.54 15.58, -8.22 15.22 C-6.9 14.87, 5.22 0.76, 7.9 -2.14 M0 0 C-1.37 2.54, -9.54 15.58, -8.22 15.22 C-6.9 14.87, 5.22 0.76, 7.9 -2.14" stroke="#1e1e1e" stroke-width="1" fill="none"></path></g></g><mask></mask><g stroke-linecap="round"><g transform="translate(52.381257668535 30.080680558372478) rotate(0 2.868788400525318 6.358910655797445)"><path d="M0 0 C-0.36 2.48, -3.48 15.21, -2.17 14.86 C-0.85 14.5, 6.23 0.69, 7.9 -2.14 M0 0 C-0.36 2.48, -3.48 15.21, -2.17 14.86 C-0.85 14.5, 6.23 0.69, 7.9 -2.14" stroke="#1e1e1e" stroke-width="1" fill="none"></path></g></g><mask></mask><g stroke-linecap="round"><g transform="translate(63.887382181584144 28.246506846740886) rotate(0 6.537490841674298 4.463919509901643)"><path d="M0 0 C2.18 1.84, 11.76 11.42, 13.07 11.07 C14.39 10.71, 8.77 0.06, 7.9 -2.14 M0 0 C2.18 1.84, 11.76 11.42, 13.07 11.07 C14.39 10.71, 8.77 0.06, 7.9 -2.14" stroke="#1e1e1e" stroke-width="1" fill="none"></path></g></g><mask></mask><g stroke-linecap="round"><g transform="translate(72.3217551316202 28.51979705384838) rotate(0 5.48843544241754 5.342239467927357)"><path d="M0 0 C1.83 1.8, 9.59 10.85, 10.98 10.82 C12.36 10.8, 8.77 1.69, 8.33 -0.14 M0 0 C1.83 1.8, 9.59 10.85, 10.98 10.82 C12.36 10.8, 8.77 1.69, 8.33 -0.14" stroke="#1e1e1e" stroke-width="1" fill="none"></path></g></g><mask></mask></svg>