<svg version="1.1" xmlns="http://www.w3.org/2000/svg" viewBox="0 0 99.32898224051132 96" width="99.32898224051132" height="96">
  <!-- svg-source:excalidraw -->
  
  <defs>
    <style class="style-fonts">
      @font-face {
        font-family: "Virgil";
        src: url("https://excalidraw.com/Virgil.woff2");
      }
      @font-face {
        font-family: "Cascadia";
        src: url("https://excalidraw.com/Cascadia.woff2");
      }
      @font-face {
        font-family: "Assistant";
        src: url("https://excalidraw.com/Assistant-Regular.woff2");
      }
    </style>
    
  </defs>
  <g stroke-linecap="round" transform="translate(10 10) rotate(0 39.66449112025566 38)"><path d="M79.33 38 C79.33 39.98, 79.16 41.99, 78.84 43.94 C78.52 45.9, 78.03 47.86, 77.39 49.74 C76.75 51.63, 75.94 53.49, 75.01 55.25 C74.07 57.02, 72.97 58.73, 71.75 60.34 C70.54 61.94, 69.17 63.47, 67.71 64.87 C66.25 66.27, 64.65 67.58, 62.98 68.74 C61.31 69.91, 59.51 70.96, 57.67 71.86 C55.83 72.76, 53.89 73.53, 51.92 74.14 C49.95 74.75, 47.91 75.22, 45.87 75.53 C43.83 75.84, 41.73 76, 39.66 76 C37.6 76, 35.5 75.84, 33.46 75.53 C31.42 75.22, 29.37 74.75, 27.41 74.14 C25.44 73.53, 23.5 72.76, 21.66 71.86 C19.81 70.96, 18.02 69.91, 16.35 68.74 C14.68 67.58, 13.08 66.27, 11.62 64.87 C10.15 63.47, 8.79 61.94, 7.58 60.34 C6.36 58.73, 5.26 57.02, 4.32 55.25 C3.38 53.49, 2.58 51.63, 1.94 49.74 C1.3 47.86, 0.81 45.9, 0.49 43.94 C0.16 41.99, 0 39.98, 0 38 C0 36.02, 0.16 34.01, 0.49 32.06 C0.81 30.1, 1.3 28.14, 1.94 26.26 C2.58 24.37, 3.38 22.51, 4.32 20.75 C5.26 18.98, 6.36 17.27, 7.58 15.66 C8.79 14.06, 10.15 12.53, 11.62 11.13 C13.08 9.73, 14.68 8.42, 16.35 7.26 C18.02 6.09, 19.81 5.04, 21.66 4.14 C23.5 3.24, 25.44 2.47, 27.41 1.86 C29.37 1.25, 31.42 0.78, 33.46 0.47 C35.5 0.16, 37.6 0, 39.66 0 C41.73 0, 43.83 0.16, 45.87 0.47 C47.91 0.78, 49.95 1.25, 51.92 1.86 C53.89 2.47, 55.83 3.24, 57.67 4.14 C59.51 5.04, 61.31 6.09, 62.98 7.26 C64.65 8.42, 66.25 9.73, 67.71 11.13 C69.17 12.53, 70.54 14.06, 71.75 15.66 C72.97 17.27, 74.07 18.98, 75.01 20.75 C75.94 22.51, 76.75 24.37, 77.39 26.26 C78.03 28.14, 78.52 30.1, 78.84 32.06 C79.16 34.01, 79.25 37.01, 79.33 38 C79.41 38.99, 79.41 37.01, 79.33 38" stroke="#1e1e1e" stroke-width="4" fill="none"></path></g><g transform="translate(47.62664834953648 13.39680199850227) rotate(0 20.356597900390625 35.102417803511344)"><text x="0" y="56.16506082317888" font-family="Helvetica, Segoe UI Emoji" font-size="61.04768313654089px" fill="#1e1e1e" text-anchor="start" style="white-space: pre;" direction="ltr" dominant-baseline="alphabetic">B</text></g><g transform="translate(14.238400192917652 13.313299254225058) rotate(0 20.356597900390625 35.102417803511344)"><text x="0" y="56.16506082317888" font-family="Helvetica, Segoe UI Emoji" font-size="61.04768313654089px" fill="#1e1e1e" text-anchor="start" style="white-space: pre;" direction="ltr" dominant-baseline="alphabetic">A</text></g></svg>