<svg version="1.1" xmlns="http://www.w3.org/2000/svg" viewBox="0 0 146.35747163822543 97.29095266262448" width="146.35747163822543" height="97.29095266262448">
  <!-- svg-source:excalidraw -->
  
  <defs>
    <style class="style-fonts">
      @font-face {
        font-family: "Virgil";
        src: url("https://excalidraw.com/Virgil.woff2");
      }
      @font-face {
        font-family: "Cascadia";
        src: url("https://excalidraw.com/Cascadia.woff2");
      }
      @font-face {
        font-family: "Assistant";
        src: url("https://excalidraw.com/Assistant-Regular.woff2");
      }
    </style>
    
  </defs>
  <g stroke-linecap="round" transform="translate(35.003775717854296 10) rotate(0 38.730865908787564 38.64547633131224)"><path d="M77.46 38.65 C77.46 40.66, 77.3 42.7, 76.98 44.69 C76.67 46.68, 76.19 48.67, 75.57 50.59 C74.94 52.5, 74.16 54.39, 73.24 56.19 C72.32 57.99, 71.25 59.73, 70.06 61.36 C68.88 62.99, 67.55 64.55, 66.12 65.97 C64.69 67.4, 63.13 68.73, 61.5 69.91 C59.86 71.09, 58.11 72.16, 56.31 73.08 C54.51 73.99, 52.62 74.78, 50.7 75.4 C48.78 76.02, 46.78 76.5, 44.79 76.82 C42.79 77.13, 40.75 77.29, 38.73 77.29 C36.71 77.29, 34.67 77.13, 32.67 76.82 C30.68 76.5, 28.68 76.02, 26.76 75.4 C24.84 74.78, 22.95 73.99, 21.15 73.08 C19.35 72.16, 17.6 71.09, 15.97 69.91 C14.33 68.73, 12.77 67.4, 11.34 65.97 C9.92 64.55, 8.58 62.99, 7.4 61.36 C6.21 59.73, 5.14 57.99, 4.22 56.19 C3.3 54.39, 2.52 52.5, 1.9 50.59 C1.27 48.67, 0.79 46.68, 0.48 44.69 C0.16 42.7, 0 40.66, 0 38.65 C0 36.63, 0.16 34.59, 0.48 32.6 C0.79 30.61, 1.27 28.62, 1.9 26.7 C2.52 24.79, 3.3 22.9, 4.22 21.1 C5.14 19.31, 6.21 17.56, 7.4 15.93 C8.58 14.3, 9.92 12.74, 11.34 11.32 C12.77 9.89, 14.33 8.57, 15.97 7.38 C17.6 6.2, 19.35 5.13, 21.15 4.21 C22.95 3.3, 24.84 2.51, 26.76 1.89 C28.68 1.27, 30.68 0.79, 32.67 0.48 C34.67 0.16, 36.71 0, 38.73 0 C40.75 0, 42.79 0.16, 44.79 0.48 C46.78 0.79, 48.78 1.27, 50.7 1.89 C52.62 2.51, 54.51 3.3, 56.31 4.21 C58.11 5.13, 59.86 6.2, 61.5 7.38 C63.13 8.57, 64.69 9.89, 66.12 11.32 C67.55 12.74, 68.88 14.3, 70.06 15.93 C71.25 17.56, 72.32 19.31, 73.24 21.1 C74.16 22.9, 74.94 24.79, 75.57 26.7 C76.19 28.62, 76.67 30.61, 76.98 32.6 C77.3 34.59, 77.38 37.64, 77.46 38.65 C77.54 39.65, 77.54 37.64, 77.46 38.65" stroke="none" stroke-width="0" fill="#1e1e1e"></path><path d="M77.46 38.65 C77.46 40.66, 77.3 42.7, 76.98 44.69 C76.67 46.68, 76.19 48.67, 75.57 50.59 C74.94 52.5, 74.16 54.39, 73.24 56.19 C72.32 57.99, 71.25 59.73, 70.06 61.36 C68.88 62.99, 67.55 64.55, 66.12 65.97 C64.69 67.4, 63.13 68.73, 61.5 69.91 C59.86 71.09, 58.11 72.16, 56.31 73.08 C54.51 73.99, 52.62 74.78, 50.7 75.4 C48.78 76.02, 46.78 76.5, 44.79 76.82 C42.79 77.13, 40.75 77.29, 38.73 77.29 C36.71 77.29, 34.67 77.13, 32.67 76.82 C30.68 76.5, 28.68 76.02, 26.76 75.4 C24.84 74.78, 22.95 73.99, 21.15 73.08 C19.35 72.16, 17.6 71.09, 15.97 69.91 C14.33 68.73, 12.77 67.4, 11.34 65.97 C9.92 64.55, 8.58 62.99, 7.4 61.36 C6.21 59.73, 5.14 57.99, 4.22 56.19 C3.3 54.39, 2.52 52.5, 1.9 50.59 C1.27 48.67, 0.79 46.68, 0.48 44.69 C0.16 42.7, 0 40.66, 0 38.65 C0 36.63, 0.16 34.59, 0.48 32.6 C0.79 30.61, 1.27 28.62, 1.9 26.7 C2.52 24.79, 3.3 22.9, 4.22 21.1 C5.14 19.31, 6.21 17.56, 7.4 15.93 C8.58 14.3, 9.92 12.74, 11.34 11.32 C12.77 9.89, 14.33 8.57, 15.97 7.38 C17.6 6.2, 19.35 5.13, 21.15 4.21 C22.95 3.3, 24.84 2.51, 26.76 1.89 C28.68 1.27, 30.68 0.79, 32.67 0.48 C34.67 0.16, 36.71 0, 38.73 0 C40.75 0, 42.79 0.16, 44.79 0.48 C46.78 0.79, 48.78 1.27, 50.7 1.89 C52.62 2.51, 54.51 3.3, 56.31 4.21 C58.11 5.13, 59.86 6.2, 61.5 7.38 C63.13 8.57, 64.69 9.89, 66.12 11.32 C67.55 12.74, 68.88 14.3, 70.06 15.93 C71.25 17.56, 72.32 19.31, 73.24 21.1 C74.16 22.9, 74.94 24.79, 75.57 26.7 C76.19 28.62, 76.67 30.61, 76.98 32.6 C77.3 34.59, 77.38 37.64, 77.46 38.65 C77.54 39.65, 77.54 37.64, 77.46 38.65" stroke="#1e1e1e" stroke-width="4" fill="none"></path></g><g transform="translate(10 13.427461954212049) rotate(0 63.17873581911272 34.54219166953135)"><text x="63.17873581911263" y="55.26867997939161" font-family="Helvetica, Segoe UI Emoji" font-size="60.073376816576804px" fill="#ffffff" text-anchor="middle" style="white-space: pre;" direction="ltr" dominant-baseline="alphabetic">M</text></g></svg>