<svg version="1.1" xmlns="http://www.w3.org/2000/svg" viewBox="0 0 231.53027974272936 120.2841803576739" width="231.53027974272936" height="120.2841803576739">
  <!-- svg-source:excalidraw -->
  
  <defs>
    <style class="style-fonts">
      @font-face {
        font-family: "Virgil";
        src: url("https://excalidraw.com/Virgil.woff2");
      }
      @font-face {
        font-family: "Cascadia";
        src: url("https://excalidraw.com/Cascadia.woff2");
      }
      @font-face {
        font-family: "Assistant";
        src: url("https://excalidraw.com/Assistant-Regular.woff2");
      }
    </style>
    
  </defs>
  <g stroke-linecap="round" transform="translate(65.12203618830972 20.198114695036566) rotate(0 39.66449112025566 38)"><path d="M79.33 38 C79.33 39.98, 79.16 41.99, 78.84 43.94 C78.52 45.9, 78.03 47.86, 77.39 49.74 C76.75 51.63, 75.94 53.49, 75.01 55.25 C74.07 57.02, 72.97 58.73, 71.75 60.34 C70.54 61.94, 69.17 63.47, 67.71 64.87 C66.25 66.27, 64.65 67.58, 62.98 68.74 C61.31 69.91, 59.51 70.96, 57.67 71.86 C55.83 72.76, 53.89 73.53, 51.92 74.14 C49.95 74.75, 47.91 75.22, 45.87 75.53 C43.83 75.84, 41.73 76, 39.66 76 C37.6 76, 35.5 75.84, 33.46 75.53 C31.42 75.22, 29.37 74.75, 27.41 74.14 C25.44 73.53, 23.5 72.76, 21.66 71.86 C19.81 70.96, 18.02 69.91, 16.35 68.74 C14.68 67.58, 13.08 66.27, 11.62 64.87 C10.15 63.47, 8.79 61.94, 7.58 60.34 C6.36 58.73, 5.26 57.02, 4.32 55.25 C3.38 53.49, 2.58 51.63, 1.94 49.74 C1.3 47.86, 0.81 45.9, 0.49 43.94 C0.16 41.99, 0 39.98, 0 38 C0 36.02, 0.16 34.01, 0.49 32.06 C0.81 30.1, 1.3 28.14, 1.94 26.26 C2.58 24.37, 3.38 22.51, 4.32 20.75 C5.26 18.98, 6.36 17.27, 7.58 15.66 C8.79 14.06, 10.15 12.53, 11.62 11.13 C13.08 9.73, 14.68 8.42, 16.35 7.26 C18.02 6.09, 19.81 5.04, 21.66 4.14 C23.5 3.24, 25.44 2.47, 27.41 1.86 C29.37 1.25, 31.42 0.78, 33.46 0.47 C35.5 0.16, 37.6 0, 39.66 0 C41.73 0, 43.83 0.16, 45.87 0.47 C47.91 0.78, 49.95 1.25, 51.92 1.86 C53.89 2.47, 55.83 3.24, 57.67 4.14 C59.51 5.04, 61.31 6.09, 62.98 7.26 C64.65 8.42, 66.25 9.73, 67.71 11.13 C69.17 12.53, 70.54 14.06, 71.75 15.66 C72.97 17.27, 74.07 18.98, 75.01 20.75 C75.94 22.51, 76.75 24.37, 77.39 26.26 C78.03 28.14, 78.52 30.1, 78.84 32.06 C79.16 34.01, 79.25 37.01, 79.33 38 C79.41 38.99, 79.41 37.01, 79.33 38" stroke="#1e1e1e" stroke-width="4" fill="none"></path></g><g transform="translate(149.7022193928815 26.283449655344157) rotate(0 4.753972715610871 6.77861219413353)" stroke="none"><path fill="#1e1e1e" d="M -1.41,-1.82 Q -1.41,-1.82 -0.64,-2.49 0.12,-3.15 1.03,-3.89 1.95,-4.63 2.15,-4.74 2.35,-4.85 2.64,-4.99 2.93,-5.12 3.25,-5.18 3.56,-5.24 3.88,-5.22 4.20,-5.20 4.51,-5.11 4.81,-5.02 5.09,-4.85 5.36,-4.69 5.59,-4.47 5.82,-4.24 5.98,-3.97 6.15,-3.70 6.25,-3.39 6.34,-3.09 6.37,-2.77 6.39,-2.45 6.33,-2.14 6.28,-1.82 6.15,-1.53 6.02,-1.24 5.82,-0.98 5.63,-0.73 5.38,-0.53 5.13,-0.33 5.81,-1.57 6.50,-2.81 6.60,-1.63 6.71,-0.46 6.42,0.94 6.13,2.35 5.15,4.73 4.18,7.11 3.54,8.84 2.90,10.57 2.55,11.86 2.19,13.14 1.99,14.39 1.79,15.64 1.87,15.86 1.96,16.09 1.93,16.41 1.90,16.73 1.80,17.03 1.69,17.33 1.52,17.60 1.35,17.87 1.11,18.09 0.88,18.31 0.60,18.47 0.32,18.63 0.01,18.72 -0.29,18.80 -0.61,18.81 -0.93,18.82 -1.24,18.76 -1.55,18.69 -1.84,18.55 -2.13,18.41 -2.38,18.21 -2.62,18.00 -2.82,17.74 -3.01,17.49 -3.13,17.19 -3.25,16.89 -3.30,16.58 -3.35,16.26 -2.79,15.02 -2.22,13.78 -1.12,12.51 -0.03,11.25 1.02,10.45 2.07,9.65 3.10,8.93 4.13,8.21 5.02,7.61 5.90,7.01 7.50,6.11 9.09,5.21 9.55,5.08 10.00,4.95 10.48,4.98 10.95,5.00 11.39,5.17 11.83,5.34 12.19,5.65 12.55,5.95 12.80,6.35 13.05,6.76 13.15,7.22 13.26,7.68 13.21,8.15 13.16,8.62 12.96,9.05 12.77,9.48 12.45,9.83 12.12,10.17 11.71,10.39 11.29,10.62 10.82,10.70 10.36,10.78 9.89,10.70 9.42,10.63 9.01,10.41 8.59,10.19 8.26,9.85 7.93,9.51 7.73,9.08 7.53,8.66 7.47,8.19 7.42,7.72 7.52,7.25 7.62,6.79 7.86,6.39 8.10,5.98 8.46,5.67 8.82,5.36 9.25,5.18 9.69,5.01 10.16,4.98 10.64,4.95 11.09,5.07 11.55,5.20 11.94,5.46 12.34,5.72 12.62,6.10 12.91,6.47 13.07,6.92 13.22,7.36 13.22,7.84 13.23,8.31 13.08,8.76 12.93,9.21 12.65,9.59 12.36,9.96 11.97,10.23 11.58,10.50 11.58,10.50 11.58,10.50 9.49,11.68 7.40,12.86 6.46,13.53 5.51,14.19 4.63,14.86 3.74,15.54 2.38,16.77 1.01,18.00 1.48,17.04 1.96,16.09 1.93,16.41 1.90,16.73 1.80,17.03 1.69,17.33 1.52,17.60 1.35,17.87 1.11,18.09 0.88,18.31 0.60,18.47 0.32,18.63 0.01,18.72 -0.29,18.80 -0.61,18.81 -0.93,18.82 -1.24,18.76 -1.55,18.69 -1.84,18.55 -2.13,18.41 -2.38,18.21 -2.62,18.00 -2.81,17.74 -3.01,17.49 -3.13,17.19 -3.25,16.89 -3.30,16.58 -3.35,16.26 -3.24,15.37 -3.13,14.47 -2.68,13.14 -2.24,11.81 -1.81,10.49 -1.39,9.17 -0.88,7.38 -0.37,5.60 0.18,3.34 0.74,1.08 1.11,0.01 1.49,-1.05 1.92,-2.95 2.35,-4.85 2.64,-4.98 2.93,-5.12 3.25,-5.18 3.56,-5.24 3.88,-5.22 4.20,-5.20 4.51,-5.11 4.81,-5.02 5.09,-4.85 5.36,-4.69 5.59,-4.47 5.82,-4.24 5.98,-3.97 6.15,-3.70 6.25,-3.39 6.34,-3.09 6.37,-2.77 6.39,-2.45 6.33,-2.14 6.28,-1.82 6.15,-1.53 6.02,-1.24 5.82,-0.98 5.63,-0.73 5.38,-0.53 5.13,-0.33 4.11,0.16 3.09,0.66 2.25,1.24 1.41,1.82 1.17,1.97 0.93,2.11 0.67,2.19 0.40,2.27 0.12,2.29 -0.15,2.30 -0.42,2.25 -0.69,2.20 -0.95,2.08 -1.20,1.97 -1.42,1.80 -1.64,1.62 -1.81,1.40 -1.98,1.18 -2.09,0.93 -2.21,0.67 -2.26,0.40 -2.30,0.12 -2.29,-0.14 -2.27,-0.42 -2.18,-0.69 -2.10,-0.95 -1.95,-1.19 -1.81,-1.43 -1.61,-1.63 -1.41,-1.82 -1.41,-1.82 L -1.41,-1.82 Z"></path></g><g transform="translate(167.37746029173286 23.846960345234038) rotate(0 -2.3349889974078906 6.767704657893773)" stroke="none"><path fill="#1e1e1e" d="M 1.99,1.48 Q 1.99,1.48 1.02,2.74 0.05,4.00 -0.82,5.17 -1.70,6.34 -2.48,7.39 -3.25,8.45 -3.86,9.34 -4.46,10.23 -5.17,11.43 -5.87,12.63 -6.37,11.14 -6.87,9.65 -4.97,9.43 -3.06,9.22 -1.04,9.48 0.97,9.75 3.17,10.32 5.38,10.88 5.76,11.19 6.15,11.50 6.41,11.91 6.68,12.32 6.80,12.80 6.92,13.27 6.88,13.76 6.84,14.25 6.65,14.70 6.46,15.15 6.13,15.52 5.81,15.89 5.38,16.13 4.95,16.37 4.47,16.47 3.99,16.56 3.50,16.50 3.02,16.43 2.58,16.22 2.14,16.00 1.79,15.65 1.44,15.31 1.22,14.87 1.00,14.43 0.93,13.95 0.86,13.46 0.95,12.98 1.05,12.49 1.29,12.07 1.53,11.64 1.89,11.31 2.25,10.98 2.70,10.78 3.15,10.59 3.64,10.55 4.13,10.51 4.61,10.62 5.09,10.74 5.50,11.00 5.91,11.27 6.22,11.65 6.53,12.03 6.70,12.49 6.87,12.95 6.89,13.44 6.90,13.93 6.76,14.40 6.62,14.87 6.33,15.27 6.05,15.67 5.65,15.96 5.25,16.24 4.79,16.39 4.32,16.53 3.83,16.52 3.34,16.51 2.87,16.34 2.41,16.18 2.41,16.18 2.41,16.18 0.38,15.78 -1.63,15.39 -3.46,15.20 -5.28,15.01 -6.64,14.91 -8.00,14.81 -9.28,13.85 -10.55,12.89 -10.50,11.32 -10.45,9.74 -9.51,8.49 -8.58,7.23 -7.89,6.34 -7.20,5.45 -6.40,4.43 -5.60,3.41 -4.72,2.25 -3.85,1.08 -2.92,-0.20 -1.99,-1.48 -1.78,-1.70 -1.58,-1.92 -1.32,-2.08 -1.07,-2.24 -0.79,-2.34 -0.50,-2.43 -0.20,-2.46 0.09,-2.48 0.38,-2.44 0.68,-2.39 0.96,-2.27 1.23,-2.16 1.47,-1.98 1.71,-1.80 1.91,-1.56 2.10,-1.33 2.23,-1.06 2.36,-0.79 2.42,-0.50 2.48,-0.20 2.47,0.09 2.45,0.39 2.37,0.68 2.29,0.96 2.14,1.22 1.99,1.49 1.99,1.49 L 1.99,1.48 Z"></path></g><g transform="translate(169.63696646165772 31.369948316283626) rotate(0 -0.0956651153992425 7.409629895024409)" stroke="none"><path fill="#1e1e1e" d="M 2.48,0 Q 2.48,0 2.47,1.48 2.47,2.96 2.45,4.42 2.43,5.88 2.41,7.27 2.38,8.66 2.38,9.84 2.39,11.01 2.41,12.92 2.43,14.84 2.36,15.25 2.28,15.67 2.08,16.05 1.88,16.42 1.57,16.71 1.26,17.00 0.87,17.17 0.49,17.35 0.06,17.39 -0.35,17.43 -0.76,17.34 -1.18,17.24 -1.54,17.02 -1.90,16.80 -2.17,16.47 -2.45,16.15 -2.60,15.75 -2.75,15.36 -2.77,14.93 -2.79,14.51 -2.68,14.10 -2.56,13.69 -2.32,13.34 -2.08,12.99 -1.74,12.74 -1.40,12.49 -0.99,12.35 -0.59,12.22 -0.17,12.22 0.25,12.23 0.65,12.37 1.05,12.51 1.39,12.77 1.72,13.03 1.96,13.38 2.19,13.73 2.30,14.14 2.41,14.55 2.39,14.98 2.36,15.40 2.20,15.79 2.04,16.19 1.76,16.51 1.49,16.83 1.12,17.04 0.75,17.26 0.34,17.35 -0.07,17.44 -0.49,17.39 -0.91,17.34 -1.29,17.16 -1.68,16.97 -1.98,16.68 -2.29,16.38 -2.48,16.01 -2.68,15.63 -2.75,15.21 -2.81,14.79 -2.81,14.79 -2.81,14.79 -2.75,12.84 -2.69,10.90 -2.63,9.72 -2.58,8.54 -2.53,7.19 -2.49,5.83 -2.48,4.40 -2.47,2.96 -2.47,1.48 -2.48,0 -2.45,-0.29 -2.41,-0.59 -2.30,-0.87 -2.20,-1.15 -2.03,-1.40 -1.86,-1.64 -1.63,-1.84 -1.41,-2.04 -1.14,-2.18 -0.88,-2.32 -0.59,-2.39 -0.29,-2.46 0.00,-2.46 0.30,-2.46 0.59,-2.39 0.88,-2.32 1.14,-2.18 1.41,-2.04 1.63,-1.84 1.86,-1.64 2.03,-1.40 2.20,-1.15 2.30,-0.87 2.41,-0.59 2.45,-0.29 2.48,0.00 2.48,0.00 L 2.48,0 Z"></path></g><g transform="translate(175.0653595039621 32.2984138612901) rotate(0 10.063346469828502 -5.301263365306113)" stroke="none"><path fill="#1e1e1e" d="M -0.71,-1.76 Q -0.71,-1.76 2.50,-2.98 5.71,-4.19 9.58,-6.40 13.46,-8.60 16.40,-10.26 19.34,-11.93 19.58,-12.02 19.81,-12.11 20.06,-12.12 20.31,-12.13 20.55,-12.06 20.79,-11.99 20.99,-11.85 21.20,-11.70 21.35,-11.50 21.50,-11.30 21.57,-11.06 21.65,-10.83 21.65,-10.58 21.64,-10.33 21.56,-10.09 21.48,-9.86 21.32,-9.66 21.17,-9.46 20.96,-9.32 20.75,-9.19 20.51,-9.12 20.27,-9.06 20.02,-9.08 19.77,-9.09 19.54,-9.19 19.31,-9.29 19.12,-9.45 18.93,-9.61 18.81,-9.83 18.68,-10.05 18.63,-10.29 18.58,-10.54 18.61,-10.78 18.64,-11.03 18.75,-11.26 18.86,-11.48 19.03,-11.66 19.20,-11.84 19.43,-11.95 19.65,-12.07 19.90,-12.10 20.14,-12.14 20.39,-12.10 20.63,-12.05 20.85,-11.93 21.07,-11.81 21.24,-11.63 21.41,-11.45 21.51,-11.22 21.61,-10.99 21.64,-10.74 21.66,-10.49 21.60,-10.25 21.55,-10.01 21.42,-9.79 21.28,-9.58 21.09,-9.42 20.90,-9.26 20.90,-9.26 20.90,-9.26 18.00,-7.52 15.10,-5.78 11.06,-3.37 7.03,-0.96 3.87,0.40 0.71,1.76 0.49,1.82 0.27,1.88 0.04,1.89 -0.18,1.89 -0.41,1.84 -0.63,1.79 -0.84,1.69 -1.04,1.59 -1.22,1.44 -1.39,1.29 -1.53,1.10 -1.66,0.92 -1.75,0.71 -1.84,0.49 -1.87,0.26 -1.90,0.04 -1.88,-0.18 -1.86,-0.41 -1.78,-0.63 -1.70,-0.84 -1.58,-1.04 -1.45,-1.23 -1.28,-1.38 -1.11,-1.54 -0.91,-1.65 -0.71,-1.76 -0.71,-1.76 L -0.71,-1.76 Z"></path></g><g transform="translate(176.01159831047516 37.732347664335975) rotate(0 2.327320263339061 0.5354596533306903)" stroke="none"><path fill="#1e1e1e" d="M 0.51,-2.25 Q 0.51,-2.25 2.85,-1.76 5.19,-1.28 5.55,-1.13 5.92,-0.98 6.21,-0.73 6.51,-0.47 6.71,-0.13 6.90,0.19 6.98,0.58 7.07,0.96 7.02,1.35 6.97,1.73 6.81,2.09 6.64,2.44 6.37,2.72 6.09,3.00 5.75,3.18 5.40,3.36 5.01,3.42 4.63,3.48 4.24,3.42 3.86,3.35 3.51,3.16 3.17,2.98 2.90,2.69 2.64,2.40 2.47,2.05 2.31,1.69 2.28,1.30 2.24,0.91 2.32,0.53 2.41,0.15 2.62,-0.17 2.82,-0.51 3.12,-0.76 3.42,-1.01 3.79,-1.15 4.15,-1.29 4.54,-1.31 4.93,-1.33 5.31,-1.22 5.69,-1.11 6.01,-0.89 6.33,-0.66 6.56,-0.35 6.80,-0.04 6.92,0.33 7.04,0.70 7.04,1.09 7.03,1.48 6.90,1.85 6.77,2.22 6.54,2.53 6.30,2.84 5.97,3.05 5.64,3.27 5.27,3.37 4.89,3.47 4.50,3.45 4.11,3.42 4.11,3.42 4.11,3.42 1.79,2.83 -0.51,2.25 -0.77,2.15 -1.04,2.06 -1.27,1.90 -1.50,1.75 -1.69,1.54 -1.88,1.34 -2.01,1.09 -2.14,0.85 -2.21,0.58 -2.28,0.31 -2.29,0.03 -2.29,-0.24 -2.23,-0.51 -2.17,-0.78 -2.04,-1.03 -1.92,-1.28 -1.74,-1.49 -1.55,-1.70 -1.33,-1.86 -1.10,-2.02 -0.84,-2.13 -0.58,-2.23 -0.31,-2.27 -0.03,-2.31 0.24,-2.28 0.51,-2.25 0.51,-2.25 L 0.51,-2.25 Z"></path></g><g transform="translate(188.6569259020389 41.056616740097525) rotate(0 0.00005000000010113581 0.00004999999964638846)" stroke="none"><path fill="#1e1e1e" d="M 2.12,-2.12 Q 2.12,-2.12 2.40,-1.73 2.69,-1.33 2.83,-0.87 2.97,-0.40 2.96,0.08 2.95,0.56 2.78,1.02 2.61,1.47 2.31,1.85 2.00,2.23 1.59,2.49 1.18,2.76 0.71,2.87 0.24,2.99 -0.24,2.95 -0.72,2.91 -1.17,2.72 -1.61,2.53 -1.98,2.20 -2.34,1.88 -2.58,1.45 -2.82,1.03 -2.91,0.55 -3.00,0.08 -2.93,-0.40 -2.87,-0.88 -2.65,-1.31 -2.44,-1.75 -2.09,-2.09 -1.75,-2.44 -1.31,-2.65 -0.88,-2.87 -0.39,-2.93 0.08,-3.00 0.55,-2.91 1.03,-2.82 1.46,-2.58 1.88,-2.34 2.20,-1.97 2.53,-1.61 2.72,-1.17 2.91,-0.72 2.95,-0.23 2.99,0.24 2.87,0.71 2.76,1.18 2.49,1.59 2.23,2.00 1.85,2.31 1.47,2.61 1.02,2.78 0.56,2.95 0.07,2.96 -0.40,2.97 -0.87,2.83 -1.33,2.69 -1.73,2.40 -2.12,2.12 -2.12,2.12 -2.12,2.12 -2.34,1.83 -2.57,1.55 -2.72,1.22 -2.86,0.89 -2.93,0.53 -2.99,0.18 -2.97,-0.18 -2.95,-0.54 -2.84,-0.88 -2.74,-1.23 -2.55,-1.54 -2.36,-1.85 -2.10,-2.10 -1.85,-2.36 -1.54,-2.55 -1.23,-2.74 -0.88,-2.84 -0.54,-2.95 -0.18,-2.97 0.18,-2.99 0.53,-2.93 0.89,-2.86 1.22,-2.72 1.55,-2.57 1.83,-2.34 2.12,-2.12 2.12,-2.12 L 2.12,-2.12 Z"></path></g><g transform="translate(58.460442750796574 84.44493529116517) rotate(0 21.49425018716329 -24.266727899524085)" stroke="none"><path fill="#1e1e1e" d="M -1.38,-0.78 Q -1.38,-0.78 -0.52,-2.35 0.32,-3.93 1.74,-6.27 3.15,-8.61 5.05,-11.77 6.95,-14.94 9.21,-18.81 11.47,-22.68 13.88,-26.89 16.28,-31.11 18.60,-35.21 20.92,-39.31 23.07,-43.07 25.21,-46.82 27.11,-50.07 29.01,-53.32 30.66,-56.06 32.31,-58.79 33.69,-61.03 35.08,-63.27 36.09,-64.97 37.10,-66.67 37.76,-67.94 38.42,-69.20 39.11,-70.71 39.81,-72.21 40.11,-73.24 40.42,-74.27 40.49,-74.61 40.57,-74.96 40.68,-75.23 40.79,-75.51 40.97,-75.76 41.14,-76.00 41.37,-76.19 41.60,-76.39 41.87,-76.52 42.13,-76.66 42.43,-76.72 42.72,-76.79 43.02,-76.79 43.32,-76.78 43.61,-76.70 43.89,-76.63 44.16,-76.48 44.42,-76.34 44.64,-76.14 44.86,-75.94 45.03,-75.69 45.19,-75.44 45.29,-75.15 45.40,-74.87 45.43,-74.58 45.46,-74.28 45.42,-73.98 45.38,-73.68 45.29,-70.84 45.20,-67.99 44.95,-64.96 44.69,-61.94 44.37,-56.81 44.04,-51.69 43.71,-44.60 43.38,-37.51 43.19,-30.55 43.00,-23.59 42.89,-16.43 42.79,-9.27 42.74,-2.77 42.68,3.72 42.65,7.90 42.61,12.09 42.61,14.80 42.60,17.52 42.69,19.29 42.79,21.06 42.92,23.44 43.04,25.81 43.00,26.07 42.97,26.34 42.84,26.57 42.72,26.80 42.54,26.99 42.35,27.17 42.11,27.28 41.87,27.40 41.61,27.43 41.35,27.46 41.09,27.41 40.83,27.35 40.60,27.22 40.38,27.09 40.20,26.89 40.03,26.69 39.93,26.45 39.83,26.20 39.81,25.94 39.79,25.68 39.86,25.42 39.93,25.17 40.07,24.95 40.22,24.73 40.43,24.57 40.64,24.40 40.88,24.32 41.13,24.23 41.40,24.23 41.66,24.22 41.91,24.31 42.16,24.39 42.37,24.54 42.58,24.70 42.74,24.92 42.89,25.13 42.96,25.39 43.03,25.64 43.02,25.90 43.01,26.17 42.92,26.41 42.82,26.66 42.65,26.86 42.48,27.06 42.26,27.20 42.04,27.34 41.78,27.40 41.52,27.46 41.26,27.43 41.00,27.41 40.76,27.30 40.52,27.19 40.32,27.01 40.13,26.84 40.01,26.60 39.88,26.37 39.83,26.11 39.79,25.85 39.79,25.85 39.79,25.85 39.76,23.49 39.74,21.12 39.76,19.33 39.79,17.53 39.76,14.81 39.73,12.08 39.71,7.89 39.70,3.71 39.69,-2.79 39.68,-9.29 39.69,-16.47 39.70,-23.65 39.77,-30.64 39.84,-37.64 40.01,-44.74 40.17,-51.85 40.27,-56.97 40.37,-62.09 40.33,-65.14 40.29,-68.19 40.26,-70.07 40.24,-71.95 40.41,-73.45 40.57,-74.96 40.68,-75.23 40.79,-75.51 40.97,-75.76 41.14,-76.00 41.37,-76.19 41.60,-76.39 41.87,-76.52 42.13,-76.66 42.42,-76.72 42.72,-76.79 43.02,-76.79 43.32,-76.78 43.60,-76.70 43.89,-76.63 44.16,-76.48 44.42,-76.34 44.64,-76.14 44.86,-75.94 45.03,-75.69 45.19,-75.44 45.29,-75.15 45.40,-74.87 45.43,-74.58 45.46,-74.28 45.42,-73.98 45.38,-73.68 44.95,-72.89 44.52,-72.10 43.87,-71.12 43.21,-70.14 42.18,-68.82 41.15,-67.51 40.31,-66.35 39.48,-65.20 38.41,-63.54 37.35,-61.88 35.98,-59.64 34.61,-57.41 32.98,-54.69 31.35,-51.97 29.46,-48.72 27.58,-45.47 25.46,-41.71 23.33,-37.96 21.04,-33.84 18.74,-29.72 16.36,-25.48 13.98,-21.23 11.75,-17.33 9.53,-13.43 7.69,-10.23 5.86,-7.03 4.53,-4.66 3.21,-2.29 2.29,-0.75 1.38,0.78 1.26,0.93 1.15,1.09 1.00,1.21 0.85,1.33 0.68,1.42 0.51,1.50 0.32,1.54 0.13,1.58 -0.05,1.57 -0.24,1.57 -0.42,1.51 -0.61,1.46 -0.77,1.37 -0.94,1.27 -1.08,1.14 -1.22,1.01 -1.32,0.85 -1.43,0.69 -1.49,0.51 -1.55,0.32 -1.57,0.13 -1.58,-0.05 -1.55,-0.24 -1.52,-0.43 -1.45,-0.60 -1.38,-0.78 -1.38,-0.78 L -1.38,-0.78 Z"></path></g><g transform="translate(98.8428702393885 109.98269309029274) rotate(0 2.90755442794989 -12.023530924519946)" stroke="none"><path fill="#1e1e1e" d="M -1.61,0.44 Q -1.61,0.44 -2.07,-0.89 -2.52,-2.24 -3.10,-3.56 -3.68,-4.87 -4.58,-6.44 -5.48,-8.01 -6.91,-9.76 -8.34,-11.52 -10.45,-13.21 -12.55,-14.91 -15.35,-16.44 -18.16,-17.97 -21.27,-19.12 -24.38,-20.26 -27.49,-20.95 -30.60,-21.63 -33.77,-21.92 -36.95,-22.22 -39.87,-22.07 -42.80,-21.92 -45.23,-21.40 -47.66,-20.89 -49.65,-20.16 -51.65,-19.43 -53.13,-18.58 -54.61,-17.73 -55.58,-16.88 -56.54,-16.03 -57.42,-14.57 -58.29,-13.11 -55.61,-12.94 -52.93,-12.77 -48.28,-12.93 -43.64,-13.10 -36.55,-13.86 -29.45,-14.62 -20.37,-15.70 -11.28,-16.79 -1.90,-17.73 7.48,-18.67 16.18,-19.21 24.89,-19.74 32.15,-19.78 39.42,-19.82 44.54,-19.51 49.67,-19.20 53.13,-18.70 56.59,-18.20 58.86,-17.68 61.12,-17.16 62.52,-16.86 63.92,-16.56 65.24,-15.59 66.55,-14.62 66.73,-14.54 66.91,-14.46 67.07,-14.34 67.22,-14.22 67.35,-14.07 67.47,-13.92 67.55,-13.74 67.63,-13.56 67.67,-13.37 67.71,-13.17 67.70,-12.98 67.69,-12.78 67.63,-12.59 67.58,-12.41 67.48,-12.24 67.38,-12.07 67.24,-11.93 67.10,-11.79 66.93,-11.68 66.77,-11.58 66.58,-11.52 66.39,-11.46 66.20,-11.45 66.00,-11.43 65.81,-11.47 65.62,-11.50 66.04,-11.49 66.46,-11.47 66.20,-11.46 65.93,-11.44 65.68,-11.50 65.42,-11.57 65.20,-11.71 64.98,-11.86 64.82,-12.07 64.66,-12.27 64.57,-12.52 64.48,-12.77 64.48,-13.03 64.47,-13.30 64.55,-13.55 64.63,-13.80 64.79,-14.01 64.94,-14.22 65.16,-14.37 65.38,-14.53 65.63,-14.60 65.88,-14.68 66.14,-14.67 66.41,-14.66 66.65,-14.56 66.90,-14.47 67.10,-14.30 67.31,-14.13 67.45,-13.91 67.59,-13.69 67.65,-13.43 67.71,-13.17 67.68,-12.91 67.66,-12.65 67.55,-12.41 67.45,-12.17 67.27,-11.97 67.09,-11.78 66.86,-11.65 66.63,-11.52 66.37,-11.48 66.11,-11.43 65.85,-11.47 65.59,-11.51 65.35,-11.63 65.12,-11.75 64.94,-11.93 64.75,-12.12 64.64,-12.36 64.52,-12.60 64.49,-12.86 64.46,-13.12 64.51,-13.38 64.56,-13.64 64.69,-13.87 64.83,-14.09 65.02,-14.27 65.22,-14.44 65.89,-14.53 66.55,-14.62 66.73,-14.54 66.91,-14.46 67.07,-14.34 67.22,-14.22 67.35,-14.07 67.47,-13.92 67.55,-13.74 67.63,-13.56 67.67,-13.37 67.71,-13.17 67.70,-12.98 67.69,-12.78 67.63,-12.59 67.58,-12.41 67.48,-12.24 67.38,-12.07 67.24,-11.93 67.10,-11.79 66.93,-11.68 66.77,-11.58 66.58,-11.52 66.39,-11.46 66.20,-11.45 66.00,-11.43 65.81,-11.47 65.62,-11.50 64.31,-12.51 63.00,-13.52 61.76,-14.02 60.52,-14.51 58.36,-14.99 56.20,-15.47 52.86,-15.94 49.51,-16.40 44.48,-16.67 39.44,-16.95 32.26,-16.86 25.08,-16.78 16.44,-16.19 7.81,-15.59 -1.53,-14.57 -10.88,-13.54 -19.96,-12.34 -29.04,-11.14 -36.23,-10.21 -43.42,-9.27 -48.30,-8.89 -53.19,-8.51 -56.18,-8.61 -59.18,-8.71 -60.57,-9.64 -61.95,-10.56 -61.87,-12.90 -61.79,-15.24 -61.13,-16.12 -60.47,-16.99 -59.50,-17.85 -58.54,-18.72 -57.26,-19.53 -55.98,-20.34 -54.28,-21.15 -52.57,-21.95 -50.40,-22.75 -48.23,-23.54 -45.59,-24.10 -42.95,-24.66 -39.83,-24.83 -36.70,-25.00 -33.35,-24.70 -30.01,-24.41 -26.70,-23.72 -23.39,-23.02 -20.06,-21.84 -16.73,-20.66 -13.66,-19.04 -10.58,-17.43 -8.17,-15.59 -5.77,-13.75 -4.04,-11.83 -2.30,-9.91 -1.20,-8.11 -0.09,-6.30 0.45,-4.76 1.01,-3.22 1.31,-1.83 1.61,-0.44 1.64,-0.24 1.67,-0.04 1.65,0.15 1.63,0.35 1.57,0.54 1.50,0.73 1.39,0.90 1.28,1.07 1.13,1.21 0.99,1.35 0.81,1.45 0.63,1.55 0.44,1.60 0.24,1.65 0.04,1.66 -0.15,1.67 -0.35,1.62 -0.55,1.58 -0.73,1.49 -0.91,1.40 -1.06,1.27 -1.22,1.14 -1.34,0.98 -1.46,0.82 -1.54,0.63 -1.61,0.44 -1.61,0.44 L -1.61,0.44 Z"></path></g><g transform="translate(97.86179425927094 60.82901282984676) rotate(0 -43.93089712963547 2.927002818517394)" stroke="none"><path fill="#1e1e1e" d="M -0.17,1.59 Q -0.17,1.59 -2.56,1.29 -4.95,0.98 -9.00,0.70 -13.05,0.42 -18.90,0.45 -24.76,0.49 -32.13,1.10 -39.50,1.71 -47.51,2.98 -55.52,4.25 -62.37,5.41 -69.23,6.58 -74.56,7.16 -79.89,7.74 -83.80,8.17 -87.71,8.60 -87.93,8.58 -88.14,8.57 -88.34,8.49 -88.54,8.41 -88.71,8.27 -88.87,8.13 -88.99,7.95 -89.10,7.76 -89.14,7.55 -89.19,7.34 -89.17,7.13 -89.14,6.91 -89.05,6.72 -88.96,6.52 -88.81,6.36 -88.67,6.21 -88.48,6.10 -88.28,6.00 -88.07,5.97 -87.86,5.93 -87.65,5.97 -87.43,6.00 -87.24,6.10 -87.05,6.20 -86.90,6.36 -86.75,6.52 -86.66,6.71 -86.57,6.91 -86.55,7.12 -86.52,7.34 -86.57,7.55 -86.62,7.76 -86.73,7.95 -86.84,8.13 -87.00,8.27 -87.17,8.41 -87.37,8.49 -87.57,8.57 -87.78,8.58 -88.00,8.60 -88.21,8.54 -88.42,8.48 -88.60,8.36 -88.77,8.24 -88.91,8.07 -89.04,7.89 -89.11,7.69 -89.17,7.49 -89.17,7.27 -89.18,7.05 -89.11,6.85 -89.04,6.64 -88.91,6.47 -88.78,6.30 -88.60,6.18 -88.42,6.06 -88.21,6.00 -88.00,5.94 -88.00,5.94 -88.00,5.94 -84.09,5.51 -80.18,5.07 -74.94,4.49 -69.69,3.90 -62.82,2.72 -55.95,1.54 -47.85,0.24 -39.74,-1.06 -32.26,-1.70 -24.79,-2.35 -18.83,-2.42 -12.86,-2.50 -8.74,-2.26 -4.62,-2.03 -2.22,-1.81 0.17,-1.59 0.36,-1.54 0.55,-1.50 0.72,-1.41 0.89,-1.32 1.03,-1.20 1.18,-1.07 1.29,-0.91 1.40,-0.76 1.47,-0.58 1.55,-0.40 1.57,-0.21 1.60,-0.01 1.58,0.17 1.55,0.36 1.49,0.54 1.42,0.72 1.31,0.88 1.21,1.04 1.06,1.17 0.92,1.30 0.75,1.39 0.58,1.49 0.39,1.53 0.21,1.58 0.01,1.58 -0.17,1.59 -0.17,1.59 L -0.17,1.59 Z"></path></g><g transform="translate(104.87623389223245 10.413105113277197) rotate(0 4.392090098894641 49.88018671256941)" stroke="none"><path fill="#1e1e1e" d="M 1.56,-0.06 Q 1.56,-0.06 1.62,2.02 1.69,4.10 1.78,6.32 1.88,8.53 2.07,11.20 2.27,13.87 2.61,17.48 2.95,21.10 3.44,25.79 3.94,30.47 4.67,36.84 5.39,43.22 6.18,49.81 6.96,56.41 7.63,61.80 8.30,67.20 8.81,71.93 9.33,76.66 9.51,81.20 9.69,85.74 9.60,89.80 9.51,93.85 9.45,96.82 9.39,99.78 9.35,99.99 9.31,100.20 9.20,100.39 9.10,100.58 8.94,100.72 8.78,100.86 8.59,100.95 8.39,101.03 8.18,101.05 7.97,101.07 7.76,101.02 7.55,100.97 7.37,100.86 7.19,100.74 7.06,100.58 6.92,100.41 6.85,100.21 6.77,100.01 6.77,99.80 6.76,99.58 6.82,99.38 6.88,99.18 7.01,99.00 7.13,98.83 7.30,98.70 7.47,98.58 7.68,98.51 7.88,98.45 8.10,98.45 8.31,98.46 8.51,98.53 8.71,98.60 8.88,98.74 9.04,98.87 9.16,99.05 9.28,99.23 9.33,99.43 9.38,99.64 9.37,99.85 9.35,100.07 9.27,100.26 9.18,100.46 9.04,100.62 8.90,100.78 8.71,100.89 8.53,100.99 8.32,101.03 8.11,101.07 7.90,101.05 7.69,101.02 7.49,100.92 7.30,100.83 7.15,100.68 7.00,100.53 6.90,100.34 6.81,100.15 6.78,99.94 6.75,99.73 6.75,99.73 6.75,99.73 6.81,96.76 6.87,93.79 6.96,89.82 7.04,85.85 6.87,81.40 6.69,76.95 6.17,72.24 5.65,67.53 4.97,62.13 4.29,56.73 3.50,50.13 2.70,43.53 1.96,37.15 1.22,30.77 0.70,26.07 0.18,21.37 -0.18,17.73 -0.55,14.09 -0.79,11.39 -1.02,8.69 -1.18,6.46 -1.33,4.23 -1.45,2.15 -1.56,0.06 -1.54,-0.12 -1.53,-0.31 -1.47,-0.48 -1.41,-0.66 -1.31,-0.82 -1.21,-0.98 -1.07,-1.11 -0.94,-1.24 -0.77,-1.34 -0.61,-1.43 -0.43,-1.49 -0.25,-1.54 -0.06,-1.55 0.12,-1.56 0.30,-1.52 0.49,-1.48 0.66,-1.40 0.83,-1.32 0.98,-1.20 1.12,-1.08 1.24,-0.93 1.35,-0.78 1.42,-0.61 1.50,-0.43 1.53,-0.25 1.56,-0.06 1.56,-0.06 L 1.56,-0.06 Z"></path></g><g transform="translate(105.29178937676716 10) rotate(0 8.849298241450015 22.2721113827065)" stroke="none"><path fill="#1e1e1e" d="M 2.62,-0.25 Q 2.62,-0.25 2.75,1.00 2.88,2.26 3.15,4.21 3.41,6.16 3.82,7.52 4.23,8.87 5.43,10.04 6.62,11.21 7.48,11.99 8.34,12.77 9.29,13.69 10.24,14.61 11.16,15.55 12.09,16.48 12.96,17.43 13.83,18.38 14.58,19.26 15.34,20.15 16.43,21.42 17.51,22.69 18.55,23.89 19.59,25.08 20.13,26.50 20.68,27.93 20.70,29.55 20.72,31.18 20.15,33.02 19.59,34.86 18.62,36.64 17.65,38.43 16.55,40.06 15.45,41.69 14.41,42.88 13.36,44.06 11.10,45.71 8.83,47.36 8.33,47.57 7.83,47.78 7.30,47.83 6.76,47.87 6.23,47.73 5.71,47.60 5.25,47.31 4.80,47.02 4.46,46.59 4.13,46.17 3.94,45.66 3.76,45.15 3.75,44.61 3.73,44.07 3.89,43.56 4.06,43.04 4.37,42.60 4.69,42.17 5.13,41.85 5.57,41.54 6.09,41.38 6.61,41.23 7.15,41.24 7.69,41.26 8.19,41.45 8.70,41.64 9.12,41.98 9.54,42.32 9.83,42.78 10.12,43.23 10.24,43.76 10.37,44.28 10.33,44.82 10.28,45.36 10.06,45.85 9.85,46.35 9.49,46.75 9.12,47.15 8.65,47.42 8.18,47.68 7.65,47.78 7.12,47.88 6.58,47.80 6.05,47.73 5.56,47.49 5.08,47.24 4.70,46.86 4.32,46.48 4.08,45.99 3.84,45.51 3.77,44.97 3.70,44.43 3.81,43.90 3.91,43.37 4.18,42.90 4.45,42.43 4.85,42.08 5.26,41.72 5.26,41.72 5.25,41.72 6.63,40.84 8.01,39.95 9.09,38.93 10.16,37.91 11.09,36.53 12.01,35.15 12.76,33.77 13.51,32.39 13.95,31.09 14.38,29.78 14.02,28.61 13.66,27.44 12.82,26.35 11.99,25.27 10.79,23.78 9.60,22.30 8.81,21.45 8.01,20.61 7.12,19.75 6.22,18.89 5.30,18.06 4.38,17.23 3.50,16.46 2.62,15.69 1.80,14.92 0.98,14.16 -0.12,12.42 -1.22,10.67 -1.64,8.75 -2.06,6.83 -2.22,4.80 -2.39,2.78 -2.50,1.51 -2.62,0.25 -2.61,-0.06 -2.60,-0.37 -2.52,-0.68 -2.44,-0.99 -2.28,-1.26 -2.13,-1.54 -1.91,-1.78 -1.70,-2.01 -1.43,-2.18 -1.17,-2.36 -0.87,-2.46 -0.57,-2.57 -0.25,-2.60 0.06,-2.63 0.37,-2.59 0.69,-2.54 0.98,-2.42 1.27,-2.30 1.53,-2.11 1.79,-1.93 1.99,-1.69 2.20,-1.44 2.34,-1.16 2.48,-0.87 2.55,-0.56 2.62,-0.25 2.62,-0.25 L 2.62,-0.25 Z"></path></g><g transform="translate(112.43333629053905 56.452209020922965) rotate(0 16.896261427622903 19.94471493947458)" stroke="none"><path fill="#1e1e1e" d="M -3.74,-1.99 Q -3.74,-1.99 -1.23,-2.80 1.27,-3.60 3.97,-4.53 6.68,-5.46 9.48,-6.39 12.27,-7.33 15.13,-8.11 18.00,-8.88 21.20,-9.45 24.40,-10.01 27.66,-10.26 30.91,-10.50 33.93,-10.29 36.95,-10.09 39.77,-9.37 42.58,-8.64 45.04,-7.49 47.51,-6.33 49.44,-4.90 51.37,-3.46 52.81,-1.97 54.25,-0.49 55.32,0.93 56.39,2.36 57.17,4.23 57.94,6.10 58.38,8.20 58.81,10.29 59.01,12.23 59.22,14.16 59.24,15.87 59.27,17.59 58.93,19.56 58.59,21.52 57.64,24.03 56.70,26.53 54.94,29.37 53.18,32.21 50.95,34.92 48.72,37.62 46.45,39.82 44.18,42.01 41.83,43.77 39.49,45.54 36.95,46.83 34.41,48.12 31.43,48.89 28.45,49.65 24.62,49.60 20.79,49.56 16.40,48.65 12.00,47.75 7.62,46.46 3.24,45.16 -0.77,43.90 -4.79,42.64 -8.01,41.66 -11.24,40.68 -13.86,39.92 -16.49,39.16 -18.79,38.44 -21.09,37.71 -22.80,37.25 -24.51,36.78 -24.72,36.67 -24.93,36.57 -25.10,36.40 -25.27,36.23 -25.37,36.02 -25.47,35.80 -25.50,35.57 -25.53,35.34 -25.49,35.10 -25.44,34.87 -25.32,34.67 -25.21,34.46 -25.03,34.31 -24.85,34.15 -24.63,34.06 -24.42,33.97 -24.18,33.95 -23.94,33.93 -23.71,33.99 -23.49,34.05 -23.29,34.18 -23.09,34.31 -22.94,34.49 -22.80,34.68 -22.72,34.90 -22.64,35.12 -22.63,35.36 -22.63,35.59 -22.70,35.82 -22.77,36.05 -22.91,36.24 -23.05,36.43 -23.24,36.56 -23.43,36.70 -23.66,36.77 -23.89,36.84 -24.12,36.83 -24.36,36.82 -24.58,36.74 -24.80,36.65 -24.99,36.50 -25.17,36.35 -25.29,36.15 -25.42,35.95 -25.48,35.72 -25.53,35.49 -25.51,35.26 -25.49,35.02 -25.39,34.81 -25.30,34.59 -25.14,34.42 -24.98,34.24 -24.77,34.13 -24.57,34.01 -24.33,33.97 -24.10,33.93 -23.87,33.96 -23.63,33.99 -23.63,33.99 -23.63,33.99 -21.97,34.59 -20.30,35.20 -18.02,35.91 -15.75,36.63 -13.11,37.39 -10.48,38.15 -7.23,39.13 -3.99,40.11 -0.00,41.36 3.99,42.61 8.27,43.87 12.55,45.13 16.70,45.99 20.85,46.86 24.32,46.94 27.80,47.01 30.49,46.33 33.17,45.66 35.49,44.48 37.80,43.29 39.98,41.62 42.17,39.95 44.29,37.85 46.42,35.75 48.48,33.17 50.53,30.60 52.08,28.01 53.62,25.42 54.37,23.16 55.13,20.89 55.45,19.20 55.77,17.51 55.86,15.98 55.95,14.45 55.83,12.69 55.71,10.94 55.32,9.10 54.94,7.26 54.37,5.67 53.81,4.09 53.00,2.74 52.19,1.40 50.98,0.02 49.78,-1.35 48.07,-2.64 46.36,-3.94 44.13,-5.00 41.90,-6.07 39.33,-6.74 36.77,-7.42 33.94,-7.61 31.11,-7.80 27.99,-7.57 24.88,-7.33 21.80,-6.77 18.73,-6.22 15.96,-5.44 13.18,-4.66 10.41,-3.70 7.64,-2.73 4.93,-1.75 2.22,-0.77 -0.26,0.09 -2.75,0.96 -2.93,1.00 -3.12,1.04 -3.31,1.03 -3.50,1.02 -3.68,0.97 -3.86,0.92 -4.02,0.83 -4.18,0.73 -4.32,0.60 -4.46,0.47 -4.56,0.31 -4.66,0.15 -4.72,-0.02 -4.78,-0.19 -4.79,-0.38 -4.81,-0.57 -4.78,-0.75 -4.75,-0.94 -4.67,-1.11 -4.60,-1.29 -4.49,-1.44 -4.38,-1.59 -4.23,-1.71 -4.08,-1.83 -3.91,-1.91 -3.74,-1.99 -3.74,-1.99 L -3.74,-1.99 Z"></path></g><g transform="translate(152.60942019409504 65.60626350437815) rotate(0 32.49548393283567 -5.7105959416185215)" stroke="none"><path fill="#1e1e1e" d="M -0.34,-1.79 Q -0.34,-1.79 3.43,-2.45 7.22,-3.11 12.13,-3.97 17.04,-4.83 22.96,-5.83 28.88,-6.84 34.53,-7.77 40.17,-8.69 44.55,-9.40 48.93,-10.10 52.12,-10.62 55.32,-11.15 57.48,-11.51 59.64,-11.86 62.18,-12.41 64.71,-12.95 64.96,-12.95 65.21,-12.96 65.45,-12.88 65.69,-12.81 65.90,-12.66 66.10,-12.51 66.25,-12.30 66.39,-12.09 66.46,-11.85 66.53,-11.61 66.52,-11.36 66.51,-11.11 66.42,-10.87 66.33,-10.63 66.17,-10.44 66.01,-10.24 65.80,-10.11 65.59,-9.98 65.34,-9.92 65.10,-9.86 64.84,-9.88 64.59,-9.91 64.36,-10.01 64.13,-10.11 63.95,-10.28 63.76,-10.45 63.64,-10.67 63.52,-10.89 63.47,-11.14 63.43,-11.39 63.46,-11.64 63.50,-11.89 63.62,-12.12 63.73,-12.34 63.91,-12.52 64.09,-12.69 64.32,-12.80 64.54,-12.91 64.80,-12.94 65.05,-12.97 65.29,-12.92 65.54,-12.87 65.76,-12.75 65.98,-12.62 66.14,-12.43 66.31,-12.24 66.41,-12.01 66.50,-11.78 66.52,-11.52 66.54,-11.27 66.47,-11.03 66.41,-10.78 66.27,-10.57 66.13,-10.36 65.94,-10.21 65.74,-10.05 65.50,-9.97 65.26,-9.88 65.26,-9.88 65.26,-9.88 62.68,-9.52 60.10,-9.17 57.94,-8.79 55.78,-8.41 52.58,-7.85 49.39,-7.30 45.02,-6.56 40.65,-5.82 35.03,-4.84 29.41,-3.86 23.51,-2.78 17.62,-1.70 12.74,-0.75 7.86,0.19 4.10,0.99 0.34,1.79 0.12,1.81 -0.09,1.82 -0.30,1.78 -0.52,1.75 -0.72,1.66 -0.93,1.57 -1.10,1.43 -1.28,1.30 -1.41,1.13 -1.55,0.96 -1.64,0.76 -1.74,0.56 -1.78,0.34 -1.82,0.12 -1.81,-0.09 -1.80,-0.31 -1.73,-0.52 -1.67,-0.73 -1.56,-0.92 -1.45,-1.11 -1.29,-1.27 -1.14,-1.42 -0.95,-1.54 -0.76,-1.66 -0.55,-1.72 -0.34,-1.79 -0.34,-1.79 L -0.34,-1.79 Z"></path></g><g transform="translate(159.50813131162067 73.04270515934331) rotate(0 31.011074215554345 3.313136672458313)" stroke="none"><path fill="#1e1e1e" d="M 0.32,-1.72 Q 0.32,-1.72 2.60,-1.23 4.87,-0.73 8.11,-0.20 11.34,0.32 15.75,0.87 20.16,1.42 25.20,1.91 30.23,2.41 35.10,2.81 39.97,3.21 43.93,3.51 47.90,3.82 50.67,4.04 53.44,4.27 55.33,4.39 57.23,4.51 59.88,4.88 62.54,5.24 62.74,5.36 62.95,5.48 63.11,5.66 63.27,5.83 63.36,6.06 63.45,6.28 63.47,6.51 63.49,6.75 63.43,6.98 63.37,7.21 63.24,7.41 63.11,7.61 62.92,7.76 62.73,7.91 62.51,7.99 62.29,8.07 62.05,8.08 61.81,8.08 61.58,8.01 61.35,7.94 61.16,7.80 60.97,7.66 60.83,7.46 60.69,7.27 60.62,7.04 60.55,6.81 60.56,6.57 60.57,6.33 60.65,6.11 60.74,5.89 60.89,5.70 61.04,5.52 61.24,5.39 61.44,5.26 61.68,5.21 61.91,5.15 62.15,5.17 62.38,5.19 62.60,5.29 62.82,5.38 63.00,5.54 63.17,5.70 63.29,5.91 63.41,6.12 63.45,6.36 63.49,6.59 63.46,6.83 63.43,7.06 63.32,7.28 63.21,7.49 63.04,7.66 62.87,7.83 62.65,7.93 62.44,8.04 62.20,8.07 61.97,8.10 61.73,8.05 61.50,8.00 61.50,8.00 61.50,8.00 59.23,7.70 56.97,7.41 55.10,7.19 53.23,6.98 50.46,6.77 47.70,6.57 43.72,6.29 39.75,6.00 34.86,5.64 29.97,5.27 24.89,4.82 19.81,4.37 15.35,3.87 10.88,3.38 7.57,2.92 4.26,2.47 1.97,2.09 -0.32,1.72 -0.52,1.65 -0.72,1.59 -0.91,1.48 -1.09,1.37 -1.23,1.22 -1.38,1.07 -1.49,0.89 -1.60,0.71 -1.66,0.50 -1.72,0.30 -1.73,0.09 -1.75,-0.11 -1.71,-0.32 -1.67,-0.53 -1.58,-0.72 -1.49,-0.91 -1.36,-1.08 -1.23,-1.24 -1.06,-1.37 -0.89,-1.50 -0.70,-1.59 -0.51,-1.67 -0.30,-1.71 -0.09,-1.75 0.11,-1.73 0.32,-1.72 0.32,-1.72 L 0.32,-1.72 Z"></path></g><g transform="translate(57.550003874836875 49.58708735975415) rotate(0 -13.856998317550733 -4.389393545477105)" stroke="none"><path fill="#1e1e1e" d="M -0.43,2.15 Q -0.43,2.15 -1.94,1.85 -3.45,1.56 -5.13,1.12 -6.82,0.68 -8.69,0.09 -10.56,-0.50 -12.56,-1.19 -14.55,-1.88 -16.43,-2.54 -18.30,-3.19 -19.93,-3.75 -21.55,-4.30 -22.86,-4.72 -24.16,-5.14 -26.34,-6.02 -28.52,-6.90 -28.80,-7.08 -29.08,-7.25 -29.28,-7.51 -29.49,-7.77 -29.60,-8.08 -29.72,-8.39 -29.73,-8.72 -29.73,-9.05 -29.64,-9.37 -29.54,-9.68 -29.35,-9.95 -29.15,-10.22 -28.88,-10.41 -28.61,-10.61 -28.30,-10.70 -27.98,-10.80 -27.65,-10.79 -27.32,-10.78 -27.01,-10.67 -26.70,-10.55 -26.44,-10.34 -26.19,-10.14 -26.01,-9.86 -25.83,-9.58 -25.75,-9.26 -25.67,-8.94 -25.70,-8.61 -25.73,-8.28 -25.86,-7.97 -25.99,-7.67 -26.21,-7.42 -26.43,-7.18 -26.72,-7.02 -27.01,-6.85 -27.33,-6.79 -27.66,-6.73 -27.98,-6.78 -28.31,-6.82 -28.61,-6.97 -28.90,-7.12 -29.14,-7.35 -29.37,-7.58 -29.52,-7.88 -29.66,-8.18 -29.71,-8.50 -29.75,-8.83 -29.69,-9.16 -29.63,-9.48 -29.46,-9.77 -29.30,-10.06 -29.05,-10.28 -28.81,-10.50 -28.50,-10.63 -28.20,-10.76 -27.87,-10.78 -27.54,-10.81 -27.22,-10.73 -26.90,-10.65 -26.90,-10.65 -26.90,-10.65 -24.82,-9.76 -22.75,-8.88 -21.52,-8.34 -20.29,-7.81 -18.73,-7.22 -17.17,-6.62 -15.32,-6.05 -13.48,-5.48 -11.46,-4.97 -9.45,-4.46 -7.60,-4.00 -5.75,-3.55 -4.16,-3.17 -2.56,-2.78 -1.06,-2.46 0.43,-2.15 0.68,-2.06 0.93,-1.98 1.16,-1.84 1.38,-1.70 1.57,-1.51 1.75,-1.32 1.88,-1.09 2.01,-0.86 2.09,-0.60 2.16,-0.35 2.17,-0.08 2.18,0.17 2.13,0.43 2.08,0.69 1.96,0.93 1.85,1.17 1.68,1.37 1.52,1.58 1.31,1.74 1.09,1.90 0.85,2.00 0.61,2.10 0.35,2.15 0.09,2.19 -0.17,2.17 -0.43,2.15 -0.43,2.15 L -0.43,2.15 Z"></path></g><g transform="translate(60.39765909690959 33.858572311581156) rotate(0 0.00005000000010113581 0.00004999999964638846)" stroke="none"><path fill="#1e1e1e" d="M 1.57,-1.57 Q 1.57,-1.57 1.77,-1.27 1.98,-0.98 2.09,-0.64 2.20,-0.29 2.19,0.05 2.18,0.41 2.05,0.75 1.93,1.09 1.70,1.37 1.48,1.65 1.18,1.84 0.87,2.04 0.52,2.12 0.18,2.21 -0.17,2.18 -0.53,2.15 -0.86,2.01 -1.19,1.87 -1.46,1.63 -1.73,1.39 -1.90,1.07 -2.08,0.76 -2.15,0.41 -2.21,0.05 -2.17,-0.29 -2.12,-0.65 -1.96,-0.97 -1.80,-1.29 -1.54,-1.54 -1.29,-1.80 -0.97,-1.96 -0.65,-2.12 -0.29,-2.17 0.06,-2.21 0.41,-2.15 0.76,-2.08 1.07,-1.90 1.39,-1.73 1.63,-1.46 1.87,-1.19 2.01,-0.86 2.15,-0.53 2.18,-0.17 2.21,0.18 2.12,0.52 2.03,0.87 1.84,1.18 1.65,1.48 1.37,1.70 1.09,1.93 0.75,2.05 0.41,2.18 0.05,2.19 -0.30,2.20 -0.64,2.09 -0.98,1.98 -1.27,1.77 -1.57,1.56 -1.57,1.57 -1.57,1.57 -1.73,1.35 -1.90,1.14 -2.01,0.90 -2.12,0.66 -2.16,0.39 -2.21,0.13 -2.20,-0.13 -2.18,-0.40 -2.10,-0.65 -2.02,-0.91 -1.88,-1.14 -1.74,-1.36 -1.55,-1.55 -1.36,-1.74 -1.14,-1.88 -0.91,-2.02 -0.65,-2.10 -0.40,-2.18 -0.13,-2.20 0.13,-2.21 0.39,-2.16 0.66,-2.12 0.90,-2.01 1.14,-1.90 1.35,-1.73 1.57,-1.57 1.57,-1.57 L 1.57,-1.57 Z"></path></g><g transform="translate(66.18124138302755 26.598359654351952) rotate(0 0.00005000000010113581 0.00004999999964638846)" stroke="none"><path fill="#1e1e1e" d="M 1.57,-1.57 Q 1.57,-1.57 1.77,-1.27 1.98,-0.98 2.09,-0.64 2.20,-0.29 2.19,0.05 2.18,0.41 2.05,0.75 1.93,1.09 1.70,1.37 1.48,1.65 1.18,1.84 0.87,2.04 0.52,2.12 0.18,2.21 -0.17,2.18 -0.53,2.15 -0.86,2.01 -1.19,1.87 -1.46,1.63 -1.73,1.39 -1.90,1.07 -2.08,0.76 -2.15,0.41 -2.21,0.05 -2.17,-0.29 -2.12,-0.65 -1.96,-0.97 -1.80,-1.29 -1.54,-1.54 -1.29,-1.80 -0.97,-1.96 -0.65,-2.12 -0.29,-2.17 0.06,-2.21 0.41,-2.15 0.76,-2.08 1.07,-1.90 1.39,-1.73 1.63,-1.46 1.87,-1.19 2.01,-0.86 2.15,-0.53 2.18,-0.17 2.21,0.18 2.12,0.52 2.03,0.87 1.84,1.18 1.65,1.48 1.37,1.70 1.09,1.93 0.75,2.05 0.41,2.18 0.05,2.19 -0.30,2.20 -0.64,2.09 -0.98,1.98 -1.27,1.77 -1.57,1.56 -1.57,1.57 -1.57,1.57 -1.73,1.35 -1.90,1.14 -2.01,0.90 -2.12,0.66 -2.16,0.39 -2.21,0.13 -2.20,-0.13 -2.18,-0.40 -2.10,-0.65 -2.02,-0.91 -1.88,-1.14 -1.74,-1.36 -1.55,-1.55 -1.36,-1.74 -1.14,-1.88 -0.91,-2.02 -0.65,-2.10 -0.40,-2.18 -0.13,-2.20 0.13,-2.21 0.39,-2.16 0.66,-2.12 0.90,-2.01 1.14,-1.90 1.35,-1.73 1.57,-1.57 1.57,-1.57 L 1.57,-1.57 Z"></path></g><g transform="translate(74.86008478957683 20.118901905934763) rotate(0 0.00005000000010113581 0.00004999999964638846)" stroke="none"><path fill="#1e1e1e" d="M 1.57,-1.57 Q 1.57,-1.57 1.77,-1.27 1.98,-0.98 2.09,-0.64 2.20,-0.29 2.19,0.05 2.18,0.41 2.05,0.75 1.93,1.09 1.70,1.37 1.48,1.65 1.18,1.84 0.87,2.04 0.52,2.12 0.18,2.21 -0.17,2.18 -0.53,2.15 -0.86,2.01 -1.19,1.87 -1.46,1.63 -1.73,1.39 -1.90,1.07 -2.08,0.76 -2.15,0.41 -2.21,0.05 -2.17,-0.29 -2.12,-0.65 -1.96,-0.97 -1.80,-1.29 -1.54,-1.54 -1.29,-1.80 -0.97,-1.96 -0.65,-2.12 -0.29,-2.17 0.06,-2.21 0.41,-2.15 0.76,-2.08 1.07,-1.90 1.39,-1.73 1.63,-1.46 1.87,-1.19 2.01,-0.86 2.15,-0.53 2.18,-0.17 2.21,0.18 2.12,0.52 2.03,0.87 1.84,1.18 1.65,1.48 1.37,1.70 1.09,1.93 0.75,2.05 0.41,2.18 0.05,2.19 -0.30,2.20 -0.64,2.09 -0.98,1.98 -1.27,1.77 -1.57,1.56 -1.57,1.57 -1.57,1.57 -1.73,1.35 -1.90,1.14 -2.01,0.90 -2.12,0.66 -2.16,0.39 -2.21,0.13 -2.20,-0.13 -2.18,-0.40 -2.10,-0.65 -2.02,-0.91 -1.88,-1.14 -1.74,-1.36 -1.55,-1.55 -1.36,-1.74 -1.14,-1.88 -0.91,-2.02 -0.65,-2.10 -0.40,-2.18 -0.13,-2.20 0.13,-2.21 0.39,-2.16 0.66,-2.12 0.90,-2.01 1.14,-1.90 1.35,-1.73 1.57,-1.57 1.57,-1.57 L 1.57,-1.57 Z"></path></g><g transform="translate(74.19436913060963 19.83757374043489) rotate(0 0.00005000000010113581 0.00004999999964638846)" stroke="none"><path fill="#1e1e1e" d="M 1.57,-1.57 Q 1.57,-1.57 1.77,-1.27 1.98,-0.98 2.09,-0.64 2.20,-0.29 2.19,0.05 2.18,0.41 2.05,0.75 1.93,1.09 1.70,1.37 1.48,1.65 1.18,1.84 0.87,2.04 0.52,2.12 0.18,2.21 -0.17,2.18 -0.53,2.15 -0.86,2.01 -1.19,1.87 -1.46,1.63 -1.73,1.39 -1.90,1.07 -2.08,0.76 -2.15,0.41 -2.21,0.05 -2.17,-0.29 -2.12,-0.65 -1.96,-0.97 -1.80,-1.29 -1.54,-1.54 -1.29,-1.80 -0.97,-1.96 -0.65,-2.12 -0.29,-2.17 0.06,-2.21 0.41,-2.15 0.76,-2.08 1.07,-1.90 1.39,-1.73 1.63,-1.46 1.87,-1.19 2.01,-0.86 2.15,-0.53 2.18,-0.17 2.21,0.18 2.12,0.52 2.03,0.87 1.84,1.18 1.65,1.48 1.37,1.70 1.09,1.93 0.75,2.05 0.41,2.18 0.05,2.19 -0.30,2.20 -0.64,2.09 -0.98,1.98 -1.27,1.77 -1.57,1.56 -1.57,1.57 -1.57,1.57 -1.73,1.35 -1.90,1.14 -2.01,0.90 -2.12,0.66 -2.16,0.39 -2.21,0.13 -2.20,-0.13 -2.18,-0.40 -2.10,-0.65 -2.02,-0.91 -1.88,-1.14 -1.74,-1.36 -1.55,-1.55 -1.36,-1.74 -1.14,-1.88 -0.91,-2.02 -0.65,-2.10 -0.40,-2.18 -0.13,-2.20 0.13,-2.21 0.39,-2.16 0.66,-2.12 0.90,-2.01 1.14,-1.90 1.35,-1.73 1.57,-1.57 1.57,-1.57 L 1.57,-1.57 Z"></path></g><g transform="translate(74.19436913060963 19.83757374043489) rotate(0 0.00005000000010113581 0.00004999999964638846)" stroke="none"><path fill="#1e1e1e" d="M 1.57,-1.57 Q 1.57,-1.57 1.77,-1.27 1.98,-0.98 2.09,-0.64 2.20,-0.29 2.19,0.05 2.18,0.41 2.05,0.75 1.93,1.09 1.70,1.37 1.48,1.65 1.18,1.84 0.87,2.04 0.52,2.12 0.18,2.21 -0.17,2.18 -0.53,2.15 -0.86,2.01 -1.19,1.87 -1.46,1.63 -1.73,1.39 -1.90,1.07 -2.08,0.76 -2.15,0.41 -2.21,0.05 -2.17,-0.29 -2.12,-0.65 -1.96,-0.97 -1.80,-1.29 -1.54,-1.54 -1.29,-1.80 -0.97,-1.96 -0.65,-2.12 -0.29,-2.17 0.06,-2.21 0.41,-2.15 0.76,-2.08 1.07,-1.90 1.39,-1.73 1.63,-1.46 1.87,-1.19 2.01,-0.86 2.15,-0.53 2.18,-0.17 2.21,0.18 2.12,0.52 2.03,0.87 1.84,1.18 1.65,1.48 1.37,1.70 1.09,1.93 0.75,2.05 0.41,2.18 0.05,2.19 -0.30,2.20 -0.64,2.09 -0.98,1.98 -1.27,1.77 -1.57,1.56 -1.57,1.57 -1.57,1.57 -1.73,1.35 -1.90,1.14 -2.01,0.90 -2.12,0.66 -2.16,0.39 -2.21,0.13 -2.20,-0.13 -2.18,-0.40 -2.10,-0.65 -2.02,-0.91 -1.88,-1.14 -1.74,-1.36 -1.55,-1.55 -1.36,-1.74 -1.14,-1.88 -0.91,-2.02 -0.65,-2.10 -0.40,-2.18 -0.13,-2.20 0.13,-2.21 0.39,-2.16 0.66,-2.12 0.90,-2.01 1.14,-1.90 1.35,-1.73 1.57,-1.57 1.57,-1.57 L 1.57,-1.57 Z"></path></g><g transform="translate(74.19436913060963 19.83757374043489) rotate(0 0.00005000000010113581 0.00004999999964638846)" stroke="none"><path fill="#1e1e1e" d="M 1.57,-1.57 Q 1.57,-1.57 1.77,-1.27 1.98,-0.98 2.09,-0.64 2.20,-0.29 2.19,0.05 2.18,0.41 2.05,0.75 1.93,1.09 1.70,1.37 1.48,1.65 1.18,1.84 0.87,2.04 0.52,2.12 0.18,2.21 -0.17,2.18 -0.53,2.15 -0.86,2.01 -1.19,1.87 -1.46,1.63 -1.73,1.39 -1.90,1.07 -2.08,0.76 -2.15,0.41 -2.21,0.05 -2.17,-0.29 -2.12,-0.65 -1.96,-0.97 -1.80,-1.29 -1.54,-1.54 -1.29,-1.80 -0.97,-1.96 -0.65,-2.12 -0.29,-2.17 0.06,-2.21 0.41,-2.15 0.76,-2.08 1.07,-1.90 1.39,-1.73 1.63,-1.46 1.87,-1.19 2.01,-0.86 2.15,-0.53 2.18,-0.17 2.21,0.18 2.12,0.52 2.03,0.87 1.84,1.18 1.65,1.48 1.37,1.70 1.09,1.93 0.75,2.05 0.41,2.18 0.05,2.19 -0.30,2.20 -0.64,2.09 -0.98,1.98 -1.27,1.77 -1.57,1.56 -1.57,1.57 -1.57,1.57 -1.73,1.35 -1.90,1.14 -2.01,0.90 -2.12,0.66 -2.16,0.39 -2.21,0.13 -2.20,-0.13 -2.18,-0.40 -2.10,-0.65 -2.02,-0.91 -1.88,-1.14 -1.74,-1.36 -1.55,-1.55 -1.36,-1.74 -1.14,-1.88 -0.91,-2.02 -0.65,-2.10 -0.40,-2.18 -0.13,-2.20 0.13,-2.21 0.39,-2.16 0.66,-2.12 0.90,-2.01 1.14,-1.90 1.35,-1.73 1.57,-1.57 1.57,-1.57 L 1.57,-1.57 Z"></path></g><g transform="translate(74.19436913060963 19.83757374043489) rotate(0 0.00005000000010113581 0.00004999999964638846)" stroke="none"><path fill="#1e1e1e" d="M 1.57,-1.57 Q 1.57,-1.57 1.77,-1.27 1.98,-0.98 2.09,-0.64 2.20,-0.29 2.19,0.05 2.18,0.41 2.05,0.75 1.93,1.09 1.70,1.37 1.48,1.65 1.18,1.84 0.87,2.04 0.52,2.12 0.18,2.21 -0.17,2.18 -0.53,2.15 -0.86,2.01 -1.19,1.87 -1.46,1.63 -1.73,1.39 -1.90,1.07 -2.08,0.76 -2.15,0.41 -2.21,0.05 -2.17,-0.29 -2.12,-0.65 -1.96,-0.97 -1.80,-1.29 -1.54,-1.54 -1.29,-1.80 -0.97,-1.96 -0.65,-2.12 -0.29,-2.17 0.06,-2.21 0.41,-2.15 0.76,-2.08 1.07,-1.90 1.39,-1.73 1.63,-1.46 1.87,-1.19 2.01,-0.86 2.15,-0.53 2.18,-0.17 2.21,0.18 2.12,0.52 2.03,0.87 1.84,1.18 1.65,1.48 1.37,1.70 1.09,1.93 0.75,2.05 0.41,2.18 0.05,2.19 -0.30,2.20 -0.64,2.09 -0.98,1.98 -1.27,1.77 -1.57,1.56 -1.57,1.57 -1.57,1.57 -1.73,1.35 -1.90,1.14 -2.01,0.90 -2.12,0.66 -2.16,0.39 -2.21,0.13 -2.20,-0.13 -2.18,-0.40 -2.10,-0.65 -2.02,-0.91 -1.88,-1.14 -1.74,-1.36 -1.55,-1.55 -1.36,-1.74 -1.14,-1.88 -0.91,-2.02 -0.65,-2.10 -0.40,-2.18 -0.13,-2.20 0.13,-2.21 0.39,-2.16 0.66,-2.12 0.90,-2.01 1.14,-1.90 1.35,-1.73 1.57,-1.57 1.57,-1.57 L 1.57,-1.57 Z"></path></g><g transform="translate(170.3058024022057 102.17548682711276) rotate(0 0.00005000000010113581 0.00004999999964638846)" stroke="none"><path fill="#1e1e1e" d="M 2.12,-2.12 Q 2.12,-2.12 2.40,-1.73 2.69,-1.33 2.83,-0.87 2.97,-0.40 2.96,0.08 2.95,0.56 2.78,1.02 2.61,1.47 2.31,1.85 2.00,2.23 1.59,2.49 1.18,2.76 0.71,2.87 0.24,2.99 -0.24,2.95 -0.72,2.91 -1.17,2.72 -1.61,2.53 -1.98,2.20 -2.34,1.88 -2.58,1.45 -2.82,1.03 -2.91,0.55 -3.00,0.08 -2.93,-0.40 -2.87,-0.88 -2.65,-1.31 -2.44,-1.75 -2.09,-2.09 -1.75,-2.44 -1.31,-2.65 -0.88,-2.87 -0.39,-2.93 0.08,-3.00 0.55,-2.91 1.03,-2.82 1.46,-2.58 1.88,-2.34 2.20,-1.97 2.53,-1.61 2.72,-1.17 2.91,-0.72 2.95,-0.23 2.99,0.24 2.87,0.71 2.76,1.18 2.49,1.59 2.23,2.00 1.85,2.31 1.47,2.61 1.02,2.78 0.56,2.95 0.07,2.96 -0.40,2.97 -0.87,2.83 -1.33,2.69 -1.73,2.40 -2.12,2.12 -2.12,2.12 -2.12,2.12 -2.34,1.83 -2.57,1.55 -2.72,1.22 -2.86,0.89 -2.93,0.53 -2.99,0.18 -2.97,-0.18 -2.95,-0.54 -2.84,-0.88 -2.74,-1.23 -2.55,-1.54 -2.36,-1.85 -2.10,-2.10 -1.85,-2.36 -1.54,-2.55 -1.23,-2.74 -0.88,-2.84 -0.54,-2.95 -0.18,-2.97 0.18,-2.99 0.53,-2.93 0.89,-2.86 1.22,-2.72 1.55,-2.57 1.83,-2.34 2.12,-2.12 2.12,-2.12 L 2.12,-2.12 Z"></path></g></svg>