<svg version="1.1" xmlns="http://www.w3.org/2000/svg" viewBox="0 0 108.41335344621075 148.65084619345453" width="108.41335344621075" height="148.65084619345453">
  <!-- svg-source:excalidraw -->
  
  <defs>
    <style class="style-fonts">
      @font-face {
        font-family: "Virgil";
        src: url("https://excalidraw.com/Virgil.woff2");
      }
      @font-face {
        font-family: "Cascadia";
        src: url("https://excalidraw.com/Cascadia.woff2");
      }
      @font-face {
        font-family: "Assistant";
        src: url("https://excalidraw.com/Assistant-Regular.woff2");
      }
    </style>
    
  </defs>
  <g stroke-linecap="round" transform="translate(10 10) rotate(0 44.206676723105375 43.399695216315195)"><path d="M88.41 43.4 C88.41 45.46, 88.26 47.54, 87.96 49.58 C87.66 51.61, 87.21 53.65, 86.62 55.63 C86.03 57.6, 85.29 59.56, 84.42 61.43 C83.55 63.3, 82.53 65.13, 81.4 66.86 C80.26 68.6, 78.99 70.26, 77.62 71.82 C76.24 73.38, 74.74 74.85, 73.16 76.2 C71.57 77.55, 69.87 78.8, 68.11 79.91 C66.34 81.02, 64.48 82.02, 62.57 82.88 C60.66 83.73, 58.67 84.46, 56.66 85.04 C54.65 85.62, 52.57 86.06, 50.5 86.36 C48.42 86.65, 46.3 86.8, 44.21 86.8 C42.11 86.8, 39.99 86.65, 37.92 86.36 C35.84 86.06, 33.76 85.62, 31.75 85.04 C29.74 84.46, 27.75 83.73, 25.84 82.88 C23.93 82.02, 22.07 81.02, 20.31 79.91 C18.54 78.8, 16.84 77.55, 15.26 76.2 C13.67 74.85, 12.17 73.38, 10.8 71.82 C9.42 70.26, 8.15 68.6, 7.02 66.86 C5.88 65.13, 4.87 63.3, 3.99 61.43 C3.12 59.56, 2.38 57.6, 1.79 55.63 C1.2 53.65, 0.75 51.61, 0.45 49.58 C0.15 47.54, 0 45.46, 0 43.4 C0 41.34, 0.15 39.26, 0.45 37.22 C0.75 35.19, 1.2 33.15, 1.79 31.17 C2.38 29.2, 3.12 27.24, 3.99 25.37 C4.87 23.5, 5.88 21.67, 7.02 19.94 C8.15 18.2, 9.42 16.53, 10.8 14.98 C12.17 13.42, 13.67 11.95, 15.26 10.6 C16.84 9.25, 18.54 8, 20.31 6.89 C22.07 5.78, 23.93 4.78, 25.84 3.92 C27.75 3.07, 29.74 2.34, 31.75 1.76 C33.76 1.18, 35.84 0.73, 37.92 0.44 C39.99 0.15, 42.11 0, 44.21 0 C46.3 0, 48.42 0.15, 50.5 0.44 C52.57 0.73, 54.65 1.18, 56.66 1.76 C58.67 2.34, 60.66 3.07, 62.57 3.92 C64.48 4.78, 66.34 5.78, 68.11 6.89 C69.87 8, 71.57 9.25, 73.16 10.6 C74.74 11.95, 76.24 13.42, 77.62 14.98 C78.99 16.53, 80.26 18.2, 81.4 19.94 C82.53 21.67, 83.55 23.5, 84.42 25.37 C85.29 27.24, 86.03 29.2, 86.62 31.17 C87.21 33.15, 87.66 35.19, 87.96 37.22 C88.26 39.26, 88.34 42.37, 88.41 43.4 C88.49 44.43, 88.49 42.37, 88.41 43.4" stroke="none" stroke-width="0" fill="#ffffff"></path><path d="M88.41 43.4 C88.41 45.46, 88.26 47.54, 87.96 49.58 C87.66 51.61, 87.21 53.65, 86.62 55.63 C86.03 57.6, 85.29 59.56, 84.42 61.43 C83.55 63.3, 82.53 65.13, 81.4 66.86 C80.26 68.6, 78.99 70.26, 77.62 71.82 C76.24 73.38, 74.74 74.85, 73.16 76.2 C71.57 77.55, 69.87 78.8, 68.11 79.91 C66.34 81.02, 64.48 82.02, 62.57 82.88 C60.66 83.73, 58.67 84.46, 56.66 85.04 C54.65 85.62, 52.57 86.06, 50.5 86.36 C48.42 86.65, 46.3 86.8, 44.21 86.8 C42.11 86.8, 39.99 86.65, 37.92 86.36 C35.84 86.06, 33.76 85.62, 31.75 85.04 C29.74 84.46, 27.75 83.73, 25.84 82.88 C23.93 82.02, 22.07 81.02, 20.31 79.91 C18.54 78.8, 16.84 77.55, 15.26 76.2 C13.67 74.85, 12.17 73.38, 10.8 71.82 C9.42 70.26, 8.15 68.6, 7.02 66.86 C5.88 65.13, 4.87 63.3, 3.99 61.43 C3.12 59.56, 2.38 57.6, 1.79 55.63 C1.2 53.65, 0.75 51.61, 0.45 49.58 C0.15 47.54, 0 45.46, 0 43.4 C0 41.34, 0.15 39.26, 0.45 37.22 C0.75 35.19, 1.2 33.15, 1.79 31.17 C2.38 29.2, 3.12 27.24, 3.99 25.37 C4.87 23.5, 5.88 21.67, 7.02 19.94 C8.15 18.2, 9.42 16.53, 10.8 14.98 C12.17 13.42, 13.67 11.95, 15.26 10.6 C16.84 9.25, 18.54 8, 20.31 6.89 C22.07 5.78, 23.93 4.78, 25.84 3.92 C27.75 3.07, 29.74 2.34, 31.75 1.76 C33.76 1.18, 35.84 0.73, 37.92 0.44 C39.99 0.15, 42.11 0, 44.21 0 C46.3 0, 48.42 0.15, 50.5 0.44 C52.57 0.73, 54.65 1.18, 56.66 1.76 C58.67 2.34, 60.66 3.07, 62.57 3.92 C64.48 4.78, 66.34 5.78, 68.11 6.89 C69.87 8, 71.57 9.25, 73.16 10.6 C74.74 11.95, 76.24 13.42, 77.62 14.98 C78.99 16.53, 80.26 18.2, 81.4 19.94 C82.53 21.67, 83.55 23.5, 84.42 25.37 C85.29 27.24, 86.03 29.2, 86.62 31.17 C87.21 33.15, 87.66 35.19, 87.96 37.22 C88.26 39.26, 88.34 42.37, 88.41 43.4 C88.49 44.43, 88.49 42.37, 88.41 43.4" stroke="#1e1e1e" stroke-width="4" fill="none"></path></g><g stroke-linecap="round" transform="translate(15.753037348752514 11.106142413676025) rotate(0 38.55320967560556 63.77235188988925)"><path d="M39 0 L77.11 64 L39 127.54 L0 64" stroke="none" stroke-width="0" fill="#ffffff" fill-rule="evenodd"></path><path d="M39 0 C46.98 13.41, 54.97 26.82, 77.11 64 M39 0 C50.5 19.32, 62.01 38.64, 77.11 64 M77.11 64 C65.78 82.88, 54.46 101.76, 39 127.54 M77.11 64 C67.96 79.26, 58.8 94.52, 39 127.54 M39 127.54 C23.51 102.3, 8.01 77.06, 0 64 M39 127.54 C30.75 114.11, 22.5 100.67, 0 64 M0 64 C11.2 45.63, 22.39 27.26, 39 0 M0 64 C13.78 41.39, 27.56 18.78, 39 0" stroke="#1e1e1e" stroke-width="4" fill="none"></path></g><g stroke-linecap="round" transform="translate(13.917231878041093 13.055835993052824) rotate(0 40.43743891449776 39.99644564424716)"><path d="M80.87 40 C80.87 41.89, 80.74 43.81, 80.46 45.69 C80.19 47.57, 79.78 49.44, 79.24 51.26 C78.7 53.09, 78.02 54.89, 77.22 56.61 C76.42 58.34, 75.49 60.02, 74.46 61.62 C73.42 63.22, 72.25 64.75, 71 66.19 C69.74 67.62, 68.37 68.98, 66.92 70.22 C65.47 71.47, 63.91 72.62, 62.3 73.64 C60.69 74.67, 58.98 75.59, 57.24 76.38 C55.49 77.17, 53.67 77.84, 51.83 78.37 C49.99 78.91, 48.09 79.32, 46.19 79.59 C44.29 79.86, 42.36 79.99, 40.44 79.99 C38.52 79.99, 36.58 79.86, 34.68 79.59 C32.78 79.32, 30.89 78.91, 29.04 78.37 C27.2 77.84, 25.38 77.17, 23.64 76.38 C21.89 75.59, 20.19 74.67, 18.58 73.64 C16.96 72.62, 15.41 71.47, 13.96 70.22 C12.51 68.98, 11.13 67.62, 9.88 66.19 C8.62 64.75, 7.46 63.22, 6.42 61.62 C5.38 60.02, 4.45 58.34, 3.65 56.61 C2.86 54.89, 2.18 53.09, 1.64 51.26 C1.1 49.44, 0.68 47.57, 0.41 45.69 C0.14 43.81, 0 41.89, 0 40 C0 38.1, 0.14 36.18, 0.41 34.3 C0.68 32.43, 1.1 30.55, 1.64 28.73 C2.18 26.91, 2.86 25.11, 3.65 23.38 C4.45 21.66, 5.38 19.97, 6.42 18.37 C7.46 16.78, 8.62 15.24, 9.88 13.8 C11.13 12.37, 12.51 11.01, 13.96 9.77 C15.41 8.53, 16.96 7.38, 18.58 6.35 C20.19 5.32, 21.89 4.4, 23.64 3.61 C25.38 2.83, 27.2 2.15, 29.04 1.62 C30.89 1.09, 32.78 0.68, 34.68 0.41 C36.58 0.14, 38.52 0, 40.44 0 C42.36 0, 44.29 0.14, 46.19 0.41 C48.09 0.68, 49.99 1.09, 51.83 1.62 C53.67 2.15, 55.49 2.83, 57.24 3.61 C58.98 4.4, 60.69 5.32, 62.3 6.35 C63.91 7.38, 65.47 8.53, 66.92 9.77 C68.37 11.01, 69.74 12.37, 71 13.8 C72.25 15.24, 73.42 16.78, 74.46 18.37 C75.49 19.97, 76.42 21.66, 77.22 23.38 C78.02 25.11, 78.7 26.91, 79.24 28.73 C79.78 30.55, 80.19 32.43, 80.46 34.3 C80.74 36.18, 80.81 39.05, 80.87 40 C80.94 40.95, 80.94 39.05, 80.87 40" stroke="none" stroke-width="0" fill="#ffffff"></path><path d="M80.87 40 C80.87 41.89, 80.74 43.81, 80.46 45.69 C80.19 47.57, 79.78 49.44, 79.24 51.26 C78.7 53.09, 78.02 54.89, 77.22 56.61 C76.42 58.34, 75.49 60.02, 74.46 61.62 C73.42 63.22, 72.25 64.75, 71 66.19 C69.74 67.62, 68.37 68.98, 66.92 70.22 C65.47 71.47, 63.91 72.62, 62.3 73.64 C60.69 74.67, 58.98 75.59, 57.24 76.38 C55.49 77.17, 53.67 77.84, 51.83 78.37 C49.99 78.91, 48.09 79.32, 46.19 79.59 C44.29 79.86, 42.36 79.99, 40.44 79.99 C38.52 79.99, 36.58 79.86, 34.68 79.59 C32.78 79.32, 30.89 78.91, 29.04 78.37 C27.2 77.84, 25.38 77.17, 23.64 76.38 C21.89 75.59, 20.19 74.67, 18.58 73.64 C16.96 72.62, 15.41 71.47, 13.96 70.22 C12.51 68.98, 11.13 67.62, 9.88 66.19 C8.62 64.75, 7.46 63.22, 6.42 61.62 C5.38 60.02, 4.45 58.34, 3.65 56.61 C2.86 54.89, 2.18 53.09, 1.64 51.26 C1.1 49.44, 0.68 47.57, 0.41 45.69 C0.14 43.81, 0 41.89, 0 40 C0 38.1, 0.14 36.18, 0.41 34.3 C0.68 32.43, 1.1 30.55, 1.64 28.73 C2.18 26.91, 2.86 25.11, 3.65 23.38 C4.45 21.66, 5.38 19.97, 6.42 18.37 C7.46 16.78, 8.62 15.24, 9.88 13.8 C11.13 12.37, 12.51 11.01, 13.96 9.77 C15.41 8.53, 16.96 7.38, 18.58 6.35 C20.19 5.32, 21.89 4.4, 23.64 3.61 C25.38 2.83, 27.2 2.15, 29.04 1.62 C30.89 1.09, 32.78 0.68, 34.68 0.41 C36.58 0.14, 38.52 0, 40.44 0 C42.36 0, 44.29 0.14, 46.19 0.41 C48.09 0.68, 49.99 1.09, 51.83 1.62 C53.67 2.15, 55.49 2.83, 57.24 3.61 C58.98 4.4, 60.69 5.32, 62.3 6.35 C63.91 7.38, 65.47 8.53, 66.92 9.77 C68.37 11.01, 69.74 12.37, 71 13.8 C72.25 15.24, 73.42 16.78, 74.46 18.37 C75.49 19.97, 76.42 21.66, 77.22 23.38 C78.02 25.11, 78.7 26.91, 79.24 28.73 C79.78 30.55, 80.19 32.43, 80.46 34.3 C80.74 36.18, 80.81 39.05, 80.87 40 C80.94 40.95, 80.94 39.05, 80.87 40" stroke="#ffffff" stroke-width="4" fill="none"></path></g></svg>