<svg version="1.1" xmlns="http://www.w3.org/2000/svg" viewBox="0 0 129.32348919130618 90.57842163765508" width="129.32348919130618" height="90.57842163765508">
  <!-- svg-source:excalidraw -->
  
  <defs>
    <style class="style-fonts">
      @font-face {
        font-family: "Virgil";
        src: url("https://excalidraw.com/Virgil.woff2");
      }
      @font-face {
        font-family: "Cascadia";
        src: url("https://excalidraw.com/Cascadia.woff2");
      }
      @font-face {
        font-family: "Assistant";
        src: url("https://excalidraw.com/Assistant-Regular.woff2");
      }
    </style>
    
  </defs>
  <g stroke-linecap="round" transform="translate(35.85120959030064 27.803707790817498) rotate(0 24.276784870035954 23.150310970285773)"><path d="M48.55 23.15 C48.55 24.49, 48.43 25.85, 48.18 27.17 C47.94 28.49, 47.57 29.81, 47.09 31.07 C46.61 32.33, 46 33.56, 45.3 34.73 C44.6 35.89, 43.78 37, 42.87 38.03 C41.97 39.06, 40.96 40.02, 39.88 40.88 C38.81 41.75, 37.63 42.53, 36.42 43.2 C35.2 43.87, 33.9 44.45, 32.58 44.9 C31.26 45.36, 29.88 45.72, 28.49 45.95 C27.11 46.18, 25.68 46.3, 24.28 46.3 C22.87 46.3, 21.45 46.18, 20.06 45.95 C18.68 45.72, 17.29 45.36, 15.97 44.9 C14.65 44.45, 13.36 43.87, 12.14 43.2 C10.92 42.53, 9.75 41.75, 8.67 40.88 C7.6 40.02, 6.58 39.06, 5.68 38.03 C4.78 37, 3.96 35.89, 3.25 34.73 C2.55 33.56, 1.94 32.33, 1.46 31.07 C0.98 29.81, 0.61 28.49, 0.37 27.17 C0.12 25.85, 0 24.49, 0 23.15 C0 21.81, 0.12 20.45, 0.37 19.13 C0.61 17.81, 0.98 16.49, 1.46 15.23 C1.94 13.97, 2.55 12.74, 3.25 11.58 C3.96 10.41, 4.78 9.3, 5.68 8.27 C6.58 7.24, 7.6 6.28, 8.67 5.42 C9.75 4.55, 10.92 3.77, 12.14 3.1 C13.36 2.43, 14.65 1.85, 15.97 1.4 C17.29 0.94, 18.68 0.58, 20.06 0.35 C21.45 0.12, 22.87 0, 24.28 0 C25.68 0, 27.11 0.12, 28.49 0.35 C29.88 0.58, 31.26 0.94, 32.58 1.4 C33.9 1.85, 35.2 2.43, 36.42 3.1 C37.63 3.77, 38.81 4.55, 39.88 5.42 C40.96 6.28, 41.97 7.24, 42.87 8.27 C43.78 9.3, 44.6 10.41, 45.3 11.58 C46 12.74, 46.61 13.97, 47.09 15.23 C47.57 16.49, 47.94 17.81, 48.18 19.13 C48.43 20.45, 48.49 22.48, 48.55 23.15 C48.62 23.82, 48.62 22.48, 48.55 23.15" stroke="#1e1e1e" stroke-width="1" fill="none"></path></g><g stroke-linecap="round" transform="translate(37.20365573066465 29.32514923788949) rotate(0 22.493638488003853 21.60034019677596)"><path d="M44.99 21.6 C44.99 22.85, 44.87 24.12, 44.65 25.35 C44.42 26.58, 44.08 27.81, 43.63 28.99 C43.19 30.16, 42.62 31.32, 41.97 32.4 C41.32 33.48, 40.56 34.53, 39.72 35.48 C38.89 36.44, 37.95 37.34, 36.95 38.15 C35.95 38.95, 34.87 39.68, 33.74 40.31 C32.61 40.93, 31.41 41.47, 30.19 41.9 C28.96 42.33, 27.68 42.66, 26.4 42.87 C25.12 43.09, 23.8 43.2, 22.49 43.2 C21.19 43.2, 19.87 43.09, 18.59 42.87 C17.31 42.66, 16.02 42.33, 14.8 41.9 C13.58 41.47, 12.37 40.93, 11.25 40.31 C10.12 39.68, 9.03 38.95, 8.04 38.15 C7.04 37.34, 6.1 36.44, 5.26 35.48 C4.43 34.53, 3.66 33.48, 3.01 32.4 C2.36 31.32, 1.8 30.16, 1.36 28.99 C0.91 27.81, 0.57 26.58, 0.34 25.35 C0.12 24.12, 0 22.85, 0 21.6 C0 20.35, 0.12 19.08, 0.34 17.85 C0.57 16.62, 0.91 15.39, 1.36 14.21 C1.8 13.04, 2.36 11.88, 3.01 10.8 C3.66 9.72, 4.43 8.67, 5.26 7.72 C6.1 6.76, 7.04 5.86, 8.04 5.05 C9.03 4.25, 10.12 3.52, 11.25 2.89 C12.37 2.27, 13.58 1.73, 14.8 1.3 C16.02 0.88, 17.31 0.55, 18.59 0.33 C19.87 0.11, 21.19 0, 22.49 0 C23.8 0, 25.12 0.11, 26.4 0.33 C27.68 0.55, 28.96 0.88, 30.19 1.3 C31.41 1.73, 32.61 2.27, 33.74 2.89 C34.87 3.52, 35.95 4.25, 36.95 5.05 C37.95 5.86, 38.89 6.76, 39.72 7.72 C40.56 8.67, 41.32 9.72, 41.97 10.8 C42.62 11.88, 43.19 13.04, 43.63 14.21 C44.08 15.39, 44.42 16.62, 44.65 17.85 C44.87 19.08, 44.93 20.98, 44.99 21.6 C45.04 22.23, 45.04 20.98, 44.99 21.6" stroke="#1e1e1e" stroke-width="1" fill="none"></path></g><g stroke-linecap="round" transform="translate(34.457890837798914 25.2112172485713) rotate(0 27.426798438937567 24.432577674602726)"><path d="M54.85 24.43 C54.85 25.85, 54.71 27.28, 54.44 28.68 C54.16 30.07, 53.74 31.46, 53.2 32.79 C52.66 34.12, 51.97 35.42, 51.18 36.65 C50.39 37.87, 49.46 39.05, 48.44 40.14 C47.42 41.22, 46.27 42.24, 45.06 43.15 C43.84 44.06, 42.52 44.88, 41.14 45.59 C39.77 46.3, 38.3 46.91, 36.81 47.39 C35.32 47.88, 33.75 48.25, 32.19 48.49 C30.63 48.74, 29.01 48.87, 27.43 48.87 C25.84 48.87, 24.23 48.74, 22.66 48.49 C21.1 48.25, 19.54 47.88, 18.05 47.39 C16.55 46.91, 15.09 46.3, 13.71 45.59 C12.34 44.88, 11.01 44.06, 9.8 43.15 C8.58 42.24, 7.44 41.22, 6.42 40.14 C5.4 39.05, 4.47 37.87, 3.67 36.65 C2.88 35.42, 2.2 34.12, 1.65 32.79 C1.11 31.46, 0.69 30.07, 0.42 28.68 C0.14 27.28, 0 25.85, 0 24.43 C0 23.02, 0.14 21.58, 0.42 20.19 C0.69 18.8, 1.11 17.41, 1.65 16.08 C2.2 14.75, 2.88 13.44, 3.67 12.22 C4.47 10.99, 5.4 9.81, 6.42 8.73 C7.44 7.64, 8.58 6.63, 9.8 5.72 C11.01 4.81, 12.34 3.98, 13.71 3.27 C15.09 2.57, 16.55 1.96, 18.05 1.47 C19.54 0.99, 21.1 0.62, 22.66 0.37 C24.23 0.13, 25.84 0, 27.43 0 C29.01 0, 30.63 0.13, 32.19 0.37 C33.75 0.62, 35.32 0.99, 36.81 1.47 C38.3 1.96, 39.77 2.57, 41.14 3.27 C42.52 3.98, 43.84 4.81, 45.06 5.72 C46.27 6.63, 47.42 7.64, 48.44 8.73 C49.46 9.81, 50.39 10.99, 51.18 12.22 C51.97 13.44, 52.66 14.75, 53.2 16.08 C53.74 17.41, 54.16 18.8, 54.44 20.19 C54.71 21.58, 54.78 23.73, 54.85 24.43 C54.92 25.14, 54.92 23.73, 54.85 24.43" stroke="#1e1e1e" stroke-width="1" fill="none"></path></g><g stroke-linecap="round" transform="translate(10 17.19620956267954) rotate(0 53.61943268579125 31.69110603748777)"><path d="M0 0 C41.5 0, 83 0, 107.24 0 M0 0 C35.27 0, 70.53 0, 107.24 0 M107.24 0 C107.24 19.74, 107.24 39.47, 107.24 63.38 M107.24 0 C107.24 24.17, 107.24 48.34, 107.24 63.38 M107.24 63.38 C80.7 63.38, 54.16 63.38, 0 63.38 M107.24 63.38 C78.82 63.38, 50.41 63.38, 0 63.38 M0 63.38 C0 45.32, 0 27.26, 0 0 M0 63.38 C0 45.76, 0 28.14, 0 0" stroke="#1e1e1e" stroke-width="2" fill="none"></path></g><g stroke-linecap="round" transform="translate(101.2187887425116 18.866365384285018) rotate(0 9.052350224397287 29.850426072388473)"><path d="M0 0 L18.1 0 L18.1 59.7 L0 59.7" stroke="none" stroke-width="0" fill="#ffffff"></path><path d="M0 0 C3.77 0, 7.53 0, 18.1 0 M0 0 C5.93 0, 11.87 0, 18.1 0 M18.1 0 C18.1 17.67, 18.1 35.34, 18.1 59.7 M18.1 0 C18.1 22.92, 18.1 45.83, 18.1 59.7 M18.1 59.7 C10.89 59.7, 3.67 59.7, 0 59.7 M18.1 59.7 C14.28 59.7, 10.45 59.7, 0 59.7 M0 59.7 C0 45.32, 0 30.94, 0 0 M0 59.7 C0 42.01, 0 24.32, 0 0" stroke="#1e1e1e" stroke-width="1" fill="none"></path></g><g stroke-linecap="round" transform="translate(52.050797817666535 10) rotate(0 8.766816201222355 4.688631327422172)"><path d="M0 0 L17.53 0 L17.53 9.38 L0 9.38" stroke="none" stroke-width="0" fill="#ffffff"></path><path d="M0 0 C4.33 0, 8.67 0, 17.53 0 M0 0 C5.83 0, 11.65 0, 17.53 0 M17.53 0 C17.53 2.03, 17.53 4.06, 17.53 9.38 M17.53 0 C17.53 2.05, 17.53 4.11, 17.53 9.38 M17.53 9.38 C13.95 9.38, 10.36 9.38, 0 9.38 M17.53 9.38 C11.91 9.38, 6.29 9.38, 0 9.38 M0 9.38 C0 7.19, 0 5.01, 0 0 M0 9.38 C0 5.96, 0 2.55, 0 0" stroke="#1e1e1e" stroke-width="1" fill="none"></path></g><g stroke-linecap="round"><g transform="translate(109.20930287156989 26.478571577584262) rotate(0 3.7250941076322306 21.62927983234522)"><path d="M0 0 C2.87 -0.04, 5.75 -0.07, 7.55 -0.1 M0 0 C1.66 -0.02, 3.32 -0.04, 7.55 -0.1 M7.55 -0.1 C5.31 2.04, 3.07 4.18, -0.33 7.43 M7.55 -0.1 C5.3 2.05, 3.05 4.2, -0.33 7.43 M-0.33 7.43 C2.38 8.99, 5.1 10.56, 7.78 12.11 M-0.33 7.43 C2.13 8.85, 4.59 10.27, 7.78 12.11 M7.78 12.11 C5.63 13.97, 3.49 15.83, 0.26 18.63 M7.78 12.11 C5.39 14.18, 3 16.25, 0.26 18.63 M0.26 18.63 C2.86 20.84, 5.47 23.06, 7.18 24.51 M0.26 18.63 C2.06 20.17, 3.87 21.7, 7.18 24.51 M7.18 24.51 C5.12 26.49, 3.06 28.46, 0.36 31.05 M7.18 24.51 C4.81 26.79, 2.44 29.06, 0.36 31.05 M0.36 31.05 C2.24 32.58, 4.12 34.1, 7.25 36.64 M0.36 31.05 C2.76 33, 5.17 34.96, 7.25 36.64 M7.25 36.64 C4.68 39.24, 2.12 41.83, 0.6 43.36 M7.25 36.64 C4.69 39.23, 2.14 41.81, 0.6 43.36" stroke="#1e1e1e" stroke-width="1" fill="none"></path></g></g><mask></mask><g stroke-linecap="round" transform="translate(18.46996413162651 28.4122757473815) rotate(0 1.6490712150475701 1.8919395009038453)"><path d="M3.3 1.89 C3.3 2, 3.29 2.11, 3.27 2.22 C3.26 2.33, 3.23 2.44, 3.2 2.54 C3.17 2.64, 3.12 2.74, 3.08 2.84 C3.03 2.93, 2.97 3.02, 2.91 3.11 C2.85 3.19, 2.78 3.27, 2.71 3.34 C2.64 3.41, 2.56 3.48, 2.47 3.53 C2.39 3.59, 2.3 3.63, 2.21 3.67 C2.12 3.71, 2.03 3.74, 1.94 3.76 C1.84 3.77, 1.74 3.78, 1.65 3.78 C1.55 3.78, 1.46 3.77, 1.36 3.76 C1.27 3.74, 1.17 3.71, 1.09 3.67 C1 3.63, 0.91 3.59, 0.82 3.53 C0.74 3.48, 0.66 3.41, 0.59 3.34 C0.52 3.27, 0.45 3.19, 0.39 3.11 C0.32 3.02, 0.27 2.93, 0.22 2.84 C0.17 2.74, 0.13 2.64, 0.1 2.54 C0.07 2.44, 0.04 2.33, 0.03 2.22 C0.01 2.11, 0 2, 0 1.89 C0 1.78, 0.01 1.67, 0.03 1.56 C0.04 1.46, 0.07 1.35, 0.1 1.24 C0.13 1.14, 0.17 1.04, 0.22 0.95 C0.27 0.85, 0.32 0.76, 0.39 0.68 C0.45 0.59, 0.52 0.51, 0.59 0.44 C0.66 0.37, 0.74 0.31, 0.82 0.25 C0.91 0.2, 1 0.15, 1.09 0.11 C1.17 0.08, 1.27 0.05, 1.36 0.03 C1.46 0.01, 1.55 0, 1.65 0 C1.74 0, 1.84 0.01, 1.94 0.03 C2.03 0.05, 2.12 0.08, 2.21 0.11 C2.3 0.15, 2.39 0.2, 2.47 0.25 C2.56 0.31, 2.64 0.37, 2.71 0.44 C2.78 0.51, 2.85 0.59, 2.91 0.68 C2.97 0.76, 3.03 0.85, 3.08 0.95 C3.12 1.04, 3.17 1.14, 3.2 1.24 C3.23 1.35, 3.26 1.46, 3.27 1.56 C3.29 1.67, 3.29 1.84, 3.3 1.89 C3.3 1.95, 3.3 1.84, 3.3 1.89" stroke="#1e1e1e" stroke-width="1" fill="none"></path></g></svg>