<svg version="1.1" xmlns="http://www.w3.org/2000/svg" viewBox="0 0 120.2928086366137 118.88038477415466" width="120.2928086366137" height="118.88038477415466">
  <!-- svg-source:excalidraw -->
  
  <defs>
    <style class="style-fonts">
      @font-face {
        font-family: "Virgil";
        src: url("https://excalidraw.com/Virgil.woff2");
      }
      @font-face {
        font-family: "Cascadia";
        src: url("https://excalidraw.com/Cascadia.woff2");
      }
      @font-face {
        font-family: "Assistant";
        src: url("https://excalidraw.com/Assistant-Regular.woff2");
      }
    </style>
    
  </defs>
  <g stroke-linecap="round" transform="translate(22.04338208289755 32.08557222903619) rotate(0 16.97428512693159 17.143766890755614)"><path d="M33.95 17.14 C33.95 18.14, 33.86 19.14, 33.69 20.12 C33.52 21.1, 33.26 22.07, 32.92 23.01 C32.59 23.94, 32.17 24.86, 31.67 25.72 C31.18 26.58, 30.61 27.4, 29.98 28.16 C29.35 28.92, 28.64 29.64, 27.89 30.28 C27.13 30.91, 26.31 31.49, 25.46 31.99 C24.61 32.49, 23.7 32.91, 22.78 33.25 C21.86 33.59, 20.89 33.85, 19.92 34.03 C18.95 34.2, 17.96 34.29, 16.97 34.29 C15.99 34.29, 14.99 34.2, 14.03 34.03 C13.06 33.85, 12.09 33.59, 11.17 33.25 C10.25 32.91, 9.34 32.49, 8.49 31.99 C7.64 31.49, 6.82 30.91, 6.06 30.28 C5.31 29.64, 4.6 28.92, 3.97 28.16 C3.34 27.4, 2.77 26.58, 2.27 25.72 C1.78 24.86, 1.36 23.94, 1.02 23.01 C0.69 22.07, 0.43 21.1, 0.26 20.12 C0.09 19.14, 0 18.14, 0 17.14 C0 16.15, 0.09 15.14, 0.26 14.17 C0.43 13.19, 0.69 12.21, 1.02 11.28 C1.36 10.35, 1.78 9.43, 2.27 8.57 C2.77 7.71, 3.34 6.88, 3.97 6.12 C4.6 5.36, 5.31 4.65, 6.06 4.01 C6.82 3.37, 7.64 2.79, 8.49 2.3 C9.34 1.8, 10.25 1.37, 11.17 1.03 C12.09 0.69, 13.06 0.43, 14.03 0.26 C14.99 0.09, 15.99 0, 16.97 0 C17.96 0, 18.95 0.09, 19.92 0.26 C20.89 0.43, 21.86 0.69, 22.78 1.03 C23.7 1.37, 24.61 1.8, 25.46 2.3 C26.31 2.79, 27.13 3.37, 27.89 4.01 C28.64 4.65, 29.35 5.36, 29.98 6.12 C30.61 6.88, 31.18 7.71, 31.67 8.57 C32.17 9.43, 32.59 10.35, 32.92 11.28 C33.26 12.21, 33.52 13.19, 33.69 14.17 C33.86 15.14, 33.91 16.65, 33.95 17.14 C33.99 17.64, 33.99 16.65, 33.95 17.14" stroke="#1e1e1e" stroke-width="4" fill="none"></path></g><g stroke-linecap="round" transform="translate(63.80020990610956 21.357593068952156) rotate(15.944122619861702 10.76265805254343 10.870119088842785)"><path d="M21.53 10.87 C21.53 11.5, 21.47 12.14, 21.36 12.76 C21.25 13.38, 21.09 14, 20.88 14.59 C20.66 15.18, 20.39 15.76, 20.08 16.31 C19.77 16.85, 19.41 17.38, 19.01 17.86 C18.61 18.34, 18.16 18.79, 17.68 19.2 C17.2 19.6, 16.68 19.97, 16.14 20.28 C15.6 20.6, 15.03 20.87, 14.44 21.08 C13.86 21.3, 13.25 21.47, 12.63 21.58 C12.02 21.68, 11.39 21.74, 10.76 21.74 C10.14 21.74, 9.51 21.68, 8.89 21.58 C8.28 21.47, 7.67 21.3, 7.08 21.08 C6.5 20.87, 5.92 20.6, 5.38 20.28 C4.84 19.97, 4.32 19.6, 3.84 19.2 C3.37 18.79, 2.92 18.34, 2.52 17.86 C2.12 17.38, 1.75 16.85, 1.44 16.31 C1.13 15.76, 0.86 15.18, 0.65 14.59 C0.44 14, 0.27 13.38, 0.16 12.76 C0.06 12.14, 0 11.5, 0 10.87 C0 10.24, 0.06 9.6, 0.16 8.98 C0.27 8.36, 0.44 7.74, 0.65 7.15 C0.86 6.56, 1.13 5.98, 1.44 5.44 C1.75 4.89, 2.12 4.36, 2.52 3.88 C2.92 3.4, 3.37 2.95, 3.84 2.54 C4.32 2.14, 4.84 1.77, 5.38 1.46 C5.92 1.14, 6.5 0.87, 7.08 0.66 C7.67 0.44, 8.28 0.27, 8.89 0.17 C9.51 0.06, 10.14 0, 10.76 0 C11.39 0, 12.02 0.06, 12.63 0.17 C13.25 0.27, 13.86 0.44, 14.44 0.66 C15.03 0.87, 15.6 1.14, 16.14 1.46 C16.68 1.77, 17.2 2.14, 17.68 2.54 C18.16 2.95, 18.61 3.4, 19.01 3.88 C19.41 4.36, 19.77 4.89, 20.08 5.44 C20.39 5.98, 20.66 6.56, 20.88 7.15 C21.09 7.74, 21.25 8.36, 21.36 8.98 C21.47 9.6, 21.5 10.56, 21.53 10.87 C21.55 11.18, 21.55 10.56, 21.53 10.87" stroke="#1e1e1e" stroke-width="4" fill="none"></path></g><g stroke-linecap="round" transform="translate(85.83579096501217 42.12841325139652) rotate(4.850158920366845 8.067830285910532 8.148384494636502)"><path d="M16.14 8.15 C16.14 8.62, 16.09 9.1, 16.01 9.56 C15.93 10.03, 15.81 10.49, 15.65 10.94 C15.49 11.38, 15.29 11.81, 15.05 12.22 C14.82 12.63, 14.55 13.02, 14.25 13.39 C13.95 13.75, 13.61 14.09, 13.25 14.39 C12.9 14.69, 12.51 14.97, 12.1 15.21 C11.7 15.44, 11.27 15.64, 10.83 15.81 C10.39 15.97, 9.93 16.09, 9.47 16.17 C9.01 16.25, 8.53 16.3, 8.07 16.3 C7.6 16.3, 7.13 16.25, 6.67 16.17 C6.21 16.09, 5.75 15.97, 5.31 15.81 C4.87 15.64, 4.44 15.44, 4.03 15.21 C3.63 14.97, 3.24 14.69, 2.88 14.39 C2.52 14.09, 2.19 13.75, 1.89 13.39 C1.59 13.02, 1.31 12.63, 1.08 12.22 C0.85 11.81, 0.65 11.38, 0.49 10.94 C0.33 10.49, 0.2 10.03, 0.12 9.56 C0.04 9.1, 0 8.62, 0 8.15 C0 7.68, 0.04 7.2, 0.12 6.73 C0.2 6.27, 0.33 5.8, 0.49 5.36 C0.65 4.92, 0.85 4.48, 1.08 4.07 C1.31 3.67, 1.59 3.27, 1.89 2.91 C2.19 2.55, 2.52 2.21, 2.88 1.91 C3.24 1.6, 3.63 1.33, 4.03 1.09 C4.44 0.86, 4.87 0.65, 5.31 0.49 C5.75 0.33, 6.21 0.21, 6.67 0.12 C7.13 0.04, 7.6 0, 8.07 0 C8.53 0, 9.01 0.04, 9.47 0.12 C9.93 0.21, 10.39 0.33, 10.83 0.49 C11.27 0.65, 11.7 0.86, 12.1 1.09 C12.51 1.33, 12.9 1.6, 13.25 1.91 C13.61 2.21, 13.95 2.55, 14.25 2.91 C14.55 3.27, 14.82 3.67, 15.05 4.07 C15.29 4.48, 15.49 4.92, 15.65 5.36 C15.81 5.8, 15.93 6.27, 16.01 6.73 C16.09 7.2, 16.12 7.91, 16.14 8.15 C16.16 8.38, 16.16 7.91, 16.14 8.15" stroke="#1e1e1e" stroke-width="4" fill="none"></path></g><g stroke-linecap="round" transform="translate(34.856583269139264 23.300399310964167) rotate(358.9900726690347 4.16348372534685 4.189511635585859)"><path d="M2.08 0 C3.55 0, 5.02 0, 6.25 0 M2.08 0 C3.52 0, 4.96 0, 6.25 0 M6.25 0 C7.63 0, 8.33 0.69, 8.33 2.08 M6.25 0 C7.63 0, 8.33 0.69, 8.33 2.08 M8.33 2.08 C8.33 3.66, 8.33 5.24, 8.33 6.3 M8.33 2.08 C8.33 3.73, 8.33 5.37, 8.33 6.3 M8.33 6.3 C8.33 7.69, 7.63 8.38, 6.25 8.38 M8.33 6.3 C8.33 7.69, 7.63 8.38, 6.25 8.38 M6.25 8.38 C4.66 8.38, 3.08 8.38, 2.08 8.38 M6.25 8.38 C4.7 8.38, 3.15 8.38, 2.08 8.38 M2.08 8.38 C0.69 8.38, 0 7.69, 0 6.3 M2.08 8.38 C0.69 8.38, 0 7.69, 0 6.3 M0 6.3 C0 5.42, 0 4.55, 0 2.08 M0 6.3 C0 4.83, 0 3.36, 0 2.08 M0 2.08 C0 0.69, 0.69 0, 2.08 0 M0 2.08 C0 0.69, 0.69 0, 2.08 0" stroke="#1e1e1e" stroke-width="2" fill="none"></path></g><g stroke-linecap="round" transform="translate(75.10125139680531 16.143809554812833) rotate(374.93419528889643 2.6398844668951824 2.6563876359905407)"><path d="M1.32 0 C1.9 0, 2.47 0, 3.96 0 M1.32 0 C2.35 0, 3.38 0, 3.96 0 M3.96 0 C4.84 0, 5.28 0.44, 5.28 1.32 M3.96 0 C4.84 0, 5.28 0.44, 5.28 1.32 M5.28 1.32 C5.28 1.99, 5.28 2.66, 5.28 3.99 M5.28 1.32 C5.28 2.08, 5.28 2.84, 5.28 3.99 M5.28 3.99 C5.28 4.87, 4.84 5.31, 3.96 5.31 M5.28 3.99 C5.28 4.87, 4.84 5.31, 3.96 5.31 M3.96 5.31 C3.2 5.31, 2.43 5.31, 1.32 5.31 M3.96 5.31 C2.95 5.31, 1.95 5.31, 1.32 5.31 M1.32 5.31 C0.44 5.31, 0 4.87, 0 3.99 M1.32 5.31 C0.44 5.31, 0 4.87, 0 3.99 M0 3.99 C0 3.25, 0 2.51, 0 1.32 M0 3.99 C0 3.43, 0 2.87, 0 1.32 M0 1.32 C0 0.44, 0.44 0, 1.32 0 M0 1.32 C0 0.44, 0.44 0, 1.32 0" stroke="#1e1e1e" stroke-width="2" fill="none"></path></g><g stroke-linecap="round" transform="translate(92.32590107107444 37.94975414944474) rotate(3.840231589401552 1.9788921797335206 1.9912631727343069)"><path d="M0.99 0 C1.68 0, 2.38 0, 2.97 0 M0.99 0 C1.39 0, 1.8 0, 2.97 0 M2.97 0 C3.63 0, 3.96 0.33, 3.96 0.99 M2.97 0 C3.63 0, 3.96 0.33, 3.96 0.99 M3.96 0.99 C3.96 1.76, 3.96 2.54, 3.96 2.99 M3.96 0.99 C3.96 1.66, 3.96 2.34, 3.96 2.99 M3.96 2.99 C3.96 3.65, 3.63 3.98, 2.97 3.98 M3.96 2.99 C3.96 3.65, 3.63 3.98, 2.97 3.98 M2.97 3.98 C2.51 3.98, 2.05 3.98, 0.99 3.98 M2.97 3.98 C2.31 3.98, 1.65 3.98, 0.99 3.98 M0.99 3.98 C0.33 3.98, 0 3.65, 0 2.99 M0.99 3.98 C0.33 3.98, 0 3.65, 0 2.99 M0 2.99 C0 2.47, 0 1.95, 0 0.99 M0 2.99 C0 2.56, 0 2.12, 0 0.99 M0 0.99 C0 0.33, 0.33 0, 0.99 0 M0 0.99 C0 0.33, 0.33 0, 0.99 0" stroke="#1e1e1e" stroke-width="2" fill="none"></path></g><g stroke-linecap="round" transform="translate(35.37556261091231 65.34017199903974) rotate(358.9900726690347 4.16348372534685 4.189511635585859)"><path d="M2.08 0 C3.31 0, 4.53 0, 6.25 0 M2.08 0 C3.39 0, 4.7 0, 6.25 0 M6.25 0 C7.63 0, 8.33 0.69, 8.33 2.08 M6.25 0 C7.63 0, 8.33 0.69, 8.33 2.08 M8.33 2.08 C8.33 3.19, 8.33 4.3, 8.33 6.3 M8.33 2.08 C8.33 2.93, 8.33 3.78, 8.33 6.3 M8.33 6.3 C8.33 7.69, 7.63 8.38, 6.25 8.38 M8.33 6.3 C8.33 7.69, 7.63 8.38, 6.25 8.38 M6.25 8.38 C4.72 8.38, 3.2 8.38, 2.08 8.38 M6.25 8.38 C4.7 8.38, 3.16 8.38, 2.08 8.38 M2.08 8.38 C0.69 8.38, 0 7.69, 0 6.3 M2.08 8.38 C0.69 8.38, 0 7.69, 0 6.3 M0 6.3 C0 4.61, 0 2.93, 0 2.08 M0 6.3 C0 5.34, 0 4.39, 0 2.08 M0 2.08 C0 0.69, 0.69 0, 2.08 0 M0 2.08 C0 0.69, 0.69 0, 2.08 0" stroke="#1e1e1e" stroke-width="2" fill="none"></path></g><g stroke-linecap="round" transform="translate(68.70503318213105 42.03853535505459) rotate(374.93419528889643 2.6398844668951824 2.6563876359905407)"><path d="M1.32 0 C1.89 0, 2.45 0, 3.96 0 M1.32 0 C2.04 0, 2.76 0, 3.96 0 M3.96 0 C4.84 0, 5.28 0.44, 5.28 1.32 M3.96 0 C4.84 0, 5.28 0.44, 5.28 1.32 M5.28 1.32 C5.28 2.23, 5.28 3.15, 5.28 3.99 M5.28 1.32 C5.28 2.06, 5.28 2.8, 5.28 3.99 M5.28 3.99 C5.28 4.87, 4.84 5.31, 3.96 5.31 M5.28 3.99 C5.28 4.87, 4.84 5.31, 3.96 5.31 M3.96 5.31 C3.3 5.31, 2.64 5.31, 1.32 5.31 M3.96 5.31 C3.3 5.31, 2.65 5.31, 1.32 5.31 M1.32 5.31 C0.44 5.31, 0 4.87, 0 3.99 M1.32 5.31 C0.44 5.31, 0 4.87, 0 3.99 M0 3.99 C0 3.32, 0 2.65, 0 1.32 M0 3.99 C0 2.96, 0 1.92, 0 1.32 M0 1.32 C0 0.44, 0.44 0, 1.32 0 M0 1.32 C0 0.44, 0.44 0, 1.32 0" stroke="#1e1e1e" stroke-width="2" fill="none"></path></g><g stroke-linecap="round" transform="translate(91.35585269863986 57.92063413892993) rotate(3.840231589401552 1.9788921797335206 1.9912631727343069)"><path d="M0.99 0 C1.57 0, 2.14 0, 2.97 0 M0.99 0 C1.45 0, 1.9 0, 2.97 0 M2.97 0 C3.63 0, 3.96 0.33, 3.96 0.99 M2.97 0 C3.63 0, 3.96 0.33, 3.96 0.99 M3.96 0.99 C3.96 1.77, 3.96 2.54, 3.96 2.99 M3.96 0.99 C3.96 1.6, 3.96 2.22, 3.96 2.99 M3.96 2.99 C3.96 3.65, 3.63 3.98, 2.97 3.98 M3.96 2.99 C3.96 3.65, 3.63 3.98, 2.97 3.98 M2.97 3.98 C2.45 3.98, 1.92 3.98, 0.99 3.98 M2.97 3.98 C2.47 3.98, 1.98 3.98, 0.99 3.98 M0.99 3.98 C0.33 3.98, 0 3.65, 0 2.99 M0.99 3.98 C0.33 3.98, 0 3.65, 0 2.99 M0 2.99 C0 2.35, 0 1.71, 0 0.99 M0 2.99 C0 2.23, 0 1.46, 0 0.99 M0 0.99 C0 0.33, 0.33 0, 0.99 0 M0 0.99 C0 0.33, 0.33 0, 0.99 0" stroke="#1e1e1e" stroke-width="2" fill="none"></path></g><g stroke-linecap="round" transform="translate(56.158227907198125 43.942758027728814) rotate(358.9900726690347 4.16348372534685 4.189511635585859)"><path d="M2.08 0 C3.63 0, 5.18 0, 6.25 0 M2.08 0 C3.25 0, 4.43 0, 6.25 0 M6.25 0 C7.63 0, 8.33 0.69, 8.33 2.08 M6.25 0 C7.63 0, 8.33 0.69, 8.33 2.08 M8.33 2.08 C8.33 3.12, 8.33 4.16, 8.33 6.3 M8.33 2.08 C8.33 3.72, 8.33 5.35, 8.33 6.3 M8.33 6.3 C8.33 7.69, 7.63 8.38, 6.25 8.38 M8.33 6.3 C8.33 7.69, 7.63 8.38, 6.25 8.38 M6.25 8.38 C4.91 8.38, 3.58 8.38, 2.08 8.38 M6.25 8.38 C5.12 8.38, 3.99 8.38, 2.08 8.38 M2.08 8.38 C0.69 8.38, 0 7.69, 0 6.3 M2.08 8.38 C0.69 8.38, 0 7.69, 0 6.3 M0 6.3 C0 5.23, 0 4.15, 0 2.08 M0 6.3 C0 5.42, 0 4.53, 0 2.08 M0 2.08 C0 0.69, 0.69 0, 2.08 0 M0 2.08 C0 0.69, 0.69 0, 2.08 0" stroke="#1e1e1e" stroke-width="2" fill="none"></path></g><g stroke-linecap="round" transform="translate(85.10238551483235 32.61311650727475) rotate(374.93419528889643 2.6398844668951824 2.6563876359905407)"><path d="M1.32 0 C2.19 0, 3.06 0, 3.96 0 M1.32 0 C1.97 0, 2.61 0, 3.96 0 M3.96 0 C4.84 0, 5.28 0.44, 5.28 1.32 M3.96 0 C4.84 0, 5.28 0.44, 5.28 1.32 M5.28 1.32 C5.28 2.26, 5.28 3.19, 5.28 3.99 M5.28 1.32 C5.28 2.37, 5.28 3.42, 5.28 3.99 M5.28 3.99 C5.28 4.87, 4.84 5.31, 3.96 5.31 M5.28 3.99 C5.28 4.87, 4.84 5.31, 3.96 5.31 M3.96 5.31 C3.03 5.31, 2.1 5.31, 1.32 5.31 M3.96 5.31 C3.19 5.31, 2.41 5.31, 1.32 5.31 M1.32 5.31 C0.44 5.31, 0 4.87, 0 3.99 M1.32 5.31 C0.44 5.31, 0 4.87, 0 3.99 M0 3.99 C0 2.94, 0 1.89, 0 1.32 M0 3.99 C0 3.14, 0 2.28, 0 1.32 M0 1.32 C0 0.44, 0.44 0, 1.32 0 M0 1.32 C0 0.44, 0.44 0, 1.32 0" stroke="#1e1e1e" stroke-width="2" fill="none"></path></g><g stroke-linecap="round" transform="translate(102.05831112635678 48.6221018775077) rotate(3.840231589401552 1.9788921797335206 1.9912631727343069)"><path d="M0.99 0 C1.61 0, 2.24 0, 2.97 0 M0.99 0 C1.54 0, 2.09 0, 2.97 0 M2.97 0 C3.63 0, 3.96 0.33, 3.96 0.99 M2.97 0 C3.63 0, 3.96 0.33, 3.96 0.99 M3.96 0.99 C3.96 1.42, 3.96 1.86, 3.96 2.99 M3.96 0.99 C3.96 1.43, 3.96 1.87, 3.96 2.99 M3.96 2.99 C3.96 3.65, 3.63 3.98, 2.97 3.98 M3.96 2.99 C3.96 3.65, 3.63 3.98, 2.97 3.98 M2.97 3.98 C2.2 3.98, 1.44 3.98, 0.99 3.98 M2.97 3.98 C2.24 3.98, 1.51 3.98, 0.99 3.98 M0.99 3.98 C0.33 3.98, 0 3.65, 0 2.99 M0.99 3.98 C0.33 3.98, 0 3.65, 0 2.99 M0 2.99 C0 2.57, 0 2.14, 0 0.99 M0 2.99 C0 2.28, 0 1.58, 0 0.99 M0 0.99 C0 0.33, 0.33 0, 0.99 0 M0 0.99 C0 0.33, 0.33 0, 0.99 0" stroke="#1e1e1e" stroke-width="2" fill="none"></path></g><g stroke-linecap="round" transform="translate(13.363200339171271 45.04038965210202) rotate(358.9900726690347 4.16348372534685 4.189511635585859)"><path d="M2.08 0 C3.24 0, 4.41 0, 6.25 0 M2.08 0 C3.15 0, 4.21 0, 6.25 0 M6.25 0 C7.63 0, 8.33 0.69, 8.33 2.08 M6.25 0 C7.63 0, 8.33 0.69, 8.33 2.08 M8.33 2.08 C8.33 3.15, 8.33 4.22, 8.33 6.3 M8.33 2.08 C8.33 3.6, 8.33 5.12, 8.33 6.3 M8.33 6.3 C8.33 7.69, 7.63 8.38, 6.25 8.38 M8.33 6.3 C8.33 7.69, 7.63 8.38, 6.25 8.38 M6.25 8.38 C4.73 8.38, 3.21 8.38, 2.08 8.38 M6.25 8.38 C5.2 8.38, 4.15 8.38, 2.08 8.38 M2.08 8.38 C0.69 8.38, 0 7.69, 0 6.3 M2.08 8.38 C0.69 8.38, 0 7.69, 0 6.3 M0 6.3 C0 5.27, 0 4.24, 0 2.08 M0 6.3 C0 5.02, 0 3.75, 0 2.08 M0 2.08 C0 0.69, 0.69 0, 2.08 0 M0 2.08 C0 0.69, 0.69 0, 2.08 0" stroke="#1e1e1e" stroke-width="2" fill="none"></path></g><g stroke-linecap="round" transform="translate(58.820595945884634 25.828470871297213) rotate(374.93419528889643 2.6398844668951824 2.6563876359905407)"><path d="M1.32 0 C1.93 0, 2.54 0, 3.96 0 M1.32 0 C2.08 0, 2.83 0, 3.96 0 M3.96 0 C4.84 0, 5.28 0.44, 5.28 1.32 M3.96 0 C4.84 0, 5.28 0.44, 5.28 1.32 M5.28 1.32 C5.28 2.02, 5.28 2.72, 5.28 3.99 M5.28 1.32 C5.28 2.33, 5.28 3.34, 5.28 3.99 M5.28 3.99 C5.28 4.87, 4.84 5.31, 3.96 5.31 M5.28 3.99 C5.28 4.87, 4.84 5.31, 3.96 5.31 M3.96 5.31 C3.4 5.31, 2.84 5.31, 1.32 5.31 M3.96 5.31 C3.32 5.31, 2.69 5.31, 1.32 5.31 M1.32 5.31 C0.44 5.31, 0 4.87, 0 3.99 M1.32 5.31 C0.44 5.31, 0 4.87, 0 3.99 M0 3.99 C0 2.97, 0 1.96, 0 1.32 M0 3.99 C0 3.3, 0 2.61, 0 1.32 M0 1.32 C0 0.44, 0.44 0, 1.32 0 M0 1.32 C0 0.44, 0.44 0, 1.32 0" stroke="#1e1e1e" stroke-width="2" fill="none"></path></g><g stroke-linecap="round" transform="translate(81.74667847140063 47.4221541952802) rotate(3.840231589401552 1.9788921797335206 1.9912631727343069)"><path d="M0.99 0 C1.44 0, 1.9 0, 2.97 0 M0.99 0 C1.54 0, 2.09 0, 2.97 0 M2.97 0 C3.63 0, 3.96 0.33, 3.96 0.99 M2.97 0 C3.63 0, 3.96 0.33, 3.96 0.99 M3.96 0.99 C3.96 1.39, 3.96 1.8, 3.96 2.99 M3.96 0.99 C3.96 1.69, 3.96 2.39, 3.96 2.99 M3.96 2.99 C3.96 3.65, 3.63 3.98, 2.97 3.98 M3.96 2.99 C3.96 3.65, 3.63 3.98, 2.97 3.98 M2.97 3.98 C2.23 3.98, 1.49 3.98, 0.99 3.98 M2.97 3.98 C2.3 3.98, 1.63 3.98, 0.99 3.98 M0.99 3.98 C0.33 3.98, 0 3.65, 0 2.99 M0.99 3.98 C0.33 3.98, 0 3.65, 0 2.99 M0 2.99 C0 2.49, 0 1.98, 0 0.99 M0 2.99 C0 2.37, 0 1.75, 0 0.99 M0 0.99 C0 0.33, 0.33 0, 0.99 0 M0 0.99 C0 0.33, 0.33 0, 0.99 0" stroke="#1e1e1e" stroke-width="2" fill="none"></path></g><g stroke-linecap="round" transform="translate(49.91057135062238 30.183439356324016) rotate(45.83014999937379 4.16348372534685 4.189511635585859)"><path d="M2.08 0 C3.14 0, 4.2 0, 6.25 0 M2.08 0 C3.74 0, 5.4 0, 6.25 0 M6.25 0 C7.63 0, 8.33 0.69, 8.33 2.08 M6.25 0 C7.63 0, 8.33 0.69, 8.33 2.08 M8.33 2.08 C8.33 3.38, 8.33 4.68, 8.33 6.3 M8.33 2.08 C8.33 3.13, 8.33 4.18, 8.33 6.3 M8.33 6.3 C8.33 7.69, 7.63 8.38, 6.25 8.38 M8.33 6.3 C8.33 7.69, 7.63 8.38, 6.25 8.38 M6.25 8.38 C5.38 8.38, 4.51 8.38, 2.08 8.38 M6.25 8.38 C5.14 8.38, 4.04 8.38, 2.08 8.38 M2.08 8.38 C0.69 8.38, 0 7.69, 0 6.3 M2.08 8.38 C0.69 8.38, 0 7.69, 0 6.3 M0 6.3 C0 4.62, 0 2.95, 0 2.08 M0 6.3 C0 4.78, 0 3.27, 0 2.08 M0 2.08 C0 0.69, 0.69 0, 2.08 0 M0 2.08 C0 0.69, 0.69 0, 2.08 0" stroke="#1e1e1e" stroke-width="2" fill="none"></path></g><g stroke-linecap="round" transform="translate(83.6899432078726 23.13636142341238) rotate(61.7742726192355 2.6398844668951824 2.6563876359905407)"><path d="M1.32 0 C2.17 0, 3.02 0, 3.96 0 M1.32 0 C2.28 0, 3.25 0, 3.96 0 M3.96 0 C4.84 0, 5.28 0.44, 5.28 1.32 M3.96 0 C4.84 0, 5.28 0.44, 5.28 1.32 M5.28 1.32 C5.28 2.26, 5.28 3.2, 5.28 3.99 M5.28 1.32 C5.28 1.97, 5.28 2.61, 5.28 3.99 M5.28 3.99 C5.28 4.87, 4.84 5.31, 3.96 5.31 M5.28 3.99 C5.28 4.87, 4.84 5.31, 3.96 5.31 M3.96 5.31 C3.17 5.31, 2.37 5.31, 1.32 5.31 M3.96 5.31 C3.08 5.31, 2.2 5.31, 1.32 5.31 M1.32 5.31 C0.44 5.31, 0 4.87, 0 3.99 M1.32 5.31 C0.44 5.31, 0 4.87, 0 3.99 M0 3.99 C0 3.44, 0 2.88, 0 1.32 M0 3.99 C0 3.08, 0 2.17, 0 1.32 M0 1.32 C0 0.44, 0.44 0, 1.32 0 M0 1.32 C0 0.44, 0.44 0, 1.32 0" stroke="#1e1e1e" stroke-width="2" fill="none"></path></g><g stroke-linecap="round" transform="translate(99.6523888829879 41.854682384197986) rotate(50.68030891974064 1.9788921797335206 1.9912631727343069)"><path d="M0.99 0 C1.49 0, 1.98 0, 2.97 0 M0.99 0 C1.39 0, 1.8 0, 2.97 0 M2.97 0 C3.63 0, 3.96 0.33, 3.96 0.99 M2.97 0 C3.63 0, 3.96 0.33, 3.96 0.99 M3.96 0.99 C3.96 1.68, 3.96 2.36, 3.96 2.99 M3.96 0.99 C3.96 1.42, 3.96 1.86, 3.96 2.99 M3.96 2.99 C3.96 3.65, 3.63 3.98, 2.97 3.98 M3.96 2.99 C3.96 3.65, 3.63 3.98, 2.97 3.98 M2.97 3.98 C2.21 3.98, 1.45 3.98, 0.99 3.98 M2.97 3.98 C2.56 3.98, 2.15 3.98, 0.99 3.98 M0.99 3.98 C0.33 3.98, 0 3.65, 0 2.99 M0.99 3.98 C0.33 3.98, 0 3.65, 0 2.99 M0 2.99 C0 2.49, 0 1.98, 0 0.99 M0 2.99 C0 2.22, 0 1.45, 0 0.99 M0 0.99 C0 0.33, 0.33 0, 0.99 0 M0 0.99 C0 0.33, 0.33 0, 0.99 0" stroke="#1e1e1e" stroke-width="2" fill="none"></path></g><g stroke-linecap="round" transform="translate(19.9268494193866 60.31808200096475) rotate(45.83014999937379 4.16348372534685 4.189511635585859)"><path d="M2.08 0 C3.28 0, 4.48 0, 6.25 0 M2.08 0 C3.09 0, 4.11 0, 6.25 0 M6.25 0 C7.63 0, 8.33 0.69, 8.33 2.08 M6.25 0 C7.63 0, 8.33 0.69, 8.33 2.08 M8.33 2.08 C8.33 3.66, 8.33 5.24, 8.33 6.3 M8.33 2.08 C8.33 3.11, 8.33 4.14, 8.33 6.3 M8.33 6.3 C8.33 7.69, 7.63 8.38, 6.25 8.38 M8.33 6.3 C8.33 7.69, 7.63 8.38, 6.25 8.38 M6.25 8.38 C5.18 8.38, 4.12 8.38, 2.08 8.38 M6.25 8.38 C4.6 8.38, 2.96 8.38, 2.08 8.38 M2.08 8.38 C0.69 8.38, 0 7.69, 0 6.3 M2.08 8.38 C0.69 8.38, 0 7.69, 0 6.3 M0 6.3 C0 5.34, 0 4.39, 0 2.08 M0 6.3 C0 5.12, 0 3.94, 0 2.08 M0 2.08 C0 0.69, 0.69 0, 2.08 0 M0 2.08 C0 0.69, 0.69 0, 2.08 0" stroke="#1e1e1e" stroke-width="2" fill="none"></path></g><g stroke-linecap="round" transform="translate(60.16122463299507 36.28596255610228) rotate(61.7742726192355 2.6398844668951824 2.6563876359905407)"><path d="M1.32 0 C2.01 0, 2.7 0, 3.96 0 M1.32 0 C2.2 0, 3.09 0, 3.96 0 M3.96 0 C4.84 0, 5.28 0.44, 5.28 1.32 M3.96 0 C4.84 0, 5.28 0.44, 5.28 1.32 M5.28 1.32 C5.28 2.23, 5.28 3.15, 5.28 3.99 M5.28 1.32 C5.28 2.33, 5.28 3.34, 5.28 3.99 M5.28 3.99 C5.28 4.87, 4.84 5.31, 3.96 5.31 M5.28 3.99 C5.28 4.87, 4.84 5.31, 3.96 5.31 M3.96 5.31 C3.35 5.31, 2.74 5.31, 1.32 5.31 M3.96 5.31 C3.03 5.31, 2.11 5.31, 1.32 5.31 M1.32 5.31 C0.44 5.31, 0 4.87, 0 3.99 M1.32 5.31 C0.44 5.31, 0 4.87, 0 3.99 M0 3.99 C0 3.45, 0 2.92, 0 1.32 M0 3.99 C0 3.25, 0 2.51, 0 1.32 M0 1.32 C0 0.44, 0.44 0, 1.32 0 M0 1.32 C0 0.44, 0.44 0, 1.32 0" stroke="#1e1e1e" stroke-width="2" fill="none"></path></g><g stroke-linecap="round" transform="translate(84.24123521099773 54.92136690550433) rotate(50.68030891974064 1.9788921797335206 1.9912631727343069)"><path d="M0.99 0 C1.61 0, 2.23 0, 2.97 0 M0.99 0 C1.69 0, 2.39 0, 2.97 0 M2.97 0 C3.63 0, 3.96 0.33, 3.96 0.99 M2.97 0 C3.63 0, 3.96 0.33, 3.96 0.99 M3.96 0.99 C3.96 1.68, 3.96 2.36, 3.96 2.99 M3.96 0.99 C3.96 1.71, 3.96 2.44, 3.96 2.99 M3.96 2.99 C3.96 3.65, 3.63 3.98, 2.97 3.98 M3.96 2.99 C3.96 3.65, 3.63 3.98, 2.97 3.98 M2.97 3.98 C2.31 3.98, 1.66 3.98, 0.99 3.98 M2.97 3.98 C2.25 3.98, 1.54 3.98, 0.99 3.98 M0.99 3.98 C0.33 3.98, 0 3.65, 0 2.99 M0.99 3.98 C0.33 3.98, 0 3.65, 0 2.99 M0 2.99 C0 2.26, 0 1.52, 0 0.99 M0 2.99 C0 2.48, 0 1.96, 0 0.99 M0 0.99 C0 0.33, 0.33 0, 0.99 0 M0 0.99 C0 0.33, 0.33 0, 0.99 0" stroke="#1e1e1e" stroke-width="2" fill="none"></path></g><g stroke-linecap="round" transform="translate(50.58660486490862 59.3560852707551) rotate(45.83014999937379 4.16348372534685 4.189511635585859)"><path d="M2.08 0 C3.56 0, 5.03 0, 6.25 0 M2.08 0 C2.99 0, 3.89 0, 6.25 0 M6.25 0 C7.63 0, 8.33 0.69, 8.33 2.08 M6.25 0 C7.63 0, 8.33 0.69, 8.33 2.08 M8.33 2.08 C8.33 3, 8.33 3.93, 8.33 6.3 M8.33 2.08 C8.33 3.13, 8.33 4.19, 8.33 6.3 M8.33 6.3 C8.33 7.69, 7.63 8.38, 6.25 8.38 M8.33 6.3 C8.33 7.69, 7.63 8.38, 6.25 8.38 M6.25 8.38 C5.32 8.38, 4.4 8.38, 2.08 8.38 M6.25 8.38 C5.34 8.38, 4.43 8.38, 2.08 8.38 M2.08 8.38 C0.69 8.38, 0 7.69, 0 6.3 M2.08 8.38 C0.69 8.38, 0 7.69, 0 6.3 M0 6.3 C0 5.04, 0 3.79, 0 2.08 M0 6.3 C0 5.06, 0 3.81, 0 2.08 M0 2.08 C0 0.69, 0.69 0, 2.08 0 M0 2.08 C0 0.69, 0.69 0, 2.08 0" stroke="#1e1e1e" stroke-width="2" fill="none"></path></g><g stroke-linecap="round" transform="translate(79.02094527857844 41.03963646922875) rotate(61.7742726192355 2.6398844668951824 2.6563876359905407)"><path d="M1.32 0 C2.12 0, 2.92 0, 3.96 0 M1.32 0 C2.08 0, 2.84 0, 3.96 0 M3.96 0 C4.84 0, 5.28 0.44, 5.28 1.32 M3.96 0 C4.84 0, 5.28 0.44, 5.28 1.32 M5.28 1.32 C5.28 2.1, 5.28 2.87, 5.28 3.99 M5.28 1.32 C5.28 2.02, 5.28 2.73, 5.28 3.99 M5.28 3.99 C5.28 4.87, 4.84 5.31, 3.96 5.31 M5.28 3.99 C5.28 4.87, 4.84 5.31, 3.96 5.31 M3.96 5.31 C3.19 5.31, 2.42 5.31, 1.32 5.31 M3.96 5.31 C3.22 5.31, 2.48 5.31, 1.32 5.31 M1.32 5.31 C0.44 5.31, 0 4.87, 0 3.99 M1.32 5.31 C0.44 5.31, 0 4.87, 0 3.99 M0 3.99 C0 3.21, 0 2.42, 0 1.32 M0 3.99 C0 3.06, 0 2.12, 0 1.32 M0 1.32 C0 0.44, 0.44 0, 1.32 0 M0 1.32 C0 0.44, 0.44 0, 1.32 0" stroke="#1e1e1e" stroke-width="2" fill="none"></path></g><g stroke-linecap="round" transform="translate(98.80020967752716 55.69787695740706) rotate(50.68030891974064 1.9788921797335206 1.9912631727343069)"><path d="M0.99 0 C1.43 0, 1.87 0, 2.97 0 M0.99 0 C1.42 0, 1.84 0, 2.97 0 M2.97 0 C3.63 0, 3.96 0.33, 3.96 0.99 M2.97 0 C3.63 0, 3.96 0.33, 3.96 0.99 M3.96 0.99 C3.96 1.49, 3.96 1.99, 3.96 2.99 M3.96 0.99 C3.96 1.58, 3.96 2.17, 3.96 2.99 M3.96 2.99 C3.96 3.65, 3.63 3.98, 2.97 3.98 M3.96 2.99 C3.96 3.65, 3.63 3.98, 2.97 3.98 M2.97 3.98 C2.23 3.98, 1.49 3.98, 0.99 3.98 M2.97 3.98 C2.45 3.98, 1.94 3.98, 0.99 3.98 M0.99 3.98 C0.33 3.98, 0 3.65, 0 2.99 M0.99 3.98 C0.33 3.98, 0 3.65, 0 2.99 M0 2.99 C0 2.29, 0 1.59, 0 0.99 M0 2.99 C0 2.28, 0 1.56, 0 0.99 M0 0.99 C0 0.33, 0.33 0, 0.99 0 M0 0.99 C0 0.33, 0.33 0, 0.99 0" stroke="#1e1e1e" stroke-width="2" fill="none"></path></g><g stroke-linecap="round" transform="translate(20.14531996030746 29.841255600973454) rotate(45.83014999937379 4.16348372534685 4.189511635585859)"><path d="M2.08 0 C3.26 0, 4.44 0, 6.25 0 M2.08 0 C3.02 0, 3.96 0, 6.25 0 M6.25 0 C7.63 0, 8.33 0.69, 8.33 2.08 M6.25 0 C7.63 0, 8.33 0.69, 8.33 2.08 M8.33 2.08 C8.33 3.33, 8.33 4.58, 8.33 6.3 M8.33 2.08 C8.33 3.32, 8.33 4.56, 8.33 6.3 M8.33 6.3 C8.33 7.69, 7.63 8.38, 6.25 8.38 M8.33 6.3 C8.33 7.69, 7.63 8.38, 6.25 8.38 M6.25 8.38 C5.3 8.38, 4.35 8.38, 2.08 8.38 M6.25 8.38 C5.35 8.38, 4.46 8.38, 2.08 8.38 M2.08 8.38 C0.69 8.38, 0 7.69, 0 6.3 M2.08 8.38 C0.69 8.38, 0 7.69, 0 6.3 M0 6.3 C0 5.24, 0 4.18, 0 2.08 M0 6.3 C0 5.15, 0 4, 0 2.08 M0 2.08 C0 0.69, 0.69 0, 2.08 0 M0 2.08 C0 0.69, 0.69 0, 2.08 0" stroke="#1e1e1e" stroke-width="2" fill="none"></path></g><g stroke-linecap="round" transform="translate(65.60272583831375 17.74337538511827) rotate(61.7742726192355 2.6398844668951824 2.6563876359905407)"><path d="M1.32 0 C2.35 0, 3.38 0, 3.96 0 M1.32 0 C2.14 0, 2.96 0, 3.96 0 M3.96 0 C4.84 0, 5.28 0.44, 5.28 1.32 M3.96 0 C4.84 0, 5.28 0.44, 5.28 1.32 M5.28 1.32 C5.28 2.08, 5.28 2.84, 5.28 3.99 M5.28 1.32 C5.28 2.02, 5.28 2.72, 5.28 3.99 M5.28 3.99 C5.28 4.87, 4.84 5.31, 3.96 5.31 M5.28 3.99 C5.28 4.87, 4.84 5.31, 3.96 5.31 M3.96 5.31 C2.95 5.31, 1.95 5.31, 1.32 5.31 M3.96 5.31 C3.32 5.31, 2.68 5.31, 1.32 5.31 M1.32 5.31 C0.44 5.31, 0 4.87, 0 3.99 M1.32 5.31 C0.44 5.31, 0 4.87, 0 3.99 M0 3.99 C0 3.43, 0 2.87, 0 1.32 M0 3.99 C0 3.21, 0 2.44, 0 1.32 M0 1.32 C0 0.44, 0.44 0, 1.32 0 M0 1.32 C0 0.44, 0.44 0, 1.32 0" stroke="#1e1e1e" stroke-width="2" fill="none"></path></g><g stroke-linecap="round" transform="translate(85.56945770977472 40.496465575410184) rotate(50.68030891974064 1.9788921797335206 1.9912631727343069)"><path d="M0.99 0 C1.39 0, 1.8 0, 2.97 0 M0.99 0 C1.61 0, 2.22 0, 2.97 0 M2.97 0 C3.63 0, 3.96 0.33, 3.96 0.99 M2.97 0 C3.63 0, 3.96 0.33, 3.96 0.99 M3.96 0.99 C3.96 1.66, 3.96 2.34, 3.96 2.99 M3.96 0.99 C3.96 1.48, 3.96 1.97, 3.96 2.99 M3.96 2.99 C3.96 3.65, 3.63 3.98, 2.97 3.98 M3.96 2.99 C3.96 3.65, 3.63 3.98, 2.97 3.98 M2.97 3.98 C2.31 3.98, 1.65 3.98, 0.99 3.98 M2.97 3.98 C2.31 3.98, 1.66 3.98, 0.99 3.98 M0.99 3.98 C0.33 3.98, 0 3.65, 0 2.99 M0.99 3.98 C0.33 3.98, 0 3.65, 0 2.99 M0 2.99 C0 2.56, 0 2.12, 0 0.99 M0 2.99 C0 2.41, 0 1.84, 0 0.99 M0 0.99 C0 0.33, 0.33 0, 0.99 0 M0 0.99 C0 0.33, 0.33 0, 0.99 0" stroke="#1e1e1e" stroke-width="2" fill="none"></path></g><g stroke-linecap="round" transform="translate(10 10) rotate(0 50.146404318307304 49.440192387077786)"><path d="M100.29 49.44 C100.29 51.59, 100.15 53.76, 99.86 55.89 C99.58 58.03, 99.15 60.16, 98.58 62.24 C98.02 64.31, 97.31 66.37, 96.48 68.36 C95.64 70.35, 94.67 72.3, 93.57 74.16 C92.48 76.02, 91.26 77.83, 89.93 79.54 C88.6 81.24, 87.15 82.88, 85.61 84.4 C84.06 85.92, 82.4 87.35, 80.67 88.66 C78.94 89.97, 77.11 91.18, 75.22 92.26 C73.33 93.33, 71.35 94.29, 69.34 95.12 C67.32 95.94, 65.23 96.64, 63.13 97.2 C61.02 97.75, 58.85 98.18, 56.69 98.46 C54.53 98.74, 52.33 98.88, 50.15 98.88 C47.96 98.88, 45.76 98.74, 43.6 98.46 C41.44 98.18, 39.28 97.75, 37.17 97.2 C35.06 96.64, 32.97 95.94, 30.96 95.12 C28.94 94.29, 26.96 93.33, 25.07 92.26 C23.18 91.18, 21.35 89.97, 19.62 88.66 C17.89 87.35, 16.23 85.92, 14.69 84.4 C13.14 82.88, 11.69 81.24, 10.36 79.54 C9.03 77.83, 7.81 76.02, 6.72 74.16 C5.63 72.3, 4.65 70.35, 3.82 68.36 C2.98 66.37, 2.27 64.31, 1.71 62.24 C1.14 60.16, 0.71 58.03, 0.43 55.89 C0.14 53.76, 0 51.59, 0 49.44 C0 47.29, 0.14 45.12, 0.43 42.99 C0.71 40.85, 1.14 38.72, 1.71 36.64 C2.27 34.57, 2.98 32.51, 3.82 30.52 C4.65 28.53, 5.63 26.58, 6.72 24.72 C7.81 22.86, 9.03 21.05, 10.36 19.34 C11.69 17.64, 13.14 16, 14.69 14.48 C16.23 12.96, 17.89 11.53, 19.62 10.22 C21.35 8.91, 23.18 7.7, 25.07 6.62 C26.96 5.55, 28.94 4.59, 30.96 3.76 C32.97 2.94, 35.06 2.24, 37.17 1.68 C39.28 1.13, 41.44 0.7, 43.6 0.42 C45.76 0.14, 47.96 0, 50.15 0 C52.33 0, 54.53 0.14, 56.69 0.42 C58.85 0.7, 61.02 1.13, 63.13 1.68 C65.23 2.24, 67.32 2.94, 69.34 3.76 C71.35 4.59, 73.33 5.55, 75.22 6.62 C77.11 7.7, 78.94 8.91, 80.67 10.22 C82.4 11.53, 84.06 12.96, 85.61 14.48 C87.15 16, 88.6 17.64, 89.93 19.34 C91.26 21.05, 92.48 22.86, 93.57 24.72 C94.67 26.58, 95.64 28.53, 96.48 30.52 C97.31 32.51, 98.02 34.57, 98.58 36.64 C99.15 38.72, 99.58 40.85, 99.86 42.99 C100.15 45.12, 100.22 48.36, 100.29 49.44 C100.36 50.52, 100.36 48.36, 100.29 49.44" stroke="#1e1e1e" stroke-width="4" fill="none"></path></g><g transform="translate(36.26781965979717 77.13004291001016) rotate(0 24.25406524099799 9.934465122712936)"><text x="24.25406524099806" y="15.98827980686592" font-family="Cascadia, Segoe UI Emoji" font-size="16.557441871188008px" fill="#1e1e1e" text-anchor="middle" style="white-space: pre;" direction="ltr" dominant-baseline="alphabetic">ADMIN</text></g></svg>