<svg version="1.1" xmlns="http://www.w3.org/2000/svg" viewBox="0 0 119.97897236827976 121.95548327533834" width="119.97897236827976" height="121.95548327533834">
  <!-- svg-source:excalidraw -->
  
  <defs>
    <style class="style-fonts">
      @font-face {
        font-family: "Virgil";
        src: url("https://excalidraw.com/Virgil.woff2");
      }
      @font-face {
        font-family: "Cascadia";
        src: url("https://excalidraw.com/Cascadia.woff2");
      }
      @font-face {
        font-family: "Assistant";
        src: url("https://excalidraw.com/Assistant-Regular.woff2");
      }
    </style>
    
  </defs>
  <g stroke-linecap="round"><g transform="translate(22.742296430682472 23.115999738238315) rotate(0 37.7993360185269 -1.1692302947512871)"><path d="M0 0 C12.6 -0.39, 63 -1.95, 75.6 -2.34 M0 0 C12.6 -0.39, 63 -1.95, 75.6 -2.34" stroke="#1e1e1e" stroke-width="4" fill="none"></path></g></g><mask></mask><g stroke-linecap="round"><g transform="translate(59.50321359451027 22.091078055461367) rotate(0 -13.03084820587037 16.83247684331627)"><path d="M0 0 C-1.59 3.62, -5.21 16.09, -9.55 21.7 C-13.89 27.31, -23.31 31.67, -26.06 33.66 M0 0 C-1.59 3.62, -5.21 16.09, -9.55 21.7 C-13.89 27.31, -23.31 31.67, -26.06 33.66" stroke="#1e1e1e" stroke-width="4" fill="none"></path></g></g><mask></mask><g stroke-linecap="round"><g transform="translate(61.26930836120573 22.017104704517806) rotate(357.4035127090367 12.929752582104356 16.701887512589565)"><path d="M0 0 C1.58 3.59, 5.16 15.97, 9.47 21.53 C13.78 27.1, 23.13 31.43, 25.86 33.4 M0 0 C1.58 3.59, 5.16 15.97, 9.47 21.53 C13.78 27.1, 23.13 31.43, 25.86 33.4" stroke="#1e1e1e" stroke-width="4" fill="none"></path></g></g><mask></mask><g stroke-linecap="round"><g transform="translate(52.14101973653305 22.75817084949722) rotate(0 -12.04508451884658 17.830807278949123)"><path d="M0 0 C-1.15 2.72, -2.89 10.35, -6.9 16.29 C-10.92 22.23, -21.23 32.43, -24.09 35.66 M0 0 C-1.15 2.72, -2.89 10.35, -6.9 16.29 C-10.92 22.23, -21.23 32.43, -24.09 35.66" stroke="#1e1e1e" stroke-width="4" fill="none"></path></g></g><mask></mask><g stroke-linecap="round"><g transform="translate(68.64275068457391 22.39070318499398) rotate(357.4035127090367 11.95163662401228 17.692472724233994)"><path d="M0 0 C1.14 2.69, 2.86 10.27, 6.85 16.16 C10.83 22.06, 21.06 32.18, 23.9 35.38 M0 0 C1.14 2.69, 2.86 10.27, 6.85 16.16 C10.83 22.06, 21.06 32.18, 23.9 35.38" stroke="#1e1e1e" stroke-width="4" fill="none"></path></g></g><mask></mask><g stroke-linecap="round"><g transform="translate(44.69985084507334 22.868040047139402) rotate(0 -7.383602715810866 17.107744490076584)"><path d="M0 0 C-1.15 2.72, -4.44 10.59, -6.9 16.29 C-9.36 21.99, -13.46 31.23, -14.77 34.22 M0 0 C-1.15 2.72, -4.44 10.59, -6.9 16.29 C-9.36 21.99, -13.46 31.23, -14.77 34.22" stroke="#1e1e1e" stroke-width="4" fill="none"></path></g></g><mask></mask><g stroke-linecap="round"><g transform="translate(78.69916577040476 22.4216936888497) rotate(357.4035127090367 5.975158544918941 16.92123862445942)"><path d="M0 0 C0.69 2.68, 2.15 10.42, 4.15 16.06 C6.14 21.7, 10.65 30.88, 11.95 33.84 M0 0 C0.69 2.68, 2.15 10.42, 4.15 16.06 C6.14 21.7, 10.65 30.88, 11.95 33.84" stroke="#1e1e1e" stroke-width="4" fill="none"></path></g></g><mask></mask><g stroke-linecap="round"><g transform="translate(34.1346441015512 22.75064657771054) rotate(0 -2.9623692200771075 17.396367797997755)"><path d="M0 0 C-0.51 2.86, -2.09 11.34, -3.08 17.14 C-4.07 22.94, -5.45 31.85, -5.92 34.79 M0 0 C-0.51 2.86, -2.09 11.34, -3.08 17.14 C-4.07 22.94, -5.45 31.85, -5.92 34.79" stroke="#1e1e1e" stroke-width="4" fill="none"></path></g></g><mask></mask><g stroke-linecap="round"><g transform="translate(86.4804728703366 21.98256644468438) rotate(357.4035127090367 2.9393866360273933 17.26140370156918)"><path d="M0 0 C0.51 2.83, 2.08 11.25, 3.06 17.01 C4.04 22.76, 5.41 31.6, 5.88 34.52 M0 0 C0.51 2.83, 2.08 11.25, 3.06 17.01 C4.04 22.76, 5.41 31.6, 5.88 34.52" stroke="#1e1e1e" stroke-width="4" fill="none"></path></g></g><mask></mask><g stroke-linecap="round"><g transform="translate(26.905518148292686 24.877548742420913) rotate(0 -2.9623692200771075 17.396367797997755)"><path d="M0 0 C-0.07 2.93, 0.55 11.79, -0.44 17.59 C-1.42 23.39, -5.01 31.93, -5.92 34.79 M0 0 C-0.07 2.93, 0.55 11.79, -0.44 17.59 C-1.42 23.39, -5.01 31.93, -5.92 34.79" stroke="#1e1e1e" stroke-width="4" fill="none"></path></g></g><mask></mask><g stroke-linecap="round"><g transform="translate(97.42092403928109 22.551265318715195) rotate(357.4035127090367 -0.5505897283110244 17.864429661926806)"><path d="M0 0 C-0.55 3.11, -3.64 12.7, -3.27 18.66 C-2.91 24.61, 1.26 32.88, 2.17 35.73 M0 0 C-0.55 3.11, -3.64 12.7, -3.27 18.66 C-2.91 24.61, 1.26 32.88, 2.17 35.73" stroke="#1e1e1e" stroke-width="4" fill="none"></path></g></g><mask></mask><g stroke-linecap="round"><g transform="translate(30.325433114834595 58.069291987107135) rotate(0 5.548614869184803 15.472272918423187)"><path d="M0 0 C0.36 2.7, 0.28 11.03, 2.13 16.19 C3.98 21.35, 9.6 28.49, 11.1 30.94 M0 0 C0.36 2.7, 0.28 11.03, 2.13 16.19 C3.98 21.35, 9.6 28.49, 11.1 30.94" stroke="#1e1e1e" stroke-width="4" fill="none"></path></g></g><mask></mask><g stroke-linecap="round"><g transform="translate(87.47133652008597 58.59062793061457) rotate(357.4035127090367 -2.2379052086903357 14.67999007205026)"><path d="M0 0 C0.37 2.45, 3.32 9.82, 2.21 14.72 C1.1 19.61, -5.2 26.92, -6.69 29.36 M0 0 C0.37 2.45, 3.32 9.82, 2.21 14.72 C1.1 19.61, -5.2 26.92, -6.69 29.36" stroke="#1e1e1e" stroke-width="4" fill="none"></path></g></g><mask></mask><g stroke-linecap="round"><g transform="translate(27.373749127111296 58.10646952557363) rotate(0 3.184530194690069 14.913457533874407)"><path d="M0 0 C0.36 2.7, 1.07 11.22, 2.13 16.19 C3.19 21.16, 5.66 27.55, 6.37 29.83 M0 0 C0.36 2.7, 1.07 11.22, 2.13 16.19 C3.19 21.16, 5.66 27.55, 6.37 29.83" stroke="#1e1e1e" stroke-width="4" fill="none"></path></g></g><mask></mask><g stroke-linecap="round"><g transform="translate(94.66593691520939 57.00300621725455) rotate(357.4035127090367 -3.1598240465291383 14.797756294164174)"><path d="M0 0 C-0.35 2.68, -1.06 11.13, -2.12 16.06 C-3.17 21, -5.62 27.34, -6.32 29.6 M0 0 C-0.35 2.68, -1.06 11.13, -2.12 16.06 C-3.17 21, -5.62 27.34, -6.32 29.6" stroke="#1e1e1e" stroke-width="4" fill="none"></path></g></g><mask></mask><g stroke-linecap="round"><g transform="translate(25.345581531633798 58.89191316540018) rotate(0 0.484728847756287 17.739300404492496)"><path d="M0 0 C0.19 2.82, 1.13 11.02, 1.11 16.93 C1.09 22.85, 0.07 32.39, -0.14 35.48 M0 0 C0.19 2.82, 1.13 11.02, 1.11 16.93 C1.09 22.85, 0.07 32.39, -0.14 35.48" stroke="#1e1e1e" stroke-width="4" fill="none"></path></g></g><mask></mask><g stroke-linecap="round"><g transform="translate(96.83588188583963 57.56616363501689) rotate(357.4035127090367 -0.48096823567266256 17.601675776284537)"><path d="M0 0 C-0.18 2.8, -1.13 10.93, -1.1 16.8 C-1.08 22.67, -0.07 32.14, 0.14 35.2 M0 0 C-0.18 2.8, -1.13 10.93, -1.1 16.8 C-1.08 22.67, -0.07 32.14, 0.14 35.2" stroke="#1e1e1e" stroke-width="4" fill="none"></path></g></g><mask></mask><g stroke-linecap="round"><g transform="translate(20.885161631982555 61.77304365553482) rotate(0 -3.4242001963375515 16.6908286419075)"><path d="M0 0 C0.19 2.82, 2.44 11.37, 1.11 16.93 C-0.22 22.5, -6.45 30.64, -7.96 33.38 M0 0 C0.19 2.82, 2.44 11.37, 1.11 16.93 C-0.22 22.5, -6.45 30.64, -7.96 33.38" stroke="#1e1e1e" stroke-width="4" fill="none"></path></g></g><mask></mask><g stroke-linecap="round"><g transform="translate(101.33576161700421 60.05621463325588) rotate(357.4035127090367 3.397634645938979 16.56133824296603)"><path d="M0 0 C-0.18 2.8, -2.42 11.28, -1.1 16.8 C0.21 22.32, 6.4 30.4, 7.9 33.12 M0 0 C-0.18 2.8, -2.42 11.28, -1.1 16.8 C0.21 22.32, 6.4 30.4, 7.9 33.12" stroke="#1e1e1e" stroke-width="4" fill="none"></path></g></g><mask></mask><g stroke-linecap="round"><g transform="translate(28.033680880776046 51.838632322808735) rotate(83.76270780768434 -0.6106672458463436 7.1144718897512575)"><path d="M0 0 C-0.41 1, -2.65 3.61, -2.44 5.98 C-2.24 8.35, 0.61 12.85, 1.22 14.23 M0 0 C-0.41 1, -2.65 3.61, -2.44 5.98 C-2.24 8.35, 0.61 12.85, 1.22 14.23" stroke="#1e1e1e" stroke-width="4" fill="none"></path></g></g><mask></mask><g stroke-linecap="round"><g transform="translate(93.37561683786862 50.65690075605107) rotate(273.6408049013524 0.6059295814088728 7.059276559247792)"><path d="M0 0 C0.4 0.99, 2.63 3.58, 2.43 5.94 C2.22 8.29, -0.61 12.75, -1.21 14.12 M0 0 C0.4 0.99, 2.63 3.58, 2.43 5.94 C2.22 8.29, -0.61 12.75, -1.21 14.12" stroke="#1e1e1e" stroke-width="4" fill="none"></path></g></g><mask></mask><g stroke-linecap="round"><g transform="translate(27.77246253960402 77.81925662262984) rotate(83.76270780768434 0.06823570012284108 13.867762193631279)"><path d="M0 0 C-0.7 1.09, -4.9 4.25, -4.18 6.53 C-3.46 8.8, 4.21 11.32, 4.32 13.65 C4.43 15.98, -3.08 18.14, -3.52 20.49 C-3.96 22.83, 0.8 26.53, 1.67 27.74 M0 0 C-0.7 1.09, -4.9 4.25, -4.18 6.53 C-3.46 8.8, 4.21 11.32, 4.32 13.65 C4.43 15.98, -3.08 18.14, -3.52 20.49 C-3.96 22.83, 0.8 26.53, 1.67 27.74" stroke="#1e1e1e" stroke-width="4" fill="none"></path></g></g><mask></mask><g stroke-linecap="round"><g transform="translate(95.10659807576758 76.41985803519128) rotate(273.6408049013524 -0.06770631549943573 13.760173643212056)"><path d="M0 0 C0.69 1.08, 4.86 4.22, 4.15 6.48 C3.44 8.73, -4.18 11.24, -4.28 13.55 C-4.39 15.85, 3.06 18, 3.49 20.33 C3.93 22.66, -0.8 26.32, -1.65 27.52 M0 0 C0.69 1.08, 4.86 4.22, 4.15 6.48 C3.44 8.73, -4.18 11.24, -4.28 13.55 C-4.39 15.85, 3.06 18, 3.49 20.33 C3.93 22.66, -0.8 26.32, -1.65 27.52" stroke="#1e1e1e" stroke-width="4" fill="none"></path></g></g><mask></mask><g transform="translate(39.310754812418054 56.826316210810546) rotate(0 21.877969072326778 14.93536022004173)"><text x="21.877969072326596" y="24.03659535412949" font-family="Cascadia, Segoe UI Emoji" font-size="24.892267033402707px" fill="#1e1e1e" text-anchor="middle" style="white-space: pre;" direction="ltr" dominant-baseline="alphabetic">VIP</text></g><g stroke-linecap="round" transform="translate(10 10.00000000000091) rotate(0 49.866443441365846 50.977741637668714)"><path d="M99.73 50.98 C99.73 53.2, 99.59 55.43, 99.31 57.63 C99.02 59.83, 98.6 62.03, 98.03 64.17 C97.47 66.31, 96.77 68.44, 95.94 70.49 C95.11 72.54, 94.14 74.55, 93.05 76.47 C91.97 78.39, 90.75 80.25, 89.43 82.01 C88.11 83.77, 86.66 85.46, 85.13 87.02 C83.59 88.59, 81.94 90.07, 80.22 91.42 C78.5 92.77, 76.68 94.02, 74.8 95.13 C72.92 96.23, 70.95 97.23, 68.95 98.08 C66.95 98.92, 64.87 99.64, 62.77 100.22 C60.68 100.79, 58.53 101.23, 56.38 101.52 C54.22 101.81, 52.04 101.96, 49.87 101.96 C47.7 101.96, 45.51 101.81, 43.36 101.52 C41.21 101.23, 39.06 100.79, 36.96 100.22 C34.86 99.64, 32.79 98.92, 30.78 98.08 C28.78 97.23, 26.81 96.23, 24.93 95.13 C23.05 94.02, 21.23 92.77, 19.51 91.42 C17.79 90.07, 16.14 88.59, 14.61 87.02 C13.07 85.46, 11.63 83.77, 10.3 82.01 C8.98 80.25, 7.77 78.39, 6.68 76.47 C5.6 74.55, 4.63 72.54, 3.8 70.49 C2.97 68.44, 2.26 66.31, 1.7 64.17 C1.14 62.03, 0.71 59.83, 0.43 57.63 C0.14 55.43, 0 53.2, 0 50.98 C0 48.76, 0.14 46.52, 0.43 44.32 C0.71 42.12, 1.14 39.93, 1.7 37.78 C2.26 35.64, 2.97 33.52, 3.8 31.47 C4.63 29.42, 5.6 27.41, 6.68 25.49 C7.77 23.57, 8.98 21.7, 10.3 19.94 C11.63 18.18, 13.07 16.5, 14.61 14.93 C16.14 13.36, 17.79 11.88, 19.51 10.53 C21.23 9.18, 23.05 7.94, 24.93 6.83 C26.81 5.72, 28.78 4.73, 30.78 3.88 C32.79 3.03, 34.86 2.31, 36.96 1.74 C39.06 1.16, 41.21 0.73, 43.36 0.44 C45.51 0.15, 47.7 0, 49.87 0 C52.04 0, 54.22 0.15, 56.38 0.44 C58.53 0.73, 60.68 1.16, 62.77 1.74 C64.87 2.31, 66.95 3.03, 68.95 3.88 C70.95 4.73, 72.92 5.72, 74.8 6.83 C76.68 7.94, 78.5 9.18, 80.22 10.53 C81.94 11.88, 83.59 13.36, 85.13 14.93 C86.66 16.5, 88.11 18.18, 89.43 19.94 C90.75 21.7, 91.97 23.57, 93.05 25.49 C94.14 27.41, 95.11 29.42, 95.94 31.47 C96.77 33.52, 97.47 35.64, 98.03 37.78 C98.6 39.93, 99.02 42.12, 99.31 44.32 C99.59 46.52, 99.66 49.87, 99.73 50.98 C99.8 52.09, 99.8 49.87, 99.73 50.98" stroke="#1e1e1e" stroke-width="4" fill="none"></path></g></svg>