<svg version="1.1" xmlns="http://www.w3.org/2000/svg" viewBox="0 0 90.24762257125076 123.29711378069987" width="90.24762257125076" height="123.29711378069987">
  <!-- svg-source:excalidraw -->
  
  <defs>
    <style class="style-fonts">
      @font-face {
        font-family: "Virgil";
        src: url("https://excalidraw.com/Virgil.woff2");
      }
      @font-face {
        font-family: "Cascadia";
        src: url("https://excalidraw.com/Cascadia.woff2");
      }
      @font-face {
        font-family: "Assistant";
        src: url("https://excalidraw.com/Assistant-Regular.woff2");
      }
    </style>
    
  </defs>
  <g stroke-linecap="round" transform="translate(10 46.32351072686288) rotate(0 35.12381128562538 33.4868015269185)"><path d="M16.74 0 C29.67 0, 42.6 0, 53.5 0 M16.74 0 C26.32 0, 35.89 0, 53.5 0 M53.5 0 C64.67 0, 70.25 5.58, 70.25 16.74 M53.5 0 C64.67 0, 70.25 5.58, 70.25 16.74 M70.25 16.74 C70.25 25.9, 70.25 35.05, 70.25 50.23 M70.25 16.74 C70.25 24.98, 70.25 33.22, 70.25 50.23 M70.25 50.23 C70.25 61.39, 64.67 66.97, 53.5 66.97 M70.25 50.23 C70.25 61.39, 64.67 66.97, 53.5 66.97 M53.5 66.97 C44.2 66.97, 34.9 66.97, 16.74 66.97 M53.5 66.97 C42.21 66.97, 30.91 66.97, 16.74 66.97 M16.74 66.97 C5.58 66.97, 0 61.39, 0 50.23 M16.74 66.97 C5.58 66.97, 0 61.39, 0 50.23 M0 50.23 C0 40.23, 0 30.24, 0 16.74 M0 50.23 C0 40.32, 0 30.42, 0 16.74 M0 16.74 C0 5.58, 5.58 0, 16.74 0 M0 16.74 C0 5.58, 5.58 0, 16.74 0" stroke="#1e1e1e" stroke-width="4" fill="none"></path></g><g stroke-linecap="round" transform="translate(40.61838943629664 67.31687720093214) rotate(0 5.417879584264483 5.346145452300789)"><path d="M10.84 5.35 C10.84 5.66, 10.81 5.97, 10.75 6.27 C10.7 6.58, 10.62 6.88, 10.51 7.17 C10.4 7.47, 10.27 7.75, 10.11 8.02 C9.95 8.29, 9.77 8.55, 9.57 8.78 C9.37 9.02, 9.14 9.24, 8.9 9.44 C8.66 9.64, 8.4 9.82, 8.13 9.98 C7.86 10.13, 7.57 10.26, 7.27 10.37 C6.98 10.48, 6.67 10.56, 6.36 10.61 C6.05 10.66, 5.73 10.69, 5.42 10.69 C5.1 10.69, 4.79 10.66, 4.48 10.61 C4.17 10.56, 3.86 10.48, 3.56 10.37 C3.27 10.26, 2.98 10.13, 2.71 9.98 C2.44 9.82, 2.18 9.64, 1.94 9.44 C1.7 9.24, 1.47 9.02, 1.27 8.78 C1.07 8.55, 0.88 8.29, 0.73 8.02 C0.57 7.75, 0.43 7.47, 0.33 7.17 C0.22 6.88, 0.14 6.58, 0.08 6.27 C0.03 5.97, 0 5.66, 0 5.35 C0 5.04, 0.03 4.72, 0.08 4.42 C0.14 4.11, 0.22 3.81, 0.33 3.52 C0.43 3.23, 0.57 2.94, 0.73 2.67 C0.88 2.41, 1.07 2.15, 1.27 1.91 C1.47 1.67, 1.7 1.45, 1.94 1.25 C2.18 1.05, 2.44 0.87, 2.71 0.72 C2.98 0.56, 3.27 0.43, 3.56 0.32 C3.86 0.22, 4.17 0.13, 4.48 0.08 C4.79 0.03, 5.1 0, 5.42 0 C5.73 0, 6.05 0.03, 6.36 0.08 C6.67 0.13, 6.98 0.22, 7.27 0.32 C7.57 0.43, 7.86 0.56, 8.13 0.72 C8.4 0.87, 8.66 1.05, 8.9 1.25 C9.14 1.45, 9.37 1.67, 9.57 1.91 C9.77 2.15, 9.95 2.41, 10.11 2.67 C10.27 2.94, 10.4 3.23, 10.51 3.52 C10.62 3.81, 10.7 4.11, 10.75 4.42 C10.81 4.72, 10.82 5.19, 10.84 5.35 C10.85 5.5, 10.85 5.19, 10.84 5.35" stroke="none" stroke-width="0" fill="#1e1e1e"></path><path d="M10.84 5.35 C10.84 5.66, 10.81 5.97, 10.75 6.27 C10.7 6.58, 10.62 6.88, 10.51 7.17 C10.4 7.47, 10.27 7.75, 10.11 8.02 C9.95 8.29, 9.77 8.55, 9.57 8.78 C9.37 9.02, 9.14 9.24, 8.9 9.44 C8.66 9.64, 8.4 9.82, 8.13 9.98 C7.86 10.13, 7.57 10.26, 7.27 10.37 C6.98 10.48, 6.67 10.56, 6.36 10.61 C6.05 10.66, 5.73 10.69, 5.42 10.69 C5.1 10.69, 4.79 10.66, 4.48 10.61 C4.17 10.56, 3.86 10.48, 3.56 10.37 C3.27 10.26, 2.98 10.13, 2.71 9.98 C2.44 9.82, 2.18 9.64, 1.94 9.44 C1.7 9.24, 1.47 9.02, 1.27 8.78 C1.07 8.55, 0.88 8.29, 0.73 8.02 C0.57 7.75, 0.43 7.47, 0.33 7.17 C0.22 6.88, 0.14 6.58, 0.08 6.27 C0.03 5.97, 0 5.66, 0 5.35 C0 5.04, 0.03 4.72, 0.08 4.42 C0.14 4.11, 0.22 3.81, 0.33 3.52 C0.43 3.23, 0.57 2.94, 0.73 2.67 C0.88 2.41, 1.07 2.15, 1.27 1.91 C1.47 1.67, 1.7 1.45, 1.94 1.25 C2.18 1.05, 2.44 0.87, 2.71 0.72 C2.98 0.56, 3.27 0.43, 3.56 0.32 C3.86 0.22, 4.17 0.13, 4.48 0.08 C4.79 0.03, 5.1 0, 5.42 0 C5.73 0, 6.05 0.03, 6.36 0.08 C6.67 0.13, 6.98 0.22, 7.27 0.32 C7.57 0.43, 7.86 0.56, 8.13 0.72 C8.4 0.87, 8.66 1.05, 8.9 1.25 C9.14 1.45, 9.37 1.67, 9.57 1.91 C9.77 2.15, 9.95 2.41, 10.11 2.67 C10.27 2.94, 10.4 3.23, 10.51 3.52 C10.62 3.81, 10.7 4.11, 10.75 4.42 C10.81 4.72, 10.82 5.19, 10.84 5.35 C10.85 5.5, 10.85 5.19, 10.84 5.35" stroke="#1e1e1e" stroke-width="4" fill="none"></path></g><g stroke-linecap="round" transform="translate(42.71688062691646 75.7020178504863) rotate(0 2.8668004040546293 10.304804756961857)"><path d="M1.43 0 C2.24 0, 3.04 0, 4.3 0 C5.26 0, 5.73 0.48, 5.73 1.43 C5.73 7.58, 5.73 13.73, 5.73 19.18 C5.73 20.13, 5.26 20.61, 4.3 20.61 C3.49 20.61, 2.68 20.61, 1.43 20.61 C0.48 20.61, 0 20.13, 0 19.18 C0 14.49, 0 9.8, 0 1.43 C0 0.48, 0.48 0, 1.43 0" stroke="none" stroke-width="0" fill="#1e1e1e"></path><path d="M1.43 0 C2.41 0, 3.39 0, 4.3 0 M1.43 0 C2.33 0, 3.24 0, 4.3 0 M4.3 0 C5.26 0, 5.73 0.48, 5.73 1.43 M4.3 0 C5.26 0, 5.73 0.48, 5.73 1.43 M5.73 1.43 C5.73 7.25, 5.73 13.06, 5.73 19.18 M5.73 1.43 C5.73 5.97, 5.73 10.51, 5.73 19.18 M5.73 19.18 C5.73 20.13, 5.26 20.61, 4.3 20.61 M5.73 19.18 C5.73 20.13, 5.26 20.61, 4.3 20.61 M4.3 20.61 C3.23 20.61, 2.17 20.61, 1.43 20.61 M4.3 20.61 C3.56 20.61, 2.81 20.61, 1.43 20.61 M1.43 20.61 C0.48 20.61, 0 20.13, 0 19.18 M1.43 20.61 C0.48 20.61, 0 20.13, 0 19.18 M0 19.18 C0 15.48, 0 11.79, 0 1.43 M0 19.18 C0 14.69, 0 10.21, 0 1.43 M0 1.43 C0 0.48, 0.48 0, 1.43 0 M0 1.43 C0 0.48, 0.48 0, 1.43 0" stroke="#1e1e1e" stroke-width="4" fill="none"></path></g><g stroke-linecap="round" transform="translate(48.4294422460589 83.19117035128693) rotate(0 2.8668004040546293 1.5312540695645112)"><path d="M0.77 0 C2.4 0, 4.03 0, 4.97 0 C5.48 0, 5.73 0.26, 5.73 0.77 C5.73 1.27, 5.73 1.77, 5.73 2.3 C5.73 2.81, 5.48 3.06, 4.97 3.06 C3.82 3.06, 2.66 3.06, 0.77 3.06 C0.26 3.06, 0 2.81, 0 2.3 C0 1.83, 0 1.36, 0 0.77 C0 0.26, 0.26 0, 0.77 0" stroke="none" stroke-width="0" fill="#1e1e1e"></path><path d="M0.77 0 C2.18 0, 3.59 0, 4.97 0 M0.77 0 C2.35 0, 3.94 0, 4.97 0 M4.97 0 C5.48 0, 5.73 0.26, 5.73 0.77 M4.97 0 C5.48 0, 5.73 0.26, 5.73 0.77 M5.73 0.77 C5.73 1.23, 5.73 1.7, 5.73 2.3 M5.73 0.77 C5.73 1.21, 5.73 1.66, 5.73 2.3 M5.73 2.3 C5.73 2.81, 5.48 3.06, 4.97 3.06 M5.73 2.3 C5.73 2.81, 5.48 3.06, 4.97 3.06 M4.97 3.06 C3.79 3.06, 2.62 3.06, 0.77 3.06 M4.97 3.06 C3.37 3.06, 1.76 3.06, 0.77 3.06 M0.77 3.06 C0.26 3.06, 0 2.81, 0 2.3 M0.77 3.06 C0.26 3.06, 0 2.81, 0 2.3 M0 2.3 C0 1.75, 0 1.21, 0 0.77 M0 2.3 C0 1.89, 0 1.49, 0 0.77 M0 0.77 C0 0.26, 0.26 0, 0.77 0 M0 0.77 C0 0.26, 0.26 0, 0.77 0" stroke="#1e1e1e" stroke-width="4" fill="none"></path></g><g stroke-linecap="round" transform="translate(49.08682408805089 91.90842393596267) rotate(0 2.8668004040546293 1.5312540695645112)"><path d="M0.77 0 C1.87 0, 2.98 0, 4.97 0 M0.77 0 C2.24 0, 3.72 0, 4.97 0 M4.97 0 C5.48 0, 5.73 0.26, 5.73 0.77 M4.97 0 C5.48 0, 5.73 0.26, 5.73 0.77 M5.73 0.77 C5.73 1.13, 5.73 1.49, 5.73 2.3 M5.73 0.77 C5.73 1.15, 5.73 1.53, 5.73 2.3 M5.73 2.3 C5.73 2.81, 5.48 3.06, 4.97 3.06 M5.73 2.3 C5.73 2.81, 5.48 3.06, 4.97 3.06 M4.97 3.06 C3.45 3.06, 1.92 3.06, 0.77 3.06 M4.97 3.06 C3.3 3.06, 1.64 3.06, 0.77 3.06 M0.77 3.06 C0.26 3.06, 0 2.81, 0 2.3 M0.77 3.06 C0.26 3.06, 0 2.81, 0 2.3 M0 2.3 C0 1.89, 0 1.48, 0 0.77 M0 2.3 C0 1.73, 0 1.17, 0 0.77 M0 0.77 C0 0.26, 0.26 0, 0.77 0 M0 0.77 C0 0.26, 0.26 0, 0.77 0" stroke="#1e1e1e" stroke-width="4" fill="none"></path></g><g stroke-linecap="round"><g transform="translate(28.86170307412067 44.98498045703673) rotate(0 16.783021161425495 -11.832530701042742)"><path d="M0 0 C0.58 -4.04, -1.39 -20.31, 3.5 -24.23 C8.38 -28.16, 24.3 -27.7, 29.31 -23.57 C34.32 -19.43, 32.86 -3.45, 33.57 0.57 M0 0 C0.58 -4.04, -1.39 -20.31, 3.5 -24.23 C8.38 -28.16, 24.3 -27.7, 29.31 -23.57 C34.32 -19.43, 32.86 -3.45, 33.57 0.57" stroke="#1e1e1e" stroke-width="4" fill="none"></path></g></g><mask></mask><g stroke-linecap="round"><g transform="translate(19.56174128505063 46.48200429870303) rotate(0 25.08976351527599 -16.56228916793998)"><path d="M0 0 C1.05 -5.52, -0.88 -27.84, 6.32 -33.12 C13.52 -38.41, 35.9 -37.08, 43.21 -31.73 C50.52 -26.37, 49.02 -6.11, 50.18 -0.99 M0 0 C1.05 -5.52, -0.88 -27.84, 6.32 -33.12 C13.52 -38.41, 35.9 -37.08, 43.21 -31.73 C50.52 -26.37, 49.02 -6.11, 50.18 -0.99" stroke="#1e1e1e" stroke-width="4" fill="none"></path></g></g><mask></mask></svg>