<svg version="1.1" xmlns="http://www.w3.org/2000/svg" viewBox="0 0 108.87403821102271 137.5278557888132" width="108.87403821102271" height="137.5278557888132">
  <!-- svg-source:excalidraw -->
  
  <defs>
    <style class="style-fonts">
      @font-face {
        font-family: "Virgil";
        src: url("https://excalidraw.com/Virgil.woff2");
      }
      @font-face {
        font-family: "Cascadia";
        src: url("https://excalidraw.com/Cascadia.woff2");
      }
      @font-face {
        font-family: "Assistant";
        src: url("https://excalidraw.com/Assistant-Regular.woff2");
      }
    </style>
    
  </defs>
  <g transform="translate(26.181407047856737 10) rotate(0 28.693324167190895 58.763927894406606)"><text x="28.6933241671908" y="94.57319645506092" font-family="Cascadia, Segoe UI Emoji" font-size="97.93987982401131px" fill="#1e1e1e" text-anchor="middle" style="white-space: pre;" direction="ltr" dominant-baseline="alphabetic">i</text></g><g stroke-linecap="round" transform="translate(10 25.64944351372833) rotate(0 44.437019105511354 46.55135942728839)"><path d="M88.87 46.55 C88.87 48.76, 88.72 50.99, 88.42 53.18 C88.12 55.36, 87.67 57.55, 87.07 59.67 C86.48 61.79, 85.73 63.88, 84.86 65.89 C83.98 67.9, 82.96 69.86, 81.82 71.72 C80.68 73.58, 79.4 75.37, 78.02 77.04 C76.64 78.7, 75.13 80.29, 73.54 81.73 C71.94 83.18, 70.23 84.52, 68.46 85.71 C66.69 86.91, 64.81 87.98, 62.9 88.9 C60.98 89.81, 58.98 90.59, 56.96 91.22 C54.93 91.84, 52.85 92.31, 50.76 92.63 C48.67 92.94, 46.55 93.1, 44.44 93.1 C42.33 93.1, 40.2 92.94, 38.11 92.63 C36.03 92.31, 33.94 91.84, 31.92 91.22 C29.9 90.59, 27.89 89.81, 25.98 88.9 C24.06 87.98, 22.19 86.91, 20.41 85.71 C18.64 84.52, 16.93 83.18, 15.34 81.73 C13.74 80.29, 12.23 78.7, 10.85 77.04 C9.47 75.37, 8.19 73.58, 7.05 71.72 C5.91 69.86, 4.89 67.9, 4.02 65.89 C3.14 63.88, 2.39 61.79, 1.8 59.67 C1.21 57.55, 0.75 55.36, 0.45 53.18 C0.15 50.99, 0 48.76, 0 46.55 C0 44.34, 0.15 42.11, 0.45 39.93 C0.75 37.74, 1.21 35.56, 1.8 33.44 C2.39 31.32, 3.14 29.22, 4.02 27.21 C4.89 25.2, 5.91 23.24, 7.05 21.38 C8.19 19.53, 9.47 17.74, 10.85 16.07 C12.23 14.4, 13.74 12.82, 15.34 11.37 C16.93 9.92, 18.64 8.58, 20.41 7.39 C22.19 6.2, 24.06 5.12, 25.98 4.21 C27.89 3.29, 29.9 2.51, 31.92 1.89 C33.94 1.26, 36.03 0.79, 38.11 0.47 C40.2 0.16, 42.33 0, 44.44 0 C46.55 0, 48.67 0.16, 50.76 0.47 C52.85 0.79, 54.93 1.26, 56.96 1.89 C58.98 2.51, 60.98 3.29, 62.9 4.21 C64.81 5.12, 66.69 6.2, 68.46 7.39 C70.23 8.58, 71.94 9.92, 73.54 11.37 C75.13 12.82, 76.64 14.4, 78.02 16.07 C79.4 17.74, 80.68 19.53, 81.82 21.38 C82.96 23.24, 83.98 25.2, 84.86 27.21 C85.73 29.22, 86.48 31.32, 87.07 33.44 C87.67 35.56, 88.12 37.74, 88.42 39.93 C88.72 42.11, 88.8 45.45, 88.87 46.55 C88.95 47.66, 88.95 45.45, 88.87 46.55" stroke="#1e1e1e" stroke-width="4" fill="none"></path></g></svg>