<svg version="1.1" xmlns="http://www.w3.org/2000/svg" viewBox="0 0 93.05101013186686 135.71104701006243" width="93.05101013186686" height="135.71104701006243">
  <!-- svg-source:excalidraw -->
  
  <defs>
    <style class="style-fonts">
      @font-face {
        font-family: "Virgil";
        src: url("https://excalidraw.com/Virgil.woff2");
      }
      @font-face {
        font-family: "Cascadia";
        src: url("https://excalidraw.com/Cascadia.woff2");
      }
      @font-face {
        font-family: "Assistant";
        src: url("https://excalidraw.com/Assistant-Regular.woff2");
      }
    </style>
    
  </defs>
  <g stroke-linecap="round"><g transform="translate(47.09283538951968 118.60458975749134) rotate(0 -0.5650800483049352 -54.22689929085982)"><path d="M0 0 C-1.97 -5.42, -8.14 -24.64, -11.8 -32.5 C-15.46 -40.36, -18.49 -42.49, -21.94 -47.15 C-25.38 -51.8, -29.93 -55.24, -32.45 -60.43 C-34.97 -65.62, -37.24 -72.69, -37.09 -78.28 C-36.93 -83.88, -34.47 -89.6, -31.52 -93.97 C-28.57 -98.35, -24.09 -102.11, -19.4 -104.52 C-14.71 -106.94, -8.71 -108.05, -3.4 -108.45 C1.91 -108.86, 7.54 -108.47, 12.46 -106.97 C17.37 -105.47, 22.61 -102.38, 26.09 -99.46 C29.56 -96.54, 31.66 -93.35, 33.31 -89.44 C34.95 -85.53, 35.9 -80.63, 35.96 -75.98 C36.01 -71.34, 35.27 -65.84, 33.65 -61.55 C32.03 -57.25, 28.92 -53.88, 26.23 -50.22 C23.53 -46.56, 20.02 -43.43, 17.46 -39.57 C14.91 -35.72, 13.81 -33.69, 10.9 -27.09 C7.99 -20.5, 1.82 -4.52, 0 0 M0 0 C-1.97 -5.42, -8.14 -24.64, -11.8 -32.5 C-15.46 -40.36, -18.49 -42.49, -21.94 -47.15 C-25.38 -51.8, -29.93 -55.24, -32.45 -60.43 C-34.97 -65.62, -37.24 -72.69, -37.09 -78.28 C-36.93 -83.88, -34.47 -89.6, -31.52 -93.97 C-28.57 -98.35, -24.09 -102.11, -19.4 -104.52 C-14.71 -106.94, -8.71 -108.05, -3.4 -108.45 C1.91 -108.86, 7.54 -108.47, 12.46 -106.97 C17.37 -105.47, 22.61 -102.38, 26.09 -99.46 C29.56 -96.54, 31.66 -93.35, 33.31 -89.44 C34.95 -85.53, 35.9 -80.63, 35.96 -75.98 C36.01 -71.34, 35.27 -65.84, 33.65 -61.55 C32.03 -57.25, 28.92 -53.88, 26.23 -50.22 C23.53 -46.56, 20.02 -43.43, 17.46 -39.57 C14.91 -35.72, 13.81 -33.69, 10.9 -27.09 C7.99 -20.5, 1.82 -4.52, 0 0" stroke="#1e1e1e" stroke-width="4" fill="none"></path></g></g><mask></mask><g transform="translate(21.694689367490355 24.87136706048568) rotate(0 25.6904296875 17.538853296041907)"><text x="25.6904296875" y="28.226592023317348" font-family="Cascadia, Segoe UI Emoji" font-size="29.231422160069744px" fill="#1e1e1e" text-anchor="middle" style="white-space: pre;" direction="ltr" dominant-baseline="alphabetic">MAP</text></g><g stroke-linecap="round" transform="translate(27.368085312301446 110.39140246773059) rotate(0 18.887134198701915 7.659822271165922)"><path d="M37.77 7.66 C37.77 8.1, 37.68 8.55, 37.49 8.99 C37.3 9.43, 37.01 9.86, 36.64 10.28 C36.26 10.7, 35.79 11.11, 35.24 11.49 C34.7 11.87, 34.06 12.24, 33.36 12.58 C32.65 12.92, 31.87 13.24, 31.03 13.53 C30.19 13.81, 29.28 14.07, 28.33 14.29 C27.38 14.52, 26.37 14.71, 25.35 14.86 C24.32 15.01, 23.24 15.13, 22.17 15.2 C21.09 15.28, 19.98 15.32, 18.89 15.32 C17.79 15.32, 16.68 15.28, 15.61 15.2 C14.53 15.13, 13.45 15.01, 12.43 14.86 C11.4 14.71, 10.39 14.52, 9.44 14.29 C8.5 14.07, 7.58 13.81, 6.75 13.53 C5.91 13.24, 5.12 12.92, 4.42 12.58 C3.72 12.24, 3.08 11.87, 2.53 11.49 C1.98 11.11, 1.51 10.7, 1.14 10.28 C0.77 9.86, 0.48 9.43, 0.29 8.99 C0.1 8.55, 0 8.1, 0 7.66 C0 7.22, 0.1 6.77, 0.29 6.33 C0.48 5.89, 0.77 5.46, 1.14 5.04 C1.51 4.62, 1.98 4.21, 2.53 3.83 C3.08 3.45, 3.72 3.08, 4.42 2.74 C5.12 2.4, 5.91 2.08, 6.75 1.79 C7.58 1.51, 8.5 1.25, 9.44 1.03 C10.39 0.8, 11.4 0.61, 12.43 0.46 C13.45 0.31, 14.53 0.19, 15.61 0.12 C16.68 0.04, 17.79 0, 18.89 0 C19.98 0, 21.09 0.04, 22.17 0.12 C23.24 0.19, 24.32 0.31, 25.35 0.46 C26.37 0.61, 27.38 0.8, 28.33 1.03 C29.28 1.25, 30.19 1.51, 31.03 1.79 C31.87 2.08, 32.65 2.4, 33.36 2.74 C34.06 3.08, 34.7 3.45, 35.24 3.83 C35.79 4.21, 36.26 4.62, 36.64 5.04 C37.01 5.46, 37.3 5.89, 37.49 6.33 C37.68 6.77, 37.73 7.44, 37.77 7.66 C37.82 7.88, 37.82 7.44, 37.77 7.66" stroke="#1e1e1e" stroke-width="4" fill="none"></path></g></svg>