<svg version="1.1" xmlns="http://www.w3.org/2000/svg" viewBox="0 0 120.04862912889348 125.1664275266221" width="120.04862912889348" height="125.1664275266221">
  <!-- svg-source:excalidraw -->
  
  <defs>
    <style class="style-fonts">
      @font-face {
        font-family: "Virgil";
        src: url("https://excalidraw.com/Virgil.woff2");
      }
      @font-face {
        font-family: "Cascadia";
        src: url("https://excalidraw.com/Cascadia.woff2");
      }
      @font-face {
        font-family: "Assistant";
        src: url("https://excalidraw.com/Assistant-Regular.woff2");
      }
    </style>
    
  </defs>
  <g stroke-linecap="round" transform="translate(17.403135472340182 21.751823700125897) rotate(0 31.85996574089404 38.16209759764979)"><path d="M63.72 38.16 C63.72 40.15, 63.59 42.17, 63.33 44.13 C63.07 46.1, 62.67 48.06, 62.16 49.95 C61.65 51.85, 61 53.71, 60.25 55.49 C59.49 57.26, 58.61 58.98, 57.64 60.59 C56.66 62.2, 55.56 63.74, 54.39 65.15 C53.21 66.55, 51.93 67.87, 50.59 69.04 C49.24 70.21, 47.8 71.26, 46.32 72.16 C44.84 73.07, 43.29 73.84, 41.71 74.46 C40.13 75.07, 38.48 75.54, 36.84 75.85 C35.2 76.17, 33.52 76.32, 31.86 76.32 C30.2 76.32, 28.52 76.17, 26.88 75.85 C25.24 75.54, 23.59 75.07, 22.01 74.46 C20.43 73.84, 18.88 73.07, 17.4 72.16 C15.92 71.26, 14.48 70.21, 13.13 69.04 C11.79 67.87, 10.51 66.55, 9.33 65.15 C8.16 63.74, 7.06 62.2, 6.08 60.59 C5.11 58.98, 4.23 57.26, 3.47 55.49 C2.72 53.71, 2.07 51.85, 1.56 49.95 C1.05 48.06, 0.65 46.1, 0.39 44.13 C0.13 42.17, 0 40.15, 0 38.16 C0 36.17, 0.13 34.16, 0.39 32.19 C0.65 30.23, 1.05 28.26, 1.56 26.37 C2.07 24.48, 2.72 22.61, 3.47 20.84 C4.23 19.06, 5.11 17.34, 6.08 15.73 C7.06 14.12, 8.16 12.58, 9.33 11.18 C10.51 9.77, 11.79 8.46, 13.13 7.29 C14.48 6.12, 15.92 5.06, 17.4 4.16 C18.88 3.26, 20.43 2.48, 22.01 1.87 C23.59 1.25, 25.24 0.78, 26.88 0.47 C28.52 0.16, 30.2 0, 31.86 0 C33.52 0, 35.2 0.16, 36.84 0.47 C38.48 0.78, 40.13 1.25, 41.71 1.87 C43.29 2.48, 44.84 3.26, 46.32 4.16 C47.8 5.06, 49.24 6.12, 50.59 7.29 C51.93 8.46, 53.21 9.77, 54.39 11.18 C55.56 12.58, 56.66 14.12, 57.64 15.73 C58.61 17.34, 59.49 19.06, 60.25 20.84 C61 22.61, 61.65 24.48, 62.16 26.37 C62.67 28.26, 63.07 30.23, 63.33 32.19 C63.59 34.16, 63.65 37.17, 63.72 38.16 C63.79 39.16, 63.79 37.17, 63.72 38.16" stroke="#1e1e1e" stroke-width="4" fill="none"></path></g><g stroke-linecap="round" transform="translate(34.49746796407817 56.713868274355264) rotate(0 11.421096764810954 4.3182310805009365)"><path d="M22.84 4.32 C22.84 4.57, 22.78 4.82, 22.67 5.07 C22.55 5.31, 22.38 5.56, 22.15 5.8 C21.93 6.03, 21.64 6.26, 21.31 6.48 C20.98 6.69, 20.6 6.9, 20.17 7.09 C19.75 7.29, 19.27 7.47, 18.76 7.63 C18.26 7.79, 17.7 7.93, 17.13 8.06 C16.56 8.18, 15.95 8.29, 15.33 8.38 C14.71 8.46, 14.06 8.53, 13.4 8.57 C12.75 8.61, 12.08 8.64, 11.42 8.64 C10.76 8.64, 10.09 8.61, 9.44 8.57 C8.79 8.53, 8.14 8.46, 7.51 8.38 C6.89 8.29, 6.28 8.18, 5.71 8.06 C5.14 7.93, 4.59 7.79, 4.08 7.63 C3.57 7.47, 3.1 7.29, 2.67 7.09 C2.25 6.9, 1.86 6.69, 1.53 6.48 C1.2 6.26, 0.91 6.03, 0.69 5.8 C0.46 5.56, 0.29 5.31, 0.17 5.07 C0.06 4.82, 0 4.57, 0 4.32 C0 4.07, 0.06 3.81, 0.17 3.57 C0.29 3.32, 0.46 3.08, 0.69 2.84 C0.91 2.61, 1.2 2.38, 1.53 2.16 C1.86 1.94, 2.25 1.73, 2.67 1.54 C3.1 1.35, 3.57 1.17, 4.08 1.01 C4.59 0.85, 5.14 0.7, 5.71 0.58 C6.28 0.45, 6.89 0.35, 7.51 0.26 C8.14 0.17, 8.79 0.11, 9.44 0.07 C10.09 0.02, 10.76 0, 11.42 0 C12.08 0, 12.75 0.02, 13.4 0.07 C14.06 0.11, 14.71 0.17, 15.33 0.26 C15.95 0.35, 16.56 0.45, 17.13 0.58 C17.7 0.7, 18.26 0.85, 18.76 1.01 C19.27 1.17, 19.75 1.35, 20.17 1.54 C20.6 1.73, 20.98 1.94, 21.31 2.16 C21.64 2.38, 21.93 2.61, 22.15 2.84 C22.38 3.08, 22.55 3.32, 22.67 3.57 C22.78 3.81, 22.81 4.19, 22.84 4.32 C22.87 4.44, 22.87 4.19, 22.84 4.32" stroke="#1e1e1e" stroke-width="4" fill="none"></path></g><g stroke-linecap="round" transform="translate(66.0991534036375 59.50576445209481) rotate(6.480490888317328 7.364435804178356 4.018372055279542)"><path d="M14.73 4.02 C14.73 4.25, 14.69 4.49, 14.62 4.72 C14.54 4.95, 14.43 5.17, 14.28 5.39 C14.14 5.61, 13.96 5.83, 13.74 6.03 C13.53 6.23, 13.28 6.42, 13.01 6.6 C12.73 6.78, 12.42 6.95, 12.1 7.1 C11.77 7.25, 11.42 7.38, 11.05 7.5 C10.68 7.61, 10.28 7.71, 9.88 7.79 C9.48 7.87, 9.06 7.94, 8.64 7.98 C8.22 8.02, 7.79 8.04, 7.36 8.04 C6.94 8.04, 6.51 8.02, 6.09 7.98 C5.67 7.94, 5.25 7.87, 4.85 7.79 C4.45 7.71, 4.05 7.61, 3.68 7.5 C3.31 7.38, 2.96 7.25, 2.63 7.1 C2.3 6.95, 2 6.78, 1.72 6.6 C1.45 6.42, 1.2 6.23, 0.99 6.03 C0.77 5.83, 0.59 5.61, 0.44 5.39 C0.3 5.17, 0.19 4.95, 0.11 4.72 C0.04 4.49, 0 4.25, 0 4.02 C0 3.79, 0.04 3.55, 0.11 3.32 C0.19 3.09, 0.3 2.86, 0.44 2.64 C0.59 2.43, 0.77 2.21, 0.99 2.01 C1.2 1.81, 1.45 1.61, 1.72 1.44 C2 1.26, 2.3 1.09, 2.63 0.94 C2.96 0.79, 3.31 0.65, 3.68 0.54 C4.05 0.42, 4.45 0.32, 4.85 0.24 C5.25 0.16, 5.67 0.1, 6.09 0.06 C6.51 0.02, 6.94 0, 7.36 0 C7.79 0, 8.22 0.02, 8.64 0.06 C9.06 0.1, 9.48 0.16, 9.88 0.24 C10.28 0.32, 10.68 0.42, 11.05 0.54 C11.42 0.65, 11.77 0.79, 12.1 0.94 C12.42 1.09, 12.73 1.26, 13.01 1.44 C13.28 1.61, 13.53 1.81, 13.74 2.01 C13.96 2.21, 14.14 2.43, 14.28 2.64 C14.43 2.86, 14.54 3.09, 14.62 3.32 C14.69 3.55, 14.71 3.9, 14.73 4.02 C14.75 4.13, 14.75 3.9, 14.73 4.02" stroke="#1e1e1e" stroke-width="4" fill="none"></path></g><g stroke-linecap="round" transform="translate(39.32499124147853 81.98519857300653) rotate(0 12.146930403919214 2.4952749998346917)"><path d="M24.29 2.5 C24.29 2.64, 24.23 2.79, 24.11 2.93 C23.99 3.07, 23.8 3.21, 23.56 3.35 C23.32 3.48, 23.02 3.62, 22.67 3.74 C22.31 3.87, 21.9 3.99, 21.45 4.1 C21 4.21, 20.49 4.31, 19.95 4.41 C19.42 4.5, 18.83 4.58, 18.22 4.66 C17.61 4.73, 16.96 4.79, 16.3 4.84 C15.64 4.89, 14.95 4.93, 14.26 4.95 C13.56 4.98, 12.85 4.99, 12.15 4.99 C11.44 4.99, 10.73 4.98, 10.04 4.95 C9.35 4.93, 8.65 4.89, 7.99 4.84 C7.33 4.79, 6.68 4.73, 6.07 4.66 C5.46 4.58, 4.88 4.5, 4.34 4.41 C3.8 4.31, 3.29 4.21, 2.84 4.1 C2.39 3.99, 1.98 3.87, 1.63 3.74 C1.28 3.62, 0.97 3.48, 0.73 3.35 C0.49 3.21, 0.31 3.07, 0.18 2.93 C0.06 2.79, 0 2.64, 0 2.5 C0 2.35, 0.06 2.2, 0.18 2.06 C0.31 1.92, 0.49 1.78, 0.73 1.64 C0.97 1.51, 1.28 1.37, 1.63 1.25 C1.98 1.12, 2.39 1, 2.84 0.89 C3.29 0.78, 3.8 0.68, 4.34 0.58 C4.88 0.49, 5.46 0.41, 6.07 0.33 C6.68 0.26, 7.33 0.2, 7.99 0.15 C8.65 0.1, 9.35 0.06, 10.04 0.04 C10.73 0.01, 11.44 0, 12.15 0 C12.85 0, 13.56 0.01, 14.26 0.04 C14.95 0.06, 15.64 0.1, 16.3 0.15 C16.96 0.2, 17.61 0.26, 18.22 0.33 C18.83 0.41, 19.42 0.49, 19.95 0.58 C20.49 0.68, 21 0.78, 21.45 0.89 C21.9 1, 22.31 1.12, 22.67 1.25 C23.02 1.37, 23.32 1.51, 23.56 1.64 C23.8 1.78, 23.99 1.92, 24.11 2.06 C24.23 2.2, 24.26 2.42, 24.29 2.5 C24.32 2.57, 24.32 2.42, 24.29 2.5" stroke="#1e1e1e" stroke-width="4" fill="none"></path></g><g stroke-linecap="round" transform="translate(25.194545701207062 21.191984648728067) rotate(0 42.42704171384321 12.932726603453375)"><path d="M84.85 12.93 C84.85 13.68, 84.64 14.44, 84.21 15.18 C83.78 15.92, 83.14 16.65, 82.3 17.36 C81.46 18.06, 80.4 18.75, 79.17 19.4 C77.94 20.05, 76.51 20.67, 74.93 21.25 C73.35 21.82, 71.58 22.36, 69.7 22.84 C67.82 23.32, 65.77 23.76, 63.64 24.13 C61.51 24.51, 59.25 24.83, 56.94 25.09 C54.63 25.34, 52.21 25.54, 49.79 25.67 C47.38 25.8, 44.88 25.87, 42.43 25.87 C39.97 25.87, 37.48 25.8, 35.06 25.67 C32.64 25.54, 30.22 25.34, 27.92 25.09 C25.61 24.83, 23.34 24.51, 21.21 24.13 C19.09 23.76, 17.04 23.32, 15.16 22.84 C13.27 22.36, 11.5 21.82, 9.93 21.25 C8.35 20.67, 6.91 20.05, 5.68 19.4 C4.46 18.75, 3.4 18.06, 2.56 17.36 C1.72 16.65, 1.07 15.92, 0.64 15.18 C0.22 14.44, 0 13.68, 0 12.93 C0 12.18, 0.22 11.42, 0.64 10.69 C1.07 9.95, 1.72 9.21, 2.56 8.51 C3.4 7.81, 4.46 7.11, 5.68 6.47 C6.91 5.82, 8.35 5.19, 9.93 4.62 C11.5 4.05, 13.27 3.51, 15.16 3.03 C17.04 2.54, 19.09 2.11, 21.21 1.73 C23.34 1.36, 25.61 1.04, 27.92 0.78 C30.22 0.52, 32.64 0.33, 35.06 0.2 C37.48 0.07, 39.97 0, 42.43 0 C44.88 0, 47.38 0.07, 49.79 0.2 C52.21 0.33, 54.63 0.52, 56.94 0.78 C59.25 1.04, 61.51 1.36, 63.64 1.73 C65.77 2.11, 67.82 2.54, 69.7 3.03 C71.58 3.51, 73.35 4.05, 74.93 4.62 C76.51 5.19, 77.94 5.82, 79.17 6.47 C80.4 7.11, 81.46 7.81, 82.3 8.51 C83.14 9.21, 83.78 9.95, 84.21 10.69 C84.64 11.42, 84.75 12.56, 84.85 12.93 C84.96 13.31, 84.96 12.56, 84.85 12.93" stroke="#1e1e1e" stroke-width="4" fill="none"></path></g><g stroke-linecap="round" transform="translate(24.141026682763368 10) rotate(0 22.32410444171137 17.524348004089006)"><path d="M44.65 17.52 C44.65 18.54, 44.53 19.57, 44.31 20.57 C44.08 21.57, 43.74 22.56, 43.3 23.52 C42.86 24.47, 42.3 25.41, 41.66 26.29 C41.01 27.16, 40.26 28.01, 39.43 28.79 C38.59 29.57, 37.66 30.3, 36.67 30.95 C35.68 31.6, 34.61 32.19, 33.49 32.7 C32.37 33.21, 31.17 33.64, 29.96 33.99 C28.75 34.34, 27.47 34.61, 26.2 34.78 C24.93 34.96, 23.62 35.05, 22.32 35.05 C21.03 35.05, 19.72 34.96, 18.45 34.78 C17.18 34.61, 15.9 34.34, 14.69 33.99 C13.47 33.64, 12.28 33.21, 11.16 32.7 C10.04 32.19, 8.96 31.6, 7.97 30.95 C6.98 30.3, 6.05 29.57, 5.22 28.79 C4.39 28.01, 3.64 27.16, 2.99 26.29 C2.34 25.41, 1.79 24.47, 1.35 23.52 C0.9 22.56, 0.56 21.57, 0.34 20.57 C0.11 19.57, 0 18.54, 0 17.52 C0 16.51, 0.11 15.48, 0.34 14.48 C0.56 13.48, 0.9 12.48, 1.35 11.53 C1.79 10.58, 2.34 9.64, 2.99 8.76 C3.64 7.88, 4.39 7.04, 5.22 6.26 C6.05 5.48, 6.98 4.75, 7.97 4.1 C8.96 3.45, 10.04 2.85, 11.16 2.35 C12.28 1.84, 13.47 1.4, 14.69 1.06 C15.9 0.71, 17.18 0.44, 18.45 0.27 C19.72 0.09, 21.03 0, 22.32 0 C23.62 0, 24.93 0.09, 26.2 0.27 C27.47 0.44, 28.75 0.71, 29.96 1.06 C31.17 1.4, 32.37 1.84, 33.49 2.35 C34.61 2.85, 35.68 3.45, 36.67 4.1 C37.66 4.75, 38.59 5.48, 39.43 6.26 C40.26 7.04, 41.01 7.88, 41.66 8.76 C42.3 9.64, 42.86 10.58, 43.3 11.53 C43.74 12.48, 44.08 13.48, 44.31 14.48 C44.53 15.48, 44.59 17.02, 44.65 17.52 C44.7 18.03, 44.7 17.02, 44.65 17.52" stroke="#1e1e1e" stroke-width="4" fill="none"></path></g><g stroke-linecap="round" transform="translate(20.067028176476924 58.96795791326076) rotate(0 0.4675430448323823 4.052699427847529)"><path d="M0.94 4.05 C0.94 4.29, 0.93 4.53, 0.93 4.76 C0.92 4.99, 0.92 5.22, 0.91 5.44 C0.9 5.66, 0.89 5.88, 0.87 6.08 C0.86 6.28, 0.84 6.48, 0.83 6.66 C0.81 6.84, 0.79 7.01, 0.77 7.16 C0.75 7.31, 0.72 7.45, 0.7 7.56 C0.68 7.68, 0.65 7.78, 0.63 7.86 C0.6 7.94, 0.58 8, 0.55 8.04 C0.52 8.08, 0.49 8.11, 0.47 8.11 C0.44 8.11, 0.41 8.08, 0.39 8.04 C0.36 8, 0.33 7.94, 0.31 7.86 C0.28 7.78, 0.26 7.68, 0.23 7.56 C0.21 7.45, 0.19 7.31, 0.17 7.16 C0.15 7.01, 0.13 6.84, 0.11 6.66 C0.09 6.48, 0.08 6.28, 0.06 6.08 C0.05 5.88, 0.04 5.66, 0.03 5.44 C0.02 5.22, 0.01 4.99, 0.01 4.76 C0 4.53, 0 4.29, 0 4.05 C0 3.82, 0 3.58, 0.01 3.35 C0.01 3.12, 0.02 2.89, 0.03 2.67 C0.04 2.45, 0.05 2.23, 0.06 2.03 C0.08 1.82, 0.09 1.63, 0.11 1.45 C0.13 1.27, 0.15 1.1, 0.17 0.95 C0.19 0.8, 0.21 0.66, 0.23 0.54 C0.26 0.43, 0.28 0.32, 0.31 0.24 C0.33 0.16, 0.36 0.1, 0.39 0.06 C0.41 0.02, 0.44 0, 0.47 0 C0.49 0, 0.52 0.02, 0.55 0.06 C0.58 0.1, 0.6 0.16, 0.63 0.24 C0.65 0.32, 0.68 0.43, 0.7 0.54 C0.72 0.66, 0.75 0.8, 0.77 0.95 C0.79 1.1, 0.81 1.27, 0.83 1.45 C0.84 1.63, 0.86 1.82, 0.87 2.03 C0.89 2.23, 0.9 2.45, 0.91 2.67 C0.92 2.89, 0.92 3.12, 0.93 3.35 C0.93 3.58, 0.93 3.94, 0.94 4.05 C0.94 4.17, 0.94 3.94, 0.94 4.05" stroke="#1e1e1e" stroke-width="4" fill="none"></path></g><g stroke-linecap="round" transform="translate(42.9191172956389 59.046934142159444) rotate(0 2.6593847133467534 0.9740715709945107)"><path d="M5.32 0.97 C5.32 1.03, 5.31 1.09, 5.28 1.14 C5.25 1.2, 5.21 1.25, 5.16 1.31 C5.11 1.36, 5.04 1.41, 4.96 1.46 C4.89 1.51, 4.8 1.56, 4.7 1.6 C4.6 1.64, 4.49 1.68, 4.37 1.72 C4.25 1.76, 4.12 1.79, 3.99 1.82 C3.86 1.85, 3.71 1.87, 3.57 1.89 C3.42 1.91, 3.27 1.92, 3.12 1.93 C2.97 1.94, 2.81 1.95, 2.66 1.95 C2.51 1.95, 2.35 1.94, 2.2 1.93 C2.05 1.92, 1.89 1.91, 1.75 1.89 C1.61 1.87, 1.46 1.85, 1.33 1.82 C1.2 1.79, 1.07 1.76, 0.95 1.72 C0.83 1.68, 0.72 1.64, 0.62 1.6 C0.52 1.56, 0.43 1.51, 0.36 1.46 C0.28 1.41, 0.21 1.36, 0.16 1.31 C0.11 1.25, 0.07 1.2, 0.04 1.14 C0.01 1.09, 0 1.03, 0 0.97 C0 0.92, 0.01 0.86, 0.04 0.8 C0.07 0.75, 0.11 0.69, 0.16 0.64 C0.21 0.59, 0.28 0.54, 0.36 0.49 C0.43 0.44, 0.52 0.39, 0.62 0.35 C0.72 0.3, 0.83 0.26, 0.95 0.23 C1.07 0.19, 1.2 0.16, 1.33 0.13 C1.46 0.1, 1.61 0.08, 1.75 0.06 C1.89 0.04, 2.05 0.02, 2.2 0.01 C2.35 0.01, 2.51 0, 2.66 0 C2.81 0, 2.97 0.01, 3.12 0.01 C3.27 0.02, 3.42 0.04, 3.57 0.06 C3.71 0.08, 3.86 0.1, 3.99 0.13 C4.12 0.16, 4.25 0.19, 4.37 0.23 C4.49 0.26, 4.6 0.3, 4.7 0.35 C4.8 0.39, 4.89 0.44, 4.96 0.49 C5.04 0.54, 5.11 0.59, 5.16 0.64 C5.21 0.69, 5.25 0.75, 5.28 0.8 C5.31 0.86, 5.31 0.95, 5.32 0.97 C5.33 1, 5.33 0.95, 5.32 0.97" stroke="#1e1e1e" stroke-width="4" fill="none"></path></g><g stroke-linecap="round" transform="translate(70.05154082534409 61.7327585584826) rotate(0 2.6593847133467534 0.9740715709945107)"><path d="M5.32 0.97 C5.32 1.03, 5.31 1.09, 5.28 1.14 C5.25 1.2, 5.21 1.25, 5.16 1.31 C5.11 1.36, 5.04 1.41, 4.96 1.46 C4.89 1.51, 4.8 1.56, 4.7 1.6 C4.6 1.64, 4.49 1.68, 4.37 1.72 C4.25 1.76, 4.12 1.79, 3.99 1.82 C3.86 1.85, 3.71 1.87, 3.57 1.89 C3.42 1.91, 3.27 1.92, 3.12 1.93 C2.97 1.94, 2.81 1.95, 2.66 1.95 C2.51 1.95, 2.35 1.94, 2.2 1.93 C2.05 1.92, 1.89 1.91, 1.75 1.89 C1.61 1.87, 1.46 1.85, 1.33 1.82 C1.2 1.79, 1.07 1.76, 0.95 1.72 C0.83 1.68, 0.72 1.64, 0.62 1.6 C0.52 1.56, 0.43 1.51, 0.36 1.46 C0.28 1.41, 0.21 1.36, 0.16 1.31 C0.11 1.25, 0.07 1.2, 0.04 1.14 C0.01 1.09, 0 1.03, 0 0.97 C0 0.92, 0.01 0.86, 0.04 0.8 C0.07 0.75, 0.11 0.69, 0.16 0.64 C0.21 0.59, 0.28 0.54, 0.36 0.49 C0.43 0.44, 0.52 0.39, 0.62 0.35 C0.72 0.3, 0.83 0.26, 0.95 0.23 C1.07 0.19, 1.2 0.16, 1.33 0.13 C1.46 0.1, 1.61 0.08, 1.75 0.06 C1.89 0.04, 2.05 0.02, 2.2 0.01 C2.35 0.01, 2.51 0, 2.66 0 C2.81 0, 2.97 0.01, 3.12 0.01 C3.27 0.02, 3.42 0.04, 3.57 0.06 C3.71 0.08, 3.86 0.1, 3.99 0.13 C4.12 0.16, 4.25 0.19, 4.37 0.23 C4.49 0.26, 4.6 0.3, 4.7 0.35 C4.8 0.39, 4.89 0.44, 4.96 0.49 C5.04 0.54, 5.11 0.59, 5.16 0.64 C5.21 0.69, 5.25 0.75, 5.28 0.8 C5.31 0.86, 5.31 0.95, 5.32 0.97 C5.33 1, 5.33 0.95, 5.32 0.97" stroke="#1e1e1e" stroke-width="4" fill="none"></path></g><g stroke-linecap="round" transform="translate(9.99999999999909 98.4613438492297) rotate(0 42.53440176943377 8.352541838696197)"><path d="M85.07 8.35 C85.07 8.84, 84.85 9.33, 84.42 9.8 C84 10.28, 83.35 10.75, 82.5 11.21 C81.66 11.66, 80.6 12.11, 79.37 12.53 C78.14 12.95, 76.7 13.35, 75.12 13.72 C73.54 14.09, 71.76 14.44, 69.87 14.75 C67.99 15.06, 65.93 15.34, 63.8 15.59 C61.67 15.83, 59.4 16.04, 57.08 16.2 C54.77 16.37, 52.35 16.49, 49.92 16.58 C47.5 16.66, 45 16.71, 42.53 16.71 C40.07 16.71, 37.57 16.66, 35.15 16.58 C32.72 16.49, 30.3 16.37, 27.99 16.2 C25.67 16.04, 23.4 15.83, 21.27 15.59 C19.14 15.34, 17.08 15.06, 15.19 14.75 C13.31 14.44, 11.53 14.09, 9.95 13.72 C8.37 13.35, 6.93 12.95, 5.7 12.53 C4.47 12.11, 3.41 11.66, 2.57 11.21 C1.72 10.75, 1.07 10.28, 0.65 9.8 C0.22 9.33, 0 8.84, 0 8.35 C0 7.87, 0.22 7.38, 0.65 6.9 C1.07 6.43, 1.72 5.95, 2.57 5.5 C3.41 5.04, 4.47 4.59, 5.7 4.18 C6.93 3.76, 8.37 3.35, 9.95 2.98 C11.53 2.61, 13.31 2.26, 15.19 1.95 C17.08 1.64, 19.14 1.36, 21.27 1.12 C23.4 0.88, 25.67 0.67, 27.99 0.5 C30.3 0.34, 32.72 0.21, 35.15 0.13 C37.57 0.04, 40.07 0, 42.53 0 C45 0, 47.5 0.04, 49.92 0.13 C52.35 0.21, 54.77 0.34, 57.08 0.5 C59.4 0.67, 61.67 0.88, 63.8 1.12 C65.93 1.36, 67.99 1.64, 69.87 1.95 C71.76 2.26, 73.54 2.61, 75.12 2.98 C76.7 3.35, 78.14 3.76, 79.37 4.18 C80.6 4.59, 81.66 5.04, 82.5 5.5 C83.35 5.95, 84 6.43, 84.42 6.9 C84.85 7.38, 84.96 8.11, 85.07 8.35 C85.18 8.59, 85.18 8.11, 85.07 8.35" stroke="#1e1e1e" stroke-width="4" fill="none"></path></g></svg>