<svg version="1.1" xmlns="http://www.w3.org/2000/svg" viewBox="0 0 134.64736513699427 106.93906840696036" width="134.64736513699427" height="106.93906840696036">
  <!-- svg-source:excalidraw -->
  
  <defs>
    <style class="style-fonts">
      @font-face {
        font-family: "Virgil";
        src: url("https://excalidraw.com/Virgil.woff2");
      }
      @font-face {
        font-family: "Cascadia";
        src: url("https://excalidraw.com/Cascadia.woff2");
      }
      @font-face {
        font-family: "Assistant";
        src: url("https://excalidraw.com/Assistant-Regular.woff2");
      }
    </style>
    
  </defs>
  <g stroke-linecap="round" transform="translate(38.472034140850155 10) rotate(0 43.087665498072056 43.46953420348018)"><path d="M86.18 43.47 C86.18 45.53, 86.03 47.61, 85.74 49.66 C85.45 51.7, 85.01 53.74, 84.43 55.72 C83.85 57.69, 83.13 59.65, 82.28 61.53 C81.43 63.4, 80.44 65.24, 79.34 66.97 C78.23 68.71, 76.99 70.38, 75.65 71.94 C74.31 73.49, 72.85 74.97, 71.3 76.32 C69.76 77.67, 68.1 78.92, 66.38 80.04 C64.66 81.15, 62.85 82.15, 60.99 83.01 C59.13 83.87, 57.19 84.6, 55.23 85.18 C53.27 85.76, 51.24 86.2, 49.22 86.5 C47.2 86.79, 45.13 86.94, 43.09 86.94 C41.04 86.94, 38.98 86.79, 36.96 86.5 C34.93 86.2, 32.91 85.76, 30.95 85.18 C28.99 84.6, 27.05 83.87, 25.19 83.01 C23.33 82.15, 21.51 81.15, 19.79 80.04 C18.07 78.92, 16.42 77.67, 14.87 76.32 C13.33 74.97, 11.86 73.49, 10.52 71.94 C9.19 70.38, 7.95 68.71, 6.84 66.97 C5.73 65.24, 4.74 63.4, 3.89 61.53 C3.04 59.65, 2.32 57.69, 1.75 55.72 C1.17 53.74, 0.73 51.7, 0.44 49.66 C0.15 47.61, 0 45.53, 0 43.47 C0 41.41, 0.15 39.32, 0.44 37.28 C0.73 35.24, 1.17 33.2, 1.75 31.22 C2.32 29.24, 3.04 27.29, 3.89 25.41 C4.74 23.54, 5.73 21.7, 6.84 19.97 C7.95 18.23, 9.19 16.56, 10.52 15 C11.86 13.44, 13.33 11.97, 14.87 10.62 C16.42 9.27, 18.07 8.02, 19.79 6.9 C21.51 5.79, 23.33 4.78, 25.19 3.93 C27.05 3.07, 28.99 2.34, 30.95 1.76 C32.91 1.18, 34.93 0.74, 36.96 0.44 C38.98 0.15, 41.04 0, 43.09 0 C45.13 0, 47.2 0.15, 49.22 0.44 C51.24 0.74, 53.27 1.18, 55.23 1.76 C57.19 2.34, 59.13 3.07, 60.99 3.93 C62.85 4.78, 64.66 5.79, 66.38 6.9 C68.1 8.02, 69.76 9.27, 71.3 10.62 C72.85 11.97, 74.31 13.44, 75.65 15 C76.99 16.56, 78.23 18.23, 79.34 19.97 C80.44 21.7, 81.43 23.54, 82.28 25.41 C83.13 27.29, 83.85 29.24, 84.43 31.22 C85.01 33.2, 85.45 35.24, 85.74 37.28 C86.03 39.32, 86.1 42.44, 86.18 43.47 C86.25 44.5, 86.25 42.44, 86.18 43.47" stroke="#1e1e1e" stroke-width="4" fill="none"></path></g><g stroke-linecap="round"><g transform="translate(81.07185647430379 54.96496370368277) rotate(0 -35.53592823715189 0.1807453077021819)"><path d="M0 0 C-19.41 0.1, -38.81 0.2, -71.07 0.36 M0 0 C-27.5 0.14, -55 0.28, -71.07 0.36" stroke="#1e1e1e" stroke-width="4" fill="none"></path></g></g><mask></mask><g stroke-linecap="round"><g transform="translate(38.95841813166953 20.1042050883907) rotate(0 -14.471247059014786 17.552838282149423)"><path d="M0 0 C-5.88 7.13, -11.76 14.27, -28.94 35.11 M0 0 C-7.17 8.69, -14.33 17.38, -28.94 35.11" stroke="#1e1e1e" stroke-width="4" fill="none"></path></g></g><mask></mask><g stroke-linecap="round"><g transform="translate(42.12726639918765 86.96055903644537) rotate(0 -16.04319887198062 -15.617823550642697)"><path d="M0 0 C-9.38 -9.14, -18.77 -18.27, -32.09 -31.24 M0 0 C-9.28 -9.03, -18.55 -18.06, -32.09 -31.24" stroke="#1e1e1e" stroke-width="4" fill="none"></path></g></g><mask></mask></svg>